<?xml version="1.0" encoding="UTF-8"?>
<svg xmlns="http://www.w3.org/2000/svg" version="1.1" viewBox="0 0 1280 800">
  <!-- Generator: Adobe Illustrator 28.6.0, SVG Export Plug-In . SVG Version: 1.2.0 Build 709)  -->
  <g>
    <g id="Ebene_1">
      <g id="Ebene_1-2" data-name="Ebene_1">
        <g>
          <path d="M499.1,275.3c0,1.1,1.8,1.9,2.3,1.1.3-.4.2-1,0-1.3-.6-1-2.3-.8-2.3.3h0Z"/>
          <path d="M435,280.9c0,.3.5,1,1,1.5s1,.5,1,.1-.5-1-1-1.5-1-.5-1-.1Z"/>
          <path d="M783.1,170.9c-.3.2-.5.7-.5,1.1s.3.3.8-.1c.4-.4.6-.9.5-1.1-.2-.2-.6-.1-.8.1Z"/>
          <path d="M465.6,303.8c-.7.4-.7.9-.2,1.7,1.2,1.9,2.9,1.9,2.9,0s-1.3-2.7-2.7-1.7Z"/>
          <path d="M785.5,181.7c-1,.2-1.5.8-1.5,1.6,0,1.4.8,1.6,2.7.6.9-.5,1.4-.5,1.7,0,.7,1.1,2.3.8,2.3-.3s-2.9-2.7-3.5-2.3c0,0-.8.3-1.6.4Z"/>
          <path d="M530.9,323.2c-.2.4,0,.9.7,1.1,1.3.5,2,0,1.3-1-.5-.9-1.5-.9-2,0h0Z"/>
          <path d="M777.2,193.2c-.9.7-1.4,1.5-1.2,1.7.6.6,3.9-1.2,3.9-2.1s-.9-1-2.7.5Z"/>
          <path d="M781.1,215.1c-1,.9-.5,2.9.8,2.9s2.2-.9,1.7-2.3c-.4-1.1-1.7-1.4-2.5-.6Z"/>
          <path d="M802.7,217.3c0,.3.3.7.7.7s.7-.3.7-.7-.3-.7-.7-.7-.7.3-.7.7Z"/>
          <path d="M767.6,218.5c-.2.4,0,.9.3,1.1,1,.7,1.7-.2.8-1.1-.5-.5-.9-.5-1.1,0h0Z"/>
          <path d="M821.2,219.6c-.3.5-.1,1.1.2,1.3.4.3.7-.2.7-.9,0-1.7-.4-1.8-.9-.4Z"/>
          <path d="M806,222c0,.3.3.7.7.7s.7-.3.7-.7-.3-.7-.7-.7-.7.3-.7.7Z"/>
          <path d="M820,224.6c0,.4-.7,1-1.5,1.3-.9.3-1.1.6-.5.6,1.1,0,3.3-1.5,3.3-2.2s-.3-.4-.7-.4-.7.3-.7.7h0Z"/>
          <path d="M589.4,160.5c0,.5.3.8.7.6.4-.2.7-.7.7-1.1s-.3-.6-.7-.6-.7.5-.7,1.1Z"/>
          <path d="M535,168.3c-.5,1.7-.2,2.2.8,1.5.9-.5,1-3,.1-3s-.7.7-.9,1.5h0Z"/>
          <path d="M688.6,169.5c-.5.9.3,2.1,1.1,1.7.8-.5.8-2.3,0-2.3s-.9.3-1.1.7Z"/>
          <path d="M535.2,175.8c-.5.5-.5,1-.1,1s1-.5,1.5-1,.5-1,.1-1-1,.5-1.5,1Z"/>
          <path d="M684.5,181.2c-.2.6-.2,1.2,0,1.4.6.6,1.8-.4,1.8-1.5s-1.3-1.2-1.8,0Z"/>
          <path d="M577.3,174.9c0,.3.3.7.7.7s.5-.3.3-.7c-.2-.4-.5-.7-.7-.7s-.3.3-.3.7Z"/>
          <path d="M737.4,194.2c-.2.3,0,.8.3,1s.7,0,1-.6c.4-1.1-.6-1.4-1.3-.4h0Z"/>
          <path d="M541.2,196.5c0,1.8.9,2.4,1.7,1.1.2-.4,0-1.2-.7-1.8-1-1-1.1-.9-1.1.7h0Z"/>
          <path d="M614.4,197c.2.3.5.7.7.7s.3-.3.3-.7-.3-.7-.7-.7-.5.3-.3.7Z"/>
          <path d="M617.2,201.3c-1.3.9-.9,2.3.5,2.3s2.3-1.4,1.9-2.4c-.4-1.1-.9-1.1-2.5,0Z"/>
          <path d="M629.3,204c-.7.9-2.7,2-4.9,2.7-2.1.6-3.9,1.5-4.1,2-.2.5-.7,1-1.1,1-.8,0-2.8-2.7-2.5-3.4,0-.3-.9-.7-2.1-.9-1.3-.3-2.5-.9-2.7-1.4-.5-1.4-2.1-1.3-3.1.3-1.2,1.7-5.6,2.3-6.9,1-1.9-1.9-4.3-.8-4.8,2.1-.5,2.6-2,4.9-3.9,5.7-3.2,1.4-4,5.9-1.1,5.9s1.3.3,1.3.6.9,1.6,2,2.8c1.7,1.9,2,2.1,2,.9,0-2.3,1.9-4.3,4.1-4.3s1.9.3,1.9,1.3-.3,1.3-.7,1.3-.5.9-.3,1.9c.3,1.5.1,2-1,2.4-.8.2-1.4,1-1.4,1.7s-.5,1.5-1.1,1.9c-1.1.6-1.1.7.1,1.7,1.3,1.1,2.1,1.1,4.5,0,1-.4,1.1,0,1.1,3.4,0,5.1.7,6.3,2.7,4.6,1.4-1.3,1.5-1.3,2.6.3,1,1.3,1.5,1.5,3.6,1.1,2.7-.5,3.4-2.2,1.2-2.8-.8-.2-1.4-1.1-1.7-2.6-.3-2-.6-2.3-2.2-2.1-1.5.1-1.8,0-1.7-1.1.3-3-1.1-6.1-3.6-8-2.4-1.7-2.4-1.9-.7-1.5,2.3.5,4.5-.5,4.5-2.2s.5-1.6,1-2.1c.7-.7,1.2-.6,2,.3,1.3,1.3,4,2.1,5,1.4.4-.3.9.4,1.1,1.6.5,2.3,1.5,2.6,3.8,1.1,2.2-1.4,3.3-.4,2.7,2.8-.3,2.4-.6,2.7-2.4,2.7s-4.1,1.9-3.5,3.4c.2.5.3,1.6.3,2.5s.5,1.7,1.7,2.1c1.6.5,1.7.6.6,2.1-.5.8-1.3,1.3-1.7,1.1-1-.7-1.5,1.4-.7,2.9.5.9.5,1.8,0,3.1-.5,1.3-.6,1.9,0,2.5.5.5.9.5,1.2-.3.2-.6.8-1.1,1.3-1.1,1.3,0,1.9,2.4,1,4-.8,1.5,0,3.5,1.5,4.3.5.2-.3.3-1.8.1-1.5-.1-3.7.2-5.1.8-2.5,1.1-3.3,2.1-1.6,2.1s1.9,1.5-.2,3.6c-2,2.1-2.1,2.3-1.1,4.1.6,1.1,1.7,2,2.5,2.1,3.5.5,4.5.7,5.5,1.5.6.5,1.1,1.6,1.1,2.5s.4,1.6,1,1.6c1.5,0,5,2.7,5,3.8s-.3.9-.7.9-.6.7-.5,1.5c0,.9-.5,2.7-1.3,4.2-2.8,5.4-2.3,8.5,1.5,8.5s2.1.5,2.7,1.8c1.7,2.9,3.6,4.9,4.6,4.5,1.4-.5,2.9,1.3,1.9,2.3-1.3,1.3-.9,3.2.5,3.2s1.3.3,1.3.7c0,1.5,1.3.5,2.4-1.7.8-1.7,1.5-2.3,2.3-2.1.7.2,1.5-.4,2.3-1.6,1-1.7,1-1.9.1-1.9s-1.2,0-1.3.1c-.2.1-1.1-.5-2-1.4-1.3-1.3-1.5-1.8-1-2.5.4-.5,1.3-.9,1.9-.9s1.1-.6,1.2-2.1c0-2.4,1-3.7,2.1-2.9.5.3.6,1.4.3,3.3-.9,5.4-.3,6.5,4.7,7.1s4.1,2.6,1.4,4.3c-1.3.9-1.6,1.6-1.5,3.5.1,1.9.5,2.5,2.3,3.3,2.1.9,2.2.8,3.6-1.1,1.7-2.3,2.5-2.5,2.5-.7s.6,1.5,1.3,1.7,1.7,1,2,1.7c.9,1.6,1.7,1.6,4,0,2.1-1.5,2.8-1.1,2.2,1.2-.3,1.1-.1,1.5.4,1.2.4-.3.7-1,.7-1.7s.6-1.4,1.4-1.6c1.2-.3,1.3-.6.6-1.8-.6-1.1-.5-1.7.3-2.6.6-.7,1.1-2.3,1.1-3.6s.5-2.7,1.7-3.7c1-.8,2.3-1.4,2.9-1.4,1.8,0,3.1-1.2,2.3-2-1-1,.5-6.4,2-7.6,1.7-1.2.9-2.4-1.5-2.2-1.3,0-1.8.5-1.7,1.3,0,.7-.3,1.1-1.1,1.1s-1.5.5-2,1c-.9,1-2.3.7-1.7-.4.3-.3-.3-.6-1.1-.6-1.3,0-1.4-.3-.9-2.2.9-4.2,0-6.3-2.3-5.4-.5.3-2,.5-3.2.7s-2.5.4-2.8.6c-1,.6,1,2.3,2.6,2.3s2.7,3,1.3,4.4c-.9.8-1.4.5-3.9-2.1-1.7-1.6-3.2-2.9-3.5-3-.9,0-.6,1.9.3,2.2.5.2.4.7-.5,1.7-1.3,1.5-1.3,1.5,0,3.8.7,1.2,1.4,2.3,1.7,2.3.9,0,1.2,2.1.4,3.3-1.1,1.7-1.8,1.7-3.7-.3-.8-.9-1.7-1.5-2-1.3-.3.1-1.1-.1-1.9-.7-1.5-1.1-1.4-3.7.2-3.7s1.7-.7,2.7-1.5c1.7-1.5,1.8-1.6.5-3-1.7-2-4-1.9-4.5,0-.3,1.1-1.1,1.8-2.7,2.3-3,.9-3.4.5-1.3-1.7,1.8-2,2.1-4.1.6-4.1s-1.3-1.7-.3-2.3c.4-.2.7-1.4.7-2.6,0-4.1-5.8-8.1-7.8-5.4-.5.7-.9,1.7-.9,2.1,0,.9-1.1,1.2-1.6.3-.2-.3-.5-1.6-.7-2.8-.2-1.3-.9-2.6-1.6-3.1-.6-.5-1.5-2.1-2-3.5-.4-1.5-1.3-3-2.1-3.4-1.7-.9-2.2-.9-1.7.4.3.7,0,.9-.8.8-.6-.1-1.1-.7-1-1.1.1-.5-.1-.8-.5-.8s-.7-.3-.7-.7.7-.7,1.7-.7,1.7-.3,1.7-1.3c0-2.3,3.7-2.9,4.4-.6.4,1.3.5,1.3,1.1.3.8-1.4-.7-2.7-3.6-3.4-1.1-.3-2.3-1.3-3-2.3-.6-1.1-2-2.3-3.1-2.7-1.4-.5-1.9-.9-1.5-1.7.3-.7,0-1.7-.7-2.3-1.9-2.1,0-1.4,2,.7,2.3,2.3,3.7,2.5,4.9.7,1-1.7-.2-4.7-1.9-4.7s-1.5-.5-2-1c-.5-.6-1.3-.9-1.7-.7-.5.1-1.9-.7-3.3-1.9-2-1.9-2.4-2.7-2.2-4.5.3-2.8,2.3-3.4,3.1-.9.7,1.6,2.5,3.1,4,3.1s.6-4.1-.3-4.9c-.5-.3-.4-.7,0-1,.4-.3.9-1,1.1-1.7.5-1.4,2-1.5,3.1-.1,1.1,1.3,2.9,1.3,4.3,0,.9-.9,1.1-.9,1.5,0,.3.8.8.7,2.9-.8,1.4-1,2.7-2.4,2.8-3.1.3-1.5,1.2-1.9,2.4-1.1.8.5.8.8,0,2-.7,1.1-.7,1.7,0,2.6.4.6,1.1,1.1,1.5.9,1.3-.3.8,1.1-.7,2.1-2.2,1.5-4.1,1.4-3.7-.3.5-2.1-.7-1.6-1.4.5-.6,1.9-.6,3.3,0,6.9.5,2.2.6,2.1-2.3.9-2-.8-5.3-.5-5.3.5s2.8,6.5,3.3,6.8c1,.6.8,1.7-.3,1.7s-1,.5-1,1-.5,1-1,1-1-.3-1-.7c0-1.1-2.5-.7-2.9.4-.4,1.1,1.9,3.5,3.4,3.6.8,0,2.5-2.4,2.5-3.7,0-1.1,2.3-1.2,2.3,0s.3,1.1.7,1.1,1,.9,1.3,1.9c.8,2.2,2.5,3.1,3.5,2.1.5-.5.5-1.1-.1-2.1-.5-.7-.7-1.9-.5-2.6s0-1.4-.3-1.7c-.3-.2-.7-1.1-.7-1.8s-.5-1.8-1.1-2.3c-.9-.7-1-1-.4-1.7,1-1,4.3.3,4.1,1.5-.3,2.6.2,3.9,1.7,4.7,1.8.8,2.3,2.5.7,2.5s-1.2.6-1.4,1.4c-.7,2.1,1.3,3.9,4.1,3.7,1.3,0,2.3-.2,2.3-.3s-.7-1-1.7-2c-1.7-1.7-2.1-2.9-1.3-3.6.2-.2,1.6.8,3.1,2.2,1.5,1.4,3,2.6,3.3,2.6s.6.7.8,1.5c.4,1.4.7,1.5,4.4,1.3,3.8-.3,4.1-.1,4.7,1.4.4.9,1.3,1.9,2.1,2.1,1.8.6,2.7-.2,1.1-1.1-.6-.4-1.1-1.1-1.1-1.6s-.6-1-1.3-1-1.3-.3-1.3-.6-.7-.9-1.4-1.1l-1.4-.5,1.3-1.3c1.1-1.2,1.7-1.3,3.4-.7,2.2.8,2.3.7,3-3.5.2-1.1.7-2.1,1.1-2.2.3-.1.7-1,.7-1.9,0-1.5-.7-1.9-2.2-1.7-.3,0-.4-.2-.2-.5s0-1.9-.6-3.4c-1.3-3.7-1.3-5.1,0-5.6,1.4-.5,2.9.7,2.9,2.4s.4,1.4.9,1.6c.6.2.8.8.6,1.4-.3.7-.1.9.5.7.5-.1,1-1.1,1.1-2.3.1-1.1.5-2.2.9-2.5.8-.8,2,.1,2,1.6s.3,1.5.8,1.7.5.2.3-.3c-.3-.4,0-1.3.3-2,1.2-1.9.3-3.5-2.2-3.5-1.2,0-2.7-.1-3.3-.2s-1.7-.5-2.3-1.1c-2.6-2.2-5.2-2.7-8.4-1.9-1.6.5-3.3,1.4-3.8,2.1s-1.3,1.2-1.8,1.2c-1.1,0-.5-2.7.9-3.9.6-.5,1.1-1.2,1.1-1.7s.6-.9,1.3-1c2-.4,4.4-2.9,4.2-4.4-.3-1.5-1.4-2.2-4.7-2.7-1.9-.3-2.4-.6-1.9-1.3.7-.9.3-3.5-.7-4.9-.5-.6-1.1-.6-2.1,0-1.1.5-2,.5-2.9,0-.7-.4-3.1-.7-5.3-.7-4.1,0-4.1,0-8.5-4.9-1.5-1.7-1.9-1.8-5.3-1.4-3.9.5-5.7-.3-5.7-2.5s-.9-1.9-2.1-.3h0ZM614.1,212.6c0,.2-.3.5-.7.7-.3.2-.7,0-.7-.3s.3-.7.7-.7.7.1.7.3ZM623.4,215.6c.8,1.5,4.5,2.5,5.5,1.5.9-.9,3-.9,4,0,.7.6.3,1.2-1.6,3-1.3,1.2-2.9,2.2-3.6,2.2-1.3,0-4.5-3.1-4.1-3.9.2-.3-.5-.3-1.7-.2-2.1.3-2.2.3-1.3-2.1.7-2.1,1.7-2.2,2.7-.5ZM639.8,218.4c.3.4.9.5,1.5.3.8-.3.9,0,.6,1.1-.2.9-.4,1.7-.4,2,0,.9-1.3.6-4.5-.9-2.8-1.3-2.9-1.4-1.7-2.3,1.5-1.1,3.9-1.3,4.5-.3h0ZM659.9,219c.7,1.1-.8,1.4-1.7.4-.7-.8-.7-1,.2-1s1.2.3,1.5.6h0ZM639.1,224.1c.6,1.5-.2,2.1-.9.9-.8-1.3-.8-2,0-2s.8.5,1,1.1h0ZM657.5,227.4c.5,1.3.5,1.7-.1,2-1.4.5-4.3-.9-4.6-2.2-.3-.9.1-1.2,1.8-1.3,1.7,0,2.3.3,2.9,1.5h0ZM659.9,234.7c1.2.9,1.2,1-.6,1.7-2.6,1-3.8.9-3.8-.3s.3-1,.7-1,.5-.3.3-.7c-.6-1,1.9-.8,3.4.3ZM611.3,236.3c.1.5-.1.7-.8.4-.6-.2-1.1-.7-1.1-1.1,0-.9,1.5-.3,1.9.7h0ZM664.3,239.9c-.9.9-1.7.2-1.1-.8.2-.4.7-.5,1.1-.3.4.3.4.7,0,1.1h0ZM665.1,250c.6.5,1.1,1.3,1.1,1.9,0,1.3-2.4,2.7-3.7,2.2-.5-.2-1,0-1.1.3s-.5-.1-.9-1c-.6-1.3-.5-1.9.3-2.9,1.2-1.6,2.6-1.7,4.3-.5ZM638.5,270.5c-.2.3-.7.7-1.1.7s-.6-.3-.6-.7.5-.7,1.1-.7.8.3.6.7ZM634.1,286.9c0,1.1-1.7,1.3-2.3.3-.2-.4-.3-.9,0-1.3.5-.9,2.3,0,2.3,1.1h0Z"/>
          <path d="M407.6,267.5c.2.3.7.7,1.1.7s.6-.3.6-.7-.5-.7-1.1-.7-.8.3-.6.7Z"/>
          <path d="M850,225c0,.8,3,1.6,3.9,1,1.5-.9.7-1.7-1.6-1.7s-2.3.3-2.3.7Z"/>
          <path d="M592.8,226.9c-3,2.5-2.7,5.6.9,7.2,3.5,1.5,5.1.6,3.3-2.1-.6-.9-.9-1.9-.7-2.3.3-.3,0-1.1-.3-1.6s-.6-1.3-.4-1.6c.9-1.5-.7-1.2-2.8.5h0Z"/>
          <path d="M688.1,226.8c-1.9,1.1-2,1.5-.3,5.7.8,2.1.8,2.1,2.5,1.2.9-.5,1.2-1.4,1.2-3.7,0-3.7-.9-4.5-3.4-3.3Z"/>
          <path d="M583.7,228.3c-.8.8-.3,2,.9,2.3.7.2,1.3.8,1.3,1.4s.4,1.1.9,1.1.9-.7.9-1.9-.5-2.1-1.9-2.6c-1-.4-2-.5-2.2-.3h0Z"/>
          <path d="M505.2,232c0,1.7,1,2.5,2.5,1.9,1.1-.4,1-1.5-.3-2.5-1.7-1.3-2.2-1.1-2.2.7Z"/>
          <path d="M614.8,231.2c0,.9,2,1.5,2.7.7.5-.5.1-.8-1-1-.9-.2-1.7,0-1.7.3Z"/>
          <path d="M586.9,238.9c-1.9,1.3-1.9,2.2-.1,3.7,1.7,1.5,1.7,1.4,2-1.7s0-3.3-1.9-2.1Z"/>
          <path d="M807.6,239.7c-.3.3-.1,1.3.1,2.1.5,1.4.6,1.4,1.7.3.9-.9,1-1.3.4-2.1-.9-1.1-1.7-1.2-2.2-.3Z"/>
          <path d="M592.2,240.9c-.5.3-.9,2-1,3.9-.1,2.5,0,3.3.8,3.3s.9-.5.8-1.7c-.1-1,.3-2.1,1.2-2.9,1-.9,1.1-1.4.6-2.1-.9-1-1.3-1.1-2.4-.3h0Z"/>
          <path d="M690.1,241.4c-3.5,1.2-5.4,3.3-4.9,5.3.7,2.5,2.5,3.2,5.5,1.9,1.9-.8,2.9-.9,3.7-.3,1.5,1,2.5.9,2.5-.1s1-1.4,2.3-2.1c2.1-1.1,2.2-1.4,1.6-2.7-1.3-2.9-5.9-3.8-10.8-2h0Z"/>
          <path d="M735.4,240.9c.9,1,2.7,1.3,2.9.5,0-.4-.7-.7-1.7-.9-1.3-.1-1.7,0-1.2.4Z"/>
          <path d="M819.9,241.3c0,.5.3,1.1.6,1.3.7.5,1.5-1.3.9-1.9-.7-.7-1.5-.4-1.5.5Z"/>
          <path d="M596,241.7c0,.7,1.3,1.7,1.7,1.3,0-.1-.2-.7-.7-1.1s-.9-.5-.9-.2Z"/>
          <path d="M600.5,243c-1.3.5-1.4,1-.4,2.9.7,1.3,3.5,1.7,3.1.3-.1-.4,0-1.3.3-1.9.4-.7.3-1.3-.2-1.6-.4-.3-.5-.2-.3.3.2.4.1.9-.2,1.1-.3.3-.7,0-.9-.5s-.7-.7-1.4-.5h0Z"/>
          <path d="M605.3,243.2c-.2.5,0,1.3.5,1.8.5.5.9.6.9.3s.3,0,.7.5.7.7.7.3-.5-1.5-1.2-2.3c-.9-1.2-1.3-1.3-1.6-.6h0Z"/>
          <path d="M376.5,296.6c-.2.5,0,1.5.6,2,.9.9,1.1.9,2.1,0,.9-.9.9-1.3.3-2.1-1-1.3-2.5-1.2-3.1.1h0Z"/>
          <path d="M818.1,244.8c-.2.5-.8.9-1.3.7-.7-.3-.9.1-.5,2.1.3,1.3.6,2.7.7,2.9.4.8,2.2.7,2.2-.1s.5-.7,1.2-.7c1.2,0,2.8-1.2,2.8-2.1s-.9-1-2-1.5c-1.1-.6-1.9-1.3-1.7-1.7.3-.4,0-.7-.3-.7s-.9.5-1.1,1.1h0Z"/>
          <path d="M588,245.2c0,.3.3.5.7.3.4-.2.7-.5.7-.7s-.3-.3-.7-.3-.7.3-.7.7Z"/>
          <path d="M812.6,245.1c0,.3.3.7.6.7s.9-.3,1.1-.7c.2-.4,0-.7-.6-.7s-1.1.3-1.1.7Z"/>
          <path d="M578.4,246.8c-.2.5-.8,1-1.4,1s-1,.5-1,1.1c0,.9.5,1,2.2.7,1.3-.2,1.8-.2,1.3.2-.7.4-.7.7.2,1,2.9,1.1,4.3-.9,1.7-2.3-.7-.4-1.3-1.1-1.3-1.7,0-1.3-1.1-1.3-1.6,0Z"/>
          <path d="M756.6,247.1c-1.5,1.5-1.5,2.7,0,8.4l.7,2.8h3.5c3.7-.2,4.1-.7,2.5-3-.9-1.2-.9-1.5,0-1.8,1.1-.4.7-2.2-1.1-3.9-.7-.7-1.2-1.7-1.2-2.2s-.4-.9-1.1-.7c-.5.2-.8.1-.6-.3.7-1.2-1.4-.7-2.9.7ZM761.4,253.1c.2.3,0,.7-.3.7s-.7-.3-.7-.7.1-.7.3-.7c.2,0,.5.3.7.7Z"/>
          <path d="M811.6,248.4c-.2.3,0,1.3.3,2.1,1.1,2,.3,2.4-1.9.8l-1.9-1.4-.7,1.4c-.3.8-1.3,1.6-2.3,1.8-1.3.3-1.6.8-1.5,2.2.1,1.2-.1,1.8-.8,1.8s-1.1.5-1.3,1.1c-.6,1.5-.5,1.6.6,1.2,1.6-.7,4.6.9,5.8,3.1.7,1.3.9,2,.4,2s-.6.2,0,.8c1.1,1.1,1,2.5-.2,2.5s-1-.5-1-1-.3-1-.6-1-.5-.5-.3-1.3c.2-.9-.4-1.6-2.2-2.7-2.1-1.3-2.8-1.4-4.1-.7-1.5.7-1.6.9-1.2,4.7l.4,4.1-2.1-.5c-2.2-.5-4.6,1-4.6,2.9s-2,2.7-4.2,2.8c-1.1,0-2,.5-2.3,1.1-.9,2.5-2.7,2.8-4.7.9-1.8-1.5-1.9-2.9-.1-3.9,1.6-1,1.7-2.5.3-3.1-.9-.3-1-1-.7-3.1.3-2.1.2-2.7-.6-2.7-1.4,0-5.5-2.7-6-4-.7-1.7,1.2-6.8,2.9-7.4,2-.7,1.9-1.9-.2-1.9s-1.7-.3-1.7-.7c0-1.3-2.4-.7-3.9.9l-1.5,1.6,1.7,1.8c2,2.1,2.1,2.7.7,3.8-2.6,2.2-3,2.7-3,4.3s-.4,1.6-1,1.6-1.8.7-2.7,1.7c-1.5,1.5-1.6,2.1-1.3,5.1.2,1.9.4,4.1.5,4.8,0,.7.9,2,1.7,2.9,1.5,1.5,2,1.6,5.5,1.2,3.1-.3,3.9-.3,3.9.5s-.7,1.3-1.4,1.8c-1.2.7-1.5.7-2,0-.4-.7-.7-.7-1.5,0-.7.6-1.1.7-1.1.1s-.3-.7-.6-.7-.5.7-.5,1.5c0,1.9,3.5,3.3,4.3,1.9.4-.7.8-.6,1.6.3.7.7,1.9,1,3.3.9,1.9-.2,2.2-.5,2.2-2.1,0-1,.2-1.8.5-1.8s.5.5.5,1c0,1.2.3,1.3,1.9.3.9-.6,1.7-.5,3.3.3,2.1,1.1,3.9.9,4.8-.4.3-.4,1-.4,1.7-.1,1.7.7,2,.8,3.7.9.9,0,1.3.4,1,1.1-.2.5.1,1.3.8,1.6,1,.6,1,.7-.1,2-.7.8-1.1,1.6-.9,1.9.3.2.1.8-.3,1.3-.4.5-.6,1.7-.4,2.8.6,2.7-1.1,3.3-3.2.9-1.5-1.7-1.7-1.8-4.3-1.1-2.7.7-2.8.7-4.7-1.7-1.6-2-2.3-2.4-4.1-2.3-1.4,0-3.1-.5-5.2-2l-3.1-2.2-1.5,2.4c-.9,1.4-1.4,2.9-1.2,3.9.2,1.1,0,1.8-.9,2.2-2.1,1.2-3.4.7-6.5-2.5-4.4-4.5-6.1-8-6.5-13.4-.2-2.5-.3-5.2-.4-6.1s-.5-1.9-.9-2.2c-.3-.3,0-.3.9-.1,1.2.3,1.5.1,1.5-1,0-2.1-3.1-1.5-4.3.9-.7,1.3-.7,1.7-.1,1.6,1.1-.2.5,3-.7,3.9-.9.6-.9,1.1-.4,2.3,1.1,2.4.7,4.1-1.3,6.1-1.3,1.3-1.8,2.5-1.8,4.1,0,3.8-.5,4.4-3.7,4.4s-2.9.2-2.9,1.2-1.1,2.2-2.3,3.5-2.3,2.9-2.3,3.5-.6,2-1.3,3c-1.9,2.5-2.2,4.8-.8,5.9.6.5.9,1.1.6,1.3-.3.3-.8.2-1.3-.3-.5-.5-1.4-.3-3.5,1.1-1.5,1-3.3,2.2-4.1,2.5-.7.4-2.3,2.5-3.4,4.7-1.6,3.1-2.5,4.1-4.1,4.6-1.2.3-2.1.9-2.1,1.2s1.4,1.9,3.1,3.6l3.1,3-1.2,2.2c-1.1,2.1-1.1,2.2.3,4.1,3.1,4.3,7.4,4.4,6.5.1-.6-2.6.1-4.6,1.7-4.6s1.5-.3,1.7-.7c.5-.7,3.6-.9,5.3-.3.9.3.9.7,0,3.1-.7,1.8-.5,3.2.7,4.1,2,1.6,2.3,3.1.8,4.4-.5.5-1,1.3-1,1.7,0,1-2.7,2.3-5,2.5-.7,0-2.1.9-3,1.9s-2.6,1.9-3.7,2.1c-1.7.1-2.1.6-2.9,3-.5,1.5-1.3,2.9-1.7,3.1-1.7.7-5.5-.7-8.7-3.1-3.5-2.7-4.7-3-5.7-1.3-.6,1.1-.9,1.1-3.7-.4-2.7-1.5-2.9-1.9-2.6-3.5.3-1.6.1-1.9-1-1.9s-2.1-.7-2.9-1.7c-1.5-1.6-6.3-3.7-8.6-3.7s-1.3-.3-1.3-.7-.3-.5-1,0c-.9.7-1.3.5-1.1-.9,0-.3-.3-1.1-.7-1.9-.6-1.1-.5-1.5.3-2,1.5-.9,1.3-2.3-.4-2.8-2-.5-4.9-3.2-5.5-5-.2-.8-1.3-1.9-2.4-2.4-1.7-.9-2.1-.9-3.6,0-2,1.3-3.5.9-3.8-1.2-.1-1-.7-1.6-1.7-1.7-1.4-.2-1.4-.3-.3-1.5,1.7-1.9,3.3-1.5,4.5,1.1,1.2,2.6,1.9,2.9,2.5,1.1.2-.6.6-1.6.9-2.1,1.9-3.3,2.2-4.2,1.5-4.9-.5-.5-1.1-.4-1.9.4-1.3,1.3-2.5,1.5-1.8.5.3-.4-.7-.7-2.6-.7s-3.1-.3-3.3-.9c-.2-.5-.6,0-1,.9-.3.9-1.1,2.1-1.7,2.5s-1.2,1.6-1.4,2.5c-.3,1.3-.9,1.7-2.3,1.7s-2.5.5-3.2,1c-.7.5-1.7,1-2.3,1s-2.1,1.1-3.5,2.3c-2.9,2.8-4,2.9-7.3.7-1.3-.9-2.6-1.4-2.9-1.1-.2.3-1.9.6-3.7.5-1.9,0-3.5,0-3.7.3-.9,1.4,5.7,3.7,7,2.4.5-.5.7-.3.7.5,0,2.4-.9,2.9-5.3,2.9s-4.3,0-4.7,1.9c-.2,1.1,0,2.5.3,3.2.5.9.3,1.4-.4,1.8-.7.4-.9,1.1-.6,2.1.5,2.1,2.2,3.3,3.3,2.4.7-.5.9-.3.9,1s-.4,1.7-1.8,1.9c-2.4.3-2.7,1.7-.6,2.6,1.3.7,1.5,1,1,1.7-.4.5-1.4.9-2.2.9-2.9,0-3.3,1-1.3,3.3,1.6,2,1.9,2.8,1.8,6.5,0,5.6-.7,6.2-4.7,4.1-2.7-1.3-3.1-1.9-3-3.3.1-.9-.5-3.7-1.3-6.2-1.4-4.2-1.5-4.7-.4-5.2.6-.3,1.3-1.7,1.5-2.9.2-1.3.8-2.6,1.3-3.1,1.3-1,1.2-4.6,0-4.6s-3.1,1.9-3.5,4c-.2,1.3-.7,1.8-1.3,1.5-.7-.3-.8.3-.5,2.1.3,1.9.1,2.4-.7,2.4-2.1,0-3.1-.9-3.1-2.5s-.1-1.6-1-.9c-.8.7-1.3.7-1.8.1-1-1-2.5.9-2.5,3.4,0,1.2-1.2,1.7-3.7,1.4-2.6-.3-3.7-.2-3.7.3s-.6.6-1.6.3c-.9-.2-1.8,0-2.1.5-.4.6-.1.7.9.4,1.3-.3,1.5-.2,1,1.7-.2,1.1-1,2.5-1.7,3.1-1.6,1.3-2.7,7.7-1.8,9.8.4.9.5,1.9.3,2.5-.6,1.5-3.9,1.9-5.4.6-1.2-1.1-1.3-1.1-.9.7.3,1.3,0,2-.9,2.5-1.5.8-5.6.1-6.7-1.1-1.1-1.3,0-2.5,1.9-1.9.9.2,1.9.1,2.1-.1.2-.3,1.1-1.1,2.1-1.7,1.5-1.1,1.5-1.1.2-1.1s-1.6-.5-1.9-1.2c-.3-.9-.7-.8-2.3,1.2-1.2,1.4-2,1.9-2,1.3,0-.8-.3-.7-1,.3-.5.7-1.7,1.2-2.7,1.1-.9,0-2.2,0-2.8,0s-2.5,0-4,0-3,.3-3.3.7c-.3.4-.7.4-1.3-.1-.7-.6-1.1-.6-1.9,0-1.2,1-4.2.3-5.3-1.3-1-1.5-6.5-2.3-8.4-1.3-1,.5-1.1.9-.5,2.3.5.9,1.2,1.7,1.7,1.7s.8.7.7,1.8c-.1,1.3-.6,1.9-1.7,2.1-2,.3-1.7,2.4.4,2.7,2.4.3,2,3.7-.7,5.7-3.5,2.6-3.7,2.6-5.1.1-.9-1.5-1.7-2.2-2.4-1.9-.5.2-1,0-1-.3,0-1.3-1.1-.8-1.5.6-.2.9,0,1.2.4.9.5-.3.5-.1,0,.5-.9.9-1.3,2.5-.4,1.7.7-.7,2.3,2,1.8,3.1-.2.6.2,1.3,1.1,1.9,1.3.8,3.3,4.5,3.3,5.9s-2.5.5-4-1.1c-.9-.9-1.9-1.7-2.5-1.7s-.9-.5-.9-1c0-1.1-1.7-1.3-2.3-.3-.2.3.3,1,1.3,1.5.9.4,1.7,1,1.7,1.4s.5,1.6,1.1,2.9c1.1,2.2,1.1,2.3-.5,3.5-1.3,1.1-1.4,1.4-.7,2.3.5.6,1.3,1.1,1.7,1.1s1,.5,1.3,1c.2.5.8,1,1.4,1s1,.6,1,1.4c0,1.2-.3,1.3-1.8,1-1.1-.2-2.6-.6-3.5-.8-2.3-.5-2.5-.9-1.1-1.7.6-.4,1.1-1,1.1-1.3,0-.9-2.7,0-4.1,1.2-.7.6-1.6.9-2.2.6-.6-.2-1.2,0-1.4.5-.5,1.1-2.9,1.1-2.9,0s-2.3-2.9-3.9-2.9-1.5-.4-1.5-.9c0-1.3-2.4-2-3.5-1.1-.5.4-1.5,1.2-2.2,1.7-.8.7-.8.8.3.5,1.3-.3,1.5-.2,1.2.7-.3.6,0,1.1.3,1.1.9,0,5.2,4.3,6.8,6.8,1,1.6,1,1.9.1,2.8-1.3,1.3-1.3,2,0,1.5.5-.2,1.3,0,1.7.6.6.7.6.9,0,.9s-.7.5-.7,1-.5,1-1,1-1,.3-1,.6-.2,1.1-.4,1.7c-.3.7,0,1.1.9,1.1s1.5.4,1.6.8c.2.5.8,0,1.5-1,1.4-2.1,2.8-2.3,3.4-.5.7,2.1-.8,4.1-2.7,3.6-.9-.2-2.1-.3-2.7,0-1.3.5-.5,2.4,1.1,2.4s1.5.3.6,1.9c-1,1.9-4.5,2.3-7.2.7-1.3-.7-2.7-1.3-3.2-1.3-.9,0-1.7,1.4-1.7,3.1s-3.3,5.5-5.5,5.7c-1.2.2-2.7.5-3.3.9-.9.4-1.3,0-2.2-2-1.2-2.9-.5-4.3,1.5-2.9.7.5,2.1.6,3.1.3,1.9-.5,2.7-2.1,3-6.2.1-1,.7-1.5,2.1-1.9,1.1-.3,2.1-.9,2.1-1.4,0-.5.2-1.3.3-1.6,0-.4.2-1.1.3-1.7,0-.5.3-.9.7-.7.3.2,1.1-.2,1.7-.9s.9-1.3.7-1.3-.3-.3.2-.8c.9-.9-.1-3.2-1.5-3.2s-1.3-1.1-1.7-2.7c-.4-1.4-1-2.8-1.3-3s-.5-.8-.2-1.3c.2-.6,0-1-.5-1s-1.7-.4-2.7-.9c-1.4-.7-1.9-.8-2.5-.1-.5.5-.3,1,.5,1.5,1.9,1.2,2.2,4.9.6,6.6l-1.3,1.5,2.3.4c2.3.5,3.2,1.9,1.7,2.7-.3.2-.7.9-.7,1.6s-.6,2-1.4,2.9c-1.1,1.4-1.2,2.1-.7,3.1,1,1.8,1,1.7-1.3,4.1-1.1,1.1-2,2.5-2,3.1,0,1.6-.9.5-1-1.3-.1-2.2-2.2-2.3-3,0-.4,1-1.4,2.4-2.1,3.1-1.3,1.1-1.3,1.5-.7,2.5,1.3,2,1.1,3.6-.3,2.9-.7-.3-2.5-.5-4-.5-3.1,0-3.3-.1-1.9-2.1s1.3-2.4-1.3-2.4-2.9-.6-4.5-2c-3-2.7-3.1-2.9-4-4.2-.7-.9-1.2-1-2.9-.5-2.9.8-3.5.2-3.2-3.1.2-2.1,0-2.8-.7-2.8-1.8,0-4.2,1.5-4.9,3.1-.4.9-1,1.6-1.4,1.6s-.7.5-.7,1.1c0,.9.2.9,1.5-.3,2.3-2.1,3.1-2.3,2.7-.9-.3.9,0,1.3.7,1.3,1.4,0,1.5,2.9,0,4-.8.7-1.1.6-1.4-.3-.2-.6-.9-1.1-1.6-1.1s-1.4-.4-1.6-.9c-.5-1.2-5.1,4.1-4.6,5.3.3.7-.1,1.1-1.1,1.4s-1.3.7-1.1,1.7c.3,1,0,1.2-.9.9-.7-.3-1.3-.1-1.3.3s-1.1,1-2.5,1.3c-3.3.9-3.5.9-3.5-.2s-1.1-1.9-2.7-1.1c-.8.5-1.2,1.2-1,1.7.3.9-.3,1.3-1.1.5-.2-.2,0-1.9.7-3.7.8-2.7.8-3.5.1-3.9-.5-.3-1.3-.3-1.7.1-.4.3-1.3.5-1.9.2s-1.1,0-1.1.4c0,1.1-2,2.6-3.5,2.7-.6,0-1.3.3-1.6.7-.7,1.1-.9,6.7-.2,6.3.3-.3.6-.9.6-1.4s.4-.9.9-.9,1.5-.2,2.1-.4c.8-.3,1.1-.1.9.8-.1.7.2,1.3.8,1.3.5,0,1.4.1,1.9.2.7,0,.7.3,0,1.1-.7.8-1.5.9-3.4.7-1.4-.2-3.1-.1-3.7.2-.7.3-1.8.9-2.5,1.1-1.2.4-1.2.5-.1.7,1.4.3,1.5,1.9.1,2.5-.5.2-1,.6-1,.9s-1.3,2-3,3.8c-4,4.3-4.5,6.1-2,8.1,2.1,1.7,1.7,2.9-.9,2.9s-2.3.5-2.7,1.1c-.8.9-4.8,2.9-5.8,2.9s-.1-.8,0-1.8c.3-1.1.2-1.9-.4-2.3-.6-.4-.3-.6,1-.6s1.8-.3,1.8-.7-.5-.7-1-.7-1.5-.9-2-2.1c-.9-1.6-.9-2.3-.3-3,1.1-1.3.4-1.9-1.4-1.3-1.2.4-1.4.8-1.1,2.4.3,1.5,0,2.3-2,4.4-1.3,1.4-2.8,3.3-3.3,4.2-.8,1.5-2.1,9-1.8,10.2.2.8-.9.6-1.7-.3-.6-.6-.8-.6-.8,0s-.3.7-.7.4c-.6-.3-5.5,2.4-6.2,3.5-.2.3,0,1.1.5,1.8.9,1.3,3.8.9,3.5-.4,0-.4,1.2-.8,3.1-.9,3.8-.3,4.7-.7,4.2-2.1-.2-.7,0-1.6.3-2.1.5-.9.9-.8,2.1.5l1.5,1.5-1.5,1.5c-.8.9-1.5,1.9-1.5,2.3s-.8.9-1.8,1.2c-2.7.6-5.7,2.1-5.1,2.5.3.1,1.5.5,2.7.7,2,.5,4.3,2.7,6.1,6.1.6,1.2.5,1.7-.5,3.1-1.4,1.7-1.1,2.5.9,2.5s1.3.3.8,3.1c-.3,1.8-.7,3.3-1.1,3.4s-.6.7-.6,1.1-.7,1.1-1.5,1.3c-1.4.5-2.1.6-4.3.9-1.2.1-1.4,2.9-.3,5,.8,1.7,1.2,1.9,3.1,1.5,1.4-.3,2.4,0,2.6.4.1.5.3.2.4-.5.5-5,2.1-7.1,3.3-4.3.3.5.8,1.6,1.3,2.4.6,1.3.6,1.5-.3,1.5-1.7,0-1.2,3,.7,4,1.7.9,1.9,1.5,2.6,6.2.3,2.1.1,2.5-1,2.5s-1.2.3-1,.6c.3.3,0,.7-.4.9-.6.2-.5.7.5,1.4.7.5,1.1,1.1.7,1.1s-.3.3.2.6c1,.6,1.7,7.9.8,8.4-1,.6-.8,3.4.2,4.3,1.5,1.2,4.1-2.1,3.6-4.6-.4-1.7-.2-2,.9-2s1.3.5,1.3,1.4.3,1.1.7.9c.5-.3.6,0,.3,1.1-.3.9-.7,1.7-1.1,1.8s-.2.6.3,1.1c.6.7,1.2.7,2.3.2,1.2-.5,1.7-.5,2.5.6s.9,1.1,1,.1c0-.6.3-1.2.7-1.3.4-.1.1-.9-.7-1.7-.7-.8-1.3-1.7-1.3-2.1,0-1.1,2.1-1.5,3.2-.6.8.7,1.1.7,1.3,0,.2-.4.7-.8,1.3-.8,1.1,0,1.3-1.1.2-1.7-.5-.3-.1-.8,1-1.4.9-.5,1.7-1.4,1.7-1.9s.4-.9,1.3-.6c1.1.3,1.5,0,2.1-1.5.7-2.1,2.3-3.2,3-2.1.2.4,0,1.2-.7,1.9-1.2,1.3-1.4,2.4-.4,1.7.7-.5,5.3,1,5.3,1.7s-.9.9-2,1.6c-1.1.6-1.9,1.3-1.7,1.6.4.7-1.1,3.4-1.9,3.4-.9,0-.8,2.9.1,3.2.5.2.7-.2.5-1.1s0-1.3.5-1.1c.5.1.8.7.8,1.2s.6,1,1.3,1.1c1.3.3,1.3.2.2-1.5-1.1-1.7-1.5-4.4-.6-4.4s1.2.6,2.1,1.3,2.3,1.3,3,1.3,2.1.8,3,1.8c2.3,2.5,5.7,3.7,7.4,2.9,1-.5,1.6-.4,2.7.7,1.3,1.3,3.3,1.8,3.3.8s1.3-.4,2.9-.2c2.6.4,2.8.5,3,2.6.1,1.2,0,2.1-.4,2-1.6-.5-.9,1.2.7,2,2.2,1.1,4,.1,3.3-1.7-.3-.8,0-.7,1.2.5,1.1,1.1,1.3,1.7.8,1.9-.5.2-.9.9-.9,1.7s.3,1.1.5.8c.3-.4,1.1-1,1.8-1.4,1.1-.7,1.8-.3,4.7,2.2,6.9,6.1,8.3,7.6,8.8,9.7.7,3.2,1.9,4.8,4.6,5.8,1.4.5,2.2,1.1,1.9,1.5-.3.5,0,.6.8.2.7-.3,2.7-.5,4.5-.5s4.3-.3,5.6-.9c2.7-1.1,4.9-1.3,4.9-.3s3.3,1.5,4.3.7c.5-.5,1-1.7,1-2.7s.7-3.1,1.7-4.6c.9-1.5,1.7-2.9,1.7-3.3s.5-.5,1-.3c.6.3,2.5-.7,4.7-2.3,2-1.5,3.9-2.7,4.2-2.7s1.4-.9,2.5-2l1.9-1.9,1.2,1.6c.7.9,1.3,2.2,1.3,2.9,0,1.7,1.4,1.8,3.5.5,3.3-2.1,6,.5,3.1,2.9-1.3,1.1-1.4,1.3-.6,2.1,1.1,1.1,4,1.3,4,.4s.5-.3,1,.2c1.3,1.1,1.3,2.1,0,1.5-.7-.3-1-.1-.9.4.2.5.5.7.8.6.2-.1.9.5,1.5,1.3.9,1.3,1.5,1.5,3,1.1,1.2-.3,1.9-.2,1.9.3s.6.7,1.3.7,2.1.5,3.1,1.1c2.3,1.5,3.6.4,2.3-2-.9-1.8-.5-4.1.7-3.3.5.3.6,0,.2-1.1-.7-2.1-.5-8.6.4-9.6.5-.6.5-1.4,0-2.6-.6-1.6-.4-2.2.7-1.9,1.7.5,1.7-.6,0-2.1-1.2-1.1-1.5-1.1-2.3-.3-.5.5-1.1,2.6-1.2,4.6-.3,3.9-1.5,6.7-3,6.7s-1.5-.4-2.2-.9c-1-.5-1.5-.6-1.7,0-1.9,5.1-6.5,2.1-7.9-5.3-.3-1.3-1.2-3.1-2.1-4.1-1.4-1.4-1.5-1.8-.7-3,.5-.8,1.4-1.6,2-1.8.7-.2,1.2-.7,1.2-1.2s1.8-2.6,4.1-4.7c3.5-3.3,4-4.1,3.6-5.6-.3-1.4-.3-1.6.4-1,.5.5,1.2.6,2.1.1,1.5-.8,1.7-3.6.3-3.1-.5.2-1.1,0-1.3-.6s-.8-.9-1.3-.9c-.7,0-.9-.5-.6-1.7.1-.9.5-1.7.9-1.7s.6-.4.6-.9.8-.8,1.9-.8,1.8-.3,1.8-.7-.3-.6-.6-.5c-.7.2-2.4-1.1-2.4-1.9s.5-.6,1-.6,1-.6,1-1.6.5-1.8,2.1-2.3c1.1-.4,1.9-1,1.7-1.3-.3-.3,0-1.1.7-1.7,1.1-1.1,1.1-1.2,0-2.1-.7-.5-1-1.2-.7-1.5.6-1,4.5,1.3,4.1,2.4-.2.5,0,.9.2.9,1.1,0,1.3-1.9.4-2.9-.6-.5-1-2.3-1-4s-.3-3.1-.7-3.4c-1-.6,0-2.3,1.5-2.3s1.5.5,1.7,1.3,1.3,1.6,2.8,2c3.5.9,4.5.9,6.1-.7s1.4-1.2,1.7-.3c.3.5.9,1,1.5,1s1.8.5,2.6,1.1c1.5,1,1.5,1.1.4,2.3-1,1.1-1,1.3,0,1.7.6.3,1.1,1.1,1.1,2.3s.4,2.1.9,2.2c.5.2.3.4-.3.4-1.3,0-1.5.6-.7,1.9s4.7.7,5.2-.7c.5-1.5,1.4-1.5,2.3.2.4.7,1.1,1.3,1.6,1.3s1.4.6,2.1,1.3,1.7,1.3,2.3,1.3c1.4,0,3.6-1.9,5.1-4.1.6-1,2-2.2,3-2.7,1.6-.7,2-1.3,2.1-3.5.1-2.1.5-2.7,1.4-2.6.6,0,1.1-.3,1.1-.8,0-.9,4.8-4.3,5.8-4.2,1.7.3,2-.3,1.9-3.9,0-2.1-.3-4.2-.6-4.7-.3-.4-.3-.8,0-.8s.5-.6.3-1.3c-.2-.9.1-1.4,1-1.7s1.5-1.3,1.7-2.7c.5-2.4,2.1-3.6,3.3-2.4,1,1,2.8.8,4.1-.4.6-.6,1.6-.9,2.4-.7.7.2,1.7,0,2.2-.6.5-.5,1.3-.9,1.7-.9s.7-.6.7-1.4-.3-1.3-1-1c-.5.2-1,0-1-.3,0-1,2.7-.8,3.1.3.2.5,1.3,1.4,2.5,2.1,4,2.1,8.2-1.5,4.5-3.8-.7-.5-1.3-1.2-1.3-1.6s.5-.7,1.3-.5c1.1.3,1.3,0,1.3-1.3,0-2.2-2.4-4.5-4.7-4.5-5.4,0-3.9-7.1,1.7-8.3,1.1-.3,4-.1,6.3.2,2.8.5,4.3.5,4.5,0s.5-.7.9-.7,1.7-.5,2.9-1.1c1.7-.8,2.5-.9,3.2-.3.5.4,2.2.9,3.8,1.1s3.3.5,3.7.6c.9.3,4.2-1.1,4.2-1.9s2.5-.5,2.9.3c.1.5,1.3.9,2.5.9,1.3,0,3.2.1,4.4.2,1.3,0,2.7.7,3.5,1.5,1.1,1.2,1.6,1.3,2.6.7.9-.6,1.5-.5,2.7.2,1.3,1,1.4.9,1.4-1.3s1.4-4.3,2.7-3.5c.3.2.7,1.3.7,2.4s.3,1.9.8,1.5c.5-.3.5-.2.2.3-.3.5.1,1.5,1.1,2.5,1.4,1.5,1.5,1.9.7,3.8-.5,1.3-.8,2.7-.8,3.3,0,1.4,2.2,1.5,3.3.1.6-.7,1.1-.8,2.1-.3,2.1,1.1,1.5,1.7-1.9,2.2-2.4.3-3.4.1-4.3-.7-1.4-1.3-1.5-1.3-2.3,1.8-.5,1.8-1.3,2.7-3.3,3.7-2.7,1.3-2.7,1.4-1.8,2.8,1.3,2,2.7,1.9,3.3,0,.3-1.5,3.6-3.7,3.6-2.5s.7.8,1.6,1c.9.2,1.9,1,2.1,1.8.7,2.3,7,4.3,7,2.3s.3-1,.7-1,.7-.6.7-1.4c0-1.2.3-1.3,2-.9,2.1.5,2,.8,2.3-5,0-1.3.5-1.8,2.6-2.3,2.4-.6,2.5-.8,2.2-2.8-.3-1.1-.3-2.6,0-3.2.5-1.3,2-1.4,2.5,0,.7,1.9,5.3.4,5.7-2,.1-.4.4-1.3.7-2.2.9-2.3.7-3.7-.5-5.4-1-1.4-1-1.7,0-3.6,1.8-3.6,2.2-5.3,2.5-10.7,0-1.3,1.4-1.5,2.5-.3.4.4.9.6,1.2.3.7-.7-.4-1.8-1.8-1.8s-1.7-1.9-.5-4.1c.5-1.1,1.1-1.3,2.6-.9,1.6.3,1.9.3,1.5-.9-.2-.9.3-1.8,1.7-3,2.1-1.7,2.6-3.4,1.4-4.1-.8-.5-.9-3,0-3s5.7,5.9,6.3,7.6.5,1.1,1.8-.2c.7-.7,1.7-1.3,2-1.3,1.3,0,.6-3-1.1-4.6-.9-.9-1.5-2-1.3-2.5.2-.5,0-1.6-.3-2.5-.5-1.1-.4-1.7,0-1.7s.6-.4.4-.9c-.2-.5,0-1.3.4-1.7.9-1-.9-2.3-3.5-2.7-.3,0-.7-1.3-.7-2.8,0-2.7,0-2.7,1.9-2.4,2.1.5,3.4-.5,3.4-2.6s.9-2.5,2.1-3.7c1.5-1.6,1.8-2.3,1.1-2.7-.7-.5-.7-.6.1-.6,1.7,0,2.8,1.1,2.5,2.5,0,.7.5,2.1,1.3,2.9.9.9,1.6,2.4,1.7,3.4.2,2.1.6,2.2,3.1.7,1-.6,1.9-1.2,2-1.3,0,0-.7-2.1-1.8-4.5-1.9-4.2-2.1-5.5-.5-3.5.5.6,1.5.8,2.9.6,2-.3,2.2-.6,1.9-2-.2-1,0-1.8.6-2,1.3-.5,4.8,1,5.5,2.3,1,1.7,12.1,1.3,12.1-.5s-.4-.7-.9-.7-1.3-.8-1.7-1.8c-.7-1.5-.6-2,.5-3.6.9-1.1,1.2-2.3.9-3-.4-1-.1-1,1.6.3,1.1.8,2.2,1.3,2.4,1,.2-.2.9-.2,1.5,0,.8.3.9.6.3,1.3-1.1,1.3-.3,2.8,2.1,3.8,1.5.6,2.3.7,3.3,0,1.7-1.1,2.9-1,5.3.2,2,1,2.9.5,3-1.5,0-.5.2-.9.5-.9h1.2c.3,0,.5.3.3.6-.2.3,0,1.1.5,1.7,1.1,1.5,5.4.8,4.8-.8-.2-.5,0-2.3.3-4.1,1.2-5.3,1.1-5.1,2.9-3.5,1.1,1,1.7,1.3,2.1.7s.9-.5,2.1.3c2.8,1.9,4.1.7,1.9-1.7-1.5-1.7-.3-4.5,2.7-6.4,2.1-1.4,2.2-1.6,1.5-3.9-.3-1.4-1.1-2.9-1.6-3.4-1.7-1.7-.5-4.3,2.6-5.5,2-.8,2.7-.1,2.9,2.6,0,.9.1,1.9.2,2.1.1,1.1,1.6.5,2.8-1.1.7-.9,2-1.9,2.8-2.1.9-.3,1-.6.2-.9-1.1-.4-1-.6,1.1-1.9,1.3-.8,2.7-1.5,3.1-1.5,1.4,0,1.3,2,0,4.1-1.2,1.9-2.3,3.8-3.6,6.7-.4.7,2.3,1.9,3.4,1.5.7-.3,1.1-1.3,1.1-3.4s0-3,1.9-2.6c1,.3,3.1.6,4.6.9,2,.3,2.9.7,3.1,1.7.3,1.2,2.9,1.6,2.6.3,0-.3.4-1,1.1-1.7.9-.9,1.3-1,2-.3,1.3,1.3,1.8,1.1,2-.9.1-1.4-.1-1.7-1.4-1.5-1.1.2-2.3-.5-4.3-2.7-1.6-1.6-2.9-3.2-2.9-3.5s-.6-.5-1.3-.5c-2.1,0-2.4-1.4-.7-2.7,1.3-.9,1.4-1.3.7-2.5-.6-1.2-.4-1.9,1.3-4.7,1.1-1.8,2-4.2,2-5.3,0-1.9.3-2.1,2.3-2.5,2.7-.5,3.5-2.3,2.1-4.4-1.3-1.8-1.4-2.9-.2-1.9.5.4,1.1.5,1.3.3.9-.9.5-3.5-.7-4.1-1.4-.7-3.7-4.4-3.1-4.9.3-.2-.2-1.7-1-3.3-1.2-2.5-1.3-3.3-.7-4.7.5-.9,1.2-1.7,1.7-1.7s.9-.1.9-.3c0-.7-1.7-4.1-2.3-4.5-.5-.4-.4-.7.2-.9.4-.1.8-1.1.8-2.1,0-1.6.2-1.8,2.3-1.7,1.3,0,2.3-.1,2.3-.5s-.3-.5-.7-.5-.7-.4-.7-.9.5-.9,1.1-.8c1.3,0,1.8-1.5.9-2.9-.5-.8-.8-.8-1.7.2-1.1,1.1-1.3,1.1-2.4,0-.7-.6-1.7-.9-2.3-.7-.6.2-.9.1-.7-.3s.9-.7,1.4-.7.9-.3.9-.7-.3-.7-.7-.7-.5-.5-.3-1c.3-.5,1-1,1.7-1,1.8,0,1.6-1.3-.2-1.5-.9,0-2.1-.1-2.9-.2s-1.6.1-2,.3c-.3.3-2.2.7-4.1.9-3.1.4-3.5.3-4.5-1.3-1.3-1.9-2.5-2.1-3.7-.7-.8.9-1,.9-2.1,0-.7-.6-1-1.5-.9-1.9.2-.5-.3-2-1.1-3.3-.8-1.3-1.3-2.4-1-2.4s.1-.5-.3-1c-.7-.8-.5-1.2.7-2.3l1.6-1.3,1.1,2.5c.6,1.3,1.7,3.2,2.5,4.1,1.1,1.4,1.5,1.5,2.6.9.9-.5,1.5-.6,2,0,.6.6,1.1.5,2.1-.4,1-.9,1.1-1.6.7-3.5-.8-3.4.3-4.7,4.2-5.2,2.5-.4,3.4-.8,3.9-2.1.9-2.1,2.1-2,3.2,0,.5.9,1.3,1.7,1.8,1.7s1.3,1,1.9,2.3c.6,1.5,1.5,2.3,2.5,2.5,1.5.3,1.6.1,1.3-2.1-.2-1.6.1-3.2,1-4.7,1.4-2.6,3.6-3.2,13.2-3.6,7.1-.3,10.3-.9,10.8-2.1.2-.5.7-.9,1.2-.9s.9-.6.7-1.5c-.2-2-1-3.3-1.7-2.8-.3.2-1.5,0-2.7-.7-1.6-.8-2.2-.9-3.3-.2s-1.8.7-3.7,0c-2.2-.8-2.7-.7-7.2,1.5-4.5,2.2-4.9,2.3-8.4,1.7-2-.4-4.8-1.3-6.3-2.1-1.4-.7-2.9-1.1-3.3-.9s-4.1,0-8.2-.3c-5.4-.6-8.3-1.3-10.4-2.3-2.3-1.3-3.2-1.5-4.4-.9-2.3,1-3.7.3-3.7-2.1s-2.1-3.9-6.3-3.3c-1.8.3-4.1.3-5.1,0-1.1-.1-1.9,0-1.9.4s-.2,1.2-.5,1.9c-.3.9-.2,1.1.6.7,1-.3,2.3.7,3.5,2.8.3.6.3.8-.2.5-.4-.2-.9.2-1.1.9-.6,1.8-1.5,1.7-2.3-.3-.9-2.3-2.7-4.3-4.9-5.5-1-.5-1.7-1.3-1.5-1.6s0-.7-.3-1c-1-.7-.8-3.5.3-3.9.5-.2,1,0,1,.3s.5.7,1,.7.8-.4.6-.9,0-1.1.3-1.4c1.2-.7.8-1.7-.7-1.7s-1.4-.3-1.1-3.7c.2-2,0-3.9-.3-4.1-.7-.5-6,5-5.5,5.8.2.3,0,.6-.4.6-.9,0-2.1-3.2-1.6-4.1.2-.4,1-.5,1.7-.2,1.1.3,1.3.2,1-.7-.3-.7,0-1.1.5-1.1,1.1,0,1.7-1.5,1.7-4.3s-.9-3.6-1.7-2.3h0ZM772.5,266.8c0,1.7-1.2,1.7-1.5,0-.3-1.1,0-1.5.6-1.3.5.2.9.7.9,1.2ZM775.5,272.4c.7,1.1-.8,1.4-1.7.4-.7-.8-.7-1,.2-1s1.2.3,1.5.6h0ZM801.2,273.5c0,.5-.5,1-1.2,1s-1.5.3-2,.8c-1.3,1.3-2.7-.4-1.5-1.8,1.1-1.3,4.7-1.3,4.7,0h0ZM794.2,278c0,1.5,0,2.1-.2,1.3-.3-1.7-.7-1.8-2.3-.3-.9.8-1.5.9-1.9.4-.5-.5-.3-.9.7-1.5.8-.4,1.3-1,1.1-1.3-.3-.5.7-1.2,2-1.3.4,0,.7,1.2.7,2.8h0ZM813.6,275.8c.2.3,0,.7-.3.7s-.7-.3-.7-.7.1-.7.3-.7c.2,0,.5.3.7.7ZM807,277.2c.5.5,1.6.8,2.6.9s1.9.5,2.1,1c.2.7,0,.8-1,.6-1.4-.3-6.5,2.3-5.8,3,.2.2-.3,1-1,1.7-2.4,2.4-2.5-1.1-.2-5.8,1.1-2.3,2.1-2.6,3.3-1.4h0ZM813.9,277.8c0,.3-.3.7-.7.7s-.5-.3-.3-.7c.2-.4.5-.7.7-.7s.3.3.3.7ZM838.1,285.1c-.5.1-.7.5-.5.7.6,1-1.5,2.9-2.6,2.5-1.3-.5-1.5-3.1-.2-3.1s1.3-.8,1.8-1.9l.8-1.8.8,1.6c.5,1.3.5,1.7-.1,1.9h0ZM868,287.2c0,1.3-.3,2-1,2s-1-.5-1-1-.5-1.2-1-1.4c-1.7-.7-1.1-1.6,1-1.6s2,.2,2,2h0ZM829.9,287.8c0,.4-.3.9-.7,1.1-.3.2-.7,0-.7-.6s.3-1.1.7-1.1.7.3.7.6ZM739.7,308c0,.7-.5,1.3-1,1.3-1.1,0-1.3-.6-.6-2.3.5-1.3,1.6-.7,1.6,1ZM834.8,308.6c1.5,0,2.5.3,2.1.5-.3.3-1,1.1-1.4,1.8-1.2,2.1-3.3,2.1-4.1-.1-.3-1-.5-2.5-.3-3.2.3-1.1.3-1.2.6-.2.1.9.9,1.2,3,1.2ZM812.4,309c.8,1.6.3,2.9-1.2,2.9s-2.9-1.7-2.4-3c.5-1.4,2.9-1.3,3.6.1h0ZM762,310c.9,1.4.7,1.6-2.4,2.1-2,.3-2.5.1-2.5-.6,0-2.7,3.5-3.7,4.9-1.5ZM753.7,310.9c1.1,1.3.4,3-1.2,3s-1.2-.5-1.1-1.9c0-1,.1-1.9.2-2,.2-.5,1.3,0,2.1.9ZM747.1,313.3c0,.3-.1.7-.3.7-.2,0-.5-.3-.7-.7-.2-.4,0-.7.3-.7s.7.3.7.7ZM846,314.1c.7.8,1.3,1.9,1.3,2.5s.5,1,2.5.9l2.5-.2-2.1,1c-1.2.5-2.2,1.4-2.2,1.9s-.5,1.1-1,1.3c-.5.2-1,.9-1,1.5,0,.9-.2.9-.9.3-.5-.4-1.7-.7-2.5-.5-1.4.2-1.6-.1-1.9-3.1-.4-3.1.3-5.3,1.4-4.7.3.2.7-.3.9-1,.5-1.7,1.4-1.7,3.1.1ZM858,315.5c0,.1.2.8.5,1.4.3,1,.2,1.1-1,.4-1.7-.9-1.9-2.1-.5-2.1s1,.1,1,.3ZM828.1,318.9c1,.9,1.8,1.7,1.8,1.9s-1.1,1-2.5,1.7c-1.4.7-3.2,1.7-4.1,2.2-1.4.8-1.7.8-2.4-.3-1.3-1.7-.5-4.5,1.9-5.9,2.7-1.6,3-1.6,5.3.3ZM739,323.9c0,.3-.3.7-.7.7s-.7-.3-.7-.7.3-.7.7-.7.7.3.7.7ZM665.9,326.7c1,1.1,1.1,1.5.3,1.9-1.4.9-1.3,2.5,0,3.7.7.7,1.5,2.3,1.7,3.8.2,1.4.7,2.7,1.1,2.9.5.2.8,1.3.8,2.6s.5,2.8,1.1,3.5c1.4,1.5,1.5,3.5.2,3.5s-3.1-1.9-4.4-5.1c-1.1-2.7-1.4-2.8-4.7-3.3-2.7-.4-3.6-.8-4.1-2.1-.9-1.9,0-3.3,2.7-3.8,2.5-.5,3.3-3,1.4-4.6-1.7-1.4-1.7-2.2.1-3.5,1.9-1.3,2.1-1.3,3.6.3h0ZM747.4,326.7c-.5.8-2.3.8-2.3,0s1.5-1.3,2.2-.9c.3.1.3.6.1.9h0ZM847.8,333.4c.3.5.5,1.3.5,1.7,0,.5-.1,1.1-.2,1.5,0,.3-.8.7-1.7.7s-1.7-.5-2-1.7c-.3-.9-.3-2,0-2.3.6-.9,2.7-.8,3.5.1ZM681.3,335.7c.5,1.9-.5,2.9-2.7,2.9s-1.2,0-.2-1.2c.7-.7,1.1-1.7,1.1-2.3,0-1.8,1.3-1.3,1.7.6h0ZM840.8,335.8c1.5,1.3,1.5,2.6.2,3.1-1,.4-2.3-1.4-2.3-3.2s.6-1.3,2.1,0ZM675.5,339.1c-.5.6-1.1.7-1.5.3-.9-.9,0-2.1,1.3-1.6.7.3.8.5.2,1.3h0ZM831.3,339.4c0,.3-.3.6-.7.6s-.7-.5-.7-1.1.3-.8.7-.6c.4.2.7.7.7,1.1ZM828.9,342.7c.2.3,0,.7-.3.7s-.7-.3-.7-.7.1-.7.3-.7c.2,0,.5.3.7.7ZM847.3,348.7c0,.3-.3.7-.7.7s-.5-.3-.3-.7c.2-.4.5-.7.7-.7s.3.3.3.7ZM674.9,354.5c0,1.6-1.7.6-1.9-1.1-.2-1.4-.1-1.5.8-.7.6.5,1.1,1.3,1.1,1.9ZM611.2,357.8c-.6.6-1.3.9-1.5.7-.7-.7.4-1.9,1.6-1.9s1,0,0,1.1h0ZM824.2,357.8c.6.2,1.1.9,1.1,1.6,0,1.7-1.4,5.3-2.1,5.3-1.1,0-2.1-2.9-1.6-5.1.4-2.3.7-2.6,2.6-1.9h0ZM608.7,360c.5.3.6.7.2,1-.9.5-2.8-.2-2.8-1s1.4-.7,2.6,0ZM797.2,362c0,.3-.3.7-.7.7s-.5-.3-.3-.7c.2-.4.5-.7.7-.7s.3.3.3.7ZM615.1,364.2c.7,0,1.9.1,2.7.3,1.5.3,5.1,3.2,4.6,3.7-.1.2.3,1.4.9,2.6,1.5,2.7,1.5,6.2,0,6.5-.6.1-2.2-.4-3.6-1.1-1.4-.8-3.8-1.4-5.3-1.4-2.9,0-3.6-.7-3.6-3.5s-.6-2.1-1.3-3-1.3-2.1-1.3-2.5c0-1.1,2.8-2.3,4.3-1.9.7.2,1.9.3,2.7.3h0ZM768.1,365.8c.4,1.1-.6,2.9-1.7,2.9s-.6-.9-.6-2c0-2.2,1.5-2.8,2.3-.9ZM755.1,368.3c0,.2-.3.5-.7.7-.3.2-.7,0-.7-.3s.3-.7.7-.7.7.1.7.3ZM733.7,375.5c0,1.6-1.5,1.4-1.9-.3-.1-.7.2-1.1.8-1.1s1.1.6,1.1,1.4h0ZM828.3,382.6c.8.8,1,1.7.7,3.5-.5,2.9-.9,3.3-1.6,2.2-.3-.6-.9,0-1.6,1.9-.8,2.1-1.3,2.7-2.7,2.7s-1.7.4-1.7,1-.6,1-1.5,1c-1.5,0-1.5-.2-1.2-2.7.3-2.5.7-2.9,3.2-3.9,2.2-.9,2.7-1.3,2.2-2.1-.9-1.5-.8-2.4.4-3.6,1.3-1.3,2.5-1.3,3.9,0h0ZM788.8,391c-.6,2.9-.9,3.3-2,2.3-1.1-.9-1.2-4.1-.1-5.1,1.3-1.3,2.7.4,2.1,2.8h0ZM804.7,393.5c.8,1.3-.7,7.3-2.1,7.8-.5.1-1.6-.4-2.5-1.2-1.7-1.5-1.7-3.9-.2-6.9.7-1.5,3.7-1.3,4.7.3ZM808.5,399.6c0,.7-.3,1.2-.6,1.2-1.1,0-1.5-1.3-1.1-2.7.4-1.1.6-1.3,1.1-.5.3.5.6,1.5.6,2.1h0ZM786.6,400.6c1.4,1.3,1.5,2.2.3,2.2s-4.2-1.7-3.9-2.5c.3-1.1,2.1-1,3.6.3h0ZM560.6,413.5c0,.3-.3.7-.6.7s-.9-.3-1.1-.7c-.2-.4,0-.7.6-.7s1.1.3,1.1.7ZM750.4,430.8c0,1.1-1.9,1.3-3.1.4-1-.8-1.1-1.1-.3-1.6,1.1-.7,3.4.2,3.4,1.2h0ZM747.1,435.9c0,.5-.1,1-.3,1s-.4-.5-.7-1c-.2-.5,0-1,.3-1s.7.5.7,1ZM490.7,442.4c-.2.3-.7.3-1.3,0-1.1-.3-1.3-1.7-.5-2.4.5-.5,2.2,1.7,1.8,2.3ZM489.1,443.8c0,.5-.3,1.2-.7,1.4-.3.2-.7-.2-.7-.9s.3-1.4.7-1.4.7.4.7.9ZM519.5,447.2c-1.1,3.4-5.2,4.6-4.7,1.3.1-.9.4-1.6.7-1.6s.9-.4,1.5-.9c1.4-1.4,3.1-.6,2.5,1.2h0ZM524.5,446.9c0,.7-.5,1.3-1,1.3s-1-.1-1-.3-.2-.7-.4-1.3c-.3-.8,0-1.1,1-1.1s1.4.4,1.4,1.3h0ZM488.4,447.2c0,.5-.3,1-.6,1-.9,0-1.5-1.1-.9-1.6s1.5-.4,1.5.6h0ZM529.9,450.2c0,.3-.3.7-.7.7s-.7-.3-.7-.7.3-.7.7-.7.7.3.7.7ZM734.8,453.6c-.2.9.1,1.7,1,2.3.7.5,1.1,1.3.9,1.6-.2.4,0,.8.6,1.1,1.3.5,1.3,2,0,3-.7.5-1.7.6-3.2.2-2.5-.6-3.1-2.3-2-5.3.4-1,.9-2.3,1.1-3,.5-1.6,2-1.5,1.5.2h0ZM484,458.5c-.1,3.7-1.1,4.2-2.9,1.6l-1.4-2.2,1.5-1.2c2-1.7,2.9-1.1,2.8,1.8h0ZM563.3,459.7c1.5,3.1.9,4.7-1,2.5-.7-.7-1-1.3-.7-1.3s.1-.6-.3-1.3c-.7-1.2-.5-2.7.3-2.7s.9,1.3,1.7,2.8h0ZM729.6,471c-.1.4-.5.7-.9.7s-.7-.3-.9-.7.3-.7.9-.7,1,.3.9.7ZM645,473.8c-.5.5-.8.5-.8.1,0-.9.8-1.7,1.3-1.3.1.2,0,.7-.5,1.1ZM574,478.6c0,.5-.5,1-1,1s-.8-.4-.6-1c.3-.5.7-1,1-1s.6.5.6,1ZM426.5,481.5c.4,2.1-.5,3.1-2.9,3.4-1.2,0-1.6-.8-1.1-2.5s1-2.7,2.2-2.7,1.6.5,1.9,1.8ZM567.3,482.3c0,.3-.1.7-.3.7-.2,0-.5-.3-.7-.7-.2-.4,0-.7.3-.7s.7.3.7.7ZM595,484.9c-.2.4-.7.7-1.1.7s-.4-.4.1-1c.9-1.1,1.7-.9,1,.3h0ZM578.3,486.6c0,2.1-.7,2.9-1.8,1.9s0-4.3.9-4c.4.1.8,1.1.9,2.1h0ZM565,486.3c.7,1.1-.3,2.1-1.4,1.3-.5-.4-.7-1-.5-1.3.5-.8,1.4-.7,1.9,0h0ZM595.4,488.3c0,.3-.6.7-1.3.7s-1.3-.3-1.3-.7.6-.7,1.3-.7,1.3.3,1.3.7ZM630.3,492.3c1.3,1.5,1,2.7-.6,2.7s-.9.3-.9.8-.3.5-1-.2-.9-1.4-.4-2.8c.9-2.1,1.4-2.3,2.9-.5h0ZM573.5,492.1c-.5.1-.9,1.2-.9,2.3s-.3,1.9-.7,1.6c-1.5-.9-.2-4.4,1.7-4.3.3,0,.3.2-.1.4h0ZM591.8,494.1c1.3,1.2,1.1,2.1-.6,2.7-.9.3-1.7,0-2.2-.7-.5-.6-1.3-.9-1.7-.7-.5.2-1.3,0-1.9-.3-1.1-.7-.4-2.1.9-1.7.5.2,1.1,0,1.4-.4.5-.8,2.9-.3,4.1,1.1ZM423.6,493.7c0,.3-.3.7-.7.7s-.5-.3-.3-.7c.2-.4.5-.7.7-.7s.3.3.3.7ZM580.1,496.8c.7,2.1.2,4.3-1.1,4.3s-1.5.7-2,1.6c-.9,1.4-1.3,1.5-2.7.8-2.3-1.1-2.1-1.8,1.3-3.9,2-1.2,3-2.3,3-3.2,0-1.9.6-1.7,1.4.4h0ZM572,507c1.1.8,2.1.8,2.9-.2.7-.8,1.1-1.1.8-.7-.3.6,0,.9,1,.9,2.2,0,1.3,2.2-1.1,2.9-1.6.5-2.1,1.1-2.3,2.5-.2,1.1,0,2.2.3,2.5s-.3.5-1.7.4c-1.6-.1-2.5.2-3.4,1.2-.8,1-1.5,1-2.1.2-.7-.9-.8-1.5-.3-1.8.5-.3.6-1.1.3-2.1-.5-1.9.3-4.4,1.9-6,1.4-1.4,1.6-1.4,3.7.2h0ZM427,508.3c0,.3-.5.8-1.1,1-.9.3-1,.3-.3-.6.9-1.1,1.3-1.3,1.3-.4ZM597.7,512.3c-.5.5-1.7-.7-1.3-1.3.3-.4.6-.3,1,.2.3.5.4,1,.3,1.1ZM618.9,512.7c-.6,2.3-3.7,5-6.7,5.8-2.2.5-3,1.1-3.5,2.6-.6,1.7-.8,1.8-2.3,1.1-2.7-1.3-2.1-3.6,1.5-5.9,1.7-1.1,3.4-1.8,3.9-1.6.4.1,1.7-.6,2.7-1.7,2.2-2.4,5-2.7,4.5-.4h0ZM552.2,514c-.2.9-.8,1.7-1.3,1.7-1.2,0-1.2-.4.3-2.3,1.4-1.9,1.7-1.7,1.1.6ZM557.8,514.2c.3,1.2-1.3,1.1-2.9-.1-.8-.7-.6-1,.7-.9,1.1.1,2.1.6,2.3,1ZM564.5,516c2.5,2.6,2.6,3.1.9,2.6-.9-.2-1.4.3-2,1.9-.4,1.3-1.5,3-2.3,3.9l-1.5,1.7-.4-3.7c-.3-2.8-.1-4.3.9-6.2.7-1.3,1.5-2.5,1.7-2.5s1.5,1,2.7,2.3h0ZM602.7,516.7c2.3-.5,2.9.7.8,1.4-1.4.4-4.7-.9-4.7-1.9s.4-.3.9.1c.5.4,1.8.5,3,.3h0ZM532.6,518.4c0,.3-.3.7-.7.7s-.7-.3-.7-.7.3-.7.7-.7.7.3.7.7ZM435.7,519.4c.7.9.6,1-.6,1s-1.4.4-1.4,1.1-.1.9-.3.7c-.5-.5.3-3.9,1-3.9s.9.5,1.3,1h0ZM551.9,523.5c1.3,0,2.5.2,2.8.2.3,0,.7.7.9,1.4.3,1.1.8,1.3,1.9,1,1.1-.3.9,0-.9,1.5-1.5,1.3-3.3,2-5.5,2.2-1.7.2-3.2.3-3.2.2,0-.7,1.7-3.5,2.1-3.5s.5-.5.5-1-.5-.9-1.6-.6c-1.4.3-1.7.1-1.5-1,0-1,.4-1.3,1.1-1,.5.3,2.1.5,3.3.7ZM440.7,526.4c.2.3,0,.7-.3.7s-.7-.3-.7-.7.1-.7.3-.7c.2,0,.5.3.7.7ZM562,530.6c0,.5-.6,1.2-1.3,1.7-1.5.9-1.7.1-.5-1.8.8-1.3,1.9-1.3,1.9.1ZM442.1,531.2c-.2.5-.4.3-.4-.4,0-.7.1-1.1.3-.9.2.2.3.8,0,1.3ZM548,532.6c-.9.9-1.7.2-1.1-.8.2-.4.7-.5,1.1-.3.4.3.4.7,0,1.1h0ZM442.3,533.5c.9.2,2.1.8,2.7,1.3.9.9.9,1.1-.1,1.7-1.3.7-1.6,3.3-.5,4.4,1.3,1.3.5,3.9-1.3,3.9-1.3,0-1.5-.1-1.2-1.5.5-2-.7-4.6-2.6-5.5-1.5-.7-2.7-4.1-1.5-4.1s.4-.3.1-.8c-.3-.5,0-.6,1.1-.3.9.3,2.3.6,3.3.8ZM448.4,539.1c0,.8-1.3,1.7-1.8,1.2s.4-1.8,1.2-1.8.6.3.6.6h0ZM437,539.8c0,.3-.3.7-.7.7s-.7-.3-.7-.7.3-.7.7-.7.7.3.7.7ZM475.8,553.2c-.5.3-1.3.7-1.7.7s-.2-.3.3-.7,1.3-.7,1.7-.7.2.3-.3.7ZM553.9,562.5c0,.3-.1.7-.3.7-.2,0-.5-.3-.7-.7-.2-.4,0-.7.3-.7s.7.3.7.7ZM541.9,565.1c0,.3-.6.7-1.4.9-1.1.3-1.2.2-.5-.6.9-1.1,1.9-1.3,1.9-.3h0ZM538.3,569.9c0,.8-.3,1.1-.6.7s-.4-.9-.2-1.3c.7-1,.8-.9.8.6h0Z"/>
          <path d="M571.3,509.3c-.3,1-.5,2.2-.2,2.6.3.5.7-.2.9-1.5.6-2.9.2-3.5-.7-1.1h0Z"/>
          <path d="M440.1,535.9c.5.5,1,.7,1.2.5s-.1-.6-.8-.8c-.9-.4-1-.3-.4.3Z"/>
          <path d="M674.9,250.4c0,1.1.3,2.1.7,2.1s.7-.7.7-1.6-.3-1.9-.7-2.1c-.4-.3-.7.5-.7,1.6Z"/>
          <path d="M826.3,249.8c.7,2.3,1.4,2.9,2.6,2.5,1.5-.6,1.3-1.7-.4-2.2s-1.8-.8-2.1-1.2c-.3-.4-.3,0-.1.9h0Z"/>
          <path d="M606.1,251.1c0,.3.3.7.7.7s.7-.3.7-.7-.3-.7-.7-.7-.7.3-.7.7Z"/>
          <path d="M830.6,251.1c0,.3.3.7.7.7s.7-.3.7-.7-.3-.7-.7-.7-.7.3-.7.7Z"/>
          <path d="M815.3,252.8c0,.7.2.9.4.4.2-.5.1-1.1,0-1.3-.2-.3-.4.1-.3.9h0Z"/>
          <path d="M586.2,253.8c-.9.3-1.5,1.1-1.5,1.7s-.4.9-1.6.6c-1.9-.5-2.7.6-1.7,2.5l.8,1.4,1.5-1.4c.8-.8,2-1.4,2.5-1.4s1.5-.9,2.1-2c1.1-2.1.6-2.4-2.1-1.3Z"/>
          <path d="M693.5,255.8c-1.5,1.5-1.4,3.1.1,2.7.5-.1,1.3-.3,1.7-.3s1.1-.3,1.3-.6c1.1-1.1,1.7-.3,1.3,1.5-.3,1.5-.1,2.1.7,2.5,1.8.7,2.9-1.5,1.9-4-.4-1.2-1-2.3-1.4-2.6-1.3-1-4.3-.5-5.7.9h0Z"/>
          <path d="M818.9,255.1c-.5.7,1.5,2.2,2.3,1.7,1.1-.7.7-2.1-.7-2.1-.7,0-1.5.1-1.7.5Z"/>
          <path d="M674.2,255.7c0,.8,1.9,1.5,2.3.8.2-.3-.1-.8-.7-1-1.4-.5-1.6-.5-1.6.2h0Z"/>
          <path d="M752.3,258.3c.7,1.2,2.9,1.5,3.9.5.7-.7-1.1-1.7-3-1.7s-1.4.2-.9,1.2h0Z"/>
          <path d="M635.3,258.9c.4.1,1.2.1,1.7,0,.4-.2,0-.3-.9-.3s-1.3.1-.8.3Z"/>
          <path d="M687.7,259.5c0,.7.2.9.4.4.2-.5.1-1.1,0-1.3-.2-.3-.4.1-.3.9h0Z"/>
          <path d="M694.8,260.3c.5.2,1.1.1,1.3,0,.3-.2-.1-.4-.9-.3-.7,0-.9.2-.4.4h0Z"/>
          <path d="M783.9,262.7c-.1,3.3,1.4,4.7,2.6,2.4,1-1.9.8-4.5-.4-4.9-1.8-.7-2-.5-2.2,2.5h0Z"/>
          <path d="M751.5,261.1c-2.7.5-4.1,2.7-2.8,4.4.8,1.1,1.2,1.2,2.5.5.9-.4,2.1-.9,2.8-1.1,1.3-.4,1.5-2.6.3-3.5-.5-.3-1.7-.5-2.8-.3h0Z"/>
          <path d="M827.6,261.1c-.2.3,0,.8.3,1.1.3.2.7,0,.7-.6,0-1.2-.4-1.4-1-.5h0Z"/>
          <path d="M658.9,261.7c0,1,1.5,2,2.4,1.7.7-.3.8-.6.2-1.3-.8-1-2.6-1.3-2.6-.4h0Z"/>
          <path d="M646,263.3c-.3,1.5.7,4.5,1.4,4.5.2,0,1.1-.7,2-1.3l1.6-1.3-1.8-1.7c-2.2-2.1-2.9-2.1-3.2-.2h0Z"/>
          <path d="M794.8,262.5c-.2.3.2.7.9.7s1.4-.3,1.4-.7-.4-.7-.9-.7-1.2.3-1.4.7Z"/>
          <path d="M654.2,265.2c-.9.5-.9.6,0,.6s1.4.6,1.9,1.3c.9,1.4,2.8,1.9,2.8.7s-.4-.7-.9-.7-1.4-.6-1.9-1.3c-.7-.9-1.2-1.1-1.9-.7h0Z"/>
          <path d="M693,267.1c-1.1.6-.4,2,1,2s1.3-1.7.4-2.3c-.3-.1-.9,0-1.4.3Z"/>
          <path d="M821.2,267.8c0,.7.3,1.3.7,1.3s.5-.3.3-.7c-.2-.4,0-.7.3-.7s.7-.3.7-.7-.5-.7-1-.7-1,.6-1,1.3Z"/>
          <path d="M786.2,268.5c-.3.4-.3.8-.1,1,.1.2.5-.1.7-.7.5-1.1,0-1.3-.5-.3h0Z"/>
          <path d="M676,269.9c-1.3,1.9-1.3,2.9,0,3.5,1.1.4,3.7-1.7,3.7-2.9s-.6-.9-1.3-1.3c-1.1-.5-1.5-.4-2.3.8h0Z"/>
          <path d="M748.5,270c-.5.6-.5,1.1,0,1.8.5.7.8.8,1.1.1.1-.4.8-.8,1.3-.8.9,0,.9-.2.2-1-1-1.2-1.6-1.3-2.5-.1h0Z"/>
          <path d="M783.8,271.2c0,.3.5.7,1,.7s1-.3,1-.7-.5-.7-1-.7-1,.3-1,.7Z"/>
          <path d="M684.3,271.8c0,.3-.9.6-2,.6-2.4,0-2.6,0-2.8,2.3,0,1.1-.7,1.9-1.3,2.2-1.8.5-1.4,2.2.7,2.6,1,.2,2.9.6,4.3.9,3.1.7,4-.2,5.1-4.6.5-2.1.5-3.2,0-3.8-.8-1-3.9-1.2-3.9-.3h0ZM684.9,275.5c0,1.9-1,2.3-1.6.6-.7-1.7-.5-2.3.6-2.3s1,.6,1,1.7h0Z"/>
          <path d="M703.1,273.4c-2.4,1.3-2.7,1.7-1.8,2.4,1.5,1.3,1.3,3.2-.5,3.5-1.7.2-3.4,3.2-2.8,4.8s2.7,1.3,4.7-.6c.9-.9,2.1-1.7,2.7-1.7,1,0,5.5-3,6.4-4.3.3-.3.5-1.5.5-2.5,0-3.5-4.4-4.2-9.2-1.6h0Z"/>
          <path d="M559,273.5c.3.5.7.8,1,.6.7-.4.1-1.6-.7-1.6s-.5.5-.3,1Z"/>
          <path d="M691.2,275.4c-1.3,1.2-1.5,2.4-.7,3.8,1.5,2.8,1.5,3.3-.9,5.6-1.1,1.1-1.8,2.1-1.7,2.4s-.1,1.1-.7,1.7c-2.2,2.9-.8,3,4.8.2,3.9-1.9,5.3-3.3,4.5-4.7-.2-.3-.8-.6-1.3-.6s-.9-.5-.9-1.2-.2-1.7-.4-2.5c-.3-.9,0-1.5,1-2,.9-.4.9-1.2-.1-2.5l-1.5-1.9-2,1.7h0Z"/>
          <path d="M594.2,275c-1,.3-1.2,2.2-.3,2.2,1.4,0,2.7-.9,2.7-1.7s-.9-1.1-2.5-.5Z"/>
          <path d="M597.4,275.6c0,.7.2.9.4.4.2-.5.1-1.1,0-1.3-.2-.3-.4.1-.3.9h0Z"/>
          <path d="M619.9,275c-.8.7-.5,1.5.5,1.5s1-.5,1-1c0-1.1-.8-1.3-1.5-.5h0Z"/>
          <path d="M604.4,275.8c-.3.5-1.3.7-2.4.5-1.9-.3-2.7.6-1.1,1.1,3.3,1.1,4.5,1.1,4.9,0,.5-1.4-.8-2.8-1.5-1.7h0Z"/>
          <path d="M670.9,276.5c0,.3.5.7,1.1.7s.8-.3.6-.7c-.2-.4-.7-.7-1.1-.7s-.6.3-.6.7Z"/>
          <path d="M898.4,281.8c-.7,1.1.8,1.4,1.7.4.7-.8.7-1-.2-1s-1.2.3-1.5.6h0Z"/>
          <path d="M900.8,282.4c-.5.3-.7.9-.4,1.4.4.6.7.5,1.1-.3.8-1.4.5-1.9-.7-1.1h0Z"/>
          <path d="M882.1,292.2c-.5.5-.9,1.5-.9,2.2-.2,1.9-1.9,4.8-2.8,4.8s-1,.7-1.1,1.5l-.3,1.5-.5-1.5c-.3-.8-1.1-1.5-1.7-1.5-1.4,0-2.5,1.5-1.3,1.9.5.2.6,1,.3,2.5l-.4,2.3h3.4c1.9,0,3.4-.3,3.4-.6s1.3-1.5,2.9-2.5c1.6-1.1,3-2.3,3.1-2.6.1-.4.3-1.1.5-1.6.2-.5,0-1.9-.5-3.1-.4-1.2-.7-2.6-.6-3.1.3-1.3-2.4-1.5-3.5-.3h0Z"/>
          <path d="M860.7,294.5c0,.3.5.7,1,.7s1-.3,1-.7-.5-.7-1-.7-1,.3-1,.7Z"/>
          <path d="M858.7,296.5c0,.3.3.7.7.7s.7-.3.7-.7-.3-.7-.7-.7-.7.3-.7.7Z"/>
          <path d="M648.2,300.5c0,.8,2.1,3.4,2.7,3.4s.6-.7.6-1.6-.5-1.7-1.7-1.9c-.9-.2-1.7-.1-1.7,0h0Z"/>
          <path d="M855.9,301c-.7.2-1.2.9-1.2,1.9s-.2,2-.4,2.6c-.6,1.5,1.5,2.1,2.8.8.8-.8.9-1.3.3-2-.4-.5-.6-1.5-.4-2.3.1-.8.2-1.4.1-1.4,0,0-.7.2-1.3.4h0Z"/>
          <path d="M860.7,306.5c0,.4.3.9.7,1.1.4.2.7,0,.7-.6s-.3-1.1-.7-1.1-.7.3-.7.6Z"/>
          <path d="M876.7,307.9c0,.3.3.7.7.7s.7-.3.7-.7-.3-.7-.7-.7-.7.3-.7.7Z"/>
          <path d="M638.8,308.6c0,.3.3.7.7.7s.5-.3.3-.7c-.2-.4-.5-.7-.7-.7s-.3.3-.3.7Z"/>
          <path d="M873.8,311.8c-.3.5-.3,1-.1,1.2.6.6,1.3-.3.9-1.2-.3-.7-.4-.7-.8,0h0Z"/>
          <path d="M657.2,313.9c.2.3.9.7,1.4.7s.8-.3.6-.7c-.2-.4-.9-.7-1.4-.7s-.8.3-.6.7Z"/>
          <path d="M870.5,317.1c-.9.9-.4,1.3,1.2,1,.9-.1,1.7-.5,1.7-.9,0-.7-2.3-.8-2.9-.1h0Z"/>
          <path d="M640.8,318.3c0,.5.3,1,.7,1s.7-.5.7-1-.3-1-.7-1-.7.5-.7,1Z"/>
          <path d="M688.1,325.1c-.3.2-.5.7-.5.9,0,.7,1.9,1.3,2.3.7.4-.7-1.3-2.2-1.9-1.6Z"/>
          <path d="M630.4,329c0,1,.2,1.7.8,1.7,1.1,0,1.2-.7.1-2.2-.8-1.1-.9-1-.9.5h0Z"/>
          <path d="M624.8,338.6c0,1.9.9,2.2,1.9.7.6-1,.5-1.3-.3-1.6-1.5-.6-1.6-.5-1.6.9Z"/>
          <path d="M865,338.6c.2.3.5.7.7.7s.3-.3.3-.7-.3-.7-.7-.7-.5.3-.3.7Z"/>
          <path d="M702.3,348.9c0,.5.3,1.2.7,1.4.4.2.7-.2.7-.9s-.3-1.4-.7-1.4-.7.4-.7.9Z"/>
          <path d="M590.4,355.9c-.2.3-2.5.5-5.1.3-5.1-.3-5.8.3-3.1,2.5.9.8,2.1,1.1,3,.9,1.3-.3,1.7,0,2.3,1.7,1,2.6,3.9,3.9,6.4,3.1,2-.7,2.5-2.5,1.6-5-.3-.9-.7-1.9-.7-2.3,0-1.2-3.7-2.1-4.4-1.1h0Z"/>
          <path d="M867.7,359.4c.2.3.7.7,1.1.7s.6-.3.6-.7-.5-.7-1.1-.7-.8.3-.6.7Z"/>
          <path d="M527.2,363c0,1.1.9,1.9,1.5,1.3s-.2-2.3-.9-2.3-.6.4-.6.9Z"/>
          <path d="M354.7,415.1c-.1.3,0,.9.3,1.5.5.8.6.7.6-.5s-.3-1.9-.9-.9Z"/>
          <path d="M556.3,365.4c-.2.3,0,.7.7.7s.9-.3.7-.7c-.2-.4-.5-.7-.7-.7s-.5.3-.7.7Z"/>
          <path d="M571.7,367.3c-1.5,1.6-1.8,2.3-1.4,4,.5,2.4,1.4,2.7,2,.7.4-1.3.5-1.3,1.3-.1.5.7,1.1,1,1.3.7.3-.3,1.1-.2,1.8.2,1.2.7,1.3.5.9-.9-.9-3.2-2.5-6.5-3.3-6.5s-1.6.9-2.6,1.9Z"/>
          <path d="M582.7,366.4c0,.5.5,1,1,1s.8-.4.6-1c-.3-.5-.7-1-1-1s-.6.5-.6,1Z"/>
          <path d="M541.1,366.4c-.3.3-.5,1.3-.5,2.2s.2,1.5.7.9c.4-.4.6-1.4.5-2.2,0-.8-.4-1.2-.7-.9Z"/>
          <path d="M549.9,369.9c0,.3.6.8,1.4,1,.9.2,1.3,0,1.1-.4-.3-1-2.5-1.5-2.5-.6Z"/>
          <path d="M528.9,378.1c.2.3.5.7.7.7s.3-.3.3-.7-.3-.7-.7-.7-.5.3-.3.7Z"/>
          <path d="M538.8,380.1c-.3.5-1.4.6-3,.3-3.3-.5-3.3.3.1,2.2l2.7,1.5,1.3-1.3c.8-.8,1.2-1.8,1-2.4-.5-1.3-1.5-1.4-2.2-.3Z"/>
          <path d="M347.9,437.9c-.2.3,0,.7.3.7s.7-.3.7-.7-.1-.7-.3-.7c-.2,0-.5.3-.7.7Z"/>
          <path d="M346.9,440.7c-.5.9-.6,1.6-.1,2.1.9.9,2.1,0,2.1-1.5s-1.1-2.2-2-.6Z"/>
          <path d="M840.9,390.2c-.3,1,0,1.7.8,2.3,2.6,1.9,4.3.5,2.5-2.1-1.3-2.1-2.7-2.1-3.3-.2Z"/>
          <path d="M515.2,404.3c-.3.9-.4,2.7,0,3.9.4,1.9.5,2.1.9.9.3-.7.8-1.9,1.1-2.5.5-.8.3-1.6-.3-2.6l-1-1.4-.7,1.7h0Z"/>
          <path d="M848.2,405.1c-.5,1.5.2,2.2,1.2,1.2.6-.6.6-1,0-1.6s-.9-.5-1.2.4h0Z"/>
          <path d="M519.2,406.5c0,.5.6,1,1.3,1,1.7,0,2.3-1.1,1-1.6-1.7-.7-2.3-.5-2.3.6h0Z"/>
          <path d="M521.9,416c0,1.1,1.3,2.3,1.9,1.9.5-.3.5-.7-.2-1.5-1.1-1-1.7-1.2-1.7-.5h0Z"/>
          <path d="M509.8,416.8c0,.3.3.7.7.7s.7-.3.7-.7-.3-.7-.7-.7-.7.3-.7.7Z"/>
          <path d="M509.2,431.1c0,.1.5.4,1,.7.5.2,1,0,1-.3s-.5-.7-1-.7-1,.1-1,.3Z"/>
          <path d="M763.8,432.6c0,.6.3.9.8.8,1.2-.4,1.4-1.9.3-1.9s-1.1.5-1.1,1.1Z"/>
          <path d="M452.4,436.6c0,.5.3.8.7.6.4-.3.5-.7.3-1.1-.6-.9-1-.7-1,.5h0Z"/>
          <path d="M365.9,440.1c-.1.3,0,.9.3,1.5.5.8.6.7.6-.5s-.3-1.9-.9-.9Z"/>
          <path d="M457.7,444.9c0,.3.5.7,1,.7s1-.3,1-.7-.5-.7-1-.7-1,.3-1,.7Z"/>
          <path d="M328.4,505.7c0,1.3,1.6,1.8,2,.7.4-1,0-1.7-1.2-1.7s-.8.5-.8,1Z"/>
          <path d="M659.3,486.8c-.8.8-.5,2.2.5,2.2s1.1.2,1.3.5c.1.3.1.1,0-.3,0-.5-.2-1.3-.2-1.9,0-1-.8-1.3-1.5-.5Z"/>
          <path d="M660.9,495.7c0,1.6,2.5,1.9,3.1.3.5-1.5-.4-2.2-1.1-1-.5.7-.7.7-.7.1s-.3-.8-.7-.8-.7.6-.7,1.3h0Z"/>
          <path d="M684.7,495.8c-1.3,1.8-1.3,4.1-.3,6.1,1.1,2,1.9,2.5,4.4,2.5s3.4-1.1,2.3-2.2c-.4-.4-.7-1.5-.7-2.6,0-4.7-3.4-6.9-5.6-3.7h0Z"/>
          <path d="M694.6,495.6c-.3.9.2,1.9,1.6,3.2,1.9,1.8,1.9,1.9.8,3.2-.6.7-1.7,1.7-2.4,2.1-1.4.8-2.2,3.6-1.1,3.6s.7,1.1-.9,1.9c-1,.5-1.8.5-2,.1-.7-1.2-1.7-.7-1.7.9s-.3,1.9-.7,2.3c-1.8,1.8,1.6,6.6,3.6,5,.5-.3,1.6-.6,2.6-.5.9,0,1.6-.1,1.5-.3-.1-.3.3-.7,1.1-.9.7-.2,1.3-.9,1.3-1.4s.3-.9.7-.9,0-.8-.6-1.9c-1.1-1.5-1.2-2-.5-3,.5-.6,1.6-1.1,2.6-1.1s1.7.3,1.7,1.6.7,2.1,1.5,2.7c1.3.9,1.3,1.1.4,1.7-.6.4-1.3,1.5-1.6,2.5-.6,2.6-1.7,3.6-3.1,3.2-1.6-.5-2.3.8-1,2,1.3,1.3,2.4,1.3,2.5-.2,0-.9.1-.9.6.2.5,1.2.5,1.3,1,.2.3-.7.8-1,1.1-.8.3.3,1.3,0,2.2-.4,1.3-.7,1.9-.5,4.3,1,3,2.1,3.3,2.6,1.6,3.6-.9.5-1,.9-.5,1.4,1.3,1.3,3.1.5,4.3-1.7.5-1.1,1.2-2.1,1.5-2.2.7-.4.5-2.1-.3-2.1s-.5-.5-.3-1.1c1-2.6,1.2-4.3.5-4.3s-.7.5-.7,1.1c0,.9-.2.9-.8.3-.5-.5-1.4-.8-2.1-.8-1,0-1.2-.3-.9-1.5.4-1.4-.7-7.8-1.5-8.8-.9-1.1-5.4-1.1-6.5-.1-.5.6-1.1.9-1.3.7-.6-.6-1.4-5.1-.9-4.7.7.5,1-.1,1.6-2.7l.4-2-1.3,1.5c-1.5,1.8-2.1,1.9-2.1.5s-1.1-1.3-1.7-.3c-.7,1-2.1-.3-2.6-2.3-.5-2-1.5-2.1-2.1-.4h0Z"/>
          <path d="M405.6,503.9c0,1.3.3,1.6,1.5,1.5,1,0,1.5-.5,1.5-1.4s-.5-1.4-1.5-1.5c-1.3-.2-1.5,0-1.5,1.4Z"/>
          <path d="M717.7,505.7c0,.3.5.7,1,.7s1-.3,1-.7-.5-.7-1-.7-1,.3-1,.7Z"/>
          <path d="M411.2,508.7c-.3.9-.2,1.9,0,2.2.3.2.6-.3.9-1.1.2-.8.8-1.5,1.3-1.5s.9-.3.9-.7-.6-.7-1.3-.7-1.5.6-1.7,1.7h0Z"/>
          <path d="M403.6,509c-.5.3-.7.9-.4,1.4.4.6.7.5,1.1-.3.8-1.4.5-1.9-.7-1.1h0Z"/>
          <path d="M717.1,511.8c0,.9.5,1.5.9,1.4,1-.2.8-2.3-.2-2.7-.6-.2-.9.2-.7,1.3Z"/>
          <path d="M405.6,516.4c0,1.5.5,1.7,1.9.7,1.1-.7.4-2.1-1-2.1s-.9.6-.9,1.3Z"/>
          <path d="M414,519.7c-.3.5-.3,1-.1,1.2.6.6,1.3-.3.9-1.2-.3-.7-.4-.7-.8,0Z"/>
          <path d="M720.3,522.2c0,.3.3,1,.7,1.5.5.8.7.7.7-.5s-.3-1.5-.7-1.5-.7.2-.7.5h0Z"/>
          <path d="M700.6,523.4c-.5,1.5.2,2.2,1.2,1.2s.6-1,0-1.6-.9-.5-1.2.4Z"/>
          <path d="M697.9,524.8c.2.5.4,1.5.4,2s.3.9.7.9c1.1,0,.7-3.1-.4-3.6-.8-.3-1-.1-.7.7Z"/>
          <path d="M577,525.2c-.3.4-.3.9-.1,1.1.5.5,1.8-.4,1.8-1.2s-1.1-.8-1.7.1Z"/>
          <path d="M606.1,528.4c.9.7,1.9,1.3,2.2,1.3s0-.6-.9-1.3-1.9-1.3-2.2-1.3,0,.6.9,1.3Z"/>
          <path d="M737,527.8c0,.3.3.7.7.7s.5-.3.3-.7c-.2-.4-.5-.7-.7-.7s-.3.3-.3.7Z"/>
          <path d="M707.3,528.3c-.3.3-1,1.1-1.4,1.8s-1.5,1.5-2.3,1.5c-2.5.4-3.1,1.5-.8,1.5s2.3.3,2.5.7c.7,1.1,2.9.7,4.6-.9,2.1-1.9,2.1-2.6,0-4-1.9-1.2-1.8-1.2-2.7-.5h0Z"/>
          <path d="M719.7,529.8c0,.3.3.7.7.7s.5-.3.3-.7c-.2-.4-.5-.7-.7-.7s-.3.3-.3.7Z"/>
          <path d="M593.4,534.5c-.5.8-.7,1.5-.5,1.7.2.2.7-.3,1.1-1.1,1-1.9.5-2.3-.6-.6h0Z"/>
          <path d="M664.9,533.8c0,.3.3.7.6.7s.8.9,1.1,2c.5,2.3,1.3,2.6,1.9.7.2-.9-.1-1.9-1.1-2.7-1.5-1.5-2.5-1.7-2.5-.7Z"/>
          <path d="M681.6,534.7c0,.6.3,1.1.7,1.1s.7-.3.7-.6-.3-.9-.7-1.1c-.3-.2-.7,0-.7.6Z"/>
          <path d="M425.6,535.9c0,.3-.3.5-.7.3-.3-.2-.7,0-.7.6s.4.9,1,.7c.9-.4,1.5-2.3.7-2.3s-.3.3-.3.7h0Z"/>
          <path d="M705.6,537.4c0,.6.3,1.1.7,1.1s.7-.3.7-.6-.3-.9-.7-1.1c-.3-.2-.7,0-.7.6Z"/>
          <path d="M686.6,539.1c.2.3.5.7.7.7s.3-.3.3-.7-.3-.7-.7-.7-.5.3-.3.7Z"/>
          <path d="M688,540.1c-.6,1.7-.5,2.3.5,2.3,1.5,0,2-1.3.9-2.5-.9-.9-1.1-.9-1.5.1Z"/>
          <path d="M424.3,540.4c0,.4.3.9.7,1.1.4.3.5.9.3,1.3-.2.6.1.7,1.1.5,1.3-.3,1.3-.4.3-1.1-.6-.5-1.1-1.1-1.1-1.6s-.3-.7-.7-.7-.7.3-.7.6h0Z"/>
          <path d="M447.8,547.9c.4,1.2,1.9,1.4,1.9.3s-.5-1.1-1.1-1.1-.9.3-.8.8Z"/>
          <path d="M564.7,555c-.7,1.3,0,2.1,2,2.1s.7-1.7-.3-2.6c-.8-.7-1.1-.5-1.7.5Z"/>
          <path d="M421.6,559c0,.3.3,1,.7,1.5.5.8.7.7.7-.5s-.3-1.5-.7-1.5-.7.2-.7.5h0Z"/>
          <path d="M678.2,559.5c0,1.2,1.6,2,2.7,1.3.5-.3.3-.7-.5-1.4-1.6-1.2-2.2-1.1-2.2,0h0Z"/>
          <path d="M469.8,560.1c-.8.9-.8,1.4,0,2.7,1.1,2,3.3,2.3,3.3.4s-.5-1.9-1.2-2.7c-1.1-1.3-1.3-1.4-2.1-.4h0Z"/>
          <path d="M572.5,560.2c-.3.3-.5,1.1-.5,1.9s.2,1.1.7.6c.4-.4.6-1.3.5-1.9,0-.6-.4-.9-.7-.6Z"/>
          <path d="M682.2,562.5c0,.3.3.7.7.7s.5-.3.3-.7c-.2-.4-.5-.7-.7-.7s-.3.3-.3.7Z"/>
          <path d="M455,564.2c-.7.8-.7,1.3,0,1.9s.9.6,1.3,0c.3-.4,1.2-.9,2.1-.9.9-.1,1.7-.7,1.9-1.1.4-1.2-4.2-1-5.2.2h0Z"/>
          <path d="M475.7,566.3c-.7.9-.7,1,.5.8.9-.1,1.3.2,1.3,1.1,0,2,1.9,1.9,2.8-.1.7-1.4.7-1.9,0-2.3-1.3-.9-3.6-.6-4.5.5Z"/>
          <path d="M416.5,567c-3.1.2-4.2.5-4.2,1.2s-.3,1-.7,1-.7.3-.7.7c0,1.3,1.9,1.4,4.8.1,1.5-.7,3.4-1.5,4.1-1.7.6-.3,1.1-.7,1.1-1.1s0-.6-.1-.5c-.1,0-2.1.2-4.3.3h0Z"/>
          <path d="M678.1,568.3c-.6.7-1.3,1.9-1.5,2.7-.3.9-.8,1.5-1.1,1.5s-.6.5-.6,1c0,1.7,2.5,1.1,4.9-1.3,2.8-2.6,3.2-5.1.9-5.1s-2.1.5-2.6,1.1h0Z"/>
          <path d="M423.4,575.7c-.9,1.8-2.2,6.8-2.9,11.6-.2,1.7.2,3.3,1.7,6.4,1.1,2.2,2.1,4.3,2.1,4.8,0,1.2,2.9,2.6,6.3,3s8-1.1,9.8-3.3c.7-.9.6-1-.6-1s-1.4-.4-1.4-1c0-.9-2.1-2.5-3.1-2.2-.3,0-1.4-.1-2.4-.5-1.1-.3-2.5-.2-3.5.2-2.3,1.1-3.6.3-3.6-2.1,0-1.9,1.3-4.4,2.3-4.4s3.7-3.3,3.7-3.7-.9,0-1.9.2c-2.5.3-4.8-2.7-3.5-4.7.9-1.5,1-4.1,0-3.5-.3.2-.7,0-.7-.6,0-1.7-1.2-1.3-2.3.8h0ZM425.4,585.6c.3.5.7.8,1,.6s.6-.2.6,0c0,1-1.3.9-2.3-.3-.7-.8-.9-1.3-.4-1.3s.9.5,1.1,1h0ZM433.9,597.7c-.5.1-1.4.1-2,0-.7-.2-.3-.3.8-.3s1.6.1,1.2.3h0Z"/>
          <path d="M544.9,577.7c-.5.9-.9,2.1-.7,2.5.2.5,0,1-.3,1.1-.3.1.5.8,1.9,1.5s3,1.8,3.5,2.4c.9,1,1.1.9,2.3-.7.7-.9,1.4-2.5,1.5-3.4s.7-2.1,1.2-2.7c1.5-1.6,0-2.5-4.5-2.4-3.3,0-4,.2-4.9,1.6h0Z"/>
          <path d="M560.1,577.6c-1.1,2.3-1,4.5,0,5.9.9,1.1.9,1.1,1.9-.4.9-1.4.9-1.8,0-4.4l-1.1-2.9-.8,1.7h0Z"/>
          <path d="M552.9,583.9c-.2.3.3.9,1,1.3,1.1.5,1.3.5,1.3-.3s-1.8-1.9-2.3-1.1Z"/>
          <path d="M564,583.5c0,1.5,1.7,4.4,2.7,4.4s2.1.2,3.3.4c1.7.4,2.1.3,2.1-.9,0-2.1-2.7-4.2-5.5-4.2s-2.5.1-2.5.3Z"/>
          <path d="M582,588.8c0,1,.3,1.8.6,1.8,1.1,0,1.3-1,.3-2.3-.9-1.2-.9-1.2-.9.5h0Z"/>
          <path d="M503.9,588.8c.3,1.7,1.7,2.1,2.2.6.3-.6.3-.9,0-.7s-.9,0-1.5-.3c-.8-.7-.9-.6-.7.4Z"/>
          <path d="M593.4,590.6c0,.9.5,1.3,1.3,1.3,1.5,0,1.7-.7.5-1.9s-1.9-1-1.9.5Z"/>
          <path d="M574.2,590.6c-1.6.6-2.1,2.2-.8,2.9.3.3.5.8.4,1.2-.1.5.1,1.3.7,1.9.8,1,.7,1.1-.8.8-1.2-.3-1.7-.8-1.7-1.9,0-1.7-1.2-2.1-3.4-.9-1,.5-1.4.5-1.7-.3-.3-.8-1-.9-2.8-.7-1.4.2-2.9.7-3.3,1.1-1,.8-1.2,7.9-.2,7.9s.8.7,1.1,1.7c.2.9.7,1.7,1.2,1.7.9,0,2.7,3.7,2.1,4.6-.3.3.3,1.1,1.1,1.7,1.9,1.3,2.3,1.3,2.7.1.3-.7,0-.9-.6-.6-.6.2-.9,0-.9-.9s.5-1.3,1.3-1.3,1.3.5,1.4,2.1c0,1.1.2,1.5.4,1,.1-.5.8-2.1,1.3-3.3.9-2.1,1.1-2.1,1.5-1,.3.7.3,1.6,0,1.9-1.1,1.2-.6,1.9,1.1,1.6,1.5-.3,1.7-.1,1.7,1.9s.3,2.4.7,2.6c.4.2.7.9.7,1.5s.9,1.8,2,2.9c1.7,1.5,2.1,1.7,3.1,1,.9-.6,1-1.3.7-3.2-.3-1.4-.1-2.5.3-2.8.3-.2.7-1.2.7-2.2,0-1.7.1-1.7.9-.6,1.1,1.3,3.1.9,3.1-.8s.1-.9.6-.1c.3.5.9.7,1.3.5.9-.6,1-4.4,0-4.4s-.7-.5-.7-1c0-1.4-1.1-1.3-3.7.6-2.3,1.6-2.4,1.6-3.7.3s-1.6-1.3-2-1.3-.6-.4-.4-.9c.1-.4.7-.7,1.1-.7.8.2,1-1.3.3-2-.6-.7-.7-3.8,0-3.8.9,0,.5-3.8-.5-4.7-.5-.5-1-1.3-1-1.7,0-1.4-3.4-2.9-5.1-2.2h0ZM577.3,598.6c0,.3-.1.7-.3.7-.2,0-.5-.3-.7-.7-.2-.4,0-.7.3-.7s.7.3.7.7ZM574.9,600.6c1.5,0,3.8,2.5,3.4,3.6-.5,1.3-2.8,2-3.9,1.1-.5-.4-1.3-.6-1.8-.4-.6.2-.9-.2-1-1.3,0-1,.2-1.7.8-1.7s.9-.7,1-1.5c0-.8.2-1.1.4-.7.1.5.7.9,1.1.9h0ZM586,609c0,.5-.3.8-.7.6-.4-.3-.5-.7-.3-1.1.6-.9,1-.7,1,.5Z"/>
          <path d="M575.3,602.8c.9.5,1.8.8,2,.7.5-.4-1.5-1.5-2.7-1.5s-.3.4.7.9Z"/>
          <path d="M561.1,591.1c-.2.3-.1,1,.1,1.5.3.5.7.6.9.3s.1-1-.1-1.5c-.3-.5-.7-.6-.9-.3Z"/>
          <path d="M558.8,593c0,.6.6,1.3,1.1,1.5.6.2.9-.1.7-.9,0-.6-.6-1.3-1.1-1.5-.6-.2-.9.1-.7.9Z"/>
          <path d="M525.2,593.9c0,.3.3.7.6.7s.9-.3,1.1-.7c.2-.4,0-.7-.6-.7s-1.1.3-1.1.7Z"/>
          <path d="M446,594.7c-.3.4-.3.9-.1,1.1.5.5,1.8-.4,1.8-1.2s-1.1-.8-1.7.1Z"/>
          <path d="M589.4,598.9c0,.6.3,1.1.7,1.1s.7-.3.7-.6-.3-.9-.7-1.1c-.3-.2-.7,0-.7.6Z"/>
          <path d="M554.2,601.3c-2.4,1-3,3.8-.7,3.5,1.9-.3,3.1-1.4,3.1-2.9s-.3-1.5-2.4-.6Z"/>
          <path d="M415.5,603.1c.3.5.4,1.5.3,2.2-.2.7,0,1.3.4,1.3,2.2.3,2.4.1,2.4-2.2s-.1-2.5-1.8-2.4c-1.3.1-1.7.4-1.3,1.1h0Z"/>
          <path d="M420.5,606.8c.3.7,0,1.1-1,1.3-1.9.3-2.1,2.6-.4,4,1.3,1,1.6,1,2.9,0,1.3-.9,1.3-1.3.6-3.4-.4-1.3-1.2-2.5-1.7-2.7-.5-.1-.7.1-.4.8h0Z"/>
          <path d="M596.2,606.9c-.5.7-.6,1.1,0,1.7,1.2,1.2,1.8.9,1.8-.9s-.6-2.1-1.8-.7Z"/>
          <path d="M381.7,567.4c-.5.5.2,2.3,1.4,3.5.5.5.7,1.4.5,1.9s0,1.3.5,1.5c.6.4.9,2.3.8,6.2,0,4.9,0,5.5.9,4.7.5-.5,1.2-1,1.5-1s1.2-1.2,2-2.7c1.3-2.4,1.5-3,.8-5.5-.4-1.5-1.5-4.2-2.5-5.9-1.4-2.5-2.1-3.1-3.5-3.1s-2,.2-2.3.4h0Z"/>
          <path d="M562.2,615.4c-.5,1.1-.3,1.7.6,2.7,1.5,1.5,4.9,1.6,5.5,0,.2-.6.6-1.5.8-2,.3-.6,0-.7-1.2-.5-1.1.3-1.9,0-2.5-.6-1.3-1.5-2.4-1.3-3.2.4Z"/>
          <path d="M360.6,576.1c0,2,.3,2.1,2.4.4l1.6-1.3-1.5-.4c-2.3-.6-2.5-.5-2.5,1.3h0Z"/>
          <path d="M590.7,619.1c0,.5.3.9.6.9s.7-.4.9-.9c.2-.5,0-.9-.6-.9s-.9.4-.9.9Z"/>
          <path d="M399.3,577.1c0,.7.5,1.5,1,1.8,1.4.5,1.7.1,1.2-1.7-.5-1.9-2.2-1.9-2.2-.1h0Z"/>
          <path d="M424.5,619.7c-.2.5,0,1.3.4,1.8.5.5.7.3.7-1.1,0-2-.5-2.3-1.1-.7Z"/>
          <path d="M462.5,619.3c-.5.3-1.5.4-2.1.3-1-.3-1.3,0-1.3,1.4s1.5,2.4,2.3,1.1c.3-.4.7-.5,1-.3.3.2.7-.3.9-1.1.5-1.8.3-1.9-.8-1.3Z"/>
          <path d="M416.6,620.7c-.2.3-.1.7.3.7s.9-.3,1.1-.7c.2-.4.1-.7-.3-.7s-.9.3-1.1.7Z"/>
          <path d="M474.1,622.1c-1.5,2.1-1.3,2.7.8,2.4,1.4-.1,1.8-.5,1.8-1.8,0-2.2-1.3-2.5-2.6-.6Z"/>
          <path d="M370.1,578.9c-.5.1-.9.7-.9,1.3,0,1.1-2.7,1.3-3.9.1-.5-.5-.8-.6-.8,0s-.9,1.7-2.1,2.9c-2.3,2.3-2.3,1.9,0,7.8.2.5-.1.9-.7.9s-1.1.3-1.1.7-.3.7-.7.7-.7-.4-.5-.9c.3-1.1-.3-1.2-2.7-.7-1.6.3-2,.8-2.3,3-.5,3.2-2,3.4-3.6.6-.6-1.1-1.3-2-1.5-2-.7,0-1.3,2.7-1.3,5.5s-.4,2.7-1.7,3.7c-1.4.9-1.7,1.5-1.3,3.1.3,1.3,0,2.3-.6,2.9-.7.7-.9,1.3-.4,1.8.4.5.4,1.8,0,3.6s-.4,3.3,0,4c.5.9.3,1.2-.7,1.3-.8,0-1.3-.3-1.3-1,0-1.7-1.8-3.7-2.9-3.3-.7.3-.9,1-.5,3.1.4,2.1.3,3-.5,3.7-.6.5-.9,1.1-.7,1.4.2.2-.2,1-.9,1.7-1.1,1.2-1.4,1.3-1.9.5-.3-.5-.4-1.3-.2-1.9.5-1.2-1.4-1.1-3.8.1-2.8,1.5-2.5,2.7.7,3.3,1.4.2,2.9.8,3.1,1.3.3.5,1.9,1.1,3.6,1.3,2.9.4,3.3.3,4.5-1.3,1.3-1.8,2.7-1.7,2.7,0s-.8,1.2-2.6.9c-.7,0-.8.1-.3.8.3.5.6,2.5.6,4.6,0,2.9.1,3.7.9,3.7,3.9,0,4.8.3,5.5,1.9.8,1.9,3.1,2.7,5,2,1.1-.4,1-.5-.4-1.1-1.5-.6-1.6-.7-.3-1.6,1.7-1.3,3.6-1.3,4.5,0,.5.7,1.4.9,2.6.6,2-.4,2.2-1.3.8-3.1-.5-.7-1-2.5-1-3.8s-.3-2.7-.7-2.9c-1.1-.7-.7-1.3,1.4-2.1,2.5-.9,3.5-.5,3.1,1.2-.5,2,1.7,1.6,3.3-.6.7-1,2.6-2.3,4.1-2.7,1.5-.5,2.7-1.1,2.6-1.3s.6-1.7,1.5-3.3c1.8-3.2,3.7-3.7,4.7-1.1.9,2.2.9,3.1,0,2.6-1.2-.7-.7,2.1.5,3.2,1.1,1.1,1.3,1,2.5-1.3,1.7-3.3,2.6-3.4,3.9-.6.6,1.3,1.7,2.5,2.4,2.7,1.2.4,4.3-1.3,4.9-2.7.5-1.4-1.9-5.1-4.1-6.1-1.7-.8-2.2-1.5-2.2-2.9s-.4-2-.8-2.1c-.7-.3-.6-.5.1-1.1,1.1-.7,2.4.7,1.7,1.9-.3.4.8.7,2.7.7,3.4,0,4.3-1.1,3.1-3.5-.9-1.9-1.5-10.6-.8-11.8.4-.7.9-.7,2.4,0,1.1.5,1.9,1.2,1.9,1.5,0,1,1,2.3,1.7,2.3s.5-.3.3-.7c-.7-1.1,2.4-3.9,4.5-3.9s1.9-.3,1.9-.7.5-.7,1-.7.8-.4.4-1.5c-.3-.8-.3-2.1.1-2.9.9-1.9-1.4-9.8-2.7-9.3-.5.2-1.1-.2-1.5-.8-.6-1.1-.7-1-1.7.2-.5.7-1.1,2-1.1,2.8s-.5,1.7-1.5,1.9c-2.1.5-6.5-2-6.5-3.7s-.5-1.5-1-1.7c-1.3-.5-1.3-.3-1.9,1.6-.4,1.1-.2,1.5.5,1.5,1.3,0,1.3.9,0,2-.6.5-2,.7-3.7.5-1.5-.2-2.7-.1-2.7,0,0,.6-.5,2.1-1,3.9-.3.9-.1,1.5.3,1.5s.7-.3.7-.7.3-.5.7-.3c.4.2.5,1.1.3,2.1-.3.9,0,2.1.4,2.6.6.7.6,1.2-.2,2-.6.5-1.4,1-1.8,1s-.6.5-.3,1.3c.5,1.7-.6,2.3-1.9,1.1-.6-.5-1.5-1-2-1-1.1,0-3.8-3.9-3.8-5.6s-.6-1.1-1.5-1.1c-.9,0-1.1-.2-.7-.4.4-.1.8-.9.8-1.6s-.3-1.2-.6-1c-.3.3-.5-.2-.3-.9s0-1.8-.5-2.3c-.6-.7-.5-1.4.3-3.1,1.1-2.1,1.1-2.2-.6-3.7-.9-.9-1.7-1.9-1.7-2.2,0-.7-.5-.7-1.8-.2h0ZM407.3,585.9c0,.3-.4.5-.9.5s-.8.5-.6,1.3c.5,2-1.4,1.7-2.3-.3-.7-1.6-.2-2.3,1.5-2.1,1.3,0,2.3.3,2.3.6ZM371.1,592c1.4.9.2,1.7-1.9,1.4-1.1-.1-2.3-.4-2.5-.6s-.7,0-1.3.3c-.7.6-.9.5-.9-.5s.5-1.2,2.9-1.2c1.5,0,3.2.3,3.7.6h0ZM369.3,596.4c.3,0,.6-.3.6-.7s.3-.5.7-.3c1,.6.1,1.7-1.4,1.7s-1.3-.4-1.2-1.5c0-1.1.1-1.2.4-.3.1.7.6,1.2.9,1.2ZM375.5,599.6c.8,1.3-.4,4.7-1.9,5.4-1.7.8-2.3.5-2.3-1.3s-.3-1.2-.7-1.2-.7-.5-.6-1.2c0-.7.1-.9.4-.3.3.7.6.5,1.3-.5.9-1.4,3.1-1.9,3.7-.9h0ZM391.3,601.8c.7,1.4.3,1.7-1.3.7-.5-.3-.7-.9-.5-1.3.7-1,.9-.9,1.7.6h0ZM379.3,605.5c0,.5-.3.8-.7.6-.3-.2-.7-.7-.7-1.1s.3-.6.7-.6.7.5.7,1.1ZM381.1,606.8c-1,1.1-1.3.9-.7-.6.2-.6.7-.9,1-.7s.2.7-.3,1.3ZM387.2,609c.1.8,0,1.5-.5,1.5-.9,0-2.1-2.3-1.6-2.9.8-.8,1.9,0,2.1,1.5h0ZM367.6,608.5c.2.3,0,.7-.3.7s-.7-.3-.7-.7.1-.7.3-.7c.2,0,.5.3.7.7ZM357.5,609.1c.2.4,0,.9-.7,1.1-1.3.5-2,0-1.3-1,.5-.9,1.5-.9,2,0ZM362.9,609.1c.2.4,0,.9-.7,1.1-1.3.5-2,0-1.3-1,.5-.9,1.5-.9,2,0ZM363.5,614.1c.2.5,0,1-.3,1s-.7-.5-.7-1,.1-1,.3-1,.4.5.7,1ZM386.4,620.3c-.7.7-1.3-.3-.7-1.2.4-.7.5-.7.8,0,.1.5,0,1-.1,1.2h0ZM360.2,619.8c.2.3,0,.7-.3.7s-.7-.3-.7-.7.1-.7.3-.7c.2,0,.5.3.7.7ZM353.6,623.4c2.1,2,3.5,4,3.3,4.3-.3.5-.8.5-1.7,0-2.1-1.1-2.5-.8-2.9,2.3-.3,1.6-.8,3.1-1.2,3.4-.5.3-.3.6.2,1,.7.4.7.6.1.6-1.3,0-2.2-2.3-1.7-4.9.3-1.8.1-2.4-.5-2.4s-.3-.5.7-1.3c1.4-1.1,1.5-1.5.8-3-.4-.9-1.1-1.7-1.5-1.7s-.7-.5-.7-1c0-1.7,1.2-1.1,5.1,2.6h0ZM343.6,622.6c-.2.5-.4.3-.4-.4,0-.7.1-1.1.3-.9.2.2.3.8,0,1.3Z"/>
          <path d="M464.5,622.7c.1.5.7,1,1.1,1.1.5.2.8,0,.6-.6-.1-.5-.7-1-1.1-1.1-.5-.2-.8,0-.6.6Z"/>
          <path d="M480.5,623.7c0,.9-.6,1.6-1.4,1.8-.7.2-1.3.7-1.3,1.1,0,.9,2.9.2,3.2-.7.1-.3.7-.6,1.2-.6s.9-.3.9-.7-.4-.7-.9-.7-1.1-.4-1.3-.9c-.2-.4-.4-.1-.4.6h0Z"/>
          <path d="M359.2,581.1c0,.3.5.5,1,.3.5-.3,1-.5,1-.7s-.5-.3-1-.3-1,.3-1,.7Z"/>
          <path d="M407.3,581.5c0,.5.3.8.7.6.4-.3.5-.7.3-1.1-.6-.9-1-.7-1,.5h0Z"/>
          <path d="M425,626.4c0,.5.3.8.7.6.4-.3.5-.7.3-1.1-.6-.9-1-.7-1,.5h0Z"/>
          <path d="M472.9,632.2c-1.5,1-.9,3.1.9,3.1s2-.7,1.1-2.5c-.7-1.3-.9-1.3-1.9-.6h0Z"/>
          <path d="M490.1,612.4c-.1.5-.4,1.9-.6,3.3-.4,2.3-.3,2.4,1.3,2.1,1.7-.3,2.1-1.5,1.3-4.7-.5-1.6-1.5-1.9-1.9-.7h0Z"/>
          <path d="M319.2,594.7l-1.5,1.6h2.4c2.7,0,3.5-.8,2.4-2.2-1.1-1.3-1.5-1.3-3.3.6Z"/>
          <path d="M463.5,583.6c-2.1,1.3-2.2,1.5-1.2,2.5,1.7,1.6,3.6,1.5,4.5-.4.6-1.3.5-1.9-.1-2.5-.7-.7-1.3-.7-3.1.5Z"/>
          <path d="M475.6,585.7c-.6.7-.7,1.1-.1,1.5,1,.6,1.5,0,1.2-1.4-.2-1-.3-1.1-1.1,0h0Z"/>
          <path d="M309.5,575.1c-.2.3,0,.7.3.7s.7-.3.7-.7-.1-.7-.3-.7c-.2,0-.5.3-.7.7Z"/>
          <path d="M468.7,588.8c0,.9,1.2,1.5,1.6.7.2-.3,0-.7-.6-1-.5-.2-1,0-1,.3h0Z"/>
          <path d="M474.5,591.3c-.6,1.5-.5,1.6.6,1.2.5-.3,1-.8,1-1.3,0-1.3-1.1-1.2-1.6.1h0Z"/>
          <path d="M466.1,596.2c.5.3,1.2.4,1.6.2.3-.2.4,0,.1.3-.3.5-.9.8-1.5.8s-.9.2-.3.9c1.1,1.5,5.7.5,5.7-1.2s-.5-1.3-3.3-1.5c-2.2-.1-3,0-2.3.5h0Z"/>
          <path d="M487.6,644.9c0,.3.3.7.7.7s.7-.3.7-.7-.3-.7-.7-.7-.7.3-.7.7Z"/>
          <path d="M400.5,618.3c-.3.2-.5,1.6-.5,3,0,2.7,1.1,3.4,2.6,1.6.7-.8.6-1.3-.2-2.6-.6-.9-.9-1.8-.6-2,.2-.3.1-.5-.3-.5s-.9.2-1.1.5Z"/>
          <path d="M407.7,619.8c.2.3.5.7.7.7s.3-.3.3-.7-.3-.7-.7-.7-.5.3-.3.7Z"/>
          <path d="M380,631.3c0,1.9.1,2,.6.9.8-1.9.8-3,0-3s-.7,1-.6,2.1Z"/>
          <path d="M377.7,632.3c-.6.6-.5,2.2.2,2.2s1.5-1.9.8-2.3-.7-.2-1,0Z"/>
        </g>
        <path d="M509.7,324.1c.3.5.4,1.5.3,2.2-.2.7,0,1.3.4,1.3,2.2.3,2.4.1,2.4-2.2"/>
        <path d="M478.1,331.3c-.5.5.2,2.3,1.4,3.5.5.5.7,1.4.5,1.9s0,1.3.5,1.5c.6.4.9,2.3.8,6.2,0,4.9,0,5.5.9,4.7.5-.5,1.2-1,1.5-1s1.2-1.2,2-2.7c1.3-2.4,1.5-3,.8-5.5-.4-1.5-1.5-4.2-2.5-5.9-1.4-2.5-2.1-3.1-3.5-3.1s-2,.2-2.3.4h0Z"/>
        <path d="M504.1,336.6c-.2.5-.5,1.4-.6,1.9-.5,1.6.7,2.9,2,2.1.6-.4,1.1-.9,1-1.2,0-.3,0-1.2,0-2.1,0-1.9-1.8-2.3-2.3-.7Z"/>
        <path d="M456.9,339.9c0,2,.3,2.1,2.4.4l1.6-1.3-1.5-.4c-2.3-.6-2.5-.5-2.5,1.3h0Z"/>
        <path d="M495.7,340.9c0,.7.5,1.5,1,1.8,1.4.5,1.7.1,1.2-1.7-.5-1.9-2.2-1.9-2.2-.1h0Z"/>
        <path d="M512.1,341.6c.2-.4.1-.7-.3-.7s-.9.3-1.1.7c-.2.3-.1.7.3.7s.9-.3,1.1-.7"/>
        <path d="M447.6,343.9c-.7.2-1.3,1.1-1.3,1.8,0,1.7-4,1.8-5.6.2s-1.2-.9-1.2,0-1.4,2.5-3.1,4.2c-3.3,3.3-3.3,2.8,0,11.4.3.7-.2,1.3-1.1,1.3s-1.6.4-1.6,1-.5,1-1,1-1-.6-.8-1.3c.4-1.6-.4-1.7-4-1.1-2.3.5-2.9,1.2-3.4,4.4-.8,4.7-2.9,5-5.2.9-.9-1.6-1.9-2.9-2.2-2.9-1,0-1.8,3.9-1.8,8s-.6,4-2.5,5.3c-2,1.3-2.4,2.1-1.9,4.5.4,1.8,0,3.3-.9,4.3-1.1,1-1.3,1.8-.6,2.6.6.7.6,2.6,0,5.2s-.6,4.8,0,5.8c.7,1.4.5,1.7-1,1.8-1.2,0-1.8-.5-1.8-1.5,0-2.4-2.6-5.3-4.2-4.8-1.1.4-1.3,1.5-.7,4.6.6,3,.4,4.4-.7,5.4-.9.8-1.3,1.7-1,2,.3.3-.3,1.5-1.4,2.5-1.6,1.7-2,1.8-2.8.8-.4-.8-.6-1.9-.3-2.7.7-1.7-2-1.7-5.5.2-4.1,2.1-3.7,4,1,4.8,2,.3,4.2,1.2,4.6,1.9.4.7,2.8,1.6,5.2,1.9,4.2.6,4.8.5,6.6-1.8,1.9-2.6,4-2.5,4,0s-1.2,1.7-3.8,1.4c-1.1,0-1.2.2-.5,1.2.5.7.9,3.7.9,6.7,0,4.3.2,5.3,1.4,5.3,5.7,0,7,.5,8.1,2.8,1.2,2.7,4.6,4,7.3,2.9,1.6-.6,1.5-.8-.6-1.6-2.2-.9-2.3-1-.5-2.3,2.4-1.8,5.2-1.8,6.6,0,.7,1,2,1.3,3.8.9,2.9-.6,3.2-1.8,1.2-4.6-.8-1.1-1.5-3.6-1.5-5.5s-.4-4-1-4.3c-1.7-1.1-1.1-1.9,2-3.1,3.6-1.4,5.1-.8,4.5,1.7-.8,2.9,2.5,2.3,4.9-.9,1.1-1.5,3.8-3.3,5.9-4,2.2-.8,3.9-1.7,3.8-1.9s.9-2.4,2.2-4.8c2.6-4.7,5.3-5.3,6.8-1.6,1.3,3.2,1.3,4.6,0,3.8-1.7-1.1-1.1,3,.8,4.7,1.7,1.6,1.9,1.5,3.7-1.9,2.5-4.8,3.8-5,5.7-.9.9,1.8,2.4,3.7,3.5,4,1.7.6,6.2-1.8,7.1-4,.8-2-2.7-7.4-5.9-8.9-2.4-1.2-3.2-2.1-3.2-4.2s-.6-2.9-1.2-3.1c-1-.4-.9-.8.2-1.6,1.6-1.1,3.5,1.1,2.4,2.8-.4.6,1.2,1,3.9,1,5,0,6.3-1.6,4.6-5.1-1.4-2.7-2.2-15.4-1.2-17.1.6-1.1,1.3-1.1,3.5,0,1.6.7,2.8,1.7,2.8,2.2,0,1.5,1.5,3.4,2.5,3.4s.7-.5.4-1.1c-1.1-1.7,3.5-5.7,6.5-5.7s2.7-.5,2.7-1,.7-1,1.5-1,1.2-.6.6-2.2c-.5-1.2-.4-3,.2-4.3,1.3-2.7-2-14.2-3.9-13.5-.7.3-1.7-.3-2.1-1.2-.9-1.6-1.1-1.5-2.4.3-.8,1.1-1.6,2.9-1.6,4.1s-.8,2.4-2.2,2.7c-3,.8-9.4-2.9-9.4-5.4s-.7-2.1-1.5-2.5c-1.8-.7-1.9-.5-2.8,2.3-.6,1.7-.3,2.2.8,2.2,1.9,0,1.9,1.4,0,2.9-.9.8-2.9,1.1-5.3.7-2.1-.3-3.9-.2-4,0,0,.9-.7,3.1-1.5,5.7-.4,1.4-.2,2.2.5,2.2s1.1-.5,1.1-1.1.5-.7,1-.4c.6.3.7,1.7.4,3-.4,1.3,0,3,.6,3.8.9,1.1.9,1.7-.3,2.9-.9.8-2,1.5-2.6,1.5s-.9.8-.5,1.8c.8,2.4-.9,3.4-2.7,1.6-.9-.8-2.1-1.5-2.9-1.5-1.7,0-5.5-5.7-5.5-8.2s-.9-1.6-2.1-1.7c-1.3,0-1.7-.3-1-.6.6-.2,1.2-1.4,1.2-2.3s-.4-1.7-.9-1.5c-.5.4-.7-.3-.4-1.4s0-2.6-.7-3.4c-.9-1.1-.8-2,.4-4.6,1.6-3,1.6-3.2-.9-5.3-1.4-1.3-2.4-2.7-2.4-3.2,0-1.1-.7-1.1-2.6-.3h0ZM501.7,354.1c0,.5-.6.8-1.4.8s-1.2.7-.9,1.9c.8,2.9-2,2.4-3.4-.5-1-2.3-.3-3.3,2.2-3.1,1.8,0,3.4.5,3.4.9ZM449.1,363c2,1.3.3,2.4-2.8,2-1.7-.2-3.3-.6-3.6-.9s-1.1,0-1.8.5c-1,.9-1.3.7-1.3-.8s.7-1.7,4.2-1.7c2.2,0,4.7.5,5.3.9ZM446.5,369.4c.5,0,.9-.5.9-1.1s.5-.7,1-.4c1.5.9.2,2.4-2,2.4s-1.8-.6-1.7-2.2c0-1.6.2-1.7.6-.5.2,1,.9,1.7,1.4,1.7h0ZM455.4,374c1.2,1.9-.6,6.9-2.7,7.9-2.5,1.2-3.4.7-3.4-1.9s-.4-1.7-1-1.7-1-.8-.9-1.7c0-1.1.2-1.3.6-.4.4,1,.9.8,1.9-.7,1.4-2,4.6-2.7,5.4-1.4h0ZM478.4,377.2c1.1,2,.4,2.4-1.8,1.1-.7-.5-1-1.4-.7-1.9,1-1.5,1.4-1.4,2.5.9ZM460.9,382.6c0,.8-.4,1.2-1,.9-.5-.3-1-1-1-1.6s.5-.9,1-.9,1,.7,1,1.6ZM463.5,384.5c-1.5,1.6-1.8,1.3-1.1-.9.3-.9,1-1.3,1.5-1s.3,1.1-.4,1.8ZM472.4,387.7c.2,1.2,0,2.1-.7,2.1-1.3,0-3.1-3.4-2.3-4.3,1.2-1.2,2.7,0,3,2.1ZM443.9,386.9c.3.5,0,1-.4,1s-1.1-.5-1.1-1,.2-1,.4-1c.3,0,.8.4,1.1,1ZM429.4,387.9c.3.6,0,1.3-1,1.6-1.8.8-2.9,0-1.9-1.5.8-1.4,2.1-1.4,2.9,0h0ZM437.1,387.9c.3.6,0,1.3-1,1.6-1.8.8-2.9,0-1.9-1.5.8-1.4,2.1-1.4,2.9,0h0ZM438,395.2c.3.8,0,1.5-.4,1.5s-1-.7-1-1.5.2-1.5.4-1.5.6.7,1,1.5ZM471.2,404.1c-1,1-1.8-.5-1-1.7.6-1.1.8-1.1,1.2,0,.2.7,0,1.5-.2,1.7h0ZM433.2,403.4c.3.5,0,1-.4,1s-1.1-.5-1.1-1,.2-1,.4-1c.3,0,.8.4,1.1,1ZM423.6,408.7c3,2.9,5.1,5.8,4.8,6.3-.4.8-1.2.8-2.4,0-3-1.7-3.6-1.2-4.3,3.4-.4,2.3-1.2,4.6-1.7,5-.7.4-.5.9.3,1.5,1,.6,1,.9.2.9-1.9,0-3.2-3.4-2.5-7.2.4-2.6.2-3.5-.8-3.5s-.4-.8,1.1-1.8c2-1.7,2.2-2.1,1.2-4.4-.6-1.4-1.6-2.5-2.1-2.5s-1-.7-1-1.5c0-2.5,1.7-1.7,7.4,3.8h0ZM409.2,407.5c-.3.8-.6.5-.6-.6,0-1.1.2-1.7.5-1.3.3.3.4,1.2,0,1.8Z"/>
        <path d="M455.6,344.9c0,.3.5.5,1,.3.5-.3,1-.5,1-.7s-.5-.3-1-.3-1,.3-1,.7Z"/>
        <path d="M503.7,345.3c0,.5.3.8.7.6.4-.3.5-.7.3-1.1-.6-.9-1-.7-1,.5h0Z"/>
        <path d="M415.6,358.6l-1.5,1.6h2.4c2.7,0,3.5-.8,2.4-2.2-1.1-1.3-1.5-1.3-3.3.6Z"/>
        <path d="M508.5,359.7c-2.1,1.3-2.2,1.5-1.2,2.5,1.7,1.6,3.6,1.5,4.5-.4.6-1.3.5-1.9-.1-2.5s-1.3-.7-3.1.5Z"/>
        <path d="M513.4,371.9c-2.2-.1-3,0-2.3.5.5.3,1.2.4,1.6.2"/>
        <path d="M512.8,372.9c-.3.5-.9.8-1.5.8s-.9.2-.3.9c1.1,1.5,5.7.5,5.7-1.2"/>
        <path d="M496.8,382.2c-.3.2-.5,1.6-.5,3,0,2.7,1.1,3.4,2.6,1.6.7-.8.6-1.3-.2-2.6-.6-.9-.9-1.8-.6-2,.2-.3.1-.5-.3-.5s-.9.2-1.1.5Z"/>
        <path d="M504.1,383.7c.2.3.5.7.7.7s.3-.3.3-.7-.3-.7-.7-.7-.5.3-.3.7Z"/>
        <path d="M476.4,395.2c0,1.9.1,2,.6.9.8-1.9.8-3,0-3s-.7,1-.6,2.1h0Z"/>
        <path d="M474,396.2c-.6.6-.5,2.2.2,2.2s1.5-1.9.8-2.3-.7-.2-1,0Z"/>
        <path d="M902.4,384.6c.3.5.4,1.5.3,2.2-.2.7,0,1.3.4,1.3,2.2.3,2.4.1,2.4-2.2"/>
        <path d="M870.8,391.8c-.5.5.2,2.3,1.4,3.5s.7,1.4.5,1.9,0,1.3.5,1.5c.6.4.9,2.3.8,6.2,0,4.9,0,5.5.9,4.7.5-.5,1.2-1,1.5-1s1.2-1.2,2-2.7c1.3-2.4,1.5-3,.8-5.5-.4-1.5-1.5-4.2-2.5-5.9-1.4-2.5-2.1-3.1-3.5-3.1s-2,.2-2.3.4Z"/>
        <path d="M896.7,397.1c-.2.5-.5,1.4-.6,1.9-.5,1.6.7,2.9,2,2.1.6-.4,1.1-.9,1-1.2,0-.3,0-1.2,0-2.1,0-1.9-1.8-2.3-2.3-.7h0Z"/>
        <path d="M849.6,400.4c0,2,.3,2.1,2.4.4l1.6-1.3-1.5-.4c-2.3-.6-2.5-.5-2.5,1.3h0Z"/>
        <path d="M888.4,401.4c0,.7.5,1.5,1,1.8,1.4.5,1.7.1,1.2-1.7-.5-1.9-2.2-1.9-2.2-.1Z"/>
        <path d="M904.8,402.1c.2-.4.1-.7-.3-.7s-.9.3-1.1.7c-.2.3-.1.7.3.7s.9-.3,1.1-.7"/>
        <path d="M878.7,458.7c.2-.4.1-1.1-.2-1.5-.8-.8,1.1-2.8,2.7-2.8.8,0,1-.1.6-.5-.3-.3-.5-1.9-.4-3.6,0-3.2.3-3-5.3-5.7-.5-.2-.5-.7,0-1.1s.6-.9.3-1.2c-.2-.2-.2-.7,0-.9.3-.3.8-.2,1,.3.5,1,1,.7,2.5-1.4.9-1.3.9-2-.4-3.8-1.8-2.7-.9-3.9,2.2-2.9,1.2.4,2.3.5,2.5.4.5-.5-.9-2.8-2.9-4.8-1.3-1.4-1.6-2.3-1.3-3.9.4-1.6.2-2.2-1.1-3.2-1.1-.7-1.6-1.6-1.6-2.5,0-1-.2-1.5-1-1.6-.6,0-1.5-1-2.5-2.6-1-1.6-2-2.7-2.8-2.9-1-.4-1.1-.6-.4-1.4.5-.6,1.2-.6,1.6-.1,1.2,1.2,3.8,1.4,4.3.4.3-.7,0-1.3-1.8-2.6-1.7-1.2-2.3-2-2.2-3,0-.8-.2-1.4-.5-1.5-.3,0-.5-.9-.5-1.9,0-1.6.1-1.9,1-1.7.6.2,1.2.7,1.4,1.2.5,1.2,1.8-.1,2.7-2.7,1-3,0-3.7-2.7-1.9-1.2.8-2.6,1.4-3.2,1.2-.5-.2-2.1.6-3.5,1.5-2.4,1.7-2.6,2-2.4,4,.3,2.2-.8,3.1-2,1.8-.6-.7-.2-1.4,1.2-2.5.6-.5.5-.6-.3-.8-.6-.1-2.2-1.4-3.6-2.9-2-2.2-2.6-2.6-3.2-2-2.9,2.7-3.7,3.1-5.4,2.4-1.9-.8-4.2.2-5,2-.5,1-.4,1.1,1,.5,1.5-.6,1.6-.6,1.3.9-.3,2.1-1.7,3.4-3.3,3.2-.8-.2-1.6.3-2.3,1.4-1.2,1.7-.7,2.4,1.6,2.8.9.2,2.4,1.1,3.3,2.1,1,1,2.1,1.8,2.5,1.7,1.3-.2,1.5.5.5,2.5-1.1,2.4-2.2,2.8-3.1,1.2-1-1.8-2.4,0-2,2.7.2,1.2-.3,3.4-1.1,4.8-.7,1.4-1.2,2.7-1,2.8s.7,1.6,1.1,3.4c.9,3.6-.1,5.2-2.7,4-2.1-1-2.8-1.7-1.8-1.9,1.4-.3-.9-2-2.6-2-1.6,0-1.7.2-.9,2.7,1,3.6.5,4.3-2.4,3.1-1.3-.5-3-.7-3.6-.3-1.1.5-2.2,3.9-1.7,5.3.6,1.4,4.9,2.4,7.2,1.7,1.8-.6,2.6-.5,3.6.6.7.7,1.7,1.2,2.1,1,.7-.3.8,0,.6.9-.3,1.3-2.3,1.1-2.5-.3,0-.5-1,0-2.4,1.4-2.5,2.3-2.4,3.8.2,4.7,2,.7,8.4,6.7,8.7,8,.2.8-.1,1.1-1.8,1.6-1.1.4-2.2.5-2.5.2-.7-.7-2.3-1-2.9-.5-.3.3-.1.6.3.7,1.3.3,1,4.5-.5,5.9-.7.7-1.1,1.5-.9,1.8.3.3.1.8-.3,1.2-.5.5-.3.8.8,1.4.8.4,1.6,1.3,1.9,2.2.7,2,7.7,6.1,8.3,4.9.2-.5,1-.6,1.6-.4,1.2.4,1.2.2,1.1-1.3-.1-.9-.6-2.2-1.2-2.8-.7-.7-.8-1.6-.2-2.4,1.1-1.8,6.1-3,7.3-1.7.5.5,1.4.7,1.9.6,1.2-.5,1.2-.7.3-2.5-.5-1.1-.9-1.3-1.4-.7-1,.9-1.6.2-1.4-1.4,0-.8.9-1.9,2.3-2.9,1.2-.9,2-1.7,1.9-1.9-.4-.5-1.1-1.9-2-3.6-.4-.9-1-1.2-1.3-.9-.3.3-.3.7,0,1,.2.2,0,.6-.3.7-.4.1-1.1-.5-1.6-1.3-.4-.8-1.4-1.5-2.1-1.6-.9-.1-1.3-.5-1.2-1.6,0-.8.3-1.7.6-2,.3-.3,0-.8-.6-1.2-1.5-.8-1.2-2.1.6-2.1.8,0,1.8-.3,2.1-.7.8-.8,5.5.2,6.6,1.5.5.5,1.2.4,1.8-.2.6-.6,1-.6.8-.2-.2.4,0,1.2.5,1.7.5.5,1,.7,1.1.3,0-.4.5-.2.8.5s1.2,1.3,1.9,1.4c.9.1,1.4.7,2,2.5.7,2.2.7,2.3,3,2.3,1.3,0,2.5.2,2.7.5.5.5.8.2,1.4-1.1h0ZM846.9,479.2c-.2-.2,0-.7.3-1,.4-.4.3-.9-.5-1.4-1.8-1.1-.1-2.2,1.9-1.4,1.6.6,1.7,1.5.4,2.6-1,.8-1.9,1.4-2.1,1.2ZM868.9,449.8c-1.6.3-1.3-1.1.4-2.4.9-.7,1.9-1.3,2.2-1.3s.6-.5.7-1.1c0-.9.3-.9,1-.2s.5,1.2-1.3,2.9c-1.2,1-2.6,2-3.1,2.1h0ZM867.2,445.4c-.2.2-.2.7,0,.9.2.2,0,.6-.3.7-1.1.3-1.2-1.1-.1-2.2.6-.6,1.2-.6,1.9.3.7.8.7,1,0,.5-.6-.4-1.3-.5-1.5-.2h0ZM860.6,447.3c-1.5-.4-3-3.7-2.4-5.2.7-1.8,1.4-1.9,2.6-.6.5.5,1,.7,1.3.4.2-.2.9,0,1.3.5.5.5.5.7-.1.5-.7-.3-.8,0-.6,1.3.3,1.7-1,3.5-2.1,3.3h0ZM847.6,456.6c-1.5-.5-1.3-1,.4-1.4.6,0,1.1.2,1.3.6.2,1.2,0,1.3-1.7.8ZM853.7,445.6c-.4-.4-.4-.8,0-.9.4,0,.9,0,1.2.3.2.2.2.7,0,.9-.3.3-.8.1-1.2-.3ZM851.5,445.9c0-1.5.3-1.5.9,0,.3.6.1,1.1-.3,1.2s-.7-.4-.7-1.1h0ZM845.6,448.5c-.6-.5-1-1.1-.7-1.4.6-.6,3.2.2,3.2,1,0,1.1-1.4,1.3-2.5.4ZM860.2,435.4c-.4-.1-.5-.4-.3-.7.3-.3.8-.3,1,0,.3.3.4.6.3.7-.1.1-.6.2-1,0ZM867,428c-.4-.2-.5-.7-.3-1.2.6-1.3,1.5-1.4,1.7-.2.3,1-.4,1.7-1.4,1.4h0ZM863.1,431.7c-.4-.2-.5-.7-.3-1.2.6-1.3,1.5-1.4,1.7-.2.3,1-.4,1.7-1.4,1.4h0ZM859.2,428.5c-.5-.2-.7-.7-.5-.9.3-.3.8-.1,1.2.3s.6.8.5.9-.6,0-1.2-.3ZM838.4,439.8c0-.9,1.2-.6,1.3.4.2.8.1.9-.6.6-.4-.2-.7-.7-.7-1ZM857.7,422.1c-.4-.1-.5-.4-.3-.7.3-.3.8-.3,1,0,.3.3.4.6.3.7-.1.1-.6.2-1,0ZM860,415c-2.9,0-5.3-.5-5.4-.9-.2-.6.2-.9,1.2-1.2,2.3-.6,2.3-1.1.5-3.7-.9-1.3-1.6-2.8-1.5-3.3.2-.5-.2-.7-.8-.6-.8.2-.9,0-.5-.3,1-.9,3.2.2,4.7,2.4,1,1.5,1.6,1.8,2,1.4.4-.4.6.2.3,1.4-.2,1.8-.1,2.1,1.5,2.7.9.4,2,.5,2.3.2.2-.2.8-.1,1.2.3,1.2,1.3,0,1.7-5.5,1.6h0ZM867.8,408.7c-.2-.5,0-.5.6,0,.6.5.7.9.4.9-.3,0-.7-.4-.9-.9Z"/>
        <path d="M848.3,405.4c0,.3.5.5,1,.3.5-.3,1-.5,1-.7s-.5-.3-1-.3-1,.3-1,.7Z"/>
        <path d="M896.4,405.8c0,.5.3.8.7.6.4-.3.5-.7.3-1.1-.6-.9-1-.7-1,.5Z"/>
        <path d="M777.7,465.1l-1.5,1.6h2.4c2.7,0,3.5-.8,2.4-2.2-1.1-1.3-1.5-1.3-3.3.6h0Z"/>
        <path d="M901.2,420.2c-2.1,1.3-2.2,1.5-1.2,2.5,1.7,1.6,3.6,1.5,4.5-.4.6-1.3.5-1.9-.1-2.5-.7-.7-1.3-.7-3.1.5h0Z"/>
        <path d="M906.1,432.3c-2.2-.1-3,0-2.3.5.5.3,1.2.4,1.6.2"/>
        <path d="M905.5,433.3c-.3.5-.9.8-1.5.8s-.9.2-.3.9c1.1,1.5,5.7.5,5.7-1.2"/>
        <path d="M889.5,442.6c-.3.2-.5,1.6-.5,3,0,2.7,1.1,3.4,2.6,1.6.7-.8.6-1.3-.2-2.6-.6-.9-.9-1.8-.6-2,.2-.3.1-.5-.3-.5s-.9.2-1.1.5Z"/>
        <path d="M896.7,444.2c.2.3.5.7.7.7s.3-.3.3-.7-.3-.7-.7-.7-.5.3-.3.7Z"/>
        <path d="M869.1,455.7c0,1.9.1,2,.6.9.8-1.9.8-3,0-3s-.7,1-.6,2.1h0Z"/>
        <path d="M866.7,456.7c-.6.6-.5,2.2.2,2.2s1.5-1.9.8-2.3c-.3-.2-.7-.2-1,0Z"/>
        <path d="M640.5,623.7c.4-.4,1.4-.9,2-1.1.8-.2,1.3-.6,1.2-.8-.3-1.5-.5-1.5-2.8-.5"/>
        <path d="M655.8,639.4c.6,0,2.2-1.1,3-2.3.3-.5,1.2-1,1.7-1.1s1.2-.5,1.4-.9c.2-.5,2-1.5,5.8-3.1,4.8-2.1,5.3-2.4,4.3-2.5-.7,0-1.3-.3-1.4-.4s-1.5-.2-3.2,0c-2.7.2-3.3.4-5.5,1.9-1.4.9-3.7,2.7-5.1,4-2.1,1.9-2.5,2.6-2.1,3.4.3.6.7,1.1,1,1.2Z"/>
        <path d="M654,621.7c.6-.1,1.5-.3,2-.4,1.7-.4,2.6-1.7,1.5-2.1-.5-.2-1.2-.2-1.4,0-.3.1-1.1.6-2,1-1.8.8-1.8,2.1,0,1.7Z"/>
        <path d="M669.6,648.2c1.9-.9,1.9-1.1-.3-1.6l-1.6-.4v1.1c0,1.6.2,1.7,1.9.9Z"/>
        <path d="M660.4,624.8c.7-.3,1.4-.9,1.5-1.4,0-1-.3-1-1.9,0-1.7,1.1-1.3,2.1.5,1.4h0Z"/>
        <path d="M656.7,614.8c-.4,0-.7.2-.6.4,0,.2.5.4.9.3.4,0,.7-.2.6-.4,0-.2-.6-.4-.9-.3"/>
        <path d="M669.8,641.4c.3.2.9.2,1.4,0,1.1-.5,1.9,1.1,1.2,2.2-.4.5-.4.7.1.5.4-.2,1.9-.2,3.3,0,2.8.4,2.5.5,7.5-3.3.4-.3.9-.3,1,0s.5.5.9.3c.3-.1.7,0,.8.1.1.2-.2.6-.7.7-1.1.3-1.1.7,0,1.9.7.8,1.3.8,3.5.1,3.2-1.1,3.8-.3,1.5,1.9-.9.8-1.6,1.7-1.5,1.8.2.4,2.9-.4,5.6-1.6,1.9-.8,2.7-.9,4-.5,1.2.5,1.9.4,3.3-.5,1.1-.7,2.2-1,3-.9.8.2,1.4,0,1.8-.5.3-.4,1.6-1,3.5-1.5s3.2-1.2,3.8-1.7c.8-.7,1.1-.7,1.4-.1.3.4,0,.9-.6,1.2-1.6.8-3.1,2.6-2.4,3.1.5.3,1.2,0,3.1-1.1,1.9-1.1,2.8-1.4,3.7-1.3.7.1,1.3,0,1.5-.2.1-.2,1-.3,1.9-.2,1.4.1,1.6.3,1,.9-.4.4-1.2.8-1.7.9-1.3.2-.7,1.3,1.1,2.2,2.2,1,3.3.3,3-1.8-.2-.9,0-2,.5-2.4.4-.4.5-1.6.3-2.7-.4-1.9-.5-2.1-2.4-2.2-2.1,0-2.4-.9-.7-1.7.9-.4,1.4,0,1.6,1.1.1.5.3.4.9-.1.4-.4,2.3-1.4,4.3-2.3,2.8-1.2,3.5-1.7,3.3-2.1-1-2.4-1-3,.4-4.1,1.6-1.3,1.8-3,.6-3.8-.7-.5-.8-.4-.9.7-.2,1.2-.2,1.2-1.5.9-1.7-.4-2.2-1.6-1.3-2.7.5-.6.5-1.2-.1-1.8-.9-1-1.8-.8-3.2.9-.6.6-2.1,1.7-3.4,2.2-1.3.6-2.6,1.3-2.6,1.7-.4,1-1.1,1-2.4,0-1.6-1.1-1.4-1.9.3-2.3,2.1-.5,1.1-1.7-1.5-1.7-1.2,0-2.9-.6-3.7-1.2-.9-.7-1.8-1.1-2-1s-1.8.4-3.5.5c-3.6.3-4.5-.6-2.3-2.3,1.9-1.5,2.8-1.9,2.5-1.1-.4,1,2.2-.5,2.9-1.7.7-1.1.6-1.2-2-.9-3.6.4-4,0-1.6-2.1,1.1-.9,2-2.1,2-2.6,0-.9-2.3-2-3.9-1.7-1.5.3-4.4,3.3-4.8,5-.3,1.3-.8,1.9-2.2,2.5-1,.4-1.8,1.1-1.8,1.4,0,.5-.4.6-1.1.4-1-.3,0-1.7,1.4-1.8.5,0,.4-.8,0-1.9-.9-2-2.2-2.1-4.2-.3-1.5,1.4-9.8,5.5-11.1,5.5-.8,0-.9-.2-.6-1.5.2-.8.6-1.7,1-1.8,1-.4,2-1.6,1.8-2-.1-.2-.4-.1-.8.2-.9.9-4.4.3-5-1-.3-.6-.8-1-1.1-.8-.4.2-.8,0-.9-.3-.2-.4-.6-.3-1.6.4-.7.5-1.9,1-2.9,1.2-2,.3-9,5-8.2,5.6.3.2.1.8-.4,1.2-.9.8-.8.9.6.9.8,0,2.2-.2,3-.6,1-.4,1.7-.4,2.2.1,1.1,1-.2,4.7-1.9,5.4-.7.3-1.3.9-1.4,1.3-.1,1,0,.9,2.1.5,1.2-.2,1.5-.5,1.3-1-.4-.8.5-1.2,1.9-.9.7.1,1.2.9,1.4,2,.2,1,.6,1.6.8,1.6.6-.2,2.2-.6,4-1.1,1-.2,1.5-.6,1.4-.9-.1-.2-.5-.3-.9-.1-.3.1-.5,0-.4-.3,0-.3,1-.8,1.9-1,.9-.2,2-.8,2.4-1.4.5-.7,1-.9,2-.7.7.1,1.3.4,1.4.6.1.3.7.1,1.3-.3,1.5-1,2.4-.6,1.5.7-.4.6-.6,1.3-.4,1.6.3.7-2.8,3.9-4.4,4.7-.6.3-.9.8-.7,1.4.2.5.1.8-.2.6-.2-.2-1.1,0-1.8.2-.7.3-1.1.7-.8.8.3,0,0,.4-.8.6s-1.7.8-2.1,1.3c-.5.7-1.2.9-3.1,1.2-2.3.3-2.4.3-3.4,1.9-.6.9-1.4,1.8-1.7,1.9-.7.3-.6.6.3,1.2h0ZM666.7,616.3c.3-.1.6,0,.8.3.2.4.7.3,1.4-.2,1.8-1.2,2,.1.3,1.5-1.3,1.1-2.1,1.1-2.5,0-.3-.8-.3-1.5,0-1.6ZM682.2,635.1c.5-1.2,1.6-.8,1.9.5.2.7.2,1.5,0,1.7s.1.5.7.6c.8.1.7.3-.3.7s-1.3.2-1.9-1.2c-.3-.9-.5-2-.4-2.4h0ZM686.9,634.3c0-.2-.5-.2-.9,0-.3.1-.5,0-.4-.3.3-.9,1.6-.8,2,.1.2.5,0,.9-1.2,1.4-1,.4-1.2.4-.4,0,.6-.4,1-.9.9-1.1h0ZM688.3,629.3c1.1-1,4.7-1.8,5.7-1.2,1.2.7,1.1,1.2-.7,2-.6.3-1.1.7-1,.9,0,.2-.3.6-1,.9-.7.3-.9.3-.4-.1.6-.4.4-.6-.8-.6-1.6,0-2.6-1.1-1.9-1.8h0ZM686.2,619c1.2-1,1.5-.9,1,.4-.2.4-.7.8-1.2.8-1.1,0-1.1-.2.1-1.3ZM693,624.5c.5-.2.8-.2.8.1-.1.3-.5.7-.8.9-.3.1-.7,0-.8-.1-.1-.2.3-.6.8-.9ZM693.7,622.9c1.3.1,1.2.4-.4.7-.6.1-1,0-.9-.3s.7-.4,1.3-.4h0ZM694.2,618.4c.7-.4,1.4-.6,1.5-.4.2.5-1.7,2.3-2.4,2.2-1-.1-.5-1.1.9-1.9ZM698.9,630.2c.3-.3.6-.3.7-.1.1.2-.1.6-.4.7-.4.2-.7.2-.7.1,0-.1.1-.4.4-.7ZM702.2,635.9c.3-.3.9-.3,1.2,0,.8.5.5,1.2-.6,1.2-1,0-1.3-.5-.6-1.2ZM700.8,632.7c.3-.3.9-.3,1.2,0,.8.5.5,1.2-.6,1.2-1,0-1.3-.5-.6-1.2ZM705.4,630.2c.5-.3.9-.5,1-.3.1.2-.3.6-.8.8s-1,.3-1,.3.3-.4.8-.8ZM705.3,614c.8.1,0,.9-1,.9-.8,0-.8,0-.2-.5.4-.3.9-.5,1.2-.4h0ZM711.7,629.7c.3-.3.6-.3.7-.1.1.2-.1.6-.4.7-.4.2-.7.2-.7.1,0-.1.1-.4.4-.7ZM716.9,632.1c1.4-2.1,2.9-3.8,3.3-3.8.6,0,.7.2.5,1-.5,1.7-.1,1.8,3,.7,1.6-.5,3.2-.9,3.6-.7.4.2.7,0,.9-.5.2-.6.4-.7.5-.3.4.8-1.7,2.3-4.3,3.1-1.8.6-2.3.9-2.2,1.3.1.3-.4.4-1.4.1-1.5-.3-1.8-.3-3.1.8-.8.6-1.4,1.4-1.3,1.6,0,.2-.3.6-.8.8-1.7.7-1.4-.2,1.2-4.1h0ZM718.8,638.3c.6-.1.4,0-.3.4-.7.4-1.1.4-.9.2.1-.2.7-.5,1.2-.6Z"/>
        <path d="M674.8,646.9c.3-.1.3-.5,0-.7-.4-.2-.8-.4-.9-.3s-.1.4,0,.7.5.5.9.3Z"/>
        <path d="M662.5,618.2c.5-.2.7-.5.4-.7-.4-.1-.8,0-1.1.3-.7.8-.4.9.7.4Z"/>
        <path d="M675,609.2c1.8.7,2,.7,2.7-.3,1.1-1.7.5-2.8-1.6-2.5-1.4.2-1.9.5-2.4,1.2-.5.8-.3,1,1.3,1.7Z"/>
        <path d="M685.4,601.1c.5,1.4.9,1.8,1.1,1.2.2-.5,0-.9-.2-1"/>
        <path d="M686.5,601c.5,0,1,.2,1.2.6.2.5.4.4.9-.2,1.1-1.3-1.1-3.6-2.7-2.9"/>
        <path d="M699.6,606.5c.3,0,1.7-.4,3-1,2.6-1.1,3-2.1.9-2.2-.9,0-1.4.2-2.4,1.2-.7.7-1.5,1.3-1.8,1.2-.3,0-.5.1-.4.4,0,.2.4.4.7.4h0Z"/>
        <path d="M699.2,601.6c.3-.3.5-.6.4-.7,0,0-.4,0-.7.1-.4.2-.6.5-.4.7,0,.2.4.2.7-.1Z"/>
        <path d="M717.5,613.1c1.8-.8,1.9-.9.7-.7-2,.3-3.1.8-2.9,1.3,0,.2,1.1,0,2.2-.6h0Z"/>
        <path d="M719.1,614c.7,0,2.2-.7,2.1-1.1-.2-.5-2.2,0-2.4.5-.1.3,0,.5.3.6Z"/>
        <path d="M837.5,432.4c.5.7.5,2.1.4,3-.3,1,0,1.8.5,1.8,3,.5,3.3.2,3.3-3"/>
        <path d="M764.2,488.2c-.6.7.3,3.2,1.9,4.8s.9,1.9.6,2.6,0,1.7.6,2.1c.8.5,1.2,3.1,1.1,8.4,0,6.7,0,7.5,1.2,6.4.7-.7,1.6-1.4,2-1.4s1.6-1.6,2.7-3.7c1.8-3.3,2-4.1,1.1-7.5-.5-2.1-2-5.7-3.4-8.1-1.9-3.4-2.8-4.3-4.8-4.3s-2.7.3-3.1.5h0Z"/>
        <path d="M829.9,449.3c-.3.7-.6,1.9-.8,2.5-.6,2.2,1,3.9,2.7,2.9.8-.5,1.4-1.3,1.4-1.6,0-.4,0-1.6,0-2.9,0-2.5-2.4-3.2-3.2-.9h0Z"/>
        <path d="M735.5,499.9c0,2.7.5,2.8,3.3.5l2.2-1.7-2.1-.5c-3.1-.8-3.4-.7-3.4,1.7h0Z"/>
        <path d="M818.6,455.2c0,1,.6,2.1,1.4,2.4,1.9.6,2.3.2,1.6-2.3-.6-2.5-3-2.6-3-.2Z"/>
        <path d="M840.8,456.1c.3-.5.2-.9-.4-.9s-1.2.4-1.4.9c-.3.5-.2.9.4.9s1.2-.5,1.4-.9"/>
        <path d="M774.9,578.8c.3-.6.2-1.5-.3-2.1-1.1-1.1,1.5-3.8,3.7-3.7,1,0,1.3-.2.9-.7-.4-.4-.7-2.6-.6-4.8.1-4.4.4-4-7.2-7.8-.6-.3-.7-1,0-1.5s.8-1.3.4-1.7c-.3-.3-.3-1,0-1.3.4-.4,1-.2,1.3.4.7,1.3,1.4.9,3.4-1.8,1.3-1.8,1.2-2.7-.5-5.1-2.5-3.7-1.2-5.2,3-4,1.6.5,3.2.7,3.4.5.7-.6-1.2-3.8-3.9-6.6-1.8-1.9-2.2-3.1-1.7-5.2.6-2.2.3-3-1.6-4.3-1.4-1-2.2-2.2-2.2-3.5,0-1.3-.3-2.1-1.3-2.1-.8,0-2.1-1.4-3.4-3.5-1.3-2.1-2.7-3.6-3.7-3.9-1.3-.5-1.5-.9-.5-1.9.7-.8,1.6-.9,2.2-.2,1.6,1.6,5.2,1.9,5.9.5.5-.9,0-1.8-2.5-3.5-2.3-1.7-3.1-2.7-3-4.1,0-1.1-.2-1.9-.7-2-.4,0-.7-1.2-.7-2.6,0-2.2.2-2.6,1.4-2.3.8.3,1.6.9,1.9,1.7.7,1.6,2.4-.2,3.6-3.7,1.4-4.1,0-5.1-3.7-2.6-1.6,1.1-3.6,1.9-4.3,1.6-.7-.2-2.9.8-4.8,2.1-3.2,2.3-3.5,2.7-3.3,5.5.4,3-1.1,4.3-2.8,2.5-.9-.9-.3-1.9,1.7-3.4.8-.6.7-.9-.4-1.1-.8-.1-3-1.9-4.9-4-2.7-3-3.6-3.5-4.3-2.7-3.9,3.6-5,4.2-7.3,3.3-2.5-1.1-5.6.2-6.8,2.7-.7,1.4-.5,1.5,1.4.7,2.1-.8,2.2-.8,1.8,1.3-.5,2.8-2.4,4.6-4.4,4.3-1.1-.2-2.2.5-3.1,1.8-1.6,2.3-1,3.3,2.1,3.8,1.2.2,3.3,1.5,4.5,2.8,1.3,1.4,2.8,2.4,3.4,2.3,1.8-.3,2,.6.6,3.4-1.6,3.2-3,3.8-4.1,1.7-1.3-2.5-3.2,0-2.7,3.7.2,1.7-.4,4.7-1.5,6.5-1,2-1.6,3.6-1.3,3.7s1,2.2,1.5,4.7c1.2,4.8-.2,7-3.6,5.4-2.9-1.4-3.8-2.3-2.4-2.6,1.9-.4-1.2-2.7-3.5-2.7-2.1,0-2.2.3-1.3,3.7,1.3,4.8.6,5.8-3.3,4.3-1.8-.7-4-.9-4.9-.5-1.6.7-3,5.2-2.2,7.2.8,1.9,6.6,3.2,9.7,2.2,2.4-.8,3.5-.6,4.8.8.9,1,2.3,1.6,2.8,1.4.9-.4,1.1,0,.9,1.2-.4,1.7-3.1,1.5-3.5-.3-.1-.6-1.4,0-3.3,1.8-3.4,3.2-3.3,5.1.2,6.4,2.7,1,11.4,9,11.8,10.8.3,1.1-.2,1.5-2.4,2.2-1.5.5-3,.6-3.3.3-.9-1-3.2-1.4-3.9-.7-.4.4-.1.8.4,1,1.8.4,1.3,6.1-.7,8.1-1,.9-1.5,2.1-1.2,2.4.4.4.2,1.1-.4,1.6-.7.7-.4,1.1,1,1.9,1.1.5,2.2,1.8,2.6,3,.9,2.7,10.5,8.3,11.3,6.6.3-.6,1.3-.9,2.2-.6,1.6.5,1.7.3,1.5-1.8-.2-1.2-.8-3-1.6-3.8-.9-1-1-2.1-.2-3.3,1.5-2.5,8.2-4.1,9.9-2.4.7.7,1.8,1,2.6.8,1.7-.7,1.6-.9.4-3.4-.7-1.5-1.2-1.7-2-1-1.3,1.2-2.2.3-1.9-1.9,0-1.1,1.3-2.6,3.2-3.9,1.6-1.2,2.8-2.4,2.6-2.6-.5-.7-1.5-2.5-2.7-4.8-.6-1.2-1.3-1.6-1.8-1.2-.4.4-.4,1,0,1.4.3.3.1.8-.4.9-.6.2-1.5-.7-2.2-1.8-.5-1.1-1.9-2.1-2.8-2.2-1.3-.2-1.7-.6-1.7-2.2,0-1.1.4-2.3.8-2.7.5-.4,0-1.1-.9-1.6-2.1-1.1-1.6-2.9.8-2.8,1.1,0,2.4-.4,2.9-.9,1.1-1.1,7.4.3,9,2,.6.7,1.6.5,2.5-.3.9-.8,1.3-.9,1-.2-.3.5,0,1.7.7,2.3.7.7,1.4.9,1.5.4,0-.6.6-.2,1.1.7.5.9,1.7,1.8,2.6,1.9,1.3.2,1.8.9,2.7,3.3.9,3,1,3.2,4,3.1,1.7,0,3.4.3,3.7.6.7.7,1.1.3,2-1.5h0ZM731.7,606.7c-.3-.3-.1-.9.4-1.4.6-.6.4-1.2-.7-1.9-2.4-1.5-.2-3,2.6-1.9,2.2.9,2.3,2,.5,3.5-1.3,1.1-2.6,1.9-2.9,1.6h0ZM761.6,566.8c-2.2.5-1.8-1.5.6-3.2,1.2-.9,2.6-1.7,3-1.7s.8-.6.9-1.5c0-1.2.4-1.3,1.4-.3s.7,1.6-1.7,3.9c-1.6,1.4-3.5,2.7-4.2,2.8h0ZM759.3,560.8c-.3.3-.3.9,0,1.3.3.3.1.8-.4.9-1.5.3-1.7-1.5-.2-3,.9-.8,1.6-.8,2.6.4.9,1.1,1,1.3,0,.7-.8-.5-1.7-.6-2-.3ZM750.3,563.5c-2-.6-4-5-3.2-7.1,1-2.4,1.9-2.6,3.5-.9.6.7,1.4.9,1.8.6.3-.3,1.2,0,1.7.6.7.7.7,1-.1.6-.9-.4-1.1,0-.9,1.7.4,2.3-1.3,4.8-2.8,4.4ZM732.7,576.1c-2-.7-1.8-1.4.6-1.9.8-.1,1.5.3,1.7.9.3,1.6,0,1.8-2.3,1ZM741,561.2c-.5-.5-.5-1,0-1.2.5-.1,1.3,0,1.7.4.3.3.2.9,0,1.2-.4.4-1.1.2-1.7-.4ZM738,561.6c0-2,.4-2,1.3,0,.4.8.2,1.5-.4,1.6s-.9-.5-.9-1.5ZM730,565.1c-.9-.7-1.3-1.5-.9-1.9.9-.8,4.3.3,4.3,1.4,0,1.5-1.8,1.7-3.4.5ZM749.8,547.4c-.5-.1-.7-.6-.4-.9.4-.4,1-.4,1.3,0,.4.4.5.8.4.9-.2.2-.8.2-1.3,0ZM759,537.4c-.6-.2-.7-.9-.3-1.7.7-1.7,2-1.9,2.2-.3.3,1.4-.6,2.3-1.9,1.9ZM753.7,542.3c-.6-.2-.7-.9-.3-1.7.7-1.7,2-1.9,2.2-.3.3,1.4-.6,2.3-1.9,1.9ZM748.5,538c-.7-.3-1-.9-.7-1.2.4-.4,1.1-.2,1.6.4s.8,1.1.7,1.2-.8,0-1.6-.4ZM720.3,553.2c0-1.3,1.6-.9,1.8.6.3,1.1.2,1.2-.8.7-.6-.3-1-.9-1-1.3ZM746.4,529.3c-.5-.1-.7-.6-.4-.9.4-.4,1-.4,1.3,0,.4.4.5.8.4.9-.2.2-.8.2-1.3,0ZM749.5,519.6c-3.9,0-7.2-.6-7.3-1.2-.2-.8.3-1.3,1.6-1.6,3.1-.8,3.2-1.5.7-5-1.2-1.8-2.1-3.8-2-4.5.2-.7-.2-.9-1.1-.8-1,.2-1.2,0-.7-.5,1.3-1.2,4.4.2,6.3,3.2,1.4,2,2.1,2.5,2.8,1.9.5-.5.8.3.5,1.9-.3,2.4-.1,2.9,2,3.7,1.3.5,2.7.7,3.1.3.3-.3,1.1-.2,1.6.4,1.6,1.7-.1,2.2-7.4,2.2ZM760.1,511.1c-.3-.7,0-.7.8,0,.8.7.9,1.2.5,1.2-.4,0-1-.5-1.3-1.2h0Z"/>
        <path d="M733.7,506.7c0,.5.6.6,1.4.4.7-.4,1.4-.7,1.4-.9s-.6-.4-1.4-.4-1.4.4-1.4.9Z"/>
        <path d="M829.5,461.2c0,.7.5,1.1.9.8.5-.4.7-1,.5-1.4-.8-1.3-1.4-1-1.4.6Z"/>
        <path d="M835.9,480.7c-2.8,1.7-3,2-1.6,3.4,2.3,2.2,4.9,2,6.1-.5.8-1.8.7-2.5-.2-3.4-1-1-1.7-.9-4.3.6h0Z"/>
        <path d="M842.6,497.2c-3-.2-4.1,0-3.2.6.7.5,1.6.5,2.2.3"/>
        <path d="M841.8,498.5c-.4.6-1.3,1.1-2.1,1.1s-1.2.3-.4,1.2c1.5,2,7.8.6,7.8-1.6"/>
        <path d="M820.2,511.1c-.4.3-.6,2.2-.6,4.1,0,3.6,1.5,4.6,3.5,2.2.9-1.1.8-1.8-.3-3.5-.8-1.2-1.2-2.4-.8-2.7.3-.4.2-.6-.4-.6s-1.2.3-1.4.6h0Z"/>
        <path d="M829.9,513.2c.3.5.7.9,1,.9s.4-.5.4-.9-.5-.9-1-.9-.6.4-.4.9Z"/>
        <path d="M761.8,574.8c0,2.5.2,2.7.8,1.2,1.1-2.5,1.1-4.1,0-4.1s-.9,1.4-.8,2.9Z"/>
        <path d="M758.7,576.1c-.8.8-.6,3,.3,3s2-2.5,1.1-3.1c-.5-.3-1-.3-1.4,0h0Z"/>
        <path d="M634.1,537.8c-.1.3,0,.9.3,1.5.5.8.6.7.6-.5s-.3-1.9-.9-.9h0Z"/>
        <path d="M627.4,560.7c-.2.3,0,.7.3.7s.7-.3.7-.7-.1-.7-.3-.7c-.2,0-.5.3-.7.7Z"/>
        <path d="M626.4,563.4c-.5.9-.6,1.6-.1,2.1.9.9,2.1,0,2.1-1.5s-1.1-2.2-2-.6h0Z"/>
        <path d="M645.3,562.8c-.1.3,0,.9.3,1.5.5.8.6.7.6-.5s-.3-1.9-.9-.9h0Z"/>
        <path d="M607.8,628.5c0,1.3,1.6,1.8,2,.7.4-1,0-1.7-1.2-1.7s-.8.5-.8,1Z"/>
        <path d="M365.1,506.8c-.1.3,0,.9.3,1.5.5.8.6.7.6-.5s-.3-1.9-.9-.9Z"/>
        <path d="M358.4,529.6c-.2.3,0,.7.3.7s.7-.3.7-.7-.1-.7-.3-.7c-.2,0-.5.3-.7.7Z"/>
        <path d="M357.4,532.4c-.5.9-.6,1.6-.1,2.1.9.9,2.1,0,2.1-1.5s-1.1-2.2-2-.6Z"/>
        <path d="M376.4,531.8c-.1.3,0,.9.3,1.5.5.8.6.7.6-.5s-.3-1.9-.9-.9Z"/>
        <path d="M336.6,554.5c0,1.3,1.6,1.8,2,.7.4-1,0-1.7-1.2-1.7s-.8.5-.8,1Z"/>
        <path d="M555.2,622.6c0,.3.3.7.6.7s.8.9,1.1,2c.5,2.3,1.3,2.6,1.9.7.2-.9-.1-1.9-1.1-2.7-1.5-1.5-2.5-1.7-2.5-.7Z"/>
        <path d="M572,623.5c0,.6.3,1.1.7,1.1s.7-.3.7-.6-.3-.9-.7-1.1c-.3-.2-.7,0-.7.6Z"/>
        <path d="M577,627.9c.2.3.5.7.7.7s.3-.3.3-.7-.3-.7-.7-.7-.5.3-.3.7Z"/>
        <path d="M578.4,628.9c-.6,1.7-.5,2.3.5,2.3,1.5,0,2-1.3.9-2.5-.9-.9-1.1-.9-1.5.1Z"/>
        <path d="M568.6,637c0,1.2,1.6,2,2.7,1.3.5-.3.3-.7-.5-1.4-1.6-1.2-2.2-1.1-2.2,0h0Z"/>
        <path d="M572.6,640c0,.3.3.7.7.7s.5-.3.3-.7c-.2-.4-.5-.7-.7-.7s-.3.3-.3.7Z"/>
        <path d="M568.5,645.8c-.6.7-1.3,1.9-1.5,2.7-.3.9-.8,1.5-1.1,1.5s-.6.5-.6,1c0,1.7,2.5,1.1,4.9-1.3,2.8-2.6,3.2-5.1.9-5.1s-2.1.5-2.6,1.1h0Z"/>
        <path d="M524.5,605.5c-.1.3,0,.9.3,1.5.5.8.6.7.6-.5s-.3-1.9-.9-.9Z"/>
        <path d="M517.7,617.1c-.2.3,0,.7.3.7s.7-.3.7-.7-.1-.7-.3-.7c-.2,0-.5.3-.7.7Z"/>
        <path d="M516.7,619.8c-.5.9-.6,1.6-.1,2.1.9.9,2.1,0,2.1-1.5s-1.1-2.2-2-.6Z"/>
        <path d="M535.7,640.3c-.1.3,0,.9.3,1.5.5.8.6.7.6-.5s-.3-1.9-.9-.9h0Z"/>
        <path d="M589.7,297.2c0,.3.3.7.6.7s.8.9,1.1,2c.5,2.3,1.3,2.6,1.9.7.2-.9-.1-1.9-1.1-2.7-1.5-1.5-2.5-1.7-2.5-.7h0Z"/>
        <path d="M606.4,298.2c0,.6.3,1.1.7,1.1s.7-.3.7-.6-.3-.9-.7-1.1c-.3-.2-.7,0-.7.6Z"/>
        <path d="M611.4,302.6c.2.3.5.7.7.7s.3-.3.3-.7-.3-.7-.7-.7-.5.3-.3.7Z"/>
        <path d="M612.8,303.6c-.6,1.7-.5,2.3.5,2.3,1.5,0,2-1.3.9-2.5-.9-.9-1.1-.9-1.5.1h0Z"/>
        <path d="M603,322.9c0,1.2,1.6,2,2.7,1.3.5-.3.3-.7-.5-1.4-1.6-1.2-2.2-1.1-2.2,0h0Z"/>
        <path d="M607,326c0,.3.3.7.7.7s.5-.3.3-.7c-.2-.4-.5-.7-.7-.7s-.3.3-.3.7Z"/>
        <path d="M602.9,331.8c-.6.7-1.3,1.9-1.5,2.7-.3.9-.8,1.5-1.1,1.5s-.6.5-.6,1c0,1.7,2.5,1.1,4.9-1.3,2.8-2.6,3.2-5.1.9-5.1s-2.1.5-2.6,1.1h0Z"/>
        <path d="M558.9,301.3c-.1.3,0,.9.3,1.5.5.8.6.7.6-.5s-.3-1.9-.9-.9h0Z"/>
        <path d="M552.1,324.1c-.2.3,0,.7.3.7s.7-.3.7-.7-.1-.7-.3-.7c-.2,0-.5.3-.7.7Z"/>
        <path d="M551.1,326.8c-.5.9-.6,1.6-.1,2.1.9.9,2.1,0,2.1-1.5s-1.1-2.2-2-.6h0Z"/>
        <path d="M570.1,326.3c-.1.3,0,.9.3,1.5.5.8.6.7.6-.5s-.3-1.9-.9-.9h0Z"/>
        <path d="M743.6,180.4c0,.3.3.7.6.7s.8.9,1.1,2c.5,2.3,1.3,2.6,1.9.7.2-.9-.1-1.9-1.1-2.7-1.5-1.5-2.5-1.7-2.5-.7Z"/>
        <path d="M760.3,181.3c0,.6.3,1.1.7,1.1s.7-.3.7-.6-.3-.9-.7-1.1c-.3-.2-.7,0-.7.6Z"/>
        <path d="M765.3,185.7c.2.3.5.7.7.7s.3-.3.3-.7-.3-.7-.7-.7-.5.3-.3.7Z"/>
        <path d="M766.7,186.7c-.6,1.7-.5,2.3.5,2.3,1.5,0,2-1.3.9-2.5-.9-.9-1.1-.9-1.5.1Z"/>
        <path d="M757,206.1c0,1.2,1.6,2,2.7,1.3.5-.3.3-.7-.5-1.4-1.6-1.2-2.2-1.1-2.2,0Z"/>
        <path d="M761,209.1c0,.3.3.7.7.7s.5-.3.3-.7c-.2-.4-.5-.7-.7-.7s-.3.3-.3.7Z"/>
        <path d="M756.8,214.9c-.6.7-1.3,1.9-1.5,2.7-.3.9-.8,1.5-1.1,1.5s-.6.5-.6,1c0,1.7,2.5,1.1,4.9-1.3,2.8-2.6,3.2-5.1.9-5.1s-2.1.5-2.6,1.1h0Z"/>
        <path d="M712.9,184.4c-.1.3,0,.9.3,1.5.5.8.6.7.6-.5s-.3-1.9-.9-.9h0Z"/>
        <path d="M706.1,207.3c-.2.3,0,.7.3.7s.7-.3.7-.7-.1-.7-.3-.7c-.2,0-.5.3-.7.7Z"/>
        <path d="M705.1,210c-.5.9-.6,1.6-.1,2.1.9.9,2.1,0,2.1-1.5s-1.1-2.2-2-.6h0Z"/>
        <path d="M724.1,209.4c-.1.3,0,.9.3,1.5.5.8.6.7.6-.5s-.3-1.9-.9-.9h0Z"/>
        <path d="M621.9,190.4c0-.3-.3-.7-.6-.7s-.8-.9-1-2c-.5-2.3-1.3-2.6-1.9-.7-.2.9.1,1.9,1,2.7,1.5,1.5,2.4,1.8,2.5.7h0Z"/>
        <path d="M605.2,189.2c0-.6-.3-1.1-.7-1.1-.4,0-.7.3-.7.6,0,.4.3.9.7,1.1.3.2.7,0,.7-.6Z"/>
        <path d="M600.3,184.7c-.2-.3-.5-.7-.7-.7-.1,0-.3.3-.3.7,0,.4.3.7.7.7.3,0,.5-.3.3-.7Z"/>
        <path d="M598.9,183.7c.6-1.7.5-2.3-.5-2.3-1.5,0-2,1.3-1,2.5.9.9,1.1.9,1.5-.1Z"/>
        <path d="M608.9,174.4c0-1.2-1.6-2-2.7-1.4s-.3.7.4,1.4c1.6,1.2,2.2,1.2,2.2,0Z"/>
        <path d="M605,171.3c0-.3-.3-.7-.7-.7-.3,0-.5.3-.3.7.2.4.5.7.7.7.1,0,.3-.3.3-.7Z"/>
        <path d="M609.2,165.6c.6-.7,1.3-1.9,1.5-2.7.3-.9.8-1.5,1.2-1.5s.6-.5.6-1c0-1.7-2.5-1.1-5,1.2-2.8,2.6-3.3,5-.9,5.1.9,0,2.1-.5,2.6-1.1Z"/>
        <path d="M652.7,186.8c.1-.3,0-.9-.3-1.5-.5-.8-.6-.7-.6.5,0,1.5.3,1.9.9.9Z"/>
        <path d="M659.8,173.9c.2-.3,0-.7-.3-.7-.4,0-.7.3-.7.7,0,.4.1.7.3.7.2,0,.5-.3.7-.7Z"/>
        <path d="M660.9,171.2c.5-.9.6-1.6.2-2.1-.9-.9-2.1,0-2.2,1.4,0,1.9,1.1,2.2,2,.6Z"/>
        <path d="M641.9,171.5c.1-.3,0-.9-.3-1.5-.5-.8-.6-.7-.6.5,0,1.5.3,1.9.9.9Z"/>
        <path d="M631.8,574.7c.3.5.4,1.5.3,2.2-.2.7,0,1.3.4,1.3,2.2.3,2.4.1,2.4-2.2"/>
        <path d="M626.2,587.2c-.2.5-.5,1.4-.6,1.9-.5,1.6.7,2.9,2,2.1.6-.4,1.1-.9,1-1.2,0-.3,0-1.2,0-2.1,0-1.9-1.8-2.3-2.3-.7h0Z"/>
        <path d="M617.8,591.5c0,.7.5,1.5,1,1.8,1.4.5,1.7.1,1.2-1.7-.5-1.9-2.2-1.9-2.2-.1Z"/>
        <path d="M634.2,592.2c.2-.4.1-.7-.3-.7s-.9.3-1.1.7c-.2.3-.1.7.3.7s.9-.3,1.1-.7"/>
        <path d="M625.9,595.9c0,.5.3.8.7.6.4-.3.5-.7.3-1.1-.6-.9-1-.7-1,.5Z"/>
        <path d="M630.6,610.3c-2.1,1.3-2.2,1.5-1.2,2.5,1.7,1.6,3.6,1.5,4.5-.4.6-1.3.5-1.9-.1-2.5-.7-.7-1.3-.7-3.1.5h0Z"/>
        <path d="M635.5,622.5c-2.2-.1-3,0-2.3.5.5.3,1.2.4,1.6.2"/>
        <path d="M634.9,623.5c-.3.5-.9.8-1.5.8s-.9.2-.3.9c1.1,1.5,5.7.5,5.7-1.2"/>
        <path d="M619,632.7c-.3.2-.5,1.6-.5,3,0,2.7,1.1,3.4,2.6,1.6.7-.8.6-1.3-.2-2.6-.6-.9-.9-1.8-.6-2,.2-.3.1-.5-.3-.5s-.9.2-1.1.5Z"/>
        <path d="M626.2,634.3c.2.3.5.7.7.7s.3-.3.3-.7-.3-.7-.7-.7-.5.3-.3.7Z"/>
        <path d="M534.2,231.6c.3.5.4,1.5.3,2.2-.2.7,0,1.3.4,1.3,2.2.3,2.4.1,2.4-2.2"/>
        <path d="M528.6,244.1c-.2.5-.5,1.4-.6,1.9-.5,1.6.7,2.9,2,2.1.6-.4,1.1-.9,1-1.2,0-.3,0-1.2,0-2.1,0-1.9-1.8-2.3-2.3-.7Z"/>
        <path d="M520.3,248.4c0,.7.5,1.5,1,1.8,1.4.5,1.7.1,1.2-1.7-.5-1.9-2.2-1.9-2.2-.1h0Z"/>
        <path d="M536.6,249.1c.2-.4.1-.7-.3-.7s-.9.3-1.1.7c-.2.3-.1.7.3.7s.9-.3,1.1-.7"/>
        <path d="M528.3,252.8c0,.5.3.8.7.6.4-.3.5-.7.3-1.1-.6-.9-1-.7-1,.5h0Z"/>
        <path d="M533,267.2c-2.1,1.3-2.2,1.5-1.2,2.5,1.7,1.6,3.6,1.5,4.5-.4.6-1.3.5-1.9-.1-2.5-.7-.7-1.3-.7-3.1.5h0Z"/>
        <path d="M538,279.3c-2.2-.1-3,0-2.3.5.5.3,1.2.4,1.6.2"/>
        <path d="M537.4,280.3c-.3.5-.9.8-1.5.8s-.9.2-.3.9c1.1,1.5,5.7.5,5.7-1.2"/>
        <path d="M521.4,289.6c-.3.2-.5,1.6-.5,3,0,2.7,1.1,3.4,2.6,1.6.7-.8.6-1.3-.2-2.6-.6-.9-.9-1.8-.6-2,.2-.3.1-.5-.3-.5s-.9.2-1.1.5Z"/>
        <path d="M528.6,291.2c.2.3.5.7.7.7s.3-.3.3-.7-.3-.7-.7-.7-.5.3-.3.7Z"/>
        <path d="M576.5,277.5c.3.5.4,1.5.3,2.2-.2.7,0,1.3.4,1.3,2.2.3,2.4.1,2.4-2.2"/>
        <path d="M570.8,290c-.2.5-.5,1.4-.6,1.9-.5,1.6.7,2.9,2,2.1.6-.4,1.1-.9,1-1.2,0-.3,0-1.2,0-2.1,0-1.9-1.8-2.3-2.3-.7h0Z"/>
        <path d="M562.5,294.3c0,.7.5,1.5,1,1.8,1.4.5,1.7.1,1.2-1.7-.5-1.9-2.2-1.9-2.2-.1Z"/>
        <path d="M578.9,295c.2-.4.1-.7-.3-.7s-.9.3-1.1.7c-.2.3-.1.7.3.7s.9-.3,1.1-.7"/>
        <path d="M570.5,298.7c0,.5.3.8.7.6.4-.3.5-.7.3-1.1-.6-.9-1-.7-1,.5Z"/>
        <path d="M536.4,301.2c-2.1,1.3-2.2,1.5-1.2,2.5,1.7,1.6,3.6,1.5,4.5-.4.6-1.3.5-1.9-.1-2.5-.7-.7-1.3-.7-3.1.5h0Z"/>
        <path d="M580.2,325.3c-2.2-.1-3,0-2.3.5.5.3,1.2.4,1.6.2"/>
        <path d="M579.6,326.3c-.3.5-.9.8-1.5.8s-.9.2-.3.9c1.1,1.5,5.7.5,5.7-1.2"/>
        <path d="M563.6,335.6c-.3.2-.5,1.6-.5,3,0,2.7,1.1,3.4,2.6,1.6.7-.8.6-1.3-.2-2.6-.6-.9-.9-1.8-.6-2,.2-.3.1-.5-.3-.5s-.9.2-1.1.5Z"/>
        <path d="M570.8,337.1c.2.3.5.7.7.7s.3-.3.3-.7-.3-.7-.7-.7-.5.3-.3.7Z"/>
        <path d="M781.9,437.5c.1.1.5.1.8,0,.6-.3,1.1.6.7,1.3-.2.3-.2.4,0,.3.2-.1,1.1-.1,1.9,0,1.6.2,1.4.3,4.4-1.9.2-.2.5-.2.6,0s.3.3.5.2c.2,0,.4,0,.5,0,0,.1-.1.3-.4.4-.6.2-.6.4,0,1.1.4.5.8.5,2.1,0,1.9-.6,2.2-.2.9,1.1-.5.5-.9,1-.9,1,.1.2,1.7-.2,3.3-.9,1.1-.5,1.6-.5,2.3-.3.7.3,1.1.2,1.9-.3.7-.4,1.3-.6,1.7-.5.5,0,.8,0,1.1-.3.2-.3,1-.6,2-.9s1.9-.7,2.3-1c.5-.4.6-.4.8,0,.2.3,0,.5-.4.7-.9.4-1.8,1.5-1.4,1.8.3.2.7,0,1.8-.6,1.1-.7,1.6-.8,2.2-.8.4,0,.8,0,.9-.1,0-.1.6-.2,1.1-.1.8,0,.9.2.6.5-.3.2-.7.5-1,.5-.7.1-.4.8.7,1.3,1.3.6,1.9.2,1.7-1.1-.1-.5,0-1.2.3-1.4.2-.2.3-.9.2-1.6-.2-1.1-.3-1.2-1.4-1.3-1.2,0-1.4-.5-.4-1,.5-.2.8,0,.9.7,0,.3.2.2.5,0,.2-.2,1.3-.8,2.5-1.4,1.7-.7,2-1,1.9-1.2-.6-1.4-.6-1.8.2-2.4.9-.7,1.1-1.8.4-2.2-.4-.3-.5-.2-.5.4-.1.7-.1.7-.8.5-1-.3-1.3-.9-.7-1.6.3-.3.3-.7,0-1.1-.5-.6-1.1-.4-1.9.5-.3.4-1.2,1-2,1.3-.8.4-1.5.8-1.5,1-.2.6-.6.6-1.4,0-.9-.6-.8-1.1.2-1.4,1.2-.3.6-1-.9-1-.7,0-1.7-.3-2.2-.7-.5-.4-1.1-.6-1.2-.6s-1,.2-2.1.3c-2.1.2-2.6-.4-1.3-1.4,1.1-.9,1.6-1.1,1.5-.7-.2.6,1.3-.3,1.7-1,.4-.7.4-.7-1.1-.5-2.1.2-2.3,0-.9-1.2.6-.5,1.2-1.2,1.2-1.5,0-.5-1.4-1.2-2.3-1-.9.2-2.6,1.9-2.8,3-.2.8-.5,1.1-1.3,1.5-.6.3-1.1.6-1.1.8,0,.3-.2.3-.6.2-.6-.2,0-1,.8-1.1.3,0,.3-.4,0-1.1-.5-1.2-1.3-1.2-2.5-.2-.9.8-5.7,3.2-6.5,3.2-.5,0-.5-.1-.3-.9,0-.5.4-1,.6-1.1.6-.3,1.2-.9,1-1.2,0-.1-.3,0-.5,0-.5.5-2.6.2-2.9-.6-.2-.3-.5-.6-.7-.5-.2.1-.4,0-.5-.2-.1-.3-.3-.2-.9.2-.4.3-1.1.6-1.7.7-1.2.2-5.3,2.9-4.8,3.3.2.1,0,.4-.2.7-.5.5-.4.5.4.5.5,0,1.3-.1,1.7-.3.6-.3,1-.2,1.3,0,.6.6-.1,2.8-1.1,3.2-.4.2-.8.5-.8.8,0,.6,0,.5,1.2.3.7-.1.9-.3.8-.6-.2-.5.3-.7,1.1-.5.4,0,.7.5.8,1.2.1.6.3,1,.5.9.3-.1,1.3-.4,2.4-.6.6-.1.9-.3.8-.5,0-.1-.3-.2-.5,0-.2,0-.3,0-.3-.2,0-.2.6-.4,1.1-.6.5-.1,1.2-.5,1.4-.8.3-.4.6-.5,1.2-.4.4,0,.8.2.8.4,0,.2.4,0,.8-.2.9-.6,1.4-.4.9.4-.2.3-.3.8-.3.9.2.4-1.6,2.3-2.6,2.7-.4.2-.5.5-.4.8.1.3,0,.4-.1.3-.1-.1-.7,0-1,.1-.4.2-.6.4-.5.5.2,0,0,.2-.5.3s-1,.5-1.2.7c-.3.4-.7.5-1.8.7-1.3.1-1.4.2-2,1.1-.3.5-.8,1-1,1.1-.4.2-.3.3.2.7h0ZM780.1,422.8c.2,0,.4,0,.4.2,0,.2.4.2.8-.1,1-.7,1.2,0,.2.9-.8.6-1.2.6-1.4,0-.2-.5-.2-.9,0-1h0ZM789.1,433.8c.3-.7.9-.5,1.1.3.1.4.1.9,0,1s0,.3.4.4c.4,0,.4.2-.2.4s-.7.1-1.1-.7c-.2-.6-.3-1.2-.2-1.4h0ZM791.9,433.3c0-.1-.3-.1-.5,0-.2,0-.3,0-.3-.2.2-.5.9-.5,1.2,0,.1.3,0,.5-.7.8-.6.2-.7.3-.2,0,.4-.2.6-.5.5-.6h0ZM792.7,430.4c.6-.6,2.7-1,3.3-.7.7.4.6.7-.4,1.1-.4.2-.6.4-.6.5,0,.1-.2.4-.6.5-.4.2-.5.2-.2,0,.3-.3.2-.3-.5-.3-.9,0-1.5-.6-1.1-1.1h0ZM791.5,424.4c.7-.6.9-.5.6.3-.1.2-.4.5-.7.5-.7,0-.7,0,0-.8h0ZM795.5,427.6c.3-.1.5-.1.4,0,0,.2-.3.4-.5.5-.2,0-.4,0-.4,0,0-.1.2-.3.5-.5ZM795.9,426.7c.8,0,.7.2-.2.4-.4,0-.6,0-.5-.2s.4-.3.8-.2ZM796.2,424c.4-.2.8-.3.9-.2.1.3-1,1.3-1.4,1.3-.6,0-.3-.7.5-1.1ZM798.9,430.9c.2-.2.4-.2.4,0,0,.1,0,.3-.3.4-.2.1-.4.1-.4,0,0,0,0-.3.3-.4ZM800.9,434.2c.2-.2.5-.2.7,0,.5.3.3.7-.4.7-.6,0-.8-.3-.3-.7h0ZM800,432.4c.2-.2.5-.2.7,0,.5.3.3.7-.4.7-.6,0-.8-.3-.3-.7h0ZM802.8,430.9c.3-.2.6-.3.6-.2,0,.1-.2.3-.5.5s-.6.2-.6.2.2-.3.5-.5ZM802.7,421.4c.5,0,0,.5-.6.5-.5,0-.5,0-.1-.3.2-.2.6-.3.7-.3h0ZM806.5,430.6c.2-.2.4-.2.4,0,0,.1,0,.3-.3.4-.2.1-.4.1-.4,0,0,0,0-.3.3-.4ZM809.5,432c.8-1.2,1.7-2.2,1.9-2.2.3,0,.4.1.3.6-.3,1,0,1.1,1.8.4.9-.3,1.9-.5,2.1-.4.2,0,.4,0,.5-.3.1-.3.2-.4.3-.2.2.5-1,1.4-2.5,1.8-1.1.4-1.4.6-1.3.8,0,.2-.3.2-.8,0-.9-.2-1.1-.2-1.8.5-.5.4-.8.8-.7.9,0,.1-.2.3-.5.5-1,.4-.8-.1.7-2.4ZM810.6,435.7c.3,0,.2,0-.2.2-.4.2-.7.2-.5.1,0-.1.4-.3.7-.3h0Z"/>
        <path d="M798.9,511.8c.1-.1.1-.5,0-.8-.2-.7.6-.9,1-.3.2.3.3.3.2,0,0-.2,0-1.1.2-1.9.3-1.5.4-1.3-1-4.8-.1-.3,0-.5,0-.6s.3-.2.2-.5c0-.2,0-.4,0-.4.1,0,.2.2.3.5,0,.7.2.7.9.3.4-.3.4-.6.2-2-.3-2,0-2.2.9-.6.3.6.6,1.1.7,1.1.2,0,0-1.7-.4-3.4-.3-1.2-.3-1.7,0-2.3.3-.6.3-1,0-2-.2-.8-.3-1.4-.2-1.8.1-.5,0-.8-.1-1.1-.2-.3-.4-1.1-.5-2.2s-.3-2-.5-2.4c-.3-.5-.3-.7,0-.8.2,0,.4.1.5.5.2,1,1,2.1,1.2,1.8.2-.2.1-.7-.3-1.9-.4-1.2-.5-1.8-.4-2.3,0-.4,0-.7,0-.9,0-.1,0-.6,0-1.1.1-.8.2-.9.5-.4.1.3.3.8.3,1.1,0,.8.5.6,1-.3.6-1.1.3-1.8-.6-2-.4,0-.9-.3-1-.6-.1-.3-.7-.5-1.2-.6-.8,0-.9,0-1.1,1.1-.1,1.2-.5,1.2-.8.1-.1-.6,0-.8.6-.7.2,0,.2-.1,0-.5-.2-.3-.5-1.5-.8-2.8-.4-1.8-.5-2.2-.8-2.2-1.1.2-1.4,0-1.8-.8-.5-1.1-1.2-1.5-1.7-.9-.2.3-.2.4.3.6.5.3.5.3.3,1-.3.9-.8,1-1.2.3-.2-.4-.5-.4-.8-.2-.5.4-.4.9.2,2,.2.4.6,1.4.8,2.3.2.9.4,1.7.6,1.8.4.4.4.8,0,1.4-.6.7-.9.5-1-.5-.1-1.3-.7-.9-.8.6,0,.7-.4,1.5-.7,1.9-.3.4-.6.9-.5,1s0,1.1,0,2.1c0,2.1-.5,2.5-1.1.9-.5-1.3-.7-1.9-.4-1.6.4.4,0-1.3-.6-1.9-.5-.6-.5-.5-.5,1,0,2.1-.3,2.2-1,.6-.3-.7-.8-1.4-1-1.5-.4-.2-1,1-1,2,0,.9,1.2,3,2,3.5.6.4.8.8,1,1.6.1.6.4,1.2.5,1.3.2.1.2.3.1.7-.2.5-.8-.3-.7-1.1,0-.3-.3-.4-.8-.2-.9.2-1,.9-.4,2.4.5,1.1,1.9,6.4,1.8,7.1,0,.5-.1.5-.7.1-.4-.2-.7-.6-.7-.8-.1-.6-.6-1.4-.8-1.3-.1,0,0,.2,0,.5.4.6-.1,2.6-.7,2.7-.3,0-.5.3-.4.5,0,.2,0,.4-.2.5-.2,0-.2.3,0,1,.2.5.4,1.2.4,1.8,0,1.2,1.7,5.9,2,5.5.1-.2.3,0,.5.4.3.6.3.6.4-.2,0-.5,0-1.3,0-1.8-.1-.6,0-1.1.2-1.2.5-.5,2.1.8,2.3,1.9.1.4.3.9.5,1,.4.2.4.1.3-1.1,0-.7-.2-1-.4-.9-.4,0-.5-.5-.3-1.2,0-.4.5-.6.9-.5.4,0,.8,0,.7-.2,0-.4-.2-1.3-.3-2.5,0-.6-.2-.9-.3-.9-.1,0-.2.2-.1.5,0,.2,0,.3-.1.2-.1,0-.3-.7-.4-1.2,0-.5-.3-1.3-.5-1.6-.3-.4-.3-.7-.2-1.2,0-.4.2-.7.4-.7.1,0,0-.4,0-.8-.4-1-.2-1.5.4-.8.2.3.5.5.7.5.3,0,1.6,2.2,1.8,3.2,0,.4.3.6.6.6.2,0,.3,0,.2.2,0,.1,0,.6,0,1,.1.4.2.7.3.6,0-.2.2,0,.2.6s.2,1.1.4,1.4c.3.4.3.8.4,1.9,0,1.3,0,1.4.7,2.2.4.5.7,1,.8,1.2.1.4.2.4.5,0h0ZM787.7,509.8c0-.2,0-.4.2-.4.2,0,.2-.3,0-.9-.4-1.2.2-1.1.7,0,.4.9.4,1.4-.1,1.4-.4,0-.7,0-.7-.2h0ZM796.8,503.9c-.5-.4-.3-1,.3-1,.3,0,.7.1.8.2s.2,0,.3-.3c.1-.4.2-.3.3.3s0,.8-.6.9c-.4,0-.9,0-1.1-.1h0ZM796.7,501.1c0,0-.1.2,0,.5,0,.2,0,.3-.1.2-.4-.3-.3-1,.2-1.1.2,0,.4.2.5.9.1.7.1.7,0,.2-.1-.4-.3-.7-.4-.7h0ZM794.6,499.5c-.4-.8-.5-2.9-.2-3.4.4-.6.6-.4.8.7,0,.4.2.7.3.7,0,0,.3.3.3.7.1.4,0,.5,0,.2-.2-.4-.2-.3-.3.4,0,.9-.6,1.3-.9.8h0ZM789.9,499.1c-.4-.8-.3-1,.2-.5.2.2.3.5.3.8,0,.7-.1.6-.6-.3h0ZM792.7,496.1c0-.3,0-.5.1-.4.1.1.3.4.3.6,0,.2,0,.4-.1.4-.1,0-.2-.2-.3-.6ZM792,495.5c.1-.7.2-.6.3.3,0,.4,0,.6-.2.5s-.2-.4,0-.8h0ZM790.1,494.5c-.1-.5-.2-.9,0-.9.2,0,.9,1.3.8,1.7-.1.5-.5.1-.8-.8ZM795.5,493.6c-.1-.2-.1-.4,0-.4.1,0,.2.2.3.4,0,.2,0,.4,0,.4,0,0-.2-.1-.3-.4ZM798.2,492.6c-.1-.2,0-.5,0-.7.3-.4.6-.1.5.5,0,.6-.3.7-.5.2ZM796.7,492.9c-.1-.2,0-.5,0-.7.3-.4.6-.1.5.5,0,.6-.3.7-.5.2ZM795.9,489.9c-.1-.3-.2-.6,0-.6.1,0,.2.2.3.6s0,.6,0,.6-.2-.3-.3-.6ZM788.8,487.5c0-.4.4.1.3.7,0,.5,0,.5-.2,0-.1-.3-.2-.6-.1-.7h0ZM796,486.2c-.1-.2-.1-.4,0-.4.1,0,.2.2.3.4,0,.2,0,.4,0,.4,0,0-.2-.1-.3-.4ZM797.3,483.6c-.8-1.1-1.5-2.2-1.5-2.4,0-.3.1-.4.5-.1.7.6.8.3.5-1.6-.1-1-.2-2-.1-2.2,0-.2,0-.4-.2-.6-.2-.2-.3-.3-.1-.4.4,0,.9,1.3,1.2,2.9.2,1.1.3,1.5.5,1.4.1,0,.1.3,0,.8-.2.8-.2,1,.2,1.9.2.5.5,1,.6,1,0,0,.2.2.3.6.2,1.1-.2.8-1.8-1.3h0ZM800.2,483.5c0-.3,0-.2.2.2.1.4.1.7,0,.6,0-.1-.2-.5-.2-.8h0Z"/>
      </g>
    </g>
  </g>
</svg>