<?xml version="1.0" standalone="no"?>
<!DOCTYPE svg PUBLIC "-//W3C//DTD SVG 20010904//EN"
 "http://www.w3.org/TR/2001/REC-SVG-20010904/DTD/svg10.dtd">
<svg version="1.0" xmlns="http://www.w3.org/2000/svg"
 width="1300.000000pt" height="1300.000000pt" viewBox="0 0 1300.000000 1300.000000"
 preserveAspectRatio="xMidYMid meet">

<g transform="translate(0.000000,1300.000000) scale(0.100000,-0.100000)"
fill="#000000" stroke="none">
<path d="M1369 9709 c-8 -5 -26 -9 -41 -9 -15 0 -30 -5 -33 -11 -4 -6 -13 -8
-21 -5 -8 3 -38 -3 -65 -14 -53 -20 -142 -20 -244 -1 -28 5 -48 5 -51 -1 -3
-5 2 -60 12 -122 l17 -113 -68 -114 c-37 -63 -72 -120 -78 -127 -7 -9 -21 -4
-60 24 -54 39 -67 35 -67 -18 0 -16 -6 -28 -13 -28 -16 0 -35 -24 -68 -85 -28
-54 -45 -66 -52 -38 -3 10 -5 3 -6 -14 0 -18 -4 -32 -8 -31 -15 3 -43 -14 -37
-23 3 -5 -1 -6 -9 -3 -8 3 -20 -2 -27 -10 -7 -9 -16 -13 -21 -10 -5 3 -9 0 -9
-6 0 -6 -4 -9 -9 -5 -14 8 -7 -23 44 -189 25 -81 45 -154 45 -161 0 -7 4 -15
10 -17 11 -3 72 -209 64 -217 -2 -3 -14 -6 -26 -8 -27 -4 -35 -17 -44 -68 -3
-22 -12 -54 -19 -70 -11 -27 -17 -30 -49 -29 -20 1 -36 -1 -36 -5 0 -4 -13 -6
-29 -3 -25 3 -30 9 -35 45 l-7 40 -16 -24 c-9 -13 -18 -26 -19 -28 -2 -2 -30
18 -63 44 -34 25 -61 44 -61 41 0 -2 27 -26 60 -52 33 -26 60 -53 60 -60 0 -7
8 -15 18 -18 10 -4 19 -14 19 -22 0 -14 -2 -14 -14 2 -7 10 -13 15 -13 11 0
-5 10 -21 21 -37 12 -16 19 -35 16 -44 -3 -8 -2 -18 3 -21 6 -4 10 -17 10 -30
0 -13 4 -26 9 -30 6 -3 8 -15 6 -26 -3 -12 3 -31 12 -43 14 -20 15 -20 8 -1
-4 11 -7 27 -7 35 -1 8 -7 51 -14 94 -8 44 -11 82 -8 85 3 3 13 -4 22 -15 9
-12 25 -24 35 -27 12 -5 17 -15 15 -29 -2 -13 2 -22 8 -21 12 2 11 -43 -4
-154 -8 -60 -7 -62 12 -58 12 3 75 14 141 25 66 11 129 23 141 26 18 5 23 -2
39 -56 10 -33 22 -63 25 -65 4 -3 46 42 93 98 47 57 91 108 99 115 12 9 20 -4
49 -76 27 -67 39 -86 52 -84 15 3 16 -3 11 -36 -4 -29 0 -53 20 -100 14 -34
26 -66 26 -72 0 -5 -44 -31 -97 -56 -54 -25 -100 -47 -102 -49 -2 -2 8 -24 23
-49 26 -45 31 -72 20 -113 -6 -21 -9 -20 -111 28 -58 27 -113 49 -124 49 -10
0 -37 -10 -60 -22 l-41 -21 -246 81 c-135 45 -247 80 -249 78 -4 -4 111 -231
129 -253 21 -27 28 -78 17 -128 -6 -27 -17 -57 -23 -64 -14 -19 77 48 232 172
68 53 127 95 132 92 4 -3 11 -29 16 -58 4 -28 9 -47 11 -40 2 6 0 34 -5 61 -9
50 -9 50 14 40 24 -11 27 -20 84 -205 20 -66 24 -72 45 -67 31 8 136 10 133 3
-2 -3 -21 -33 -43 -67 -38 -58 -42 -61 -90 -68 -27 -3 -54 -9 -59 -12 -6 -3
-30 -5 -55 -4 -64 3 -78 -8 -47 -37 l25 -23 33 20 c24 14 39 17 55 11 14 -5
25 -4 29 3 4 7 3 8 -4 4 -7 -4 -12 -2 -12 3 0 14 27 14 35 1 3 -6 -7 -31 -24
-56 -42 -62 -39 -67 6 -10 37 47 37 48 47 25 6 -13 11 -25 12 -27 1 -1 19 1
40 6 22 5 52 5 67 1 37 -10 77 5 84 31 6 23 19 26 26 8 3 -8 6 -6 6 4 1 10 12
20 28 24 15 4 41 15 58 25 35 21 71 15 132 -21 l35 -21 -20 35 -20 34 26 5
c15 3 34 8 43 12 26 10 47 -60 25 -83 -14 -16 -12 -19 30 -41 27 -15 40 -27
33 -31 -7 -5 -8 -10 -1 -14 6 -3 13 -2 16 3 3 4 27 -2 53 -15 27 -13 54 -24
62 -24 22 0 -3 -24 -64 -61 -55 -33 -56 -34 -26 -78 7 -11 21 -1 66 47 l56 61
80 -90 c78 -88 79 -89 90 -65 8 17 18 23 32 20 11 -2 26 1 33 7 14 12 84 -13
84 -30 0 -7 9 -7 23 -3 31 11 57 4 57 -16 0 -13 2 -14 9 -4 5 8 17 11 33 7 17
-5 43 5 94 33 58 34 68 43 66 63 -4 22 -1 22 33 -11 l36 -35 21 25 c11 14 26
33 33 43 12 17 14 17 59 -2 25 -11 46 -25 46 -31 0 -6 5 -8 10 -5 13 8 120
-35 120 -47 0 -5 4 -7 9 -4 11 7 41 -3 41 -13 0 -3 -20 -31 -45 -61 -24 -30
-42 -56 -40 -58 3 -4 63 13 209 59 18 5 33 5 40 0 8 -6 27 -3 55 10 53 23 53
23 77 2 10 -10 26 -18 34 -18 10 0 14 -9 13 -30 l-2 -29 19 31 c12 21 25 30
37 28 10 -2 30 -6 45 -9 l26 -6 -19 -72 -18 -73 48 -50 c27 -27 68 -71 91 -96
36 -41 46 -46 75 -44 19 2 59 -3 90 -11 30 -8 60 -12 65 -9 6 3 11 -6 11 -22
1 -25 2 -24 8 7 5 31 14 39 78 73 59 31 77 36 93 27 17 -9 22 -5 41 40 12 28
24 48 26 46 3 -3 29 9 58 25 l53 30 62 -158 c35 -87 82 -207 105 -268 24 -60
62 -155 85 -210 23 -55 45 -108 49 -119 5 -13 20 18 55 115 26 74 57 159 68
190 17 49 29 64 82 102 33 26 90 69 126 97 36 29 161 123 278 211 190 142 216
159 252 159 37 0 40 -3 59 -45 11 -25 23 -45 26 -45 3 0 4 4 1 9 -6 9 21 37
28 30 2 -2 23 -42 46 -88 39 -79 41 -86 25 -98 -10 -7 -23 -10 -29 -6 -6 3 -8
3 -4 -2 4 -4 -9 -20 -30 -35 -20 -15 -55 -44 -77 -65 l-40 -37 38 27 c21 15
56 29 77 32 l38 5 11 -53 10 -54 -5 60 -5 60 65 -138 c36 -75 66 -144 68 -153
2 -11 -36 -40 -124 -93 -115 -69 -177 -111 -121 -82 29 15 30 14 36 -10 5 -20
11 -21 54 -17 59 7 73 2 74 -25 0 -18 2 -19 7 -5 5 13 11 15 22 8 8 -5 24 -10
35 -10 11 0 31 -6 45 -13 34 -18 71 -27 65 -17 -3 5 3 11 13 14 19 6 106 -27
117 -44 3 -6 -18 -49 -48 -98 -74 -121 -74 -120 -50 -99 15 13 23 15 28 7 5
-8 34 15 84 64 l77 77 97 -45 c90 -42 99 -48 133 -103 21 -32 40 -60 43 -63 3
-3 7 -12 9 -20 2 -8 10 -19 18 -23 8 -4 14 -20 14 -35 0 -20 3 -23 9 -12 6 8
7 18 5 22 -3 5 6 3 20 -4 14 -6 26 -16 26 -22 0 -6 4 -5 9 3 8 12 12 12 26 -2
9 -10 34 -20 55 -23 37 -6 99 -54 70 -54 -9 0 -7 -5 5 -14 11 -8 23 -12 27
-10 5 3 8 -2 8 -11 0 -9 5 -13 10 -10 6 3 10 4 10 1 0 -3 -23 -17 -50 -32 -48
-26 -49 -28 -34 -46 10 -10 27 -18 39 -18 12 0 31 -13 44 -31 21 -28 28 -31
61 -26 34 4 42 1 67 -28 l29 -32 -24 -34 -24 -34 31 35 c18 19 53 68 78 107
25 41 50 70 56 66 5 -3 7 -1 4 4 -4 6 1 19 11 30 9 10 13 12 7 3 -5 -8 3 -4
18 9 15 14 27 19 27 12 0 -7 4 -9 10 -6 5 3 10 1 10 -4 0 -6 7 -11 15 -11 8 0
14 -6 13 -12 -2 -7 7 -14 18 -16 17 -2 36 -35 89 -155 98 -217 152 -327 159
-320 3 3 14 -1 23 -10 10 -8 31 -19 46 -23 16 -3 33 -17 39 -30 6 -13 15 -24
20 -24 5 0 -18 -52 -51 -116 -70 -133 -74 -153 -31 -155 17 -1 35 -3 40 -4 6
-1 21 -3 35 -4 19 -1 30 -12 51 -52 22 -44 29 -50 50 -46 16 3 24 0 24 -10 0
-8 30 20 68 62 l67 75 77 -5 77 -5 38 70 c30 55 42 69 60 68 20 -2 21 -7 18
-73 l-4 -70 12 68 c7 37 16 68 22 68 7 1 43 -84 121 -291 3 -10 19 7 48 52 50
80 46 81 132 -37 93 -127 135 -175 152 -175 11 0 39 39 77 105 56 99 61 104
74 85 10 -15 24 -20 61 -20 26 0 75 -3 109 -6 53 -6 61 -10 62 -28 1 -17 2
-18 6 -3 3 11 11 16 21 13 9 -2 40 -10 67 -16 28 -7 56 -18 63 -23 19 -15 27
-3 70 98 38 90 71 128 57 66 -6 -26 -3 -32 17 -40 70 -28 82 -29 105 -5 19 19
45 31 61 28 6 -1 18 -2 26 -3 18 -1 79 -130 72 -153 -2 -10 -1 -16 3 -13 4 2
29 -45 55 -106 30 -69 56 -114 70 -121 11 -6 21 -12 22 -12 0 -1 9 6 19 14 11
9 16 10 11 3 -14 -24 13 -13 49 19 30 25 38 29 45 17 7 -10 28 -13 84 -11 71
3 75 3 79 -20 4 -23 4 -23 6 0 1 20 6 22 61 22 59 0 60 -1 61 -27 1 -16 5 -39
9 -53 6 -16 7 -7 3 27 -5 48 -4 52 16 50 15 -1 37 -25 73 -80 47 -72 53 -77
65 -60 28 41 31 42 115 37 46 -3 107 -6 136 -8 47 -3 55 0 76 25 20 23 25 43
31 133 5 78 11 108 23 118 13 11 15 11 10 -3 -4 -9 -1 -16 8 -16 7 0 11 4 8 9
-3 4 -1 8 4 8 5 0 15 -14 22 -30 7 -17 14 -29 16 -27 2 2 -15 44 -37 93 -38
80 -59 158 -37 136 9 -9 96 0 145 16 32 10 34 9 65 -35 l31 -46 19 49 c11 27
21 51 24 53 2 2 14 -4 26 -15 13 -10 17 -12 11 -4 -20 22 -16 30 15 30 15 0
33 5 39 11 14 14 176 39 203 32 11 -3 20 -13 20 -22 0 -12 2 -13 8 -3 6 8 16
10 31 4 21 -7 19 -10 -28 -36 -28 -15 -51 -29 -51 -32 0 -3 9 0 19 6 14 7 21
6 24 -3 3 -7 6 -5 6 6 1 15 18 22 44 18 4 0 7 5 7 11 0 9 4 8 10 -2 5 -8 10
-10 11 -5 0 6 7 -6 15 -25 l14 -35 -6 32 c-7 41 -4 41 111 4 146 -46 142 -46
208 -5 31 20 57 41 57 45 0 5 6 9 12 9 20 0 168 93 162 102 -3 4 3 5 12 1 10
-4 15 -2 11 3 -3 6 3 10 13 11 23 2 110 51 110 62 0 5 -9 34 -20 66 -11 32
-20 59 -20 61 0 1 26 22 58 46 240 181 312 241 301 254 -9 12 -25 7 -88 -27
-55 -30 -69 -35 -50 -18 14 13 24 29 22 35 -2 6 3 17 12 24 12 10 15 10 15 0
0 -8 2 -11 5 -8 3 3 1 17 -4 31 -9 23 -8 25 10 22 10 -2 19 -2 19 -1 0 2 -39
50 -86 107 -47 57 -90 112 -96 122 -8 17 -6 18 23 15 30 -3 35 1 66 52 21 37
31 64 29 83 -3 15 0 27 5 27 6 0 9 6 7 14 -2 8 5 21 14 28 9 7 19 27 21 44 6
40 40 111 45 96 2 -7 8 -12 13 -12 5 0 64 -45 131 -100 66 -54 125 -97 129
-94 4 2 6 13 4 24 -2 11 1 19 8 17 7 -1 12 9 12 23 0 15 6 26 18 28 14 3 17
-5 19 -50 1 -51 2 -50 7 17 7 79 3 105 -10 83 -6 -9 -9 -6 -9 10 0 13 4 20 10
17 6 -3 10 1 10 9 0 8 9 20 20 26 16 9 20 8 20 -5 0 -9 4 -14 10 -10 5 3 7 12
4 20 -4 9 9 21 36 35 26 13 40 26 37 35 -3 7 -11 31 -18 54 -8 27 -21 46 -38
54 -63 32 -71 41 -71 79 0 31 3 36 17 31 12 -5 14 -3 8 7 -6 9 -4 11 4 6 7 -5
10 -15 6 -25 -5 -12 -3 -13 6 -4 9 9 3 36 -26 119 l-37 107 41 37 c22 21 42
35 44 33 2 -2 10 4 18 14 12 15 12 16 -3 10 -11 -4 -15 -2 -12 7 6 16 -75 108
-88 99 -6 -3 -8 -2 -5 4 6 9 -121 160 -131 156 -2 0 -49 -40 -104 -89 -103
-90 -194 -164 -202 -164 -2 0 -11 18 -20 41 l-16 40 62 127 c50 103 106 206
125 231 1 2 11 -2 20 -10 17 -12 17 -12 2 5 -14 16 -12 24 29 109 25 51 51 99
57 107 24 27 166 354 160 368 -2 7 -1 10 4 7 6 -3 15 3 20 12 10 16 17 11 64
-42 28 -33 72 -81 97 -108 l45 -47 115 141 c63 78 118 147 122 154 9 15 -100
94 -120 87 -8 -2 -20 5 -28 17 -9 12 -21 18 -27 15 -7 -4 -9 -4 -5 1 9 9 -9
45 -21 45 -5 0 -29 -16 -53 -36 -23 -20 -54 -45 -68 -56 -14 -12 -36 -30 -49
-42 -21 -18 -23 -19 -18 -3 4 11 3 16 -3 12 -6 -3 -10 -12 -10 -18 -1 -15 -77
-97 -90 -97 -13 0 -13 -17 -1 -22 16 -5 17 -41 1 -45 -11 -3 -11 -2 -3 4 8 5
9 14 3 23 -8 12 -10 12 -16 -3 -4 -12 -10 -14 -18 -8 -8 7 -64 -35 -182 -134
-94 -79 -179 -143 -187 -141 -9 1 -28 12 -42 24 -31 27 -44 29 -21 3 15 -16
15 -19 2 -24 -9 -4 -15 -1 -13 5 1 6 -9 17 -23 24 -21 12 -25 11 -28 -1 -2 -8
-13 -15 -25 -15 -18 0 -16 3 13 25 19 14 36 29 39 33 5 8 115 90 248 185 23
17 40 35 36 40 -3 5 -9 3 -14 -4 -6 -10 -9 -11 -9 -1 0 14 -21 12 -32 -3 -14
-19 -49 -12 -67 14 -10 14 -37 61 -61 103 -24 43 -45 76 -47 75 -1 -2 15 -37
37 -78 43 -80 50 -107 21 -72 l-19 22 -12 -29 -12 -29 -36 21 c-21 11 -38 21
-40 23 -2 2 4 17 13 34 30 58 8 31 -46 -56 -68 -111 -85 -129 -107 -111 -13
11 -14 11 -8 0 7 -11 4 -11 -14 0 -22 13 -114 184 -106 197 2 3 -20 6 -50 6
l-54 0 -2 45 c-1 40 -2 41 -5 10 -3 -19 -9 -39 -14 -45 -7 -7 -9 -5 -7 5 2 11
-8 16 -39 18 -26 2 -43 -1 -43 -7 0 -6 -9 -11 -20 -11 -11 0 -20 -5 -20 -11 0
-8 -19 -10 -64 -6 -43 4 -67 2 -76 -6 -10 -9 -11 -9 -6 1 4 7 1 12 -8 12 -10
0 -16 13 -19 43 l-4 42 -1 -42 c-1 -24 -6 -43 -12 -43 -5 0 -28 19 -50 43 -23
23 -46 42 -53 42 -7 0 -12 5 -12 10 0 6 -13 26 -29 45 l-28 35 31 -56 c37 -68
38 -71 7 -60 -16 7 -32 5 -51 -5 -29 -15 -127 -35 -182 -38 -18 0 -33 -4 -33
-8 0 -5 5 -8 11 -8 5 0 7 -5 4 -10 -4 -6 -10 -8 -15 -5 -17 11 -20 -29 -3 -45
10 -9 75 -67 146 -129 139 -123 154 -150 85 -144 -66 5 -211 3 -217 -3 -4 -3
-16 16 -29 43 -12 26 -20 39 -17 28 22 -70 11 -76 -13 -8 -15 45 -30 85 -33
87 -3 3 -29 -51 -58 -119 -32 -73 -58 -122 -64 -118 -6 4 -8 0 -4 -11 4 -11 3
-15 -4 -10 -6 3 -9 15 -6 25 6 21 -8 35 -18 19 -3 -5 -12 -10 -18 -10 -7 0 -6
4 3 10 8 5 10 10 3 10 -6 0 -17 23 -24 50 -7 28 -16 45 -19 40 -8 -12 -23 3
-34 34 -5 16 -4 17 9 6 9 -7 18 -11 20 -8 3 3 -5 10 -18 17 -27 14 -62 84 -52
102 5 7 4 10 -3 5 -6 -4 -25 25 -47 71 l-37 78 42 84 c22 46 39 85 37 87 -2 2
-21 -32 -42 -76 -22 -44 -42 -80 -45 -80 -4 0 -19 27 -35 60 -15 32 -33 56
-38 53 -6 -4 -8 0 -5 8 4 11 -5 14 -38 15 -25 0 -47 4 -50 7 -4 3 8 24 25 46
l32 40 -29 32 c-29 33 -61 39 -115 24 -18 -5 -16 -2 8 14 17 12 38 21 47 21
22 0 28 11 21 38 -4 15 -13 22 -30 22 -13 0 -22 4 -19 8 3 5 -1 9 -9 9 -8 0
-15 -4 -15 -9 0 -4 -33 -8 -74 -8 -69 0 -75 2 -79 23 l-4 22 -2 -22 c0 -13 -7
-23 -15 -23 -11 0 -14 12 -10 58 5 66 -1 60 -11 -11 l-6 -48 -42 6 -42 6 -80
-88 c-96 -106 -140 -167 -129 -184 4 -7 3 -10 -4 -5 -6 3 -13 2 -17 -4 -3 -5
0 -10 7 -11 7 -1 3 -4 -10 -7 -12 -4 -51 -41 -87 -82 l-65 -75 44 -8 c43 -9
44 -10 34 -33 -14 -30 -16 -30 -58 1 -19 14 -35 25 -36 25 -1 0 0 -10 3 -22 5
-19 -1 -16 -27 14 -36 42 -193 178 -205 178 -4 0 -21 -13 -36 -30 l-28 -29
-18 29 c-21 36 -34 30 -23 -10 5 -16 6 -38 3 -49 -4 -17 -9 -19 -24 -10 -15 7
-19 6 -19 -5 0 -16 25 -29 55 -30 16 -1 25 -16 43 -69 l23 -69 -28 -21 c-15
-12 -35 -24 -46 -27 -10 -3 -17 -8 -15 -13 5 -13 -56 -45 -64 -33 -5 7 -8 3
-8 -9 -1 -26 -19 -47 -52 -62 -16 -7 -28 -20 -28 -28 0 -10 -5 -13 -12 -9 -7
5 -8 3 -4 -5 5 -8 0 -14 -13 -18 -20 -5 -23 -10 -25 -43 -1 -8 -9 -16 -20 -18
-19 -4 7 50 124 258 53 96 55 111 7 59 -44 -48 -72 -65 -82 -49 -4 6 -14 5
-25 -2 -25 -16 -33 -7 -21 24 5 14 16 48 25 77 l16 53 -23 -7 c-12 -4 -41 -7
-63 -6 -39 2 -45 -2 -86 -51 -24 -29 -53 -66 -64 -82 -10 -16 -23 -34 -28 -41
-13 -17 0 -33 261 -301 125 -129 230 -239 231 -244 2 -6 -86 -10 -237 -10
-177 0 -241 3 -241 12 0 6 27 90 61 187 l60 176 -32 -30 c-18 -17 -29 -24 -25
-17 4 6 2 12 -3 12 -6 0 -12 12 -12 28 -2 23 -2 24 -6 5 -4 -20 -7 -22 -26
-11 -12 6 -29 19 -37 28 -8 9 -29 25 -45 37 l-30 21 -119 -154 c-66 -85 -120
-154 -121 -154 -2 0 -2 46 -1 103 1 77 -2 101 -11 100 -7 -2 -13 5 -13 14 0
13 3 14 12 5 20 -20 28 -13 27 26 0 36 0 37 -16 15 -8 -13 -21 -23 -27 -23 -6
0 -4 5 4 11 13 9 13 10 0 6 -8 -2 -14 -9 -13 -15 2 -6 -5 -11 -15 -11 -55 0
-116 -11 -122 -21 -6 -9 -9 -9 -13 1 -4 11 -6 11 -6 1 -1 -7 -5 -11 -10 -8 -5
4 -28 -54 -51 -126 l-43 -133 -38 140 c-34 125 -37 144 -27 185 6 25 16 50 22
57 6 6 92 32 191 58 99 26 181 47 182 48 1 2 18 224 29 392 4 68 3 72 -25 100
-27 25 -30 26 -26 7 8 -43 -25 -9 -71 74 -26 46 -56 93 -66 104 -10 10 -18 26
-18 34 0 8 -17 42 -37 76 l-37 62 -27 -31 c-21 -25 -28 -28 -33 -16 -4 11 -2
14 6 9 6 -4 8 -3 5 4 -4 5 -16 8 -26 5 -30 -8 -31 26 -4 75 14 24 22 46 19 49
-3 4 -6 1 -6 -5 0 -17 -88 -8 -103 9 -21 24 -71 65 -63 51 6 -10 1 -11 -20 -6
-19 5 -25 4 -20 -5 4 -6 3 -11 -3 -11 -5 0 -11 5 -13 10 -2 7 -32 3 -82 -10
-44 -11 -83 -20 -87 -20 -4 0 -15 21 -23 48 -14 43 -14 26 0 -32 5 -23 3 -25
-53 -31 -68 -8 -77 -9 -122 -7 l-34 2 6 47 c3 33 11 52 26 62 23 15 27 36 9
47 -7 5 -8 2 -3 -7 5 -10 5 -11 -3 -4 -6 6 -12 21 -15 35 -4 24 -4 24 -6 -2
-1 -32 -8 -35 -28 -10 -8 9 -12 12 -9 6 3 -7 -5 -11 -22 -11 -15 0 -48 -4 -74
-8 -48 -8 -76 5 -79 37 -1 7 -4 0 -8 -17 l-6 -30 -153 1 c-84 1 -155 4 -159 8
-3 3 22 42 55 86 62 81 73 103 50 98 -7 -1 -27 6 -45 15 -18 9 -34 17 -36 17
-3 0 -28 -36 -57 -80 -29 -44 -56 -80 -60 -80 -5 0 -28 47 -52 105 -23 57 -48
105 -53 105 -6 0 -21 20 -35 45 -14 25 -28 45 -31 45 -4 0 -2 16 3 35 10 29 7
43 -17 96 -29 64 -28 73 10 125 13 18 13 21 1 21 -9 0 -13 -4 -10 -9 3 -4 1
-8 -5 -8 -5 0 -13 5 -16 11 -4 6 -13 8 -20 5 -8 -3 -29 33 -61 102 -54 120
-72 152 -86 152 -5 0 -7 -4 -4 -9 4 -5 -3 -7 -14 -4 -11 3 -20 9 -20 14 0 5
-6 6 -13 3 -9 -3 -37 55 -92 198 -43 112 -85 219 -94 238 l-15 35 -7 -85 c-4
-47 -7 -155 -8 -242 -1 -112 -4 -157 -13 -160 -7 -3 -29 2 -50 9 -51 17 -65 9
-124 -71 -26 -36 -51 -63 -56 -60 -4 3 -8 -3 -8 -13 -1 -25 -70 -104 -70 -80
0 9 -6 17 -12 18 -7 1 -22 2 -33 3 -11 1 -30 3 -42 4 -20 2 -22 8 -26 70 l-3
67 -2 -67 -2 -66 -32 10 c-18 6 -44 15 -58 21 -14 6 -31 9 -39 8 -9 -2 -12 3
-7 14 3 9 2 14 -2 11 -4 -2 -21 21 -37 51 -16 31 -31 51 -32 46 -3 -9 -138 9
-150 20 -2 2 -22 66 -44 143 -23 76 -46 144 -51 149 -5 6 -22 10 -38 10 -15 0
-26 -2 -24 -4 2 -2 0 -9 -5 -15 -5 -6 -31 -63 -56 -126 -55 -134 -56 -135 -64
-123 -7 11 -117 37 -253 60 -114 20 -148 12 -149 -34 0 -25 -1 -26 -9 -8 -7
16 -9 17 -9 3 -1 -10 -8 -15 -18 -13 -10 2 -21 4 -25 4 -3 1 -20 13 -37 27
-27 22 -36 24 -76 19 l-45 -7 -2 38 -1 39 -7 -45 c-5 -31 -8 -37 -10 -20 -2
14 -3 31 -3 37 1 7 -4 10 -10 6 -6 -4 -8 0 -4 10 3 8 -1 21 -8 27 -8 7 -13 16
-10 20 3 5 -13 23 -35 40 l-40 32 -110 -7 c-116 -8 -115 -8 -111 38 1 9 -2 17
-7 17 -16 0 -25 76 -12 100 10 18 9 22 -9 27 -11 3 -18 10 -16 16 2 7 -20 31
-48 53 l-53 41 -33 -28 c-28 -23 -36 -26 -45 -15 -6 8 -39 16 -76 20 -36 3
-66 5 -68 6 -2 0 0 5 4 12 4 6 3 8 -4 4 -6 -3 -15 2 -21 11 -17 29 -13 5 5
-28 16 -31 11 -56 -6 -29 -7 10 -10 11 -10 3 0 -21 -38 -15 -53 8 -8 11 -16
16 -18 11 -2 -6 -21 -13 -41 -17 -43 -8 -47 -1 -22 48 11 21 12 28 3 20 -7 -7
-27 -13 -43 -13 -23 0 -50 -17 -110 -66 -61 -52 -80 -64 -87 -53 -7 11 -9 9
-9 -7 0 -23 -44 -59 -60 -49 -6 3 -16 3 -22 -2 -22 -13 -38 -12 -38 3 0 9 -5
12 -10 9 -6 -4 -8 -10 -6 -14 3 -4 -53 -7 -124 -7 l-130 1 -122 120 c-67 66
-114 110 -104 98 11 -13 15 -23 10 -23 -5 0 -4 -4 3 -8 15 -9 22 -62 12 -82
-12 -23 -22 -54 -21 -61 1 -4 -42 6 -96 22 -53 16 -107 31 -119 34 -13 2 -94
26 -180 54 -87 27 -179 52 -205 56 -30 4 -65 19 -100 43 -114 79 -134 90 -149
81z m2011 -209 c0 -5 -2 -10 -4 -10 -3 0 -8 5 -11 10 -3 6 -1 10 4 10 6 0 11
-4 11 -10z m-1266 -476 c10 -37 4 -38 -16 -3 -13 23 -14 29 -4 29 8 0 17 -12
20 -26z m2077 -42 c24 -21 93 -75 152 -122 l108 -83 -6 -46 c-12 -95 -16 -109
-35 -131 -11 -13 -20 -18 -20 -12 0 10 -59 27 -77 22 -4 -1 -11 7 -15 17 -9
19 -5 -36 8 -115 6 -42 6 -42 -17 -34 -27 9 -61 8 -78 -2 -7 -5 -11 1 -11 16
-1 20 -2 21 -11 6 -5 -10 -20 -18 -32 -18 -18 0 -19 2 -7 10 8 5 10 10 4 10
-6 0 -14 -3 -18 -7 -3 -4 -17 -8 -29 -9 -12 -2 -16 0 -9 2 22 10 13 21 -15 19
-21 -1 -168 60 -190 79 -2 2 30 66 71 144 57 109 70 144 61 152 -9 8 -14 6
-18 -4 -3 -8 -14 -19 -24 -25 -18 -9 -19 -4 -21 74 l-3 84 33 4 c18 2 60 5 94
5 57 2 64 0 105 -36z m-244 -34 c-3 -7 -5 -2 -5 12 0 14 2 19 5 13 2 -7 2 -19
0 -25z m1380 -164 c-3 -3 -12 -4 -19 -1 -8 3 -5 6 6 6 11 1 17 -2 13 -5z
m-854 -44 c-3 -11 -9 -20 -13 -20 -5 0 -6 9 -3 20 3 11 9 20 13 20 5 0 6 -9 3
-20z m2441 -712 c-13 -77 -14 -80 -29 -68 -11 9 -12 7 -9 -7 4 -14 -1 -18 -20
-18 -15 0 -26 5 -26 10 0 6 -4 5 -8 -2 -5 -8 -11 -3 -19 13 -11 23 -8 27 50
64 33 22 62 40 64 40 1 0 0 -15 -3 -32z m-5244 -102 c0 -3 -44 -44 -99 -93
-97 -87 -121 -101 -307 -179 l-32 -13 24 87 c14 48 27 99 31 115 4 19 10 26
22 23 11 -4 335 53 359 63 1 1 2 -1 2 -3z m-343 -690 c4 -5 0 -6 -7 -1 -8 5
-11 4 -6 -3 4 -6 13 -9 20 -6 8 3 17 1 21 -5 3 -7 -2 -11 -14 -11 -11 0 -26
-6 -34 -14 -12 -12 -23 -11 -78 11 -96 38 -96 45 4 41 49 -2 91 -7 94 -12z
m7417 -42 c12 -5 13 -9 3 -25 -6 -10 -18 -19 -25 -19 -7 0 -10 -4 -7 -10 3 -5
0 -10 -8 -10 -7 0 -21 16 -30 35 l-17 35 34 0 c19 0 41 -3 50 -6z m259 -97
c-6 -10 -53 32 -53 46 0 4 13 -2 29 -15 15 -13 26 -27 24 -31z m-7457 19 c-15
-22 -60 -26 -79 -7 -16 16 0 26 47 27 45 1 46 0 32 -20z m-284 -13 c62 -26
128 -76 116 -89 -4 -3 -55 -10 -115 -14 -186 -15 -337 -30 -365 -36 -16 -3
-28 -2 -28 2 0 9 49 76 67 91 18 14 90 7 120 -13 21 -13 23 -12 29 11 3 14 10
22 15 19 5 -3 9 -2 9 3 0 4 18 9 41 10 36 1 42 -3 66 -38 14 -21 28 -39 30
-39 5 0 -20 45 -52 93 -22 34 -12 34 67 0z m1448 -51 l23 -19 -32 -23 -33 -23
39 -33 c21 -19 43 -34 50 -34 6 0 15 -5 19 -12 5 -7 3 -8 -7 -3 -18 11 7 -22
36 -47 19 -17 20 -17 1 -18 -36 0 -236 52 -236 62 0 5 -9 7 -19 3 -23 -7 -71
4 -71 16 0 5 21 39 48 74 46 63 81 83 83 48 1 -16 2 -16 6 -1 4 15 20 22 59
27 7 0 22 -7 34 -17z m-398 -76 c11 -19 6 -19 -44 -5 -48 13 -49 24 -2 23 23
-1 40 -7 46 -18z m-1602 -61 c-7 -8 -17 -15 -23 -15 -6 0 -2 7 9 15 25 19 30
19 14 0z m-40 1 c0 -11 -19 -15 -25 -6 -3 5 1 10 9 10 9 0 16 -2 16 -4z m9955
-6 c3 -5 1 -10 -4 -10 -6 0 -11 5 -11 10 0 6 2 10 4 10 3 0 8 -4 11 -10z
m-3145 -230 c16 -63 28 -116 25 -118 -2 -2 -28 3 -58 12 l-54 16 25 105 c14
57 27 103 29 101 1 -1 16 -54 33 -116z m275 105 c-27 -11 -96 -22 -89 -15 5 4
18 10 29 13 24 6 74 7 60 2z m501 -418 c42 -30 74 -47 86 -44 11 3 18 0 18 -9
0 -8 5 -14 11 -14 5 0 7 6 3 13 -4 6 2 4 13 -5 11 -10 27 -18 36 -18 9 0 18
-4 21 -9 3 -4 18 -6 33 -4 24 4 26 3 10 -7 -10 -7 -26 -8 -35 -4 -9 4 -26 9
-37 11 -55 9 -295 87 -295 95 0 6 8 23 17 39 15 24 20 27 34 16 9 -6 47 -34
85 -60z m-3931 -127 c-3 -5 4 -11 15 -15 29 -9 25 -29 -12 -57 -56 -42 -61
-43 -53 -18 4 13 14 39 23 59 9 20 15 40 14 44 -2 5 2 6 8 2 6 -3 8 -10 5 -15z
m-1108 4 c-3 -3 -12 -4 -19 -1 -8 3 -5 6 6 6 11 1 17 -2 13 -5z m89 -9 c19
-14 19 -14 -1 -15 -32 0 -65 12 -59 21 8 14 38 11 60 -6z m4851 -429 c-3 -7 0
-25 8 -39 8 -16 9 -29 3 -35 -5 -5 -11 -16 -12 -23 -7 -32 -19 -49 -37 -49
-10 0 -19 -4 -19 -10 0 -5 -9 -10 -20 -10 -14 0 -20 7 -20 21 0 24 79 159 93
159 5 0 7 -6 4 -14z m3849 -93 c-2 -3 -15 3 -28 12 -13 10 -16 15 -6 12 10 -4
19 1 24 11 6 14 8 13 12 -6 2 -13 1 -26 -2 -29z m-15 -343 c-8 -4 -21 -5 -30
-2 -12 5 -10 8 9 12 29 8 40 3 21 -10z m-1216 -1071 c-4 -6 -14 -8 -22 -5 -8
3 -12 2 -9 -3 3 -5 -9 -18 -28 -29 l-34 -20 -23 24 -22 24 47 0 c29 0 45 4 41
10 -4 6 7 10 25 10 20 0 29 -4 25 -11z"/>
<path d="M403 8574 c3 -6 2 -16 -4 -24 -7 -13 -9 -13 -9 0 0 12 -2 13 -9 1 -5
-7 -19 -14 -32 -15 -14 -1 -23 -7 -21 -15 1 -7 -2 -10 -8 -6 -6 3 -8 10 -5 15
3 5 0 12 -6 16 -8 4 -9 3 -5 -4 4 -7 3 -12 -3 -12 -6 0 -20 -18 -31 -40 -11
-22 -25 -40 -31 -40 -6 0 -7 -5 -4 -10 5 -8 12 -7 22 2 9 7 55 34 102 60 47
26 78 48 68 48 -10 0 -16 4 -12 9 3 5 0 13 -6 17 -7 4 -9 3 -6 -2z"/>
<path d="M148 8439 c-5 -14 -17 -16 -67 -12 l-61 5 0 -76 0 -77 44 30 c24 17
46 27 50 24 3 -4 6 -1 6 5 0 6 20 25 45 42 50 34 58 51 21 44 -18 -3 -26 1
-28 13 -3 16 -4 16 -10 2z"/>
<path d="M130 8326 c0 -2 8 -10 18 -17 15 -13 16 -12 3 4 -13 16 -21 21 -21
13z"/>
<path d="M7081 8184 c0 -11 3 -14 6 -6 3 7 2 16 -1 19 -3 4 -6 -2 -5 -13z"/>
<path d="M10025 7558 c-51 -101 -57 -118 -41 -112 8 3 48 -25 90 -62 42 -37
79 -65 82 -62 7 7 -67 232 -79 239 -5 4 -6 12 -2 19 6 9 4 11 -5 5 -10 -6 -11
-2 -6 19 11 43 -1 30 -39 -46z m28 7 c-3 -9 -8 -14 -10 -11 -3 3 -2 9 2 15 9
16 15 13 8 -4z m9 -45 l-9 -24 -5 22 c-4 12 -2 20 3 16 5 -3 9 0 9 7 0 7 2 10
5 7 3 -3 2 -16 -3 -28z"/>
<path d="M21 7484 c-1 -15 30 -106 35 -101 2 2 -5 28 -15 58 -11 30 -20 49
-20 43z"/>
<path d="M8886 7420 c3 -19 9 -51 13 -70 l9 -35 1 42 c1 23 -4 45 -9 48 -8 5
-7 12 2 23 8 10 8 13 1 9 -6 -4 -14 -1 -17 5 -2 7 -3 -3 0 -22z"/>
<path d="M10662 7330 c0 -14 2 -19 5 -12 2 6 2 18 0 25 -3 6 -5 1 -5 -13z"/>
<path d="M76 7320 c3 -14 11 -32 16 -40 6 -10 7 -7 2 10 -3 14 -11 32 -16 40
-6 10 -7 7 -2 -10z"/>
<path d="M8335 7268 l-28 -33 54 -7 c60 -7 65 -5 74 34 6 22 3 27 -12 27 -10
-1 -27 2 -39 6 -16 5 -28 -1 -49 -27z"/>
<path d="M11790 7262 c66 -59 87 -69 106 -50 24 24 0 53 -55 66 -25 7 -57 14
-71 18 -21 5 -18 0 20 -34z"/>
<path d="M12001 7228 c5 -10 12 -18 14 -18 2 0 3 8 2 18 0 10 -7 19 -13 19 -9
0 -10 -5 -3 -19z"/>
<path d="M11624 7136 c3 -16 8 -31 11 -35 3 -3 4 7 1 23 -3 16 -8 31 -11 35
-3 3 -4 -7 -1 -23z"/>
<path d="M7841 6974 c0 -11 3 -14 6 -6 3 7 2 16 -1 19 -3 4 -6 -2 -5 -13z"/>
<path d="M586 6923 c-4 -4 -13 -8 -19 -8 -7 0 -27 -4 -46 -9 -30 -7 -33 -11
-28 -36 3 -15 1 -33 -6 -40 -7 -8 6 0 28 17 41 32 93 83 83 83 -2 0 -8 -3 -12
-7z"/>
<path d="M10081 6868 c12 -22 25 -23 33 -2 8 22 9 22 -18 20 -20 -1 -22 -4
-15 -18z"/>
<path d="M3670 6284 c0 -10 3 -14 7 -11 3 4 11 -1 18 -10 7 -10 14 -12 18 -6
4 6 -4 18 -18 27 -23 15 -25 15 -25 0z"/>
<path d="M4813 6185 c0 -11 4 -12 14 -4 7 6 13 13 13 15 0 2 -6 4 -13 4 -8 0
-14 -7 -14 -15z"/>
<path d="M4692 6160 c0 -14 2 -19 5 -12 2 6 2 18 0 25 -3 6 -5 1 -5 -13z"/>
<path d="M4521 6149 c-24 -5 -46 -11 -49 -13 -8 -9 78 -226 98 -246 18 -18 20
-18 39 -2 11 9 36 37 55 60 32 39 36 41 36 20 0 -16 -18 -37 -65 -73 -74 -57
-80 -73 -8 -22 26 20 52 36 57 37 5 1 15 -11 23 -27 7 -15 11 -20 8 -10 -8 30
6 47 39 47 17 0 55 7 85 15 30 8 57 14 60 13 28 -3 41 5 41 25 0 19 -24 34
-170 105 -93 45 -177 82 -187 81 -10 -1 -38 -5 -62 -10z"/>
<path d="M4895 6094 c-31 -27 -33 -31 -9 -15 28 18 62 51 53 51 -2 0 -22 -16
-44 -36z"/>
<path d="M5142 5880 c0 -14 2 -19 5 -12 2 6 2 18 0 25 -3 6 -5 1 -5 -13z"/>
<path d="M7442 4230 c0 -14 2 -19 5 -12 2 6 2 18 0 25 -3 6 -5 1 -5 -13z"/>
</g>
</svg>
