<?xml version="1.0" standalone="no"?>
<!DOCTYPE svg PUBLIC "-//W3C//DTD SVG 20010904//EN"
 "http://www.w3.org/TR/2001/REC-SVG-20010904/DTD/svg10.dtd">
<svg version="1.0" xmlns="http://www.w3.org/2000/svg"
 width="2000.000000pt" height="2000.000000pt" viewBox="0 0 2000.000000 2000.000000"
 preserveAspectRatio="xMidYMid meet">

<g transform="translate(0.000000,2000.000000) scale(0.100000,-0.100000)"
fill="#000000" stroke="none">
<path d="M10030 15866 c0 -17 27 -29 35 -16 4 6 3 15 0 20 -9 15 -35 12 -35
-4z"/>
<path d="M9070 15782 c0 -5 7 -15 15 -22 8 -7 15 -8 15 -2 0 5 -7 15 -15 22
-8 7 -15 8 -15 2z"/>
<path d="M12307 15503 c-4 -3 -7 -11 -7 -17 0 -6 5 -5 12 2 6 6 9 14 7 17 -3
3 -9 2 -12 -2z"/>
<path d="M9529 15439 c-11 -6 -11 -13 -3 -26 18 -29 44 -29 44 0 0 28 -19 40
-41 26z"/>
<path d="M12343 15193 c-15 -3 -23 -12 -23 -24 0 -21 12 -24 40 -9 13 7 21 7
25 0 10 -16 35 -12 35 5 0 12 -44 40 -53 34 -1 -1 -12 -4 -24 -6z"/>
<path d="M10505 15150 c-3 -6 1 -13 10 -16 19 -8 30 0 20 15 -8 14 -22 14 -30
1z"/>
<path d="M12219 15021 c-13 -11 -21 -22 -18 -25 9 -9 59 18 59 32 0 17 -14 15
-41 -7z"/>
<path d="M10215 14750 c-3 -5 -1 -10 4 -10 6 0 11 5 11 10 0 6 -2 10 -4 10 -3
0 -8 -4 -11 -10z"/>
<path d="M12277 14693 c-15 -14 -7 -43 12 -43 24 0 33 13 25 34 -6 16 -25 21
-37 9z"/>
<path d="M12600 14660 c0 -5 5 -10 10 -10 6 0 10 5 10 10 0 6 -4 10 -10 10 -5
0 -10 -4 -10 -10z"/>
<path d="M12076 14642 c-3 -6 -1 -14 5 -17 15 -10 25 3 12 16 -7 7 -13 7 -17
1z"/>
<path d="M12877 14625 c-4 -8 -2 -17 3 -20 6 -4 10 3 10 14 0 25 -6 27 -13 6z"/>
<path d="M12650 14590 c0 -5 5 -10 10 -10 6 0 10 5 10 10 0 6 -4 10 -10 10 -5
0 -10 -4 -10 -10z"/>
<path d="M12860 14550 c0 -6 -10 -15 -22 -20 -13 -5 -16 -9 -8 -9 16 0 50 22
50 33 0 3 -4 6 -10 6 -5 0 -10 -5 -10 -10z"/>
<path d="M10100 14481 c0 -12 5 -21 10 -21 6 0 10 6 10 14 0 8 -4 18 -10 21
-5 3 -10 -3 -10 -14z"/>
<path d="M9890 14044 c0 -8 5 -12 10 -9 6 3 10 10 10 16 0 5 -4 9 -10 9 -5 0
-10 -7 -10 -16z"/>
<path d="M9077 13928 c-7 -25 -3 -33 12 -23 13 8 15 45 2 45 -5 0 -11 -10 -14
-22z"/>
<path d="M11375 13910 c-8 -13 4 -32 16 -25 12 8 12 35 0 35 -6 0 -13 -4 -16
-10z"/>
<path d="M9080 13815 c-7 -8 -8 -15 -2 -15 5 0 15 7 22 15 7 8 8 15 2 15 -5 0
-15 -7 -22 -15z"/>
<path d="M9024 13750 c-4 -16 -16 -36 -28 -44 -12 -7 -30 -33 -41 -56 -16 -35
-16 -43 -5 -50 20 -12 28 -5 41 40 13 42 34 52 44 21 3 -10 14 -21 25 -24 16
-4 19 1 22 42 4 62 -9 101 -33 101 -14 0 -21 -9 -25 -30z"/>
<path d="M11313 13735 c-3 -9 -3 -18 0 -21 9 -9 27 6 27 22 0 19 -19 18 -27
-1z"/>
<path d="M9710 13680 c0 -5 5 -10 11 -10 5 0 7 5 4 10 -3 6 -8 10 -11 10 -2 0
-4 -4 -4 -10z"/>
<path d="M12105 13391 c-3 -5 -1 -12 4 -15 5 -3 11 1 15 9 6 16 -9 21 -19 6z"/>
<path d="M9170 13357 c0 -27 13 -36 26 -16 3 6 -1 18 -10 27 -15 15 -16 14
-16 -11z"/>
<path d="M10265 13350 c3 -5 8 -10 11 -10 2 0 4 5 4 10 0 6 -5 10 -11 10 -5 0
-7 -4 -4 -10z"/>
<path d="M10306 13285 c-19 -14 -14 -35 8 -35 18 0 35 21 29 36 -6 17 -13 17
-37 -1z"/>
<path d="M10488 13245 c-11 -14 -41 -30 -73 -40 -31 -9 -58 -22 -62 -30 -3 -8
-10 -15 -17 -15 -12 0 -42 40 -38 51 1 4 -14 10 -32 13 -19 4 -37 13 -40 21
-8 21 -31 19 -47 -4 -18 -25 -84 -35 -103 -15 -29 28 -64 12 -72 -32 -7 -39
-30 -73 -58 -86 -48 -21 -60 -88 -16 -88 11 0 20 -4 20 -9 0 -4 13 -24 30 -42
25 -29 30 -31 30 -14 0 35 28 65 61 65 22 0 29 -5 29 -20 0 -11 -4 -20 -10
-20 -5 0 -7 -13 -4 -29 5 -23 2 -30 -15 -36 -12 -3 -21 -15 -21 -25 0 -11 -8
-23 -17 -29 -17 -9 -17 -11 2 -25 20 -16 32 -16 68 -1 15 6 17 0 17 -51 0 -77
11 -95 40 -69 21 19 22 19 39 -4 15 -19 23 -22 54 -16 40 8 51 33 18 42 -12 3
-21 17 -26 39 -5 30 -9 34 -33 32 -22 -2 -27 1 -25 17 4 45 -17 92 -54 119
-36 26 -36 28 -10 22 34 -8 67 8 67 33 0 10 7 24 15 31 11 10 18 9 30 -4 19
-19 60 -31 75 -21 6 4 13 -6 16 -24 7 -34 23 -39 57 -16 33 21 49 6 41 -42 -5
-36 -9 -40 -36 -40 -33 0 -62 -28 -53 -51 3 -8 5 -24 5 -37 0 -16 8 -26 25
-32 24 -8 25 -9 9 -31 -8 -12 -20 -20 -25 -17 -15 10 -22 -21 -10 -44 8 -14 8
-27 -1 -46 -8 -19 -9 -28 0 -37 8 -8 13 -7 18 5 3 9 12 17 19 17 19 0 28 -36
15 -60 -12 -22 -1 -53 22 -64 7 -3 -5 -4 -27 -2 -23 2 -56 -3 -77 -12 -38 -16
-50 -32 -24 -32 29 0 28 -22 -3 -54 -30 -31 -31 -34 -17 -61 9 -17 25 -30 38
-31 53 -7 67 -11 82 -23 9 -8 16 -24 16 -37 0 -15 6 -24 15 -24 22 0 75 -41
75 -57 0 -7 -4 -13 -10 -13 -5 0 -9 -10 -8 -22 1 -13 -8 -41 -20 -63 -42 -81
-34 -127 22 -127 19 0 31 -8 41 -27 25 -44 54 -73 69 -68 21 8 43 -20 28 -35
-19 -19 -14 -48 8 -48 11 0 20 -4 20 -10 0 -22 20 -8 36 26 12 25 22 34 34 31
11 -3 23 6 34 24 15 26 15 29 2 29 -9 0 -18 -1 -20 -2 -3 -2 -16 8 -30 21 -20
19 -23 27 -15 38 6 7 19 13 29 13 12 0 17 9 18 31 1 36 15 55 32 44 8 -5 9
-21 4 -49 -14 -81 -4 -97 71 -106 50 -6 61 -39 21 -65 -20 -13 -24 -24 -23
-52 2 -29 8 -37 35 -49 31 -13 33 -12 54 16 25 35 38 38 38 11 0 -11 9 -23 20
-26 11 -3 25 -15 30 -26 13 -24 25 -24 60 1 32 23 42 17 33 -18 -4 -17 -2 -23
6 -18 6 4 11 15 11 25 0 10 9 21 21 24 18 5 19 9 9 27 -9 17 -8 25 4 39 9 10
16 34 16 54 0 27 7 41 26 56 15 12 34 21 43 21 27 0 47 18 35 30 -15 15 7 96
30 113 25 18 13 36 -22 33 -19 -1 -27 -7 -26 -19 1 -10 -5 -17 -16 -17 -10 0
-23 -7 -30 -15 -13 -15 -35 -11 -25 6 4 5 -4 9 -16 9 -19 0 -21 4 -14 33 14
63 0 95 -35 81 -8 -4 -30 -8 -48 -10 -18 -2 -37 -6 -42 -9 -15 -9 15 -35 39
-35 26 0 40 -45 20 -66 -13 -12 -21 -7 -59 31 -25 24 -48 44 -52 45 -13 0 -9
-28 5 -33 8 -3 6 -10 -8 -26 -19 -22 -19 -23 0 -57 10 -18 21 -34 26 -34 14 0
18 -31 6 -50 -16 -26 -27 -25 -56 5 -12 14 -26 23 -30 20 -4 -2 -17 2 -28 10
-23 16 -21 55 3 55 7 0 25 10 40 23 26 23 27 24 8 45 -25 30 -60 29 -68 -1 -4
-16 -17 -27 -40 -34 -45 -14 -51 -7 -20 25 27 30 32 62 9 62 -17 0 -20 25 -5
35 6 3 10 21 10 39 0 61 -87 121 -117 81 -7 -11 -13 -25 -13 -32 0 -14 -16
-18 -24 -5 -3 5 -8 24 -11 42 -3 19 -14 39 -24 46 -9 7 -23 31 -30 53 -6 22
-20 45 -31 51 -26 14 -33 13 -26 -6 4 -11 1 -14 -12 -12 -9 2 -16 10 -15 16 2
7 -2 12 -7 12 -6 0 -10 5 -10 10 0 6 11 10 25 10 18 0 25 5 25 19 0 35 55 43
66 9 6 -19 7 -20 16 -4 12 21 -11 41 -54 51 -16 4 -35 19 -45 35 -9 16 -30 34
-46 40 -21 7 -28 14 -23 26 4 10 -1 25 -10 35 -28 31 -1 21 30 -11 34 -35 56
-38 74 -10 15 25 -3 70 -28 70 -10 0 -23 7 -30 15 -7 9 -19 14 -25 11 -7 -2
-29 11 -50 29 -30 28 -36 40 -33 67 4 42 34 51 47 14 10 -24 38 -46 60 -46 13
0 9 62 -4 73 -7 4 -6 10 1 15 6 4 13 15 17 25 8 21 30 22 47 2 16 -19 44 -19
64 1 14 14 17 14 22 0 5 -12 12 -10 44 12 21 15 40 36 42 46 4 23 18 29 36 17
12 -7 12 -12 0 -30 -10 -16 -10 -25 -1 -39 6 -9 16 -16 22 -14 19 4 12 -16
-11 -32 -33 -23 -62 -21 -55 4 8 31 -10 24 -21 -8 -9 -28 -9 -49 1 -104 7 -33
9 -32 -34 -14 -30 12 -79 7 -79 -7 0 -12 42 -97 50 -102 15 -9 12 -25 -5 -25
-8 0 -15 -7 -15 -15 0 -8 -7 -15 -15 -15 -8 0 -15 5 -15 10 0 16 -37 11 -44
-6 -6 -16 29 -53 51 -54 12 0 37 36 38 55 0 17 35 18 35 1 0 -9 5 -16 11 -16
5 0 15 -13 20 -29 12 -33 37 -47 53 -31 7 7 7 17 -2 31 -7 11 -10 29 -7 39 3
10 1 21 -5 25 -5 3 -10 16 -10 27 0 11 -8 27 -17 34 -14 10 -15 15 -6 25 15
15 65 -4 62 -23 -5 -39 3 -59 26 -70 27 -12 34 -38 11 -38 -8 0 -18 -9 -21
-21 -10 -31 19 -58 61 -56 19 1 34 3 34 5 0 2 -11 15 -25 30 -25 26 -31 43
-19 54 3 3 24 -12 46 -33 23 -21 45 -39 49 -39 4 0 9 -10 12 -22 6 -21 11 -23
66 -20 57 4 61 2 70 -21 6 -14 19 -28 31 -32 27 -9 40 3 17 16 -9 6 -17 17
-17 24 0 8 -9 15 -20 15 -11 0 -20 4 -20 9 0 5 -10 13 -21 16 l-21 7 20 20
c17 18 25 19 51 10 33 -12 35 -10 45 53 3 16 10 31 16 33 5 2 10 15 10 28 0
22 -10 29 -33 25 -5 -1 -6 3 -3 8 3 5 -1 28 -9 51 -19 55 -19 76 1 84 21 8 44
-11 44 -36 0 -10 6 -21 14 -24 9 -3 12 -12 9 -21 -4 -10 -2 -14 7 -11 7 2 15
17 17 34 2 16 8 33 13 38 12 12 30 -2 30 -24 0 -10 5 -22 12 -26 7 -4 8 -3 4
4 -4 6 -1 20 5 30 18 29 4 52 -33 53 -18 1 -40 2 -49 3 -9 1 -25 8 -35 17 -39
33 -78 41 -125 28 -24 -7 -50 -21 -57 -31 -7 -10 -19 -18 -27 -18 -17 0 -8 41
14 58 9 7 16 18 16 25 0 6 9 13 20 15 30 6 66 44 63 66 -4 23 -21 33 -71 41
-29 5 -36 9 -28 19 11 13 5 53 -11 73 -7 9 -16 9 -32 1 -17 -7 -30 -7 -44 1
-11 6 -47 11 -80 11 -62 0 -61 -1 -127 73 -23 25 -28 27 -80 21 -59 -7 -85 4
-85 37 0 28 -13 29 -32 4z m-228 -129 c0 -3 -4 -8 -10 -11 -5 -3 -10 -1 -10 4
0 6 5 11 10 11 6 0 10 -2 10 -4z m140 -45 c12 -23 67 -38 83 -22 14 14 45 14
60 -1 10 -9 5 -18 -24 -45 -20 -18 -44 -33 -54 -33 -20 0 -68 47 -61 59 3 4
-8 5 -25 3 -32 -5 -33 -4 -19 32 11 31 25 33 40 7z m245 -42 c4 -6 14 -8 22
-5 12 5 14 1 9 -16 -3 -13 -6 -26 -6 -30 0 -13 -19 -9 -67 13 -42 19 -44 21
-26 34 22 17 59 19 68 4z m300 -8 c10 -17 -12 -21 -25 -6 -10 12 -10 15 3 15
9 0 18 -4 22 -9z m-311 -77 c9 -22 -3 -32 -14 -14 -12 19 -12 30 -1 30 5 0 12
-7 15 -16z m275 -50 c8 -19 8 -26 -2 -30 -21 -8 -64 13 -69 33 -4 14 2 18 27
20 26 1 35 -4 44 -23z m37 -108 c18 -14 18 -15 -9 -25 -39 -15 -57 -14 -57 4
0 8 5 15 11 15 5 0 7 5 4 10 -9 15 29 12 51 -4z m-728 -24 c2 -7 -2 -10 -12
-6 -9 3 -16 11 -16 16 0 13 23 5 28 -10z m793 -55 c-13 -13 -26 -3 -16 12 3 6
11 8 17 5 6 -4 6 -10 -1 -17z m12 -151 c9 -7 17 -20 17 -29 0 -19 -36 -41 -55
-33 -8 3 -15 1 -17 -4 -2 -5 -8 2 -14 15 -9 19 -8 28 5 44 18 24 39 26 64 7z
m-398 -306 c-3 -5 -10 -10 -16 -10 -5 0 -9 5 -9 10 0 6 7 10 16 10 8 0 12 -4
9 -10z m-65 -246 c0 -16 -26 -19 -35 -4 -3 6 -4 14 0 20 8 13 35 1 35 -16z"/>
<path d="M5965 13070 c3 -5 10 -10 16 -10 5 0 9 5 9 10 0 6 -7 10 -16 10 -8 0
-12 -4 -9 -10z"/>
<path d="M13790 12930 c0 -12 45 -24 59 -15 22 13 10 25 -24 25 -19 0 -35 -4
-35 -10z"/>
<path d="M9942 12902 c-45 -38 -40 -84 13 -107 53 -23 76 -9 50 31 -9 13 -13
29 -10 35 4 5 1 16 -5 24 -6 8 -9 19 -6 24 14 22 -11 18 -42 -7z"/>
<path d="M11367 12904 c-29 -16 -30 -22 -5 -86 12 -31 12 -32 38 -18 14 7 18
21 18 55 -1 56 -14 68 -51 49z"/>
<path d="M9806 12882 c-12 -12 -5 -30 14 -35 11 -3 20 -12 20 -21 0 -9 6 -16
13 -16 8 0 14 11 14 28 0 22 -7 31 -28 39 -15 6 -30 8 -33 5z"/>
<path d="M8630 12826 c0 -25 15 -37 38 -28 17 6 15 23 -5 38 -26 19 -33 17
-33 -10z"/>
<path d="M10270 12838 c0 -14 30 -22 41 -11 7 7 2 12 -15 15 -14 3 -26 1 -26
-4z"/>
<path d="M9853 12723 c-29 -19 -29 -33 -2 -56 25 -22 26 -21 30 25 4 46 0 50
-28 31z"/>
<path d="M13156 12711 c-4 -5 -2 -19 2 -31 8 -21 9 -21 25 -5 14 13 15 20 6
31 -13 16 -25 18 -33 5z"/>
<path d="M9933 12692 c-7 -4 -14 -30 -15 -58 -2 -38 0 -49 12 -49 10 0 14 8
12 26 -2 15 5 32 18 44 15 14 17 21 9 32 -13 15 -19 16 -36 5z"/>
<path d="M11397 12685 c-52 -18 -81 -49 -73 -80 10 -38 38 -48 82 -29 29 12
43 13 56 5 23 -15 38 -14 38 2 0 7 15 21 34 31 31 16 33 21 24 41 -20 44 -88
57 -161 30z"/>
<path d="M12075 12692 c14 -15 40 -19 43 -7 1 6 -10 11 -25 13 -19 2 -25 0
-18 -6z"/>
<path d="M13340 12686 c0 -8 4 -17 9 -20 10 -7 23 19 14 28 -11 11 -23 6 -23
-8z"/>
<path d="M9990 12681 c0 -10 19 -25 25 -20 1 2 -3 10 -11 17 -8 7 -14 8 -14 3z"/>
<path d="M10057 12661 c-20 -7 -21 -15 -6 -43 11 -20 53 -25 46 -5 -2 6 0 20
4 29 6 11 5 19 -3 24 -6 4 -8 3 -4 -4 3 -6 2 -13 -3 -16 -5 -4 -11 0 -13 8 -2
8 -10 11 -21 7z"/>
<path d="M10128 12659 c-3 -8 1 -20 8 -27 8 -7 14 -9 14 -5 0 4 5 1 10 -7 5
-8 10 -10 10 -4 0 7 -8 22 -18 34 -14 18 -20 20 -24 9z"/>
<path d="M4473 12634 c-3 -8 1 -22 9 -30 13 -14 17 -14 32 1 13 13 14 20 5 31
-15 19 -38 18 -46 -2z"/>
<path d="M13313 12634 c-3 -8 -12 -13 -20 -10 -11 5 -13 -2 -7 -32 4 -20 9
-40 11 -44 6 -12 33 -10 33 2 0 6 8 10 18 10 18 0 42 18 42 32 0 4 -14 15 -30
23 -17 9 -28 20 -25 25 4 6 1 10 -5 10 -6 0 -13 -7 -17 -16z"/>
<path d="M9870 12629 c0 -5 5 -7 10 -4 6 3 10 8 10 11 0 2 -4 4 -10 4 -5 0
-10 -5 -10 -11z"/>
<path d="M13230 12630 c0 -5 4 -10 9 -10 6 0 13 5 16 10 3 6 -1 10 -9 10 -9 0
-16 -4 -16 -10z"/>
<path d="M9726 12605 c-3 -8 -12 -15 -21 -15 -8 0 -15 -7 -15 -16 0 -13 7 -15
33 -10 19 3 27 3 19 -3 -11 -6 -10 -10 3 -15 44 -16 65 13 25 34 -11 6 -20 17
-20 25 0 19 -16 19 -24 0z"/>
<path d="M12392 12600 c-23 -22 -23 -40 1 -126 l11 -42 53 2 c56 1 62 8 38 43
-13 18 -13 22 0 27 17 6 10 33 -17 59 -10 10 -18 25 -18 33 0 11 -6 14 -16 10
-8 -3 -12 -2 -9 4 11 18 -21 10 -43 -10z m73 -90 c3 -5 1 -10 -4 -10 -6 0 -11
5 -11 10 0 6 2 10 4 10 3 0 8 -4 11 -10z"/>
<path d="M13215 12580 c-3 -5 -1 -19 5 -31 17 -30 4 -36 -28 -12 l-28 21 -10
-21 c-5 -12 -20 -24 -34 -27 -20 -5 -24 -12 -22 -33 2 -18 -2 -27 -12 -27 -7
0 -17 -7 -20 -16 -9 -22 -8 -24 9 -18 24 10 69 -14 87 -46 11 -20 13 -30 6
-30 -9 0 -9 -3 0 -12 17 -17 15 -38 -3 -38 -8 0 -15 7 -15 15 0 8 -4 15 -9 15
-5 0 -7 8 -4 19 3 13 -6 24 -33 40 -31 19 -42 21 -62 11 -23 -10 -24 -14 -18
-71 l6 -61 -31 7 c-33 7 -69 -15 -69 -43 0 -21 -30 -41 -63 -42 -17 0 -30 -7
-34 -17 -13 -37 -40 -42 -71 -14 -27 23 -28 43 -2 59 24 15 26 38 4 46 -13 5
-15 15 -10 46 5 32 3 40 -9 40 -21 0 -83 41 -90 60 -11 26 18 102 43 111 30
11 28 29 -3 29 -14 0 -25 5 -25 10 0 19 -36 10 -59 -14 l-22 -24 25 -27 c30
-32 31 -40 11 -57 -39 -33 -45 -41 -45 -64 0 -15 -6 -24 -15 -24 -9 0 -27 -11
-41 -25 -22 -22 -24 -31 -19 -77 3 -29 6 -62 7 -72 1 -11 13 -30 26 -43 22
-22 30 -24 83 -18 46 5 59 4 59 -7 0 -7 -10 -19 -21 -27 -18 -10 -23 -10 -30
0 -6 10 -10 10 -23 0 -11 -9 -16 -10 -16 -2 0 6 -4 11 -9 11 -4 0 -8 -10 -7
-22 1 -28 52 -50 65 -29 6 10 12 9 24 -4 11 -10 29 -15 49 -13 29 3 33 7 33
31 -1 15 3 27 7 27 4 0 8 -7 8 -15 0 -18 5 -19 29 -4 14 9 25 8 50 -4 31 -16
59 -13 72 6 4 6 15 6 25 2 25 -11 30 -12 55 -14 14 -1 19 -6 15 -16 -3 -8 2
-19 12 -24 15 -9 15 -11 -2 -30 -11 -12 -16 -24 -13 -28 4 -3 2 -12 -4 -20 -6
-7 -9 -26 -6 -42 9 -41 -17 -49 -48 -14 -22 26 -25 27 -64 17 -41 -11 -42 -11
-71 26 -24 30 -35 36 -61 35 -21 -1 -46 8 -78 30 l-47 33 -23 -36 c-14 -21
-21 -44 -18 -59 3 -16 -1 -27 -14 -33 -32 -18 -51 -11 -98 38 -66 68 -91 120
-97 200 -3 37 -5 78 -6 92 -1 14 -7 29 -13 33 -5 5 0 5 13 2 18 -5 22 -2 22
15 0 31 -47 22 -65 -13 -10 -19 -10 -26 -2 -24 17 3 8 -45 -11 -59 -13 -9 -14
-17 -6 -35 16 -36 11 -61 -19 -91 -19 -19 -27 -37 -27 -62 0 -57 -7 -66 -56
-66 -36 0 -44 -3 -44 -18 0 -10 -16 -33 -35 -52 -19 -19 -35 -43 -35 -53 0
-10 -9 -30 -20 -45 -28 -38 -33 -72 -12 -88 9 -7 14 -16 9 -20 -4 -4 -12 -3
-19 4 -8 8 -21 4 -52 -16 -23 -15 -50 -33 -61 -38 -11 -6 -34 -38 -51 -70 -24
-46 -38 -61 -62 -69 -18 -5 -32 -13 -32 -18 0 -4 21 -29 46 -54 l46 -45 -18
-33 c-17 -31 -17 -33 4 -62 46 -64 111 -66 97 -2 -9 39 2 69 25 69 10 0 22 5
25 10 7 11 54 13 79 4 13 -5 13 -10 -1 -46 -16 -41 -16 -41 10 -62 30 -24 34
-47 12 -66 -8 -7 -15 -19 -15 -26 0 -15 -41 -35 -75 -37 -11 0 -31 -13 -45
-28 -14 -15 -39 -29 -55 -31 -25 -2 -32 -9 -43 -45 -7 -23 -19 -44 -26 -46
-26 -10 -82 10 -130 46 -53 41 -70 45 -85 20 -9 -17 -13 -16 -55 6 -40 22 -44
28 -39 53 5 24 2 28 -15 28 -12 0 -31 11 -44 25 -23 24 -95 55 -129 55 -11 0
-19 5 -19 11 0 8 -5 8 -15 -1 -14 -11 -19 -7 -16 13 1 4 -4 17 -10 29 -9 17
-8 23 5 30 23 13 20 35 -6 42 -30 8 -74 48 -83 75 -3 12 -20 28 -36 36 -26 14
-31 14 -54 -1 -30 -20 -52 -13 -57 18 -2 15 -11 24 -25 26 -21 3 -21 4 -5 23
25 29 49 23 68 -16 18 -39 29 -44 38 -17 3 9 9 24 14 32 29 50 33 63 23 73 -7
7 -16 6 -29 -6 -20 -19 -37 -23 -27 -7 4 6 -11 10 -39 10 -26 0 -46 5 -49 13
-3 7 -9 1 -15 -13 -5 -14 -17 -31 -25 -38 -8 -7 -18 -24 -21 -37 -5 -19 -13
-25 -34 -25 -16 0 -37 -7 -48 -15 -10 -8 -26 -15 -35 -15 -9 0 -32 -16 -52
-35 -43 -42 -60 -43 -109 -10 -20 14 -39 21 -43 16 -3 -5 -28 -9 -56 -7 -28 1
-52 -1 -55 -5 -13 -21 86 -55 105 -36 8 8 11 5 11 -8 0 -36 -13 -43 -80 -43
-64 0 -65 0 -71 -28 -3 -16 -1 -38 4 -48 7 -14 5 -21 -6 -27 -10 -6 -13 -17
-9 -31 8 -31 33 -49 49 -36 10 8 13 4 13 -15 0 -20 -6 -26 -27 -29 -36 -4 -41
-25 -9 -39 20 -10 23 -15 15 -26 -6 -7 -21 -13 -33 -13 -44 0 -49 -15 -19 -50
24 -30 28 -42 27 -97 -1 -84 -11 -93 -71 -62 -40 20 -47 29 -45 49 2 14 -7 56
-19 93 -21 63 -22 70 -6 78 9 5 19 25 23 44 3 19 12 39 20 46 19 15 18 69 0
69 -21 0 -46 -29 -53 -60 -3 -19 -10 -27 -19 -23 -10 4 -12 -4 -7 -31 4 -28 2
-36 -10 -36 -31 0 -47 13 -47 37 0 22 -2 24 -15 13 -12 -10 -19 -10 -27 -2
-15 15 -37 -14 -38 -51 0 -27 0 -27 -55 -21 -39 5 -55 3 -55 -5 0 -7 -9 -9
-24 -5 -14 3 -27 1 -31 -7 -6 -9 -2 -11 14 -6 20 5 22 3 15 -26 -3 -17 -15
-38 -25 -46 -24 -20 -41 -115 -27 -147 6 -13 8 -29 5 -37 -9 -23 -59 -28 -81
-9 -18 16 -19 16 -14 -11 4 -20 0 -30 -13 -38 -23 -12 -84 -2 -100 17 -16 20
-1 37 29 29 14 -3 28 -2 31 2 3 5 17 17 31 26 23 16 23 17 3 17 -11 0 -24 8
-28 18 -5 14 -11 12 -35 -18 -18 -21 -30 -29 -30 -20 -1 12 -4 11 -15 -4 -8
-10 -25 -18 -40 -17 -14 1 -33 1 -42 1 -10 0 -37 -1 -60 -1 -24 0 -45 -5 -49
-10 -4 -6 -11 -6 -20 2 -11 9 -17 9 -28 0 -18 -15 -63 -4 -80 20 -15 22 -97
35 -126 19 -15 -8 -16 -14 -7 -35 7 -14 18 -25 25 -25 9 0 12 -10 10 -27 -2
-20 -9 -29 -26 -31 -30 -4 -25 -36 6 -40 36 -5 30 -55 -10 -85 -53 -39 -55
-39 -77 -2 -14 23 -25 33 -36 29 -8 -3 -15 -1 -15 5 0 19 -17 12 -23 -9 -3
-13 -1 -18 6 -14 8 5 7 2 0 -7 -13 -13 -19 -38 -6 -26 10 11 34 -30 27 -47 -3
-9 3 -20 16 -28 19 -12 50 -67 50 -89 0 -18 -37 -8 -60 16 -13 14 -29 25 -37
25 -7 0 -13 7 -13 15 0 17 -25 20 -35 5 -3 -5 5 -15 19 -22 14 -6 26 -15 26
-21 0 -5 7 -24 16 -43 16 -33 16 -35 -7 -53 -20 -16 -21 -21 -10 -35 7 -9 19
-16 26 -16 7 0 15 -7 19 -15 3 -8 12 -15 21 -15 9 0 15 -9 15 -21 0 -18 -4
-20 -27 -15 -16 3 -39 9 -53 12 -34 7 -38 14 -17 25 9 6 17 15 17 20 0 13 -40
1 -62 -18 -10 -9 -24 -13 -33 -9 -9 3 -18 0 -21 -8 -7 -17 -44 -17 -44 0 0 18
-35 44 -58 44 -12 0 -22 6 -22 14 0 19 -36 30 -52 16 -7 -6 -22 -18 -33 -26
-19 -15 -19 -15 4 -8 19 5 23 3 18 -10 -4 -9 -1 -16 4 -16 14 0 78 -65 102
-102 15 -24 15 -29 2 -42 -19 -19 -19 -30 -1 -23 8 3 20 -1 26 -9 9 -10 9 -14
1 -14 -6 0 -11 -7 -11 -15 0 -8 -7 -15 -15 -15 -8 0 -15 -4 -15 -9 0 -5 -3
-16 -6 -25 -4 -11 0 -16 14 -16 11 0 22 -6 24 -12 3 -8 12 -1 22 15 21 32 42
35 51 7 10 -32 -12 -61 -40 -54 -14 3 -32 4 -40 0 -20 -7 -8 -36 16 -36 22 0
23 -4 9 -29 -15 -29 -68 -34 -107 -11 -19 11 -40 20 -48 20 -13 0 -25 -21 -25
-46 0 -30 -50 -82 -83 -86 -18 -3 -40 -8 -50 -13 -13 -6 -20 1 -33 30 -18 44
-8 64 23 44 11 -7 31 -9 46 -5 29 7 41 32 45 93 2 15 11 23 32 28 17 4 31 13
31 21 1 8 3 19 4 24 1 6 3 17 4 26 0 8 5 13 10 10 4 -3 16 3 26 14 10 11 14
20 10 20 -5 0 -4 5 3 12 14 14 -2 48 -23 48 -8 0 -19 17 -25 40 -6 21 -15 42
-20 45 -5 3 -7 12 -3 20 3 9 -1 15 -8 15 -8 0 -26 6 -41 14 -21 11 -29 12 -37
2 -7 -8 -5 -15 8 -23 28 -18 33 -73 9 -99 l-19 -22 35 -6 c35 -7 48 -28 26
-41 -5 -3 -10 -14 -10 -24 0 -10 -9 -30 -21 -44 -16 -21 -18 -31 -10 -46 15
-27 15 -26 -19 -61 -17 -17 -30 -38 -30 -47 0 -24 -13 -7 -15 20 -2 33 -33 34
-45 1 -6 -15 -21 -36 -32 -46 -19 -16 -20 -22 -10 -38 19 -30 16 -54 -5 -44
-10 5 -37 8 -60 7 -47 -1 -50 2 -28 31 22 29 19 36 -20 36 -25 0 -44 9 -68 30
-45 41 -46 43 -60 63 -10 14 -18 15 -43 8 -43 -12 -52 -3 -48 47 3 31 0 42
-11 42 -27 0 -63 -22 -74 -46 -6 -13 -15 -24 -21 -24 -5 0 -10 -8 -10 -17 0
-14 3 -14 23 4 35 32 46 35 40 13 -4 -14 0 -20 11 -20 21 0 22 -43 1 -60 -12
-10 -16 -9 -21 4 -3 9 -14 16 -24 16 -10 0 -21 6 -24 13 -7 18 -76 -61 -69
-79 4 -10 -2 -17 -17 -21 -15 -4 -20 -11 -17 -25 4 -15 1 -18 -14 -13 -10 4
-19 2 -19 -4 0 -5 -17 -15 -37 -20 -49 -14 -53 -14 -53 3 0 22 -17 28 -41 16
-12 -7 -18 -18 -15 -26 5 -14 -5 -19 -17 -8 -3 3 1 28 10 56 12 41 12 52 2 59
-7 4 -19 4 -25 -2 -6 -5 -19 -7 -28 -3 -9 4 -16 1 -16 -6 0 -16 -30 -39 -52
-40 -9 0 -20 -5 -24 -11 -10 -17 -14 -100 -3 -94 5 4 9 13 9 21 0 8 6 14 14
14 8 0 22 3 31 6 12 5 16 2 13 -12 -2 -11 3 -20 12 -20 8 -1 21 -2 29 -3 11
-1 11 -4 0 -17 -10 -12 -23 -14 -51 -10 -21 3 -46 2 -55 -3 -10 -5 -27 -13
-38 -17 -18 -6 -18 -8 -2 -11 21 -5 23 -29 2 -37 -8 -3 -15 -9 -15 -14 0 -4
-20 -30 -45 -57 -60 -64 -67 -92 -30 -121 32 -25 26 -44 -14 -44 -16 0 -34 -7
-41 -16 -12 -13 -72 -44 -87 -44 -3 0 -2 12 1 27 5 17 3 29 -6 34 -9 6 -4 9
15 9 15 0 27 5 27 10 0 6 -7 10 -15 10 -8 0 -22 14 -30 31 -13 24 -14 34 -4
45 16 19 6 28 -21 19 -18 -6 -21 -12 -16 -36 4 -23 -1 -35 -30 -66 -20 -21
-42 -49 -49 -63 -12 -23 -32 -135 -27 -152 3 -12 -13 -9 -26 4 -9 9 -12 9 -12
-1 0 -7 -4 -10 -10 -6 -9 5 -83 -36 -93 -52 -3 -5 1 -16 8 -27 14 -19 57 -14
52 6 -1 6 18 12 46 14 57 4 70 10 63 32 -3 10 -1 24 4 32 8 13 13 12 32 -7
l22 -23 -22 -23 c-12 -13 -22 -29 -22 -35 0 -6 -12 -14 -27 -18 -41 -9 -86
-31 -77 -37 5 -2 23 -8 41 -11 30 -7 64 -41 91 -92 9 -18 8 -26 -8 -47 -21
-26 -17 -37 13 -37 17 0 19 -5 12 -47 -4 -27 -11 -49 -16 -51 -5 -2 -9 -10 -9
-17 0 -7 -10 -16 -22 -20 -21 -7 -32 -9 -65 -14 -18 -2 -21 -43 -5 -75 12 -25
18 -28 47 -23 21 4 36 1 39 -6 2 -7 5 -3 6 8 8 75 31 106 50 64 4 -8 12 -24
19 -36 9 -19 9 -23 -4 -23 -26 0 -18 -45 10 -60 26 -14 29 -23 39 -93 4 -32 2
-37 -15 -37 -11 0 -18 -4 -15 -9 4 -5 0 -11 -6 -14 -9 -3 -7 -10 7 -21 11 -8
16 -16 10 -16 -5 0 -4 -4 3 -9 15 -9 26 -118 12 -126 -15 -9 -12 -51 3 -64 23
-18 61 31 54 69 -6 25 -3 30 13 30 14 0 20 -7 20 -21 0 -12 4 -17 11 -13 8 4
9 -1 4 -17 -4 -13 -11 -25 -16 -27 -5 -2 -3 -9 4 -16 9 -10 18 -11 35 -3 18 8
25 7 37 -9 12 -16 14 -17 15 -2 0 9 5 18 10 20 6 2 2 13 -10 25 -11 12 -20 26
-20 32 0 16 32 22 48 9 12 -10 16 -10 19 0 3 6 11 12 19 12 17 0 19 16 3 26
-8 4 -2 12 15 21 14 7 26 21 26 29 0 11 6 13 20 9 16 -5 23 0 31 23 11 32 34
48 45 31 3 -6 -1 -18 -10 -28 -18 -20 -21 -36 -6 -26 11 7 80 -15 80 -25 0 -3
-14 -14 -30 -24 -17 -9 -28 -20 -26 -24 6 -10 -17 -51 -29 -51 -14 -1 -12 -44
2 -48 8 -3 11 3 8 17 -3 14 0 20 8 17 7 -2 12 -10 12 -18 0 -7 9 -15 19 -17
19 -4 19 -3 3 22 -17 26 -23 66 -9 66 4 0 18 -9 32 -20 14 -11 34 -20 45 -20
11 0 31 -12 45 -27 35 -37 85 -56 110 -43 15 8 24 6 40 -10 20 -20 50 -27 50
-12 0 5 19 6 43 3 39 -6 42 -8 45 -39 2 -18 -1 -31 -6 -30 -24 7 -14 -18 11
-30 33 -16 60 -2 50 26 -4 12 1 10 18 -7 16 -16 20 -25 12 -28 -7 -3 -13 -14
-13 -26 0 -12 4 -17 8 -12 4 6 16 15 27 21 17 10 27 5 70 -33 103 -91 124
-114 131 -145 10 -48 29 -72 69 -87 21 -7 33 -17 29 -23 -5 -8 -1 -9 12 -3 10
5 41 8 67 7 26 -1 64 5 84 13 41 17 73 19 73 5 0 -16 49 -23 65 -10 8 7 15 25
15 41 0 16 11 47 25 69 14 22 25 44 25 49 0 6 7 8 15 5 9 -4 38 11 70 35 30
22 58 41 63 41 4 0 21 13 37 30 l28 29 18 -24 c11 -13 19 -33 19 -44 0 -25 21
-27 53 -7 49 32 90 -7 46 -43 -20 -16 -21 -20 -9 -32 17 -16 60 -20 60 -6 0 5
7 4 15 -3 20 -17 19 -31 -1 -23 -11 4 -15 2 -13 -6 3 -7 8 -11 12 -9 3 2 14
-7 23 -20 13 -19 22 -22 45 -17 18 4 29 3 29 -4 0 -6 9 -11 20 -11 12 0 32 -7
46 -16 34 -23 54 -6 34 30 -14 27 -7 61 11 50 8 -4 9 1 3 17 -11 32 -7 129 6
144 7 9 7 21 0 39 -13 35 -13 35 10 29 26 -7 26 9 0 32 -18 16 -23 17 -35 4
-8 -8 -16 -39 -18 -69 -4 -59 -23 -100 -45 -100 -7 0 -22 6 -33 13 -15 8 -23
9 -26 1 -28 -77 -98 -31 -118 79 -4 20 -18 47 -32 61 -21 21 -23 27 -11 45 7
12 21 24 30 27 10 3 18 11 18 18 0 7 27 39 61 70 53 50 60 61 54 84 -5 21 -4
24 6 15 8 -8 18 -9 31 -2 22 12 26 54 4 46 -8 -3 -17 1 -20 9 -3 8 -12 14 -19
14 -10 0 -13 8 -9 25 2 14 8 25 13 25 5 0 9 6 9 13 0 7 12 12 28 12 15 0 27 4
27 10 0 5 -4 9 -9 7 -10 -3 -36 17 -36 29 0 5 7 9 15 9 9 0 15 9 15 24 0 18 8
27 31 35 17 6 28 15 25 20 -4 5 1 17 11 26 16 16 16 18 -1 31 -10 7 -15 18
-11 23 9 15 67 -20 61 -36 -3 -7 -1 -13 3 -13 17 0 20 29 6 44 -9 8 -15 34
-15 60 0 25 -4 47 -10 51 -15 9 1 35 22 35 11 0 22 -8 25 -20 3 -12 19 -24 42
-30 52 -14 68 -13 91 10 17 17 21 18 26 5 4 -8 14 -15 23 -15 9 0 27 -7 39
-16 22 -15 22 -17 6 -35 -15 -17 -15 -19 0 -25 9 -4 16 -17 16 -34 0 -16 6
-31 13 -33 7 -3 5 -6 -5 -6 -19 -1 -22 -9 -10 -28 12 -19 71 -11 78 10 7 23
21 22 34 -3 6 -11 17 -20 24 -20 7 0 21 -9 31 -20 10 -11 25 -20 34 -20 21 1
54 28 76 62 9 15 30 33 45 40 24 10 30 19 32 53 2 31 7 40 21 39 9 -1 17 4 17
12 0 13 72 65 87 63 25 -4 30 5 29 59 -1 31 -5 63 -9 70 -5 6 -4 12 1 12 6 0
8 9 5 19 -3 13 2 21 15 25 13 4 22 19 26 40 7 36 32 54 50 36 15 -15 42 -12
61 6 9 9 24 14 36 11 10 -3 26 1 33 9 8 8 19 14 25 14 6 0 11 9 11 21 0 15 -5
19 -15 15 -8 -3 -15 -1 -15 4 0 15 40 12 46 -4 3 -7 20 -21 37 -31 60 -31 123
22 67 57 -11 7 -20 18 -20 24 0 7 8 10 20 7 16 -4 20 0 20 20 0 33 -36 67 -70
67 -81 0 -59 106 26 124 17 4 60 2 95 -3 42 -7 65 -7 67 -1 2 6 8 10 14 10 5
0 25 7 44 16 26 12 37 14 48 5 7 -6 33 -14 57 -17 24 -3 49 -7 56 -9 14 -5 63
17 63 28 0 12 38 8 43 -5 2 -7 19 -14 38 -14 19 -1 48 -2 66 -3 19 -1 41 -10
53 -23 17 -18 24 -20 39 -11 14 9 23 8 40 -3 20 -15 21 -14 21 19 0 36 21 64
40 52 5 -3 10 -20 10 -36 0 -20 4 -28 12 -23 7 5 8 3 3 -5 -4 -7 2 -22 16 -37
21 -22 22 -28 11 -57 -7 -19 -12 -41 -12 -50 0 -21 33 -22 50 -2 9 11 17 12
31 4 31 -16 22 -26 -28 -33 -36 -5 -51 -2 -65 11 -21 19 -22 19 -34 -27 -7
-27 -19 -40 -50 -55 -40 -19 -41 -21 -27 -42 20 -30 41 -29 49 1 5 22 54 55
54 37 0 -5 11 -12 24 -15 14 -3 28 -15 31 -27 11 -35 105 -65 105 -34 0 8 5
15 10 15 6 0 10 9 10 21 0 18 4 20 30 14 32 -7 30 -12 34 75 1 20 8 27 39 34
36 9 38 12 33 42 -4 17 -4 39 0 48 8 20 30 21 38 1 11 -29 80 -6 86 30 2 6 6
20 11 33 13 34 11 55 -7 81 -15 21 -15 26 -1 54 27 54 33 80 37 160 1 20 21
22 38 5 6 -6 14 -9 18 -5 10 10 -6 27 -27 27 -22 0 -26 29 -8 61 8 16 17 19
39 14 24 -5 28 -4 23 13 -3 13 5 27 26 45 31 26 39 51 21 62 -12 8 -13 45 -1
45 11 0 85 -89 94 -113 6 -16 8 -16 27 3 11 11 25 20 30 20 20 0 9 45 -16 69
-14 13 -23 30 -20 38 3 7 1 24 -4 38 -7 17 -6 25 1 25 6 0 9 6 6 14 -3 7 0 19
6 25 14 15 -13 35 -53 40 -5 0 -10 20 -10 42 0 40 1 41 29 36 32 -7 51 7 51
39 0 12 14 37 31 55 23 24 27 34 17 40 -10 7 -10 9 2 9 26 0 42 -16 38 -38 -1
-11 7 -31 19 -44 13 -13 24 -36 25 -51 3 -32 9 -33 46 -10 15 9 28 18 30 19 1
0 -11 31 -27 68 -29 63 -31 83 -7 52 7 -9 22 -12 44 -9 30 5 33 9 29 30 -3 15
1 27 9 30 19 7 72 -15 83 -35 15 -26 181 -19 181 8 0 6 -6 10 -13 10 -8 0 -19
12 -26 27 -10 23 -9 30 8 54 13 17 18 35 14 45 -6 15 -2 15 24 -4 17 -12 33
-19 36 -15 3 3 14 3 23 -1 12 -5 14 -9 5 -20 -16 -20 -4 -42 31 -57 23 -9 35
-10 49 -1 25 16 44 15 79 -3 30 -15 44 -8 45 22 0 7 3 13 8 13 4 0 12 0 18 0
5 0 8 -4 5 -9 -3 -4 0 -16 8 -26 16 -22 81 -12 72 12 -3 8 -1 35 5 61 18 79
17 77 43 53 16 -15 26 -19 31 -11 5 8 14 7 31 -4 42 -29 61 -11 28 25 -23 25
-5 67 41 96 32 21 33 24 23 59 -5 21 -16 44 -24 51 -26 26 -8 64 39 82 30 12
41 2 43 -39 1 -14 2 -28 3 -32 2 -16 24 -7 42 16 11 14 30 28 42 32 21 7 21 7
3 14 -17 6 -15 9 16 28 19 12 40 22 46 22 21 0 20 -30 -1 -62 -18 -28 -34 -57
-54 -100 -6 -11 34 -28 51 -22 11 4 16 19 16 51 0 44 1 45 28 39 15 -4 46 -9
69 -13 30 -4 43 -11 46 -25 5 -18 43 -24 39 -5 -1 4 6 15 16 25 14 14 19 15
30 5 20 -19 27 -16 30 13 2 21 -2 25 -21 22 -16 -3 -34 8 -64 41 -24 24 -43
48 -43 53 0 4 -9 8 -19 8 -31 0 -36 21 -11 40 19 14 21 20 11 38 -9 18 -6 29
19 70 16 27 30 63 30 80 0 28 4 32 35 38 41 7 53 34 31 66 -20 27 -21 44 -3
29 8 -6 17 -8 20 -4 14 13 7 53 -10 62 -21 11 -55 66 -47 74 4 3 -3 26 -15 50
-18 38 -20 49 -10 71 7 14 18 26 26 26 7 0 13 2 13 5 0 10 -26 61 -35 68 -7 6
-6 10 3 14 6 2 12 17 12 32 0 24 3 27 35 26 19 -1 35 2 35 7 0 4 -4 8 -10 8
-5 0 -10 6 -10 14 0 8 8 13 17 12 20 -1 27 22 14 43 -8 12 -12 12 -26 -3 -16
-16 -19 -16 -36 0 -10 9 -25 14 -34 10 -9 -3 -13 -2 -10 4 3 6 13 10 21 10 8
0 14 5 14 10 0 6 -4 10 -10 10 -5 0 -7 7 -4 15 4 8 15 15 25 15 27 0 24 20 -3
22 -13 1 -32 2 -43 3 -11 1 -24 -2 -30 -5 -5 -4 -33 -10 -61 -14 -47 -6 -53
-4 -68 19 -19 29 -38 32 -56 10 -12 -14 -15 -14 -31 1 -10 9 -15 22 -13 28 3
7 -5 30 -16 50 -12 20 -19 36 -15 36 4 0 2 7 -5 15 -10 12 -8 18 11 34 l24 20
17 -37 c9 -20 26 -48 37 -62 17 -21 23 -23 39 -13 14 8 22 9 30 1 9 -9 17 -7
31 6 15 14 17 24 11 53 -12 51 4 70 63 78 38 6 51 12 59 31 14 31 31 30 48 -1
7 -14 20 -25 27 -25 8 0 20 -15 28 -34 9 -22 23 -35 38 -38 22 -4 24 -2 20 32
-3 24 2 48 15 71 21 39 54 48 198 54 106 5 154 14 161 31 3 8 11 14 18 14 8 0
13 9 11 23 -3 30 -15 49 -26 42 -5 -3 -23 1 -40 10 -24 12 -33 13 -49 3 -16
-10 -27 -10 -55 0 -33 12 -40 11 -107 -22 -68 -33 -73 -35 -126 -25 -30 6 -72
19 -94 31 -21 11 -43 17 -49 13 -6 -4 -61 -1 -123 5 -81 9 -124 19 -156 35
-35 19 -48 22 -66 13 -34 -15 -55 -4 -55 31 0 42 -32 58 -95 50 -27 -4 -62 -4
-77 -1 -16 2 -28 0 -28 -6 0 -6 -3 -18 -7 -28 -5 -13 -3 -16 9 -11 15 5 35
-10 53 -42 5 -9 4 -12 -3 -7 -6 3 -13 -3 -17 -14 -9 -27 -23 -25 -35 4 -13 34
-40 65 -73 82 -15 8 -25 19 -22 24 3 5 1 11 -5 15 -15 10 -12 52 5 59 8 3 15
1 15 -4 0 -6 7 -10 15 -10 8 0 12 6 9 14 -3 8 -1 17 5 21 18 11 12 25 -10 25
-19 0 -21 4 -16 55 3 30 1 58 -5 61 -11 7 -90 -75 -82 -87 3 -5 0 -9 -6 -9
-13 0 -32 48 -24 61 3 6 15 7 26 3 17 -5 20 -3 15 10 -4 10 -1 16 7 16 17 0
26 22 26 65 0 34 -14 54 -25 35z m-585 -275 c0 -25 -18 -25 -22 -1 -4 17 -1
23 9 19 7 -3 13 -11 13 -18z m45 -84 c10 -17 -12 -21 -25 -6 -10 12 -10 15 3
15 9 0 18 -4 22 -9z m385 -16 c0 -8 -8 -15 -18 -15 -10 0 -23 -5 -30 -12 -19
-19 -40 6 -22 27 17 20 70 20 70 0z m-104 -68 c1 -23 -1 -32 -3 -19 -5 26 -11
27 -35 5 -13 -12 -22 -13 -29 -6 -8 8 -5 14 10 23 12 6 19 15 16 20 -5 8 10
18 30 19 6 1 11 -18 11 -42z m289 33 c3 -5 1 -10 -4 -10 -6 0 -11 5 -11 10 0
6 2 10 4 10 3 0 8 -4 11 -10z m-98 -21 c7 -7 24 -12 39 -13 15 -1 29 -7 32
-15 3 -10 -1 -12 -15 -9 -21 5 -98 -34 -87 -45 3 -3 -4 -15 -15 -26 -36 -36
-38 17 -3 87 17 34 31 39 49 21z m103 -9 c0 -5 -5 -10 -11 -10 -5 0 -7 5 -4
10 3 6 8 10 11 10 2 0 4 -4 4 -10z m362 -108 c-7 -2 -10 -7 -7 -11 9 -15 -22
-44 -39 -38 -19 8 -22 47 -3 47 8 0 20 12 27 28 l12 27 12 -24 c8 -19 8 -25
-2 -29z m448 -32 c0 -20 -5 -30 -15 -30 -8 0 -15 7 -15 15 0 9 -7 18 -15 21
-25 10 -17 24 15 24 27 0 30 -3 30 -30z m-570 -9 c0 -6 -4 -13 -10 -16 -5 -3
-10 1 -10 9 0 9 5 16 10 16 6 0 10 -4 10 -9z m-1350 -302 c0 -10 -7 -19 -15
-19 -16 0 -19 9 -9 34 8 20 24 11 24 -15z m1423 -9 c23 0 38 -4 32 -8 -5 -4
-15 -16 -21 -27 -18 -32 -50 -31 -61 2 -5 15 -7 37 -4 48 4 17 5 18 9 3 2 -14
14 -18 45 -18z m-335 -7 c12 -24 4 -43 -18 -43 -23 0 -44 26 -36 45 7 21 43
19 54 -2z m-754 -15 c13 -21 10 -24 -36 -31 -30 -4 -38 -2 -38 9 0 40 52 56
74 22z m-124 -13 c16 -19 6 -45 -18 -45 -13 0 -18 7 -16 28 1 15 2 28 3 30 3
7 20 0 31 -13z m-100 -35 c0 -5 -2 -10 -4 -10 -3 0 -8 5 -11 10 -3 6 -1 10 4
10 6 0 11 -4 11 -10z m1480 -12 c11 -12 20 -29 20 -38 0 -12 8 -15 38 -13 l37
3 -32 -15 c-18 -8 -33 -21 -33 -29 0 -8 -7 -16 -15 -20 -8 -3 -15 -13 -15 -22
0 -13 -3 -14 -14 -4 -8 6 -25 10 -38 8 -21 -3 -24 2 -29 47 -6 47 4 80 21 70
4 -3 10 4 13 15 7 26 21 25 47 -2z m180 -22 c0 -2 3 -12 7 -21 5 -15 3 -16
-15 -6 -25 13 -29 31 -7 31 8 0 15 -2 15 -4z m-447 -50 c15 -13 27 -26 27 -29
0 -4 -17 -15 -37 -25 -21 -10 -48 -25 -61 -33 -21 -12 -25 -12 -36 4 -20 26
-7 67 28 88 40 24 45 24 79 -5z m-1333 -76 c0 -5 -4 -10 -10 -10 -5 0 -10 5
-10 10 0 6 5 10 10 10 6 0 10 -4 10 -10z m-1094 -41 c15 -17 16 -22 4 -29 -21
-13 -20 -37 1 -56 11 -10 22 -35 26 -57 3 -21 11 -41 17 -43 7 -3 12 -20 12
-39 0 -19 8 -42 17 -53 21 -23 22 -52 3 -52 -21 0 -46 28 -66 76 -17 40 -21
42 -70 49 -41 6 -54 12 -62 31 -14 29 1 49 41 57 38 8 49 45 21 69 -26 21 -25
33 2 52 29 20 31 20 54 -5z m1219 0 c-8 -12 -35 -12 -35 0 0 11 22 20 33 14 4
-2 5 -9 2 -14z m1502 -101 c5 -7 8 -19 7 -25 -1 -7 -2 -17 -3 -23 0 -5 -12
-10 -25 -10 -17 0 -26 7 -30 25 -4 14 -4 30 -1 35 9 14 41 12 52 -2z m-2491
-34 c7 -28 -7 -44 -40 -44 -18 0 -18 1 -3 18 10 10 17 26 17 35 0 27 19 20 26
-9z m2386 -1 c22 -20 23 -39 3 -47 -15 -6 -35 21 -35 48 0 20 9 20 32 -1z
m-2473 -50 c-8 -9 -16 -10 -22 -4 -13 13 0 31 19 24 11 -4 12 -8 3 -20z m2331
-4 c0 -5 -4 -9 -10 -9 -5 0 -10 7 -10 16 0 8 5 12 10 9 6 -3 10 -10 10 -16z
m-35 -49 c3 -5 1 -10 -4 -10 -6 0 -11 5 -11 10 0 6 2 10 4 10 3 0 8 -4 11 -10z
m275 -90 c0 -5 -5 -10 -11 -10 -5 0 -7 5 -4 10 3 6 8 10 11 10 2 0 4 -4 4 -10z
m-2580 -87 c0 -24 -25 -9 -28 17 -3 21 -2 22 12 11 9 -7 16 -20 16 -28z m-953
-50 c-9 -9 -19 -14 -23 -11 -10 10 6 28 24 28 15 0 15 -1 -1 -17z m3187 1 c9
-3 16 -14 16 -24 0 -26 -21 -80 -31 -80 -17 0 -31 43 -24 76 6 35 11 39 39 28z
m-3225 -33 c8 -5 9 -11 3 -15 -13 -8 -42 3 -42 15 0 11 21 11 39 0z m2821 -31
c0 -5 -5 -10 -11 -10 -5 0 -7 5 -4 10 3 6 8 10 11 10 2 0 4 -4 4 -10z m-2725
-32 c11 0 29 -2 40 -4 23 -4 77 -48 69 -56 -2 -3 4 -21 14 -39 23 -40 22 -93
0 -97 -9 -2 -33 6 -54 17 -21 12 -57 21 -80 21 -43 0 -54 10 -54 52 0 11 -9
31 -20 45 -11 14 -20 31 -20 37 0 16 42 35 65 29 11 -3 29 -5 40 -5z m2289
-24 c6 -17 -9 -44 -25 -44 -5 0 -9 14 -9 30 0 33 23 42 34 14z m-194 -38 c0
-3 -4 -8 -10 -11 -5 -3 -10 -1 -10 4 0 6 5 11 10 11 6 0 10 -2 10 -4z m-320
-107 c0 -24 -23 -21 -28 4 -2 10 3 17 12 17 10 0 16 -9 16 -21z m1415 -106
c12 -12 15 -25 10 -52 -8 -43 -13 -50 -24 -33 -5 9 -13 -1 -24 -28 -12 -32
-20 -40 -41 -40 -16 0 -26 -6 -26 -15 0 -9 -9 -15 -23 -15 -22 0 -23 3 -18 41
5 38 10 43 48 58 33 13 40 19 33 31 -14 22 -12 36 6 54 20 20 38 20 59 -1z
m-591 -127 c-9 -43 -14 -49 -30 -35 -17 14 -18 61 -2 77 20 20 40 -6 32 -42z
m239 -37 c12 -20 -11 -109 -31 -117 -7 -2 -24 6 -37 18 -25 23 -26 59 -3 103
11 22 56 20 71 -4z m57 -91 c0 -10 -4 -18 -9 -18 -16 0 -23 19 -16 41 6 17 9
19 16 8 5 -8 9 -22 9 -31z m-328 -15 c21 -19 23 -33 4 -33 -24 0 -63 25 -58
38 5 17 32 15 54 -5z m-3382 -193 c0 -5 -4 -10 -9 -10 -6 0 -13 5 -16 10 -3 6
1 10 9 10 9 0 16 -4 16 -10z m2840 -259 c0 -16 -28 -20 -47 -6 -15 12 -16 16
-4 24 16 10 51 -3 51 -18z m-50 -76 c0 -8 -2 -15 -4 -15 -2 0 -6 7 -10 15 -3
8 -1 15 4 15 6 0 10 -7 10 -15z m-3836 -97 c-3 -4 -11 -5 -19 -1 -16 5 -20 25
-8 36 7 8 33 -25 27 -35z m-24 -22 c0 -8 -4 -18 -10 -21 -5 -3 -10 3 -10 14 0
12 5 21 10 21 6 0 10 -6 10 -14z m454 -50 c-16 -51 -78 -69 -71 -20 2 14 6 24
10 24 4 0 14 6 23 14 21 21 46 9 38 -18z m76 4 c0 -11 -7 -20 -15 -20 -8 0
-15 2 -15 4 0 2 -3 11 -6 20 -4 12 0 16 15 16 14 0 21 -6 21 -20z m-540 -5 c0
-8 -4 -15 -9 -15 -13 0 -22 16 -14 24 11 11 23 6 23 -9z m620 -45 c0 -5 -4
-10 -10 -10 -5 0 -10 5 -10 10 0 6 5 10 10 10 6 0 10 -4 10 -10z m3067 -50
c-3 -13 2 -25 15 -34 11 -8 17 -19 14 -24 -3 -6 1 -12 9 -16 19 -7 19 -30 1
-45 -10 -8 -25 -9 -48 -3 -37 9 -47 35 -30 80 6 15 13 35 16 45 8 24 30 22 23
-3z m-3753 -74 c-2 -55 -17 -63 -43 -24 l-21 33 22 18 c30 25 43 16 42 -27z
m1186 -18 c22 -47 14 -70 -15 -38 -10 11 -15 20 -11 20 4 0 2 9 -4 20 -10 18
-7 40 5 40 3 0 14 -19 25 -42z m2488 -169 c-2 -6 -8 -10 -13 -10 -5 0 -11 4
-13 10 -2 6 4 11 13 11 9 0 15 -5 13 -11z m-1266 -41 c-7 -7 -12 -8 -12 -2 0
14 12 26 19 19 2 -3 -1 -11 -7 -17z m-1062 -73 c0 -8 -7 -15 -15 -15 -9 0 -12
6 -9 15 4 8 10 15 15 15 5 0 9 -7 9 -15z m-2207 -42 c6 -31 -8 -47 -44 -51
-27 -2 -27 -2 -17 38 8 32 15 40 33 40 17 0 24 -7 28 -27z m2107 -13 c0 -5 -2
-10 -4 -10 -3 0 -8 5 -11 10 -3 6 -1 10 4 10 6 0 11 -4 11 -10z m415 -39 c-3
-6 -11 -11 -17 -11 -6 0 -6 6 2 15 14 17 26 13 15 -4z m-250 -25 c1 -31 -11
-44 -27 -28 -13 13 -1 65 14 60 6 -2 12 -17 13 -32z m-200 4 c11 -17 -5 -32
-21 -19 -7 6 -11 15 -8 20 7 12 21 11 29 -1z m455 -30 c0 -5 -9 -10 -20 -10
-11 0 -20 5 -20 10 0 6 9 10 20 10 11 0 20 -4 20 -10z m523 -60 c19 -22 15
-40 -9 -40 -8 0 -14 -5 -14 -12 0 -8 -5 -7 -15 3 -12 12 -14 21 -6 42 13 32
21 34 44 7z m-850 3 c-7 -2 -13 -18 -13 -34 0 -18 -4 -28 -10 -24 -22 14 -3
66 25 64 5 0 4 -3 -2 -6z m274 -29 c19 -18 16 -32 -9 -40 -14 -4 -25 -1 -33
10 -7 9 -19 14 -26 11 -8 -3 -20 -1 -28 4 -17 11 -6 32 13 25 8 -3 17 0 21 6
8 12 43 4 62 -16z m-2517 6 c0 -5 -5 -10 -11 -10 -5 0 -7 5 -4 10 3 6 8 10 11
10 2 0 4 -4 4 -10z m2341 -46 c11 -32 3 -64 -16 -64 -8 0 -22 -11 -30 -24 -14
-21 -19 -22 -40 -12 -35 16 -31 27 20 58 30 18 45 34 45 48 0 28 9 25 21 -6z
m-121 -154 c25 -19 25 -19 43 3 10 12 16 16 12 10 -4 -9 1 -13 15 -13 33 0 20
-33 -17 -43 -24 -7 -32 -16 -35 -38 -3 -16 0 -33 5 -38 5 -5 -4 -8 -25 -6 -24
2 -38 -3 -51 -18 -17 -22 -17 -22 -32 -3 -11 14 -12 22 -4 27 7 4 9 17 5 32
-7 29 5 66 29 90 21 21 24 21 55 -3z m-2170 -19 c0 -5 -7 -12 -16 -15 -14 -5
-15 -4 -4 9 14 17 20 19 20 6z m2555 -59 c-8 -8 -25 10 -19 20 4 6 9 5 15 -3
4 -7 6 -15 4 -17z m317 -7 c-9 -35 -55 -75 -101 -87 -33 -8 -45 -17 -53 -39
-9 -25 -12 -27 -34 -17 -40 19 -32 54 22 88 25 16 51 27 58 24 6 -2 25 9 41
25 33 36 75 40 67 6z m-998 -19 c-3 -14 -12 -26 -20 -26 -18 0 -18 6 4 35 21
28 25 26 16 -9z m84 -3 c5 -18 -20 -16 -44 2 -18 15 -18 15 10 13 16 -2 31 -9
34 -15z m100 -27 c37 -39 39 -46 14 -39 -13 3 -21 -5 -30 -29 -6 -19 -22 -45
-34 -58 l-23 -25 -6 55 c-4 42 -2 64 13 93 10 20 22 37 26 37 4 0 22 -15 40
-34z m571 -10 c34 7 44 -10 12 -21 -21 -6 -71 13 -71 28 0 5 6 4 14 -2 7 -6
27 -8 45 -5z m-1049 -26 c0 -5 -4 -10 -10 -10 -5 0 -10 5 -10 10 0 6 5 10 10
10 6 0 10 -4 10 -10z m-1450 -15 c10 -13 9 -15 -9 -15 -13 0 -21 -6 -21 -17 0
-9 -2 -14 -5 -11 -8 8 5 58 15 58 4 0 13 -7 20 -15z m1740 -61 c19 -1 38 -3
42 -3 4 -1 10 -10 13 -21 5 -16 12 -19 28 -15 17 5 13 -1 -13 -22 -23 -19 -50
-30 -82 -33 -26 -3 -48 -5 -48 -3 0 11 25 53 32 53 4 0 8 7 8 15 0 11 -7 14
-24 9 -21 -5 -25 -2 -23 15 1 15 6 20 17 15 8 -4 31 -8 50 -10z m-1665 -44 c3
-5 1 -10 -4 -10 -6 0 -11 5 -11 10 0 6 2 10 4 10 3 0 8 -4 11 -10z m1815 -63
c0 -7 -9 -18 -20 -25 -23 -14 -26 -2 -8 27 12 20 28 19 28 -2z m-1793 -9 c-3
-8 -6 -5 -6 6 -1 11 2 17 5 13 3 -3 4 -12 1 -19z m1584 -21 c-13 -13 -26 -3
-16 12 3 6 11 8 17 5 6 -4 6 -10 -1 -17z m-1581 -13 c14 -3 32 -12 40 -20 13
-13 13 -16 -2 -25 -20 -11 -24 -49 -7 -66 19 -19 7 -58 -19 -59 -20 -1 -23 2
-18 22 8 30 -11 69 -39 82 -22 10 -41 62 -23 62 5 0 6 5 2 12 -5 8 0 9 17 4
13 -4 35 -9 49 -12z m90 -83 c0 -12 -20 -25 -27 -18 -7 7 6 27 18 27 5 0 9 -4
9 -9z m-170 -11 c0 -5 -4 -10 -10 -10 -5 0 -10 5 -10 10 0 6 5 10 10 10 6 0
10 -4 10 -10z m580 -200 c-8 -5 -19 -10 -25 -10 -5 0 -3 5 5 10 8 5 20 10 25
10 6 0 3 -5 -5 -10z m1170 -140 c0 -5 -2 -10 -4 -10 -3 0 -8 5 -11 10 -3 6 -1
10 4 10 6 0 11 -4 11 -10z m-180 -39 c0 -5 -9 -11 -21 -14 -16 -4 -18 -3 -8 9
13 16 29 19 29 5z m-54 -71 c0 -12 -4 -16 -9 -11 -5 5 -6 14 -3 20 10 15 12
14 12 -9z"/>
<path d="M9620 8676 c-5 -15 -7 -33 -3 -39 4 -7 10 3 14 23 9 43 3 52 -11 16z"/>
<path d="M7657 8279 c7 -7 15 -10 18 -7 3 3 -2 9 -12 12 -14 6 -15 5 -6 -5z"/>
<path d="M11170 12551 c0 -17 5 -31 10 -31 6 0 10 11 10 24 0 14 -4 28 -10 31
-6 4 -10 -7 -10 -24z"/>
<path d="M13435 12560 c10 -34 21 -44 39 -37 23 9 20 25 -6 33 -13 4 -27 12
-31 18 -5 6 -5 0 -2 -14z"/>
<path d="M10140 12540 c0 -5 5 -10 10 -10 6 0 10 5 10 10 0 6 -4 10 -10 10 -5
0 -10 -4 -10 -10z"/>
<path d="M13500 12540 c0 -5 5 -10 10 -10 6 0 10 5 10 10 0 6 -4 10 -10 10 -5
0 -10 -4 -10 -10z"/>
<path d="M13271 12514 c0 -11 3 -14 6 -6 3 7 2 16 -1 19 -3 4 -6 -2 -5 -13z"/>
<path d="M9843 12500 c-13 -5 -23 -16 -23 -25 0 -11 -6 -14 -24 -9 -29 7 -41
-9 -26 -37 l12 -21 22 21 c12 12 30 21 38 21 9 0 23 14 32 30 16 32 9 36 -31
20z"/>
<path d="M11449 12469 c-22 -22 -21 -46 2 -40 8 2 19 4 26 5 7 1 16 5 19 9 17
16 26 5 20 -23 -4 -23 -2 -32 11 -37 27 -10 43 22 29 60 -6 18 -15 35 -21 39
-19 15 -65 8 -86 -13z"/>
<path d="M13325 12480 c-7 -11 22 -33 35 -25 17 11 11 31 -10 32 -11 1 -22 -2
-25 -7z"/>
<path d="M11160 12471 c0 -12 28 -22 35 -12 3 5 -2 12 -11 15 -21 8 -24 8 -24
-3z"/>
<path d="M12329 12432 c10 -18 43 -23 58 -8 10 10 -17 26 -45 26 -19 0 -21 -3
-13 -18z"/>
<path d="M10578 12423 c6 -2 18 -2 25 0 6 3 1 5 -13 5 -14 0 -19 -2 -12 -5z"/>
<path d="M11361 12414 c0 -11 3 -14 6 -6 3 7 2 16 -1 19 -3 4 -6 -2 -5 -13z"/>
<path d="M11468 12403 c7 -3 16 -2 19 1 4 3 -2 6 -13 5 -11 0 -14 -3 -6 -6z"/>
<path d="M12801 12366 c-2 -49 21 -70 39 -36 15 28 12 67 -6 74 -27 10 -30 7
-33 -38z"/>
<path d="M12316 12391 c-40 -8 -61 -41 -42 -66 12 -16 18 -18 37 -8 13 6 32
14 42 17 20 6 23 39 5 53 -7 5 -26 7 -42 4z"/>
<path d="M13455 12391 c-3 -5 -1 -12 5 -16 5 -3 10 1 10 9 0 18 -6 21 -15 7z"/>
<path d="M10930 12382 c0 -15 22 -30 36 -25 11 4 12 9 3 19 -12 15 -39 19 -39
6z"/>
<path d="M10738 12358 c-4 -23 10 -68 21 -68 3 1 17 10 30 20 l24 20 -27 25
c-33 31 -44 31 -48 3z"/>
<path d="M12965 12370 c-3 -5 3 -10 14 -10 12 0 21 5 21 10 0 6 -6 10 -14 10
-8 0 -18 -4 -21 -10z"/>
<path d="M10860 12329 c-13 -7 -13 -9 0 -9 8 0 21 -9 28 -20 13 -21 42 -28 42
-10 0 6 -6 10 -14 10 -8 0 -21 9 -28 19 -10 14 -18 17 -28 10z"/>
<path d="M11441 12300 c-16 -9 -6 -30 15 -30 15 0 20 25 6 34 -4 2 -14 1 -21
-4z"/>
<path d="M13360 12290 c0 -11 5 -20 11 -20 5 0 7 5 4 10 -3 6 -1 10 4 10 6 0
11 5 11 10 0 6 -7 10 -15 10 -8 0 -15 -9 -15 -20z"/>
<path d="M12835 12279 c-4 -6 -5 -12 -2 -15 2 -3 7 2 10 11 7 17 1 20 -8 4z"/>
<path d="M11186 12258 c-20 -28 -20 -44 -1 -52 16 -6 55 26 55 44 0 5 -9 14
-19 20 -16 8 -23 6 -35 -12z"/>
<path d="M12272 12257 c-7 -9 -8 -17 -1 -27 8 -11 12 -12 16 -2 2 6 12 12 20
12 13 0 13 3 3 15 -15 18 -24 19 -38 2z"/>
<path d="M12800 12240 c0 -5 7 -10 15 -10 8 0 15 5 15 10 0 6 -7 10 -15 10 -8
0 -15 -4 -15 -10z"/>
<path d="M11310 12231 c0 -5 -14 -9 -30 -9 -36 1 -39 -1 -42 -35 -1 -16 -10
-29 -20 -33 -27 -8 -21 -33 10 -39 15 -3 44 -9 64 -14 46 -10 60 3 76 69 8 31
8 48 0 57 -12 15 -58 18 -58 4z m10 -56 c0 -28 -15 -34 -24 -9 -10 25 -7 34 9
34 9 0 15 -9 15 -25z"/>
<path d="M11592 12206 c-36 -20 -40 -25 -27 -36 23 -19 19 -48 -7 -52 -26 -3
-51 -48 -42 -72 9 -24 41 -19 70 9 14 14 32 25 40 25 15 0 82 45 96 65 4 5 8
22 8 37 0 52 -66 63 -138 24z"/>
<path d="M9436 12205 c4 -8 10 -12 15 -9 11 6 2 24 -11 24 -5 0 -7 -7 -4 -15z"/>
<path d="M11414 12177 c-29 -26 -29 -26 -11 -57 23 -42 22 -50 -13 -84 -16
-16 -27 -32 -25 -36 2 -4 -2 -16 -10 -26 -33 -44 -12 -45 72 -3 59 29 79 50
67 70 -3 5 -12 9 -20 9 -8 0 -14 8 -14 18 0 9 -3 26 -6 38 -4 14 1 23 15 30
21 9 21 9 -2 38 l-23 28 -30 -25z"/>
<path d="M9963 12183 c-15 -5 -18 -33 -4 -33 21 0 41 13 41 26 0 14 -14 17
-37 7z"/>
<path d="M10011 12174 c0 -11 3 -14 6 -6 3 7 2 16 -1 19 -3 4 -6 -2 -5 -13z"/>
<path d="M10347 12183 c-12 -11 -8 -23 8 -23 8 0 15 7 15 15 0 16 -12 20 -23
8z"/>
<path d="M10115 12170 c-4 -7 -20 -10 -36 -8 -28 4 -41 -9 -16 -16 49 -16 68
-16 74 -1 7 21 -12 42 -22 25z"/>
<path d="M11110 12160 c0 -5 7 -10 16 -10 8 0 12 5 9 10 -3 6 -10 10 -16 10
-5 0 -9 -4 -9 -10z"/>
<path d="M14515 12081 c-10 -17 12 -21 25 -6 10 12 10 15 -3 15 -9 0 -18 -4
-22 -9z"/>
<path d="M14551 12071 c-8 -5 -10 -14 -6 -21 6 -9 10 -8 17 4 12 21 7 28 -11
17z"/>
<path d="M14270 11925 c-7 -8 -14 -23 -14 -33 -3 -28 -28 -72 -42 -72 -7 0
-15 -10 -17 -22 l-4 -23 -8 23 c-4 12 -16 22 -26 22 -21 0 -38 -22 -20 -28 8
-3 9 -15 5 -38 l-6 -34 51 0 c28 0 51 4 51 9 0 5 20 22 44 37 24 16 45 34 46
39 2 6 5 16 8 24 3 7 0 28 -7 46 -6 18 -10 39 -9 46 4 20 -36 23 -52 4z"/>
<path d="M13950 11890 c0 -5 7 -10 15 -10 8 0 15 5 15 10 0 6 -7 10 -15 10 -8
0 -15 -4 -15 -10z"/>
<path d="M13920 11860 c0 -5 5 -10 10 -10 6 0 10 5 10 10 0 6 -4 10 -10 10 -5
0 -10 -4 -10 -10z"/>
<path d="M10770 11801 c0 -12 31 -51 41 -51 5 0 9 11 9 24 0 17 -7 25 -25 28
-14 3 -25 2 -25 -1z"/>
<path d="M13878 11793 c-11 -3 -18 -14 -18 -28 0 -13 -3 -30 -6 -39 -9 -23 22
-31 42 -12 12 12 13 20 5 30 -6 7 -9 22 -6 34 2 12 3 21 2 21 -1 -1 -10 -3
-19 -6z"/>
<path d="M13950 11711 c0 -6 5 -13 10 -16 6 -3 10 1 10 9 0 9 -4 16 -10 16 -5
0 -10 -4 -10 -9z"/>
<path d="M14190 11690 c0 -5 5 -10 10 -10 6 0 10 5 10 10 0 6 -4 10 -10 10 -5
0 -10 -4 -10 -10z"/>
<path d="M10630 11680 c0 -5 5 -10 11 -10 5 0 7 5 4 10 -3 6 -8 10 -11 10 -2
0 -4 -4 -4 -10z"/>
<path d="M14146 11631 c-4 -7 -5 -15 -2 -18 9 -9 19 4 14 18 -4 11 -6 11 -12
0z"/>
<path d="M10905 11600 c3 -5 13 -10 21 -10 8 0 12 5 9 10 -3 6 -13 10 -21 10
-8 0 -12 -4 -9 -10z"/>
<path d="M14097 11553 c-14 -13 -6 -20 18 -15 14 2 25 8 25 13 0 10 -34 12
-43 2z"/>
<path d="M10660 11535 c0 -8 5 -15 10 -15 6 0 10 7 10 15 0 8 -4 15 -10 15 -5
0 -10 -7 -10 -15z"/>
<path d="M11367 11433 c-4 -3 -7 -10 -7 -14 0 -11 29 -19 35 -10 6 11 -20 33
-28 24z"/>
<path d="M10504 11375 c-1 -15 3 -25 12 -25 17 0 18 11 2 33 -12 16 -13 15
-14 -8z"/>
<path d="M10420 11231 c0 -28 14 -33 28 -11 9 15 8 19 -4 24 -23 9 -24 8 -24
-13z"/>
<path d="M14015 11230 c3 -5 8 -10 11 -10 2 0 4 5 4 10 0 6 -5 10 -11 10 -5 0
-7 -4 -4 -10z"/>
<path d="M11580 11076 c0 -8 5 -18 10 -21 6 -3 10 3 10 14 0 12 -4 21 -10 21
-5 0 -10 -6 -10 -14z"/>
<path d="M9906 10972 c-3 -5 -37 -7 -76 -5 -76 4 -87 -5 -47 -37 14 -12 31
-17 45 -13 19 4 25 0 34 -25 15 -39 58 -59 96 -46 30 10 38 37 24 75 -5 13
-10 28 -10 34 -1 18 -56 32 -66 17z"/>
<path d="M14055 10920 c3 -5 10 -10 16 -10 5 0 9 5 9 10 0 6 -7 10 -16 10 -8
0 -12 -4 -9 -10z"/>
<path d="M8960 10866 c0 -17 14 -29 23 -20 8 8 -3 34 -14 34 -5 0 -9 -6 -9
-14z"/>
<path d="M4146 10862 c-2 -4 -1 -14 5 -22 7 -12 9 -10 9 8 0 23 -5 28 -14 14z"/>
<path d="M9395 10830 c-3 -5 1 -10 10 -10 9 0 13 5 10 10 -3 6 -8 10 -10 10
-2 0 -7 -4 -10 -10z"/>
<path d="M9626 10801 c-23 -24 -27 -35 -21 -60 8 -36 21 -40 30 -10 6 19 7 20
20 2 7 -10 17 -15 20 -11 4 4 16 3 27 -3 18 -10 19 -8 13 13 -13 48 -38 98
-50 98 -6 0 -24 -13 -39 -29z"/>
<path d="M9790 10815 c0 -8 7 -15 15 -15 9 0 12 6 9 15 -4 8 -10 15 -15 15 -5
0 -9 -7 -9 -15z"/>
<path d="M9168 10814 c-5 -4 -8 -19 -8 -33 0 -18 3 -22 11 -14 6 6 9 21 7 33
-1 12 -6 18 -10 14z"/>
<path d="M9300 10762 c0 -5 9 -12 21 -15 13 -3 19 -1 16 6 -5 15 -37 22 -37 9z"/>
<path d="M8985 10640 c3 -5 8 -10 11 -10 2 0 4 5 4 10 0 6 -5 10 -11 10 -5 0
-7 -4 -4 -10z"/>
<path d="M9134 10609 c-4 -7 -21 -9 -45 -5 -50 8 -49 -4 2 -33 l41 -23 20 20
c12 12 18 27 15 36 -7 19 -23 21 -33 5z"/>
<path d="M4045 10520 c-3 -5 -1 -10 4 -10 6 0 11 5 11 10 0 6 -2 10 -4 10 -3
0 -8 -4 -11 -10z"/>
<path d="M4030 10479 c-8 -14 -9 -24 -2 -31 14 -14 32 -1 32 22 0 28 -17 33
-30 9z"/>
<path d="M13654 10458 c-4 -15 -1 -25 12 -35 39 -28 64 -8 38 32 -20 31 -40
32 -50 3z"/>
<path d="M8781 10248 c-5 -13 -6 -40 -1 -59 6 -29 8 -31 14 -14 4 11 12 28 17
38 7 12 5 24 -5 39 l-15 21 -10 -25z"/>
<path d="M13764 10236 c-8 -22 3 -33 18 -18 9 9 9 15 0 24 -9 9 -13 7 -18 -6z"/>
<path d="M8840 10215 c0 -8 9 -15 19 -15 26 0 35 16 15 24 -25 10 -34 7 -34
-9z"/>
<path d="M8880 10073 c0 -17 19 -35 29 -29 8 5 7 11 -3 22 -16 15 -26 18 -26
7z"/>
<path d="M8700 10060 c0 -5 5 -10 10 -10 6 0 10 5 10 10 0 6 -4 10 -10 10 -5
0 -10 -4 -10 -10z"/>
<path d="M8690 9846 c0 -2 7 -6 15 -10 8 -3 15 -1 15 4 0 6 -7 10 -15 10 -8 0
-15 -2 -15 -4z"/>
<path d="M12500 9824 c0 -9 5 -14 12 -12 18 6 21 28 4 28 -9 0 -16 -7 -16 -16z"/>
<path d="M7840 9764 c0 -8 5 -12 10 -9 6 4 8 11 5 16 -9 14 -15 11 -15 -7z"/>
<path d="M6546 9712 c-2 -4 -1 -14 5 -22 7 -12 9 -10 9 8 0 23 -5 28 -14 14z"/>
<path d="M7920 9640 c0 -5 7 -10 15 -10 8 0 15 5 15 10 0 6 -7 10 -15 10 -8 0
-15 -4 -15 -10z"/>
<path d="M3753 9505 c0 -19 24 -27 30 -10 6 15 -1 25 -18 25 -6 0 -12 -7 -12
-15z"/>
<path d="M10937 9013 c-12 -12 -7 -33 7 -33 8 0 16 -3 19 -7 2 -5 2 -2 0 5 -1
8 -3 20 -3 28 0 15 -12 19 -23 7z"/>
<path d="M10960 8880 c0 -24 38 -28 47 -5 8 22 -6 33 -17 15 -7 -10 -10 -11
-10 -2 0 6 -4 12 -10 12 -5 0 -10 -9 -10 -20z"/>
<path d="M11316 8878 c-19 -27 -20 -61 -5 -91 16 -30 28 -37 66 -37 35 0 51
16 34 33 -6 6 -11 23 -11 39 0 70 -51 104 -84 56z"/>
<path d="M11465 8881 c-4 -14 3 -28 24 -48 28 -27 28 -29 12 -48 -9 -11 -26
-25 -36 -31 -21 -12 -33 -54 -16 -54 20 0 11 -17 -14 -28 -15 -7 -27 -8 -30
-2 -11 18 -25 10 -25 -13 0 -13 -5 -28 -11 -34 -27 -27 24 -99 54 -75 7 5 24
9 39 8 14 -1 24 2 22 5 -2 4 5 10 16 14 11 3 20 13 20 21 0 8 5 14 11 14 6 0
1 12 -9 28 -17 23 -18 30 -7 45 7 9 24 17 39 17 21 0 26 -5 26 -24 0 -14 10
-32 23 -41 20 -14 20 -17 6 -25 -9 -6 -20 -22 -24 -37 -9 -39 -25 -54 -46 -48
-24 8 -34 -12 -15 -30 20 -20 36 -19 37 3 0 14 2 14 9 -3 7 -18 8 -19 15 -3 4
10 12 15 17 12 5 -4 20 -1 33 6 19 10 28 8 64 -15 45 -31 49 -39 24 -54 -14
-7 -15 -13 -7 -21 19 -19 47 -7 64 25 8 17 18 32 23 33 11 6 8 32 -4 32 -6 0
-8 7 -5 16 15 39 18 64 7 64 -6 0 -11 -8 -11 -17 0 -13 -3 -14 -12 -5 -7 7
-21 12 -31 12 -15 0 -18 5 -14 22 6 21 -11 116 -23 131 -14 16 -81 17 -97 2
-8 -9 -17 -14 -20 -11 -9 9 -21 76 -13 71 11 -7 15 2 24 40 l6 30 -19 -22
c-22 -27 -31 -29 -31 -8 0 17 -16 20 -25 5 -10 -15 -32 5 -39 35 -8 30 -22 32
-31 6z"/>
<path d="M7140 8757 c0 -19 5 -24 23 -23 15 1 22 7 22 21 0 13 -8 21 -22 23
-19 3 -23 -1 -23 -21z"/>
<path d="M11810 8730 c0 -5 7 -10 15 -10 8 0 15 5 15 10 0 6 -7 10 -15 10 -8
0 -15 -4 -15 -10z"/>
<path d="M7224 8685 c-4 -14 -3 -29 0 -33 4 -3 9 4 13 16 3 12 12 22 19 22 8
0 14 5 14 10 0 6 -9 10 -20 10 -13 0 -22 -9 -26 -25z"/>
<path d="M7111 8681 c-8 -5 -10 -14 -6 -21 6 -9 10 -8 17 4 12 21 7 28 -11 17z"/>
<path d="M11802 8639 c1 -13 8 -23 13 -21 15 3 12 35 -3 40 -9 3 -13 -3 -10
-19z"/>
<path d="M7140 8570 c0 -22 7 -25 29 -11 16 10 6 31 -15 31 -8 0 -14 -9 -14
-20z"/>
<path d="M7266 8521 c-4 -7 -5 -15 -2 -18 9 -9 19 4 14 18 -4 11 -6 11 -12 0z"/>
<path d="M11850 8483 c0 -5 5 -15 10 -23 8 -12 10 -11 10 8 0 12 -4 22 -10 22
-5 0 -10 -3 -10 -7z"/>
<path d="M11554 8466 c-8 -22 3 -33 18 -18 9 9 9 15 0 24 -9 9 -13 7 -18 -6z"/>
<path d="M11514 8444 c3 -8 6 -22 6 -30 0 -8 5 -14 10 -14 17 0 11 47 -6 54
-12 5 -15 2 -10 -10z"/>
<path d="M9705 8439 c-4 -6 -5 -13 -2 -16 7 -7 27 6 27 18 0 12 -17 12 -25 -2z"/>
<path d="M10140 8390 c13 -11 28 -20 33 -20 6 0 0 9 -13 20 -13 11 -28 20 -33
20 -6 0 0 -9 13 -20z"/>
<path d="M12100 8400 c0 -5 5 -10 11 -10 5 0 7 5 4 10 -3 6 -8 10 -11 10 -2 0
-4 -4 -4 -10z"/>
<path d="M11655 8392 c-5 -4 -15 -16 -21 -27 -6 -11 -22 -22 -35 -23 -38 -6
-47 -22 -12 -22 18 0 35 -4 38 -10 11 -17 43 -11 69 14 32 29 32 39 1 60 -28
18 -27 18 -40 8z"/>
<path d="M11840 8370 c0 -5 5 -10 11 -10 5 0 7 5 4 10 -3 6 -8 10 -11 10 -2 0
-4 -4 -4 -10z"/>
<path d="M9951 8299 c-7 -12 -10 -23 -8 -26 3 -3 11 5 17 17 15 28 8 35 -9 9z"/>
<path d="M11020 8310 c0 -5 4 -10 9 -10 5 0 12 -13 16 -30 8 -35 20 -39 28
-10 3 13 -2 28 -16 40 -23 22 -37 26 -37 10z"/>
<path d="M11270 8296 c0 -9 5 -16 10 -16 6 0 10 4 10 9 0 6 -4 13 -10 16 -5 3
-10 -1 -10 -9z"/>
<path d="M7440 8279 c0 -5 -4 -7 -10 -4 -5 3 -10 -1 -10 -9 0 -10 6 -13 15
-10 14 6 22 34 10 34 -3 0 -5 -5 -5 -11z"/>
<path d="M11630 8256 c0 -9 5 -16 10 -16 6 0 10 4 10 9 0 6 -4 13 -10 16 -5 3
-10 -1 -10 -9z"/>
<path d="M11345 8230 c3 -5 8 -10 11 -10 2 0 4 5 4 10 0 6 -5 10 -11 10 -5 0
-7 -4 -4 -10z"/>
<path d="M11366 8215 c-9 -26 -7 -35 8 -35 23 0 30 20 14 37 -14 13 -16 13
-22 -2z"/>
<path d="M7420 8211 c0 -6 5 -13 11 -16 6 -4 8 -13 5 -20 -3 -9 2 -11 16 -7
19 5 19 6 4 17 -9 7 -16 17 -16 24 0 6 -4 11 -10 11 -5 0 -10 -4 -10 -9z"/>
<path d="M7772 8098 c6 -18 28 -21 28 -4 0 9 -7 16 -16 16 -9 0 -14 -5 -12
-12z"/>
<path d="M9521 7992 c-10 -20 1 -32 30 -32 14 0 11 26 -5 39 -12 10 -17 8 -25
-7z"/>
<path d="M7380 7933 c0 -5 5 -15 10 -23 8 -12 10 -11 10 8 0 12 -4 22 -10 22
-5 0 -10 -3 -10 -7z"/>
<path d="M11220 7925 c0 -18 24 -30 40 -20 8 5 5 11 -7 21 -24 18 -33 17 -33
-1z"/>
<path d="M8101 7916 c-12 -14 -12 -21 -1 -41 16 -30 50 -34 50 -6 0 10 -8 29
-18 41 -16 20 -19 21 -31 6z"/>
<path d="M9638 7914 c-5 -4 -8 -16 -8 -28 0 -14 3 -17 11 -9 6 6 9 19 7 28 -1
9 -6 13 -10 9z"/>
<path d="M11280 7880 c0 -5 5 -10 11 -10 5 0 7 5 4 10 -3 6 -8 10 -11 10 -2 0
-4 -4 -4 -10z"/>
<path d="M7880 7855 c-10 -12 -10 -19 -1 -28 9 -9 14 -9 19 0 4 6 18 13 31 14
14 2 26 10 29 17 6 18 -63 15 -78 -3z"/>
<path d="M8189 7824 c-11 -14 -10 -15 7 -12 13 2 19 -3 19 -17 0 -30 28 -29
42 2 10 21 10 28 0 35 -20 13 -54 9 -68 -8z"/>
<path d="M7303 7813 c-47 -3 -63 -8 -63 -18 0 -8 -4 -15 -10 -15 -5 0 -10 -5
-10 -10 0 -20 29 -21 72 -2 23 10 51 22 61 25 9 4 17 11 17 17 0 5 -1 9 -2 8
-2 -1 -31 -3 -65 -5z"/>
<path d="M11218 7793 c-9 -10 -19 -28 -22 -40 -4 -13 -12 -23 -17 -23 -5 0 -9
-7 -9 -15 0 -26 37 -16 74 19 42 39 48 76 13 76 -13 0 -31 -8 -39 -17z"/>
<path d="M7406 7682 c-14 -27 -33 -102 -43 -173 -3 -26 3 -50 26 -96 17 -33
31 -65 31 -72 0 -18 43 -39 94 -45 51 -6 119 17 146 49 11 13 9 15 -9 15 -12
0 -21 6 -21 15 0 14 -32 37 -47 33 -4 0 -21 2 -36 7 -17 4 -38 3 -53 -3 -35
-16 -54 -5 -54 32 1 29 19 66 34 66 6 0 56 49 56 55 0 1 -13 0 -28 -3 -37 -5
-72 40 -53 70 14 22 15 61 1 53 -5 -3 -10 1 -10 9 0 25 -18 19 -34 -12z m30
-147 c4 -8 10 -12 15 -9 5 3 9 3 9 0 0 -15 -20 -13 -35 4 -11 12 -13 20 -6 20
6 0 14 -7 17 -15z m127 -182 c-7 -2 -21 -2 -30 0 -10 3 -4 5 12 5 17 0 24 -2
18 -5z"/>
<path d="M9224 7653 c-8 -14 -13 -31 -10 -38 3 -8 1 -15 -5 -17 -5 -2 7 -12
28 -23 21 -11 45 -27 53 -36 14 -15 17 -14 35 10 11 14 21 37 23 51 2 14 10
32 18 41 22 24 -1 37 -68 36 -50 0 -60 -3 -74 -24z"/>
<path d="M9452 7655 c-16 -34 -15 -67 1 -89 13 -17 14 -17 29 6 14 21 14 27
-1 66 l-17 43 -12 -26z"/>
<path d="M9345 7560 c-3 -5 4 -14 15 -20 16 -8 20 -8 20 4 0 16 -27 29 -35 16z"/>
<path d="M9510 7566 c0 -23 26 -66 40 -66 10 0 32 -3 49 -6 26 -6 31 -4 31 13
0 32 -41 63 -83 63 -20 0 -37 -2 -37 -4z"/>
<path d="M9780 7487 c0 -15 4 -27 9 -27 17 0 19 15 5 35 -13 18 -14 18 -14 -8z"/>
<path d="M8611 7486 c5 -26 25 -31 33 -9 4 9 4 14 0 10 -4 -4 -14 -1 -22 5
-12 10 -14 9 -11 -6z"/>
<path d="M9950 7460 c0 -13 7 -20 20 -20 23 0 26 10 8 28 -18 18 -28 15 -28
-8z"/>
<path d="M9663 7459 c-24 -9 -31 -33 -12 -44 5 -4 8 -12 6 -18 -2 -7 2 -19 10
-28 12 -15 11 -16 -12 -12 -18 4 -25 12 -25 29 0 26 -18 31 -51 14 -15 -8 -21
-7 -25 4 -4 12 -15 14 -42 10 -21 -3 -43 -11 -49 -16 -15 -12 -18 -118 -3
-118 5 0 12 -11 16 -25 3 -14 11 -25 18 -25 14 0 40 -56 32 -69 -4 -5 4 -17
16 -25 28 -20 34 -20 41 -2 4 10 1 13 -9 9 -9 -3 -14 1 -14 14 0 12 7 19 20
19 15 0 20 -7 21 -31 0 -16 3 -23 6 -15 2 8 12 31 20 50 14 31 17 32 23 15 4
-11 4 -24 -1 -29 -16 -18 -9 -28 16 -24 23 5 25 2 25 -28 0 -18 5 -36 10 -39
6 -3 10 -13 10 -22 0 -8 13 -27 30 -43 25 -23 32 -26 46 -15 13 9 15 20 10 48
-4 21 -2 38 4 42 5 3 10 18 10 33 1 25 2 26 14 9 16 -20 46 -13 46 12 0 13 2
13 9 2 5 -7 14 -10 20 -7 14 9 15 66 1 66 -5 0 -10 7 -10 15 0 21 -16 19 -56
-9 -35 -24 -36 -24 -55 -5 -10 10 -24 19 -30 19 -6 0 -9 6 -6 13 2 6 10 11 16
10 12 -3 15 19 4 30 -9 10 -10 57 -1 57 14 0 8 57 -7 70 -8 7 -15 19 -15 26 0
21 -51 43 -77 33z m47 -119 c0 -5 -2 -10 -4 -10 -3 0 -8 5 -11 10 -3 6 -1 10
4 10 6 0 11 -4 11 -10z m-37 -30 c22 -1 57 -38 51 -54 -8 -20 -42 -30 -58 -17
-8 6 -20 9 -27 6 -9 -3 -14 3 -15 20 -1 15 3 25 12 25 8 0 14 10 15 23 0 12 3
16 6 10 2 -7 10 -13 16 -13z m167 -126 c0 -8 -5 -12 -10 -9 -6 4 -8 11 -5 16
9 14 15 11 15 -7z"/>
<path d="M9680 7277 c14 -8 27 -12 30 -10 7 6 -23 23 -40 23 -8 0 -4 -6 10
-13z"/>
<path d="M9467 7453 c-3 -5 -2 -15 2 -22 5 -7 11 -9 14 -4 3 5 2 15 -2 22 -5
7 -11 9 -14 4z"/>
<path d="M9432 7424 c1 -9 9 -19 16 -22 9 -3 13 2 10 14 -1 9 -9 19 -16 22 -9
3 -13 -2 -10 -14z"/>
<path d="M8930 7410 c0 -5 4 -10 9 -10 6 0 13 5 16 10 3 6 -1 10 -9 10 -9 0
-16 -4 -16 -10z"/>
<path d="M7745 7399 c-4 -6 -5 -13 -2 -16 7 -7 27 6 27 18 0 12 -17 12 -25 -2z"/>
<path d="M9890 7336 c0 -9 5 -16 10 -16 6 0 10 4 10 9 0 6 -4 13 -10 16 -5 3
-10 -1 -10 -9z"/>
<path d="M9364 7300 c-36 -15 -45 -57 -10 -52 29 5 46 21 46 43 0 21 -5 22
-36 9z"/>
<path d="M7289 7272 c5 -8 6 -23 4 -33 -3 -11 0 -20 6 -20 33 -5 36 -2 36 33
0 35 -2 38 -27 36 -20 -2 -25 -6 -19 -16z"/>
<path d="M7363 7217 c4 -11 -1 -17 -15 -19 -29 -4 -32 -39 -6 -60 20 -15 24
-15 43 0 19 14 20 19 9 51 -6 19 -18 37 -25 40 -8 2 -10 -2 -6 -12z"/>
<path d="M9993 7216 c-8 -10 -9 -16 0 -25 18 -18 27 -13 27 14 0 28 -9 31 -27
11z"/>
<path d="M6817 7164 c-7 -8 3 -35 21 -53 7 -7 10 -21 7 -29 -3 -8 0 -19 7 -23
9 -6 13 -34 12 -93 -1 -74 0 -83 13 -71 8 8 18 15 22 15 4 0 18 18 30 41 20
36 22 45 12 83 -6 23 -22 63 -37 89 -21 38 -31 47 -53 47 -15 0 -30 -3 -34 -6z"/>
<path d="M9483 7088 c-7 -17 -5 -26 9 -40 23 -23 74 -24 82 0 3 9 9 23 12 30
4 9 -1 11 -18 7 -16 -4 -29 -1 -37 9 -19 22 -36 20 -48 -6z"/>
<path d="M7205 7085 c-3 -8 -7 -21 -9 -28 -7 -24 11 -43 30 -32 9 6 16 14 15
18 0 4 -1 18 -1 32 0 28 -27 35 -35 10z"/>
<path d="M6500 7035 c0 -30 5 -31 36 -6 l24 19 -23 6 c-34 9 -37 8 -37 -19z"/>
<path d="M9910 7033 c0 -7 4 -13 9 -13 5 0 11 6 14 13 3 8 -1 14 -9 14 -8 0
-14 -6 -14 -14z"/>
<path d="M7080 7020 c0 -11 7 -23 15 -27 21 -7 25 -2 18 25 -7 28 -33 29 -33
2z"/>
<path d="M7423 7024 c-3 -8 -1 -20 6 -27 8 -8 11 -4 11 16 0 30 -7 35 -17 11z"/>
<path d="M7991 7031 c-7 -5 -22 -6 -32 -4 -15 4 -19 0 -19 -21 0 -26 22 -36
35 -16 4 6 10 8 15 5 4 -3 10 5 13 17 7 27 5 29 -12 19z"/>
<path d="M7305 7010 c-3 -5 -2 -10 4 -10 5 0 13 5 16 10 3 6 2 10 -4 10 -5 0
-13 -4 -16 -10z"/>
<path d="M8166 6988 c-23 -32 -20 -40 12 -36 21 2 27 8 27 27 0 33 -20 37 -39
9z"/>
<path d="M6643 6993 c-7 -2 -13 -11 -13 -19 0 -17 -41 -19 -58 -2 -8 8 -12 9
-12 1 0 -6 -14 -26 -32 -43 -34 -34 -34 -29 -1 -117 3 -7 -2 -13 -11 -13 -9 0
-16 -4 -16 -10 0 -5 -5 -10 -10 -10 -6 0 -10 6 -8 13 4 16 -4 18 -41 11 -24
-5 -30 -12 -35 -45 -8 -48 -30 -51 -54 -9 -9 16 -20 30 -23 30 -10 0 -19 -40
-19 -82 0 -29 -6 -41 -26 -55 -21 -13 -25 -22 -20 -46 4 -19 1 -34 -9 -44 -11
-10 -13 -19 -6 -27 6 -7 6 -27 0 -54 -6 -27 -6 -49 0 -60 7 -14 5 -18 -10 -19
-12 -1 -19 5 -19 15 -1 25 -27 55 -43 49 -11 -4 -13 -15 -7 -47 6 -31 4 -45
-7 -56 -9 -8 -13 -17 -10 -21 3 -3 -3 -15 -14 -26 -16 -18 -21 -19 -29 -8 -4
8 -6 20 -3 28 7 18 -21 17 -57 -2 -42 -22 -38 -41 10 -49 21 -3 43 -12 47 -20
4 -7 29 -16 54 -20 43 -6 49 -5 68 19 20 27 41 26 41 -1 0 -14 -12 -18 -39
-14 -11 1 -12 -2 -5 -12 5 -7 9 -38 9 -69 -1 -44 2 -55 14 -55 59 -1 72 -5 83
-29 12 -28 47 -41 75 -30 16 6 15 8 -6 16 -23 9 -24 10 -5 24 25 19 54 19 68
1 7 -10 21 -13 39 -9 30 6 33 19 12 47 -8 11 -15 37 -15 57 0 21 -4 41 -10 44
-17 11 -11 20 21 32 37 14 53 8 46 -18 -8 -30 26 -24 50 9 11 15 39 34 61 41
23 8 40 17 39 20 -1 3 9 25 23 49 27 48 55 55 70 16 13 -33 13 -47 0 -39 -18
11 -11 -31 8 -48 17 -16 20 -15 38 20 26 49 39 51 59 9 9 -19 25 -38 36 -41
18 -6 64 19 73 41 8 21 -28 76 -61 92 -25 12 -33 22 -33 43 0 15 -6 30 -12 32
-10 4 -9 8 2 16 16 11 36 -11 25 -29 -4 -6 12 -10 40 -10 51 0 65 16 47 53
-14 28 -23 159 -12 176 6 11 13 11 36 -1 16 -7 29 -18 29 -23 0 -15 15 -35 26
-35 6 0 7 5 4 11 -11 17 36 59 67 59 15 0 28 5 28 10 0 6 7 10 15 10 11 0 12
6 6 23 -5 12 -4 31 2 44 13 28 -21 146 -40 139 -7 -3 -17 3 -22 12 -9 16 -11
15 -25 -3 -8 -11 -16 -30 -16 -42 0 -15 -8 -25 -23 -28 -31 -8 -97 30 -97 56
0 11 -7 22 -15 26 -19 7 -20 5 -29 -24 -6 -17 -3 -23 8 -23 20 0 20 -14 1 -30
-9 -8 -30 -11 -55 -7 -22 3 -40 2 -41 -1 -1 -9 -7 -32 -15 -59 -4 -14 -2 -23
5 -23 6 0 11 5 11 11 0 5 5 7 10 4 6 -3 7 -17 4 -31 -4 -13 -1 -31 6 -39 9
-11 9 -18 -3 -30 -9 -8 -21 -15 -27 -15 -7 0 -9 -8 -5 -19 8 -25 -9 -35 -28
-16 -9 8 -22 15 -30 15 -17 0 -57 59 -57 84 0 10 -9 16 -22 17 -13 0 -17 3
-10 6 6 2 12 14 12 24 0 11 -4 18 -9 15 -5 -4 -7 3 -4 14 3 11 0 27 -7 35 -9
11 -8 21 4 47 16 31 16 33 -9 55 -14 13 -25 28 -25 33 0 11 -7 11 -27 3z m557
-105 c0 -5 -6 -8 -14 -8 -9 0 -12 -7 -9 -20 8 -30 -21 -25 -35 5 -16 35 -16
35 23 32 19 -1 35 -5 35 -9z m-542 -92 c21 -13 3 -25 -29 -21 -17 2 -34 6 -37
9 -3 3 -11 1 -19 -5 -10 -9 -13 -7 -13 8 0 15 7 18 43 18 23 -1 48 -5 55 -9z
m-27 -66 c5 0 9 5 9 11 0 5 5 7 10 4 15 -9 2 -25 -21 -25 -13 0 -19 6 -18 23
1 16 2 18 6 5 2 -10 9 -18 14 -18z m92 -47 c12 -20 -6 -71 -28 -81 -26 -12
-35 -7 -35 20 0 10 -4 18 -10 18 -5 0 -10 8 -9 18 0 11 2 13 6 4 4 -10 9 -8
20 7 14 21 47 28 56 14z m237 -33 c11 -21 4 -25 -19 -11 -7 5 -10 14 -7 20 10
15 14 14 26 -9z m-180 -56 c0 -8 -4 -12 -10 -9 -5 3 -10 10 -10 16 0 5 5 9 10
9 6 0 10 -7 10 -16z m27 -19 c-15 -16 -19 -13 -11 9 3 9 10 13 15 10 5 -3 3
-11 -4 -19z m91 -33 c2 -12 -1 -22 -7 -22 -13 0 -32 35 -24 44 12 12 28 0 31
-22z m-293 8 c3 -5 1 -10 -4 -10 -6 0 -11 5 -11 10 0 6 2 10 4 10 3 0 8 -4 11
-10z m-150 -10 c3 -6 -1 -13 -10 -16 -19 -8 -30 0 -20 15 8 14 22 14 30 1z
m80 0 c3 -6 -1 -13 -10 -16 -19 -8 -30 0 -20 15 8 14 22 14 30 1z m9 -75 c3
-8 1 -15 -4 -15 -6 0 -10 7 -10 15 0 8 2 15 4 15 2 0 6 -7 10 -15z m342 -92
c-10 -10 -19 5 -10 18 6 11 8 11 12 0 2 -7 1 -15 -2 -18z m-391 7 c3 -5 1 -10
-4 -10 -6 0 -11 5 -11 10 0 6 2 10 4 10 3 0 8 -4 11 -10z m-99 -54 c31 -30 53
-60 49 -65 -4 -8 -12 -8 -25 -1 -31 17 -37 12 -44 -35 -4 -24 -12 -47 -18 -51
-7 -4 -5 -9 3 -15 10 -6 10 -9 2 -9 -20 0 -33 35 -26 74 4 27 2 36 -8 36 -8 0
-4 8 11 19 21 17 23 22 12 45 -6 14 -16 26 -22 26 -5 0 -10 7 -10 15 0 26 18
17 76 -39z m-149 12 c-3 -8 -6 -5 -6 6 -1 11 2 17 5 13 3 -3 4 -12 1 -19z"/>
<path d="M8022 6979 c2 -7 10 -15 17 -17 8 -3 12 1 9 9 -2 7 -10 15 -17 17 -8
3 -12 -1 -9 -9z"/>
<path d="M8261 6964 c-1 -13 -9 -24 -21 -27 -11 -3 -20 -10 -20 -17 0 -13 43
-3 48 11 2 5 10 9 18 9 8 0 14 5 14 10 0 6 -6 10 -14 10 -8 0 -17 6 -19 13 -3
6 -6 2 -6 -9z"/>
<path d="M6480 6960 c0 -5 7 -7 15 -4 8 4 15 8 15 10 0 2 -7 4 -15 4 -8 0 -15
-4 -15 -10z"/>
<path d="M7200 6954 c0 -8 5 -12 10 -9 6 4 8 11 5 16 -9 14 -15 11 -15 -7z"/>
<path d="M7430 6924 c0 -8 5 -12 10 -9 6 4 8 11 5 16 -9 14 -15 11 -15 -7z"/>
<path d="M5335 6859 c-9 -14 -2 -20 14 -10 8 6 9 11 3 15 -6 3 -14 1 -17 -5z"/>
<path d="M8147 6837 c-22 -15 -13 -47 13 -47 26 0 30 11 16 38 -10 19 -14 20
-29 9z"/>
<path d="M8405 6818 c-2 -7 -6 -29 -9 -49 -6 -35 -5 -36 19 -31 26 5 31 23 19
70 -7 24 -22 29 -29 10z"/>
<path d="M5881 6756 l-23 -24 36 0 c41 0 53 12 36 33 -17 20 -23 19 -49 -9z"/>
<path d="M7271 6739 c-31 -19 -33 -22 -18 -37 25 -24 54 -22 67 6 9 20 8 28
-2 38 -11 11 -19 10 -47 -7z"/>
<path d="M7452 6707 c-9 -11 -10 -17 -2 -22 15 -9 23 -1 18 21 -3 15 -4 16
-16 1z"/>
<path d="M5545 6700 c-3 -5 -1 -10 4 -10 6 0 11 5 11 10 0 6 -2 10 -4 10 -3 0
-8 -4 -11 -10z"/>
<path d="M7350 6660 c0 -13 18 -22 24 -11 3 5 -1 11 -9 15 -8 3 -15 1 -15 -4z"/>
<path d="M7436 6624 c-9 -22 -8 -24 9 -18 8 4 15 12 15 20 0 19 -16 18 -24 -2z"/>
<path d="M7310 6550 c8 -5 18 -6 24 -3 5 3 6 1 2 -5 -4 -7 -14 -12 -23 -12
-12 0 -13 -3 -4 -13 17 -22 86 -7 86 18 0 17 -8 20 -50 22 -33 2 -45 -1 -35
-7z"/>
<path d="M8210 6410 c0 -5 5 -10 10 -10 6 0 10 5 10 10 0 6 -4 10 -10 10 -5 0
-10 -4 -10 -10z"/>
<path d="M7097 6403 c-4 -3 -7 -24 -7 -45 0 -40 17 -51 39 -24 10 12 9 20 -3
39 -9 13 -13 27 -9 30 3 4 2 7 -4 7 -5 0 -13 -3 -16 -7z"/>
<path d="M7205 6380 c3 -5 8 -10 11 -10 2 0 4 5 4 10 0 6 -5 10 -11 10 -5 0
-7 -4 -4 -10z"/>
<path d="M6791 6208 c0 -28 2 -30 9 -13 12 28 12 45 0 45 -5 0 -10 -15 -9 -32z"/>
<path d="M6756 6193 c-9 -9 -7 -33 3 -33 12 0 22 28 12 34 -5 3 -11 3 -15 -1z"/>
</g>
</svg>
