<?xml version="1.0" encoding="utf-8"?>
<!-- Generator: Adobe Illustrator 27.5.0, SVG Export Plug-In . SVG Version: 6.00 Build 0)  -->
<svg version="1.1" id="Layer_1" xmlns="http://www.w3.org/2000/svg" xmlns:xlink="http://www.w3.org/1999/xlink" x="0px" y="0px"
	 viewBox="0 0 4096 4096" style="enable-background:new 0 0 4096 4096;" xml:space="preserve">
<g>
	<path style="fill:#191919;" d="M179,3081l20,12l10,20l16,10l4,16l16-2l62,2h40l26-2l44-4v4l-8,10l-18,8v10l-4,6l-12,16l2,14v30
		l-12,6l8,2l10-4l12,2l10,6l22,2l6-6l8-12h4l8,10l14-6l16-10l4-10v-16l8,4v12l-2,2l-4,24l14,4l-2,16l2,2l4,8l-22,12l-16,2l-10,12
		l-18,10l-24,10l-28,12v6h8l22-6v4h-4l-22,14l-26,16l-32,20l-37.846,22.077L297,3401l-10,6l-6,6h18v4h-4l-16,14l-12,8l-2,6l12,2l6-8
		l12-6h16l10-12l38-18l36-20l26-14l16-4l16-4l4-8l-0.16-0.64L461,3343l12-6l10,2l4-8l6-2l10-6l34-12l20-8l12-2l-14,6l-8,6l-16,8
		l-4,8l12,2l8-6l32-18l16-2l4,10l6,2l6-18l18-2l18,2l-4,6l-20,12l-18,4l-4,8l-10,4l-2,6l8,10l-22,12l-2,10l-8,2v-4l-6-6l-14,4l-2,10
		h4v4l-14,4v10l-16,12l-2.667,2.667L513,3409l-6,8l-14,2l-20,12l-12,4l-2,16l-8,8l-20,4l-2,2l-18,12l-20,6l-30,6l-12,8l-16,8h-14
		l-2,2l2,10l1.6,0.8l0.4,1.2l1.5-0.25l0.5,0.25l10-2l44-10l4-8l4,2l12-2l26-8v6h22v-12l12-2l2,6h16l18,2l4-8l14-2l16-6l-2,12l4,2
		l12-4v10l4,2l60-16l-2,4l-22,12l-12,10l-12,4l-32,12l-10-2l-8,2l-14,12l0.182,0.091L491,3537l-22,12l-30,16l-4,8l14-2h14l2,10h-4
		l-8,6l-22,14l-10,8l-2,8h28l8,6l-2,6l-16,2l-2,2l-12,6v4h4l18-4l6-4h16l12,2l2,8l-14,2l-4,12l-8,6l-12,6l-10,6l-16,6l-6,6l-12,4
		l-24,12l2,6l-2,14h14h2l20-6l40-12l10,2l10-2l-4-2l4-10l4-12l14,2l4,4l-4,16l16,2l8-2l-2,4l-12,6l-18,8l-20,6v4l26-6l18-2l-2,10h-8
		l-8,8l-12-2l-3.652,2.087L471,3743l-10,6l-2,10h-8l-2-4l-8-2l-4.5,10.5l-5.5,5.5l-8,4l-15.172,8.276L407,3781l-6,4l-18,4l-6,16
		l-20,4l-24,14l-14,6l-16,8l-12,8l-2,10l8,4l14-16l16-6l6,2l22-6l24-4l20-4l8-4l18-2l16-4l-2,6l-14,6l-12,4l-12,8l2,12l-4,4l-18,2
		l-2,2l-14,4l-12,6l-20,10l-12-2l-6,8h-16l-2,2l-4,12l-6,2l-30,18l-10,10h12l14-8l10,2l8,4l48-14l34-8l26-8l8,2l-10,6v6l1.636,0.545
		L399,3913l1.818-0.727L403,3913l18-9l4.615-1.923L457,3891l6-2l1.846-1.231L491,3877l10-10l14-2l18-8l22-8l24-10l4-10l10-4l6-6h16
		l18-8l60-26l8-10l14,2l18-14l38-10l62-28l18-12l4-10l12-10l10-2l4,8l6,2l8-18l4-14l6,2l2,14l2,2l14-2v-14h4l22-14l20-10l40-20
		l40-16l18-4l12-6l0.316-0.632l3.092-1.665L1083,3599l10-6l18-4l10.333-6.889l24.394-9.293l18.182-6.545L1185,3561l2,4h6l4-6h10l6-6
		l8-2l2-4l10-6l9.6-4h2.4l12-6l20-6l-4,12l2,10l10-6l3.333-16.667l2.267-4.533l1.6-1.2l10.8-3.6l30-10l12-2l4,4l8-2l4-12l8-4l4-2
		l30-12l38-16l24-8l8,2h2l4,2l1.714-2H1481l0.4-0.8l6.171-7.2H1489l10-6l18-6l28-12l16-4l-2,4l-12,10l-24,12l-4,10h10l20-10l-2,4
		l-18,10l-0.118,0.353L1519,3463l-14,2l-10,2v14l-8,6l-12,8l-1,1l-5,3l-7.385,8.615L1453,3515l-24,18l-28,14l-22,14l-18,4l-14,6h-24
		l-8,8h-18h-34l-18-2l-4,4l2,10h10l1.053-1.579L1257,3589l14,2l16-2l-2,6l-12,4v0.5l-4,1.5l-4,8l-10,2l-2,8h-4l-40,16l-20,4l-12,6
		h-12l-6,4l-2,12l-30,10l-14,2l-2,2l-0.286,1.429L1109,3679l0.75,2.25L1109,3685l-8,4l-16,4l-18,8l-23,12h-1l-22,12l-32,16l-18,8
		l-34,18l-28,16l-4,8h10l8-6h20l98-34l22-10l24-6l16-8l20-8l18-6l13-5l27-9l16-6l12-8l8-2l2,6l12,4l2,8h-4l-18,8v8l20-2l-8,20h8
		l20-6l16-6l10-2l-4,12l12,4l2,8l6,4l7.333,7.333L1295,3759l-8-4l-6,4v10h6l16-8l2-6l2-28l12-4l2-2l4-4l20-8l38-14l18-6
		l-1.333-0.667L1403,3687l24-10l14-2l16-8l24-10l42-18l22-4l2.545-0.909L1553,3633l42-16l30-14l34-12l62-18l26-10l52-22l5-4h1l4-4
		l14-4l8-4l0.333-1l1.667-1l5.714-2H1839l34-12l30-12l76-38l14-14l18-4l20-10l46-18l10-2l-2,10l-8,10v8l10,2l6-4l20-2l42-22l4-8
		l-10-2v-14l2-12l36-22l12-2l-8,10l-4,10l8,2l8-12l10,2h14l6-2l32-16l42-24l4-8l-8-10h-20l2-6l14-12l10-2l6,16h12l16-4l32-16l22-14
		l28-14l14-6l2,8h6l2-16l22-16l38-20l42-24l18-12l36-20l20-14l-4-2l-12,6l-10.286,4.286l-13.27,4.825l0.667-1.333l8.889-6.349
		l20-11.429l48-30l0.933-0.8l5.067-3.2l22-12l24-2l28-14l8-8l-2-4v-6l16-12l18-12l24-14l14-12l12-8l28-16l34-24l34-22l40-28l22-16
		l68-52l28-24l28-18l48-32l32-20l18-12l12-8l6-4l18-12l9.429-6.857L3263,2691l11-8l15-10l0.4-2.4l1.6-1.6l-0.8-3.2l0.8-4.8l12,2
		l14-10l21.273-16.364L3339,2637l4-4l12-8l26-20l10-10l-6-4l8-4v4l10-4v-10l6-4l6-10l32-24l12-14l12-8l8-10l16-10l48-48l9.6-12.8
		l0.4,0.8l2-4l10-8l4-8h-6l-12,10l-16,14l-16,16h-16l-4,4l-12,22l-16,2l-14,14l-28,20l-26,20l-14,6v-24h4l18-16l22-18l14-16l22-18
		l20-16l18-18l24-22l4-8h-4l-8,8l-16,12l-18,14l-10,10l-32,26l-18,10l-20,16l-16,14l-20,16l-4,12l-8-6h-10l-2,2h-14l-16,12l-8,16v30
		h-4l-28,20l-72,52l-14,6l4-10l4-8l-12-6l-8-8h-10l-10,18l-4,8h-4l-8,8l-20,16l-28,26l-16,14v4h-4l-14,12l-22,18l-14,16l-12,4l-8,8
		l-4,8l-18,2l2,8v8l-14,4l-2,4l-22,20l-32,20l-4-2l12-22l-2-8h-8v8l-8,8l-8,12l-2,10l6,2v4h-4l-8-2l-4,8l-4,2v-8l-10,2l-24,18l-14,4
		l-14,10l-22,14l-34,24l-34,20l-26,16l-46,26l-54,30l-10,4l-12-6l-8,2l-12,10l-2,16l-11.379,6.207L2549,3061l-10,6l-60,30l-32,18
		l-38,16l-3.333,2.667L2403,3135l-0.667,1.333l-6.41,5.128L2395,3141l-6,6l-16,14l-16-2l-4,16l-10,6h-22l2-6l10-10l12-20l22-2l2-10
		l-8-6l-2-6l12-4l10-8l-2-8l2-6l-8-2l-20,12l-6,4l-10,6l-16,14v0.133l-3.563,1.9L2317,3131l-22,12l-42,22l-10,4v-6l4-4l44-28l38-22
		l25.2-14h0.8l10-6l20-8l-2,8h10l10-6l18-2l4-2l-2-10l-10,2h-10l11.2-8h0.8l6-4l20-10l12-6l1.636-1.091L2491,3023h14l4.8-6.4
		l7.2-3.6l6-8l10-4l10-4l4-4l12-8l16,2l10-6v-10l18-6l7.5-8.75l10.5-5.25l36-22l30-18l32-18l1.25-1l8.75-5l42-26l44-26l12-10l4-12
		l8-4l38-24l30-22l36-22l28-24l22-14l34-20l14-12l10-6l2,10l4,2l3.636-0.727L3065,2677l2-2l-2-22l14-14l-8-2l-8,6l-10,12l-20,10
		l-22,14l-28,20l-3.333,2.667L2969,2707l-66,44l-28,20l-36,26l-12,6l-16,10l-20,16l-18,6v-4l2.5-2h1.5l6-6l12-16l14-4l6-4l26-20
		l32-20l28-20l2-8l-12-26l2-10h6l10-2h16v8h-12l-6,4v10l6,8l8,2l12-6l12-10l-2-16l20-20l10-2l4,10l12-2l14-16l18-10l20-14l10-6l8-6
		l2-10l-4-6l-14-2l-4,4l-4,12h-10l2-10l16-16l12-8h12l4,4l4,18h6l18-14l32-24l10-6l16-12l8-12l12-4l12-18v-12l-4-2v-12l4-14l6-2
		l2,10l-4,8l-4,12h10l2-1.5l4-0.5l14-12l20-16l28-22l28-24l4-8l12-4l26-24l16-14l28-24l16-14l22-20l34-32l4-10h4l12-8l24-24l4-8h4
		l8-10l18-18l14-16l22-22l26-24l6-14l16-14l18-20l10-10l10-12l-2-6h-14l-2-16l12-24l10-16l4-10h-4l-10,6l-18,14h-12l-6,16l-10,12
		l-10,4l4-10l2-10l-12,8l-14,16l-4,8l4,2l2,10l-6,14l-6,8l-18,14l-16,14l-22,18l2,12h-4l-12,6l-10,12l-8,10l-12,8l-12,14l-10,6
		l-14,12l-16,12l-20,8l-8,16l-8,2v-8l6-20l12,4l2-10l-16-2v-6l4-4l8-12l20-16l4-8h4l10-10l9.388-1.877L3435.8,2187l-0.8,4
		l0.333,0.667L3435,2195l2.667,1.333L3439,2199l2-1l2,1l4-4l-2-16l-4-2v-4l8-6v-4l10-2l4-8l16-8l12-16l18-4l6-10h-12l2-6l6-6l14-2
		l12-12l-6-8l4-8l26-16l14-20l4-12l-8-2l-12,10l4-8l2-8h-4l-12,6l12-14l24-18l2-8l-14,2l-32,16l-6,14l-6,6l-20,16l-10,14l-22,14
		l-32,24l-2,14h-12l-4,2l-10,12l-4,8h-4l-6,6l-18,12v14l-14,2l-2,8l6,14l-24-10l-10,4l-18,18l-20,16l-6,10l-8,2l-30,24l-24,24l-4,10
		h-8l-6,8l-18,12l-2,10l12,4l-4,12l-6,2v16l-2,4l-16,12l-20,16l-12,14l-8,2v-12l12-6l6-10l14-10l4-8l12-4l8-12l-10-16l-10,6l-14,16
		l-26,20l-6,10l-10,2l-14,12l-24,14l-6,12l-32,16l4-6l28-22l20-18l18-14l20-20l20-18l16-14l36-36l10-8l32-30l16-14v-4h4v-4h4l20-20
		l20-16l2-16l4-2l20-14l10-10l14-2v-6l-4-10l4-3.2l2-0.8l0.364-1.091L3369,2109h12l4-12l10-2l16-18l2.461-0.923L3421,2075l6-4l4-2
		l4.615-5.385L3441,2059l10-10l16-14l20-14v-1.412l3.385-2.588H3491l16-12v-1.273l8.333-6.061L3517,1997v-0.545l2-1.455l16-16l24-28
		l-4-2l-22,16l-26,22l-10,2l3.429-8.571L3509,1969l5.333-8H3515l6-8l-0.143-0.286L3535,1937l22-32l2-10l-6,2l-20,18l-18,10l-18,14
		l-8,10l-16,14l-4,10l-8,2l2-6l8-10l-2-6l-10,10l-10,8l-16,14v4l-4-2l11.2-16h0.8l1.067-2.667L3443,1967l22-26l20-26l28-44l8-26
		l8-12l4-12l4-6l4-10h-4l-14,8l8-18v-18l-2-2l-22-4v-6l-2-10l-12-2l-14,8l-22,22l-8,8l-1.333,2.667L3443,1799l-38,38l-4,8h-4v4h-4
		l-2,4l-42,42l-16,14v4l-10,4l-10,12l-18,14l-10,2v-6l12-18l4-10h4l6-8l16-18l4-8l-4-2l-32,24l-16-2l-10,2l-12,8l2-10l10-14l14-28
		l2-10h-4l-22,16l-12,6l-10-2l2-12l6-6l-2-8h-12l-2-6l-4-2l-24,16l-22,24l-16,14l-44,44l-18,14l-14,6v-20l-8-2l-24,20l-4,8l-8,2l2-6
		l26-32l22-32l20-34l-8-2l-8,6l-28,26l-4,8l-8,2l2-6l12-20l2-10l-8-2l-24,18l-14,6l2-14h4l16-10l42-24l46.629-27.2l8.838-4.267
		L3195,1777l34-18l8-4l28-14l1.636-1.636L3275,1735l46-22l1.655-0.966L3329,1709l25-14.286l22.5-10.714l2.5-1l1.28-0.8l6.72-3.2
		l22-12l20-10l4-2l16-12l18-4l14-18l12-4l4-4l2-2l4-10l10-10h16l8-10l10-8l12,2l24-12l18-12l-2-18l12-6v-12l-10-2l-16,14v16l2,8
		l-14,4v-4l-0.667-4H3573l-2-8h-10l-6,4l-16,10l-12,10l-18,8l-36,20l-24,14l-32,16l-34,16l6-16l-0.75-1.5l0.75-2.5l12-2l16-10l40-24
		v-4l16,2l1.875-0.375L3479,1579l4-2l6-22l16-6l10-8l12-8l18-8l14-10l18-8l8-8l4-20l14,2l4-4l20-12l30-12l22-16l18-6l10-11.429
		l10-8.571l20-14l36-22l2-8l-16-2l2-6l-2-10l-12-2l-24,6l-16,14l-22,12l-18,8l8-12l10-20l22-14l20-12v-6l-10-2l6-16l-6-6l-16,2
		l-28,14l2-6l2-10l-6,2l-2,8h-4l-10,8l-22,16l-40,26l-34,20l-28,18l-24,12l2-6l11.79-10.105L3521,1393l2-2l32-18l4-8h12l4-4l16-8
		l14-10l20-18l2-10l-8-6h-16l-10,4l-26,18h-12l-4-2h-38l-2-8h-14v-6l12-12l-2-8l-24,4l16-8l22-16l4-10h4l12-8l6-10l8-4l8-10l2-24h4
		l28-14l48-22l46-14l48-18l43.333-20l26.667-12l23.143-10.286L3873,1083l44-16l2-8h-8l-22,4l-10,6l-12,2l-2-10h-8l-22,8l-38,18h-12
		l-8-6l-10-1.667V1079l-14-2l2-2l20-10l34-10l30-10l18-8l6-6v-14l-16-4h-12l-22,4l2-12h-8l-8,10l-18,2l-14,2v-4l10-10l20-4l2-2
		l24-16l8-16l14-2v-6l-12-2l-2-10l-4-4h-20l-4,2v4h-4l-18,4l-4,14l-6-4l-10-2l-8,6l-8-2l-26,4l-8,6h-12l2-4l20-10l18-6v-8l-22,2
		l-20,4l-2,2l-14,2l-8,4h-34l-16-2l-2,6h-8l2-12h10l4-8h4l10-6l14-2l6-10h12l10-10l12-4v-8l-4-2l-16,4l-14.625,8.125L3656,916.4
		l-7-1.4l-4-2l-3,0.6l-3-0.6l-8,4l-18,4l-40,12l-14,2l4-6l2-10l-4-2h-16l-8,6l-12,2v-6l8-2l6-8l2-10l-4-2l-18,4l-24,4l-2-12h8h4l6-6
		l6.4-0.4l1.6,0.4l24-2l2-4h8l-2,12l4,2h14l12,2l-2-8l-6,2v-4l-6-8l-2-14h8l4,4l1.714,0.286L3581,871l3.2-0.8l4.8,0.8l8-8h20l8-2
		l2-10l16-4l8,2h10l2-2v-14h26l12,2l4-8h4v-6h-6h-14l1,1l-13,1v-4l-10-2l-14,6h-20l-6,2l-4,6l-8,2l-6-10l-18-2l-2-4l10-2l22-10v-4
		l-12-6l-6,8h-10l-2-2l-8,4l-18,6l-18-2l-14,8l-20-2l-2,4h-16l-10,4l-8,6l-2,10l-4-4l-12-2l-20,12l-10,4l-18,8l-44,16l-30,8l8-12
		l-4-2l-16,10l-24,14l-20,4l6-10l12-14l-10-6l-8-4l-2-6h-10l-12,10l-8,2l-4-22h-4l-20,16l-12,4l-14,10l-10,4l2-8l8-12h10l10-6l14-16
		l10-2l2,6h8l4-4l6-12l8-10l20-12v12l8-4l10-6l12-8v-10l-6-2l-2-6l10-16h12l8-8l16-6l4-6v-20l8-10l4-8l-10,2l-14,2v-8l4-6l16-14
		l22-18l48-44l12-16l-2-6h-4l-20,16l-22,18l-24,22l-22,16l-16-2l-12,2l-2,10l-2,8l-10,10l-14,4l2-12l4-4v-8l-18,6l-16,2l-8-2l-10-2
		l2-10l2-16l-10-2l-6,6l-10,16l-9.592-3.837L3225,655l2-14l-6-2l-20,8l-2,14l10,4l4,4l2,2l-4,10v12l-12,2l-18,6h-16v-4l4-14l6-2
		l10-10l6-2l4-8l-6-4l-4-20l-2-18l8-6l12-18l4,4l8,2v-4v-6h8l4-10l14-4l6-12l2-22l4-2l2-8l4-2l10,2l8-12l12-4l6-6l14-2v4h8l2-10
		l-8-2l2-6h6l2,6h6l2-8l-8-4l-1.6-4.8l0.933-1.867L3327,479l2-10l6-4l-2,6v8l2,8l-4,4l6,12l-2,10l-2,24l10,2l4-6l-2-16l8-8l4-24
		l-2-6l-2-14l4-8l-2-6l-8-2l14-16l30-40l-2-6l-20,2l8-8l18.667-14H3397l4-4l26-24l18-12l22-20l4-8l-6,2l-20,16v4h-4l-8,6h-12l-6,2
		l-18,14l-8,4v-12l4-6l2-16l-2-20h6l6-6l2.909-7.273L3415,275l10-10l16-20l4-8h4l8-10l-6-2l-16,10l-22,12l-6,10l-10,4v-6l-8,6l-4,12
		h-12l-16,8l-4.8,3.2l-5.2,2.8l-18,12l-12,8l-6.923,4.154L3299,313v-4l9.739-8.522L3309,301l6-6l2-10l-4-4l-10,2l-22-2l-12,6l-12,2
		l-6-4h-10l-6,4l-28,18l-2,6h-4v4l-6,2l-12,8l-32,24l-28,20l-26,22l-18,10l-28,16l-8,8l12-4l16-4l16-8l-4,10h8l22-8l18-18l8,4l10,2
		l12-4l36-20l26-16l10-6l-8,10l-14,22l-14,6l-10,8l-4,20l2,12l-6,18l-12,6l-4,2l-38,18l-8,6l-10,10l-22,12l-0.333,1l-4.893,3.387
		L3079,509l-16,12l-20,14l-18,10l-3.818,2.727L3019,549v0.286l-8,5.714l-18,6l-8,8l-2,2l-24,14l-30,8l-4,4l-32,12l-8,2l10.5-6h1.5
		l16-10l14-6l22-12l1.333-1.333L2955,573l12-14l-4-6h-22h-8l14-16l24-8v-8l-14-4v-8h4l22-14l20-14l2-8h-4l-22,12l-28,22l-10,8l-14,2
		l-14,12l-22,8l-20,12l-22,16l-3,3l-5,3l0.5,1.5l-2.5,2.5l-16,12l-20,20l-18,14l-20,14l-20,8l-38,18l-20,2l-6-2l14-10l10-10h-10
		l-14,6l-28,16l-26,10l2-4l4-2l24-12l8-6l18-6l4-4l72-44l36-24l4-2.4v0.4l36-22l48-30l17.143-12H2901l2-2l12-8l6-4l30-18l34-16
		l48-24l-2-6l20-14l28-18l26-16l32-26l48-32l22-16l-4-6l-28-2l-18,14l-10,4l-8-6l-16,6l-16,12h-24l-18,4l-12,4l-20,12l-10,6
		l-5.04,4.48L3017,357l-12,12l4,8l-6,6l-6,6l-20,14l-28,22l-18,12l-14,12l-8,12l-16,2l-22,14l-26,16l2,8l-4,6l-7.795,4.103L2835,511
		l-30,16l-28,20l-22,12l-32,16l-34,18l-20,8l-22,4l-4.667,1.333L2639,607l-1.333,0.667L2633,609l-6,4l-4,2l-18,16l-22,12l-10,6l2-6
		l6-4l8-12l12-10v-4h4l8-8h-0.333l4.19-4.571L2619,599l3-3.5l3-2.5l7.592-8.857L2657,571l2.333-2.333l8.736-5.977L2669,563l22-16
		l32-22l28-22l14,2l-2-12l4-6l-0.857-0.286L2767,485l-3.75,0.75L2761,485l-3,1.8l-1,0.2l-2.667,2l-3.333,2l-28,21l-16,8l-12,5l-12,7
		l-6,3l-1.2,1.2l-4.8,2.8l-20,6v-4l-8-2l-4-8h-10l-10,8l-22,18v6l10,2l16-12l10-2l4,18l-6,10l-12,8l-14,4v0.2l-6,1.8l-30,20l-22,14
		l-22,14l-22,12l-28,18l2,22l-16,10l-12,2l2-4v-14l-2-2l-4.364,0.727L2441,685l-2.667,1.778l-0.07,0.012L2437,683l2-12l10-4l12-8
		l20-8l4-8h-4l-36,12l-14-2l-6,4l-2,12l-4,2l-2-6h-12l-2,2l-4,8l4,2v4v8l4,2l15.6-3.467l3.2,1.067l2.2,4.4l0.545,2.182l-5.428,2.171
		L2421,697l-6,4l-8,10l0.461,4.154L2407,717l0.857,1.714l0.698,6.286H2401v-12l-4-6l2-10l-2-8h-14v-8l4-8l-4-2l4-12l10-8l10-6l24-12
		l28-18l18-10l13.333-8H2491l16-10l4-10l8-2l8-8l24-14l30-20l16-14l10-6l-2-16l20-12l22-18v-6l-10,2l-32,16l-9.289,6.356L2595,485
		l-8,6l-6,4.421L2567,505l-11.667,9.333L2549,519l-0.333,0.667L2537,529l-24,16l-48,32l-12,8l-26,20l-6,18h-6v-4l-8-2l-6,4l-2,8h6
		l-4,6l-10,4l2-8h-14l-6-18h4l18-10l26-16l16-12l12-8l26-18l18-12l22-14l18-16l6-10l6-4l12,2l22-22l26-16l26-16v-6l-16,2l-16,8
		l-12,6l-1.846,2.308L2579,457l-20,10l-12,10l-14,6v-10h-8l2,8l-2,8l-20,10l-2,10h-4l-12,6l-10,8l-12,8l-14,12l-20,14l-12,4l-12,10
		l-12,6l-2,6l-10,2l-6,6l-24,16l-22,12l-16,6l-26,14l-1,2l-3,2l-6,4l-18,10l-14,10l-14,6l-8,6l-18,2l-6,12l-2,4l-8,2v-12l6-4l1-1
		l7-5l-0.667-1.333L2205,675l-1.2-0.4l-0.8-1.6l-2.286,0.571L2199,673l-3.111,1.778L2195,675l-10,4l-6-14l-24-72l-6-6v12l12,44
		l14,38l-2,8l3.75,11.25l-0.25,1.25l-5.5,5.5l-18,8l-10,6l-15,7.5l-9.783,2.935L2101,733v-4l-10-8l-10-2l2,18l-18,8l-4,8l8,8h-16
		l-4,4l-12-2h-14l-6,4l4,10l-2,6l-22,12l-16,2l-4-8l-6-2l1.806,18.065L1955,811h-14l-2,6h-6l-6,2v10l4,4l14,2l22-10l18-6l10-6l24-10
		l16.078-3.573L2039,821l-10,4l-16,10l-20,2v-4l-8-2v14l-14,4l-2,8h-8l-4,4l-18,8l-22,12l-32,16l-20,8l-30,16l-12,4l-2,4l-6,10
		l-14-2v-4h-4v-4l-10-4l2,8h4v4v8l-8,2l-10,4l-8,2l-10-4v14h-6l-18,6l-20,8l-8,6l-38,16l-26,10l-32,16l-18,12l-4,8l-22-2l-12,10
		l-32,16l-30,14l-2,10l-2,4v8l10-2l28-14l14-2l4-6l24-8l4-4l16-10l14-6l14-8h14l2-4h10v8h-4l-16,6l-14,4l-18,12l-24,10l-10,6l-14,2
		l-4,6l-38,18l-8,6l-34,16l-16,6l-14,4l-8,6l-18,6v4l-14,2l2-6l8-8l16-6l20-6l20-12l10-10l16-8l-2-6l-8-2l-2-6l-8,2l-2,10l-24,6v-6
		l-6-6l-10,2l-20,8v4h8l3.733-1.067L1419,1111l2,2l-2,8l-12,8l-18,4l-24,10l-26,12l-32,14l-28,16l-32,16l-3.429,2.286L1243,1203
		l-8,6h-12l-4,4l-2,10l-10-4l-18,6l-4,8l-12,4l-14,4l-10,6l-16,4l-20,10l-20,8l-12,8l-2,14l10,2l6-6l8-8l6,2h10l26-12l42-14l18-2
		l24-8l1.455-1.091L1233,1243l2.222-2.667L1237,1239l7.286-8.5l9-3.5H1255l24-10l28-12l38-14l20-8l26-4l6-6h12l4-6l8-4l12,2l6-8
		l18-4v-4h10l8-6l10-4l36-18l18,2l2-10h6l2,12h6l4-8l-2-12l8-2v10l2.667,3.333L1571,1123l-10,10l-20,6l-12,6l4,10l-10,2v-6l-10-2
		l-2,10l-8,2l-4-4h-14v-4l-6-2l-2,10l14,8l1.828,9.138L1475,1183l-20,8h-26l-4-4l-10,2l-26,10l-10,8l-8-2l-8,2l-18,10h-12l2,8h10v-4
		h6l12.571-3.429l10.629-1.771l7.527,0.836L1389,1221v6l-12,2l-2-4h4v-4l-18,2l-2,2l-4,10h6l2-1l8-1l-4,16l-22,10l-18,6l-32,16
		l-10,12h-16l-8,4l-10,6l-18,4l-24,8l-12,10l-10,2l-8-8l-16,2l-8,4h-2l-6,4v16l-8,6l-20,12l-6-2l-8,4l-22,18l2,8h12h2l12-4l6-6l18-8
		l28-10l26-12l10-2l12-4l-4,10l-14,2l-26,14l2,6l14,2l16-11.636l6.615-4.21L1213,1365l6-2l2-6l22-2l2-12l-8-2l-8,4l-8.308,1.385
		l-3.159-0.451L1219,1343l20-10l10-8l18-4l10-8l12-4l24-8l5.2-2h0.8l16-6l10.667-4.667L1379,1275l10-2l-18,10l-9.529,4.235
		L1361,1287l-20,9.333l-6,2.667l-44,18l-24,10l-8,6l-10,10l2,4l14,2l6-6l10-4l27.6-4.8l8.4-1.2l4.25-1l5.75-1l11.25-3l12.75-3
		l2.342-1.024L1357,1323l10-5l16-7l2-2l10-2l12,10l4,8l-7.647,4.118L1403,1329l-18,10l-20.8,14.4l-15.2,7.6l2-14l-6-4l-12,4l-6-2
		l-24,4l-12,14l-10,8l-4,8l8-2h6l-4.8,2.4l-1.2-0.4l-10,6l-4,12l-26,14l-32,16l5.455-10.909L1233,1407l20-6l4-10h-16l-8,2l-10,6
		l-20,4l-2.75,1.25L1197,1405l-7.2,4l-8.8,4l-0.364,1.091L1161,1425l-2,8l10,8l8-2l14-2v10l4,10h-12l-4,10l-2-4l-12-8l-10-2l-6,4v4
		l-10-2l-8-6l6-4h2l4-4l2-20l8-2v-6l-4-2l-6,6h-8l-6-4l-10-4v-18h-4l-2,6h-4l-8,6l-0.667,2.667L1099,1411l0.5,2l-1.5,6h-1v4h-4
		l-6,10l2,26l4,10l10,8l1.6,8h-3.6l-20,8l-22,10l-62,18l-36,10l-34,6l-10,4l-18,14v30l8,8l16,14h14l12,2l10,12l-2,12l-10,22l-2,10
		l10-2l10-6l18-2l8-4l4,10l8,8l-6,6l-22,6l-24,6l-18,2l-2,2l-12,2v-4l16-8v-8l-16,2l-10,6l-6,10l-10,14h-12l-4,4l-18,6l-6,4
		l0.333,1.667L853,1721l0.667,1.333L855,1729l-24,4l-26,6l-68,20l-44,12l-16,6v14l-4,4l-34,8l-2,6l24,2l10,2l30-8l-2,6l-22,4l-2,6
		h-14l-6,2l-22,10l-10,8v12l8,6l2,6l-16,8l-20,8l-18,6h-10l2.727,0.909L563,1889l-6,6l-2,10h10l3.2-2.4l0.8,0.4l4-4l12,2l6-4l18-10
		l26-10l12-10l10,2l8-4l14-4l10-4l36-6v6h-8l-16,10l-2,6l8,4l30-8l26-12l18-6l4-4l14-4l2-4l15.882-8.823L847,1817l18-6v14h-4l-10,8
		l-0.154,0.462L849,1835l-20,6l-32,12l-16,4l-4,4l-18,10l-18,2l-8,6l-14-2l-6,4l-16,4l-6,6l-14,2l-6,6h-12l-4,6l-8,4l-22,16l-24,12
		l-4,8l-10,4l-18,2l-2-6l-6,2l-4,10l-10,8l-18,14l-29,14.5l-1-0.5l-2.857,1.714L495,1995l-9.333,4H481h-10l-6,4l-6,4l-28,8l-38,16
		l-2,6l12,2l2,4h4l4-2v-4h-4l2-4l10-4l-2,8l14,2l8-6l18-8h14l2-2l2-2l2-8l4-6l16-2v4l14-2l6-6h-10v-4h4l24-8l-2,10h16l8-12l32-4l4-2
		l16-4l8-6l42-16l26-8l20-8l34-14l20-10l4-8h16l12-6l-10,10l-14,8l-38,20l-6,6h10l2-2l21.371-3.886l0.158,0.474L754.2,1945
		l-5.131,4.276L737,1951l-6,4l-32,16l-20,6l-10,6l-18,2l-6.667,5.333L635,1995l-18-2l4-4v-6h-6l-6,8l2,10l-8.333,8.333L591,2011
		l-12,6l-12,6l-18,10l-16,8v6l10,2l18-8l10-8l7.714-2.571L593,2029l7.35-6.3L617,2019l8-4l24-2l19.412-5.294L675,2011l2,0.8l4,3.2
		l2.182-0.727L685,2015l2-2v-14l6-6l6.667-1.333l3.333,0.476V1995l-4,2l-8,14l2,10h-12l-4,4l-14,4l-6,4l-36,12l8-12l-4-8l-8-2l-4,6
		v12l1.6,2.4l0.4,3.6l-10,6v4h-18l-10,2l-12,10l-18,6l-10,12l-12-2l-10,2l-16,8l-26,8l-12,6l-24,22l2,8h16l6-2l36-16l12-2l-2,8
		l-10,6v8h6l2-2l20-8l2-2v-1l2-3l-2-1.143V2123h-1.5l-5.833-3.333l-2-2l0.788-1.576L525,2112l10.571-5.286L551,2105l18-6l28-12l22-4
		l10-6l14-2l-4,8l-30,10l-2,4l-8,4l-26,2l-6,4l-14,2l-8,6l-2,8h14l22-4l8-4l10-2l2,8h16l18-2l12-2l18-2l10,2l8-6l14-4l10-4l12-2v4
		l-10,6l-24,10h-14l-4,6l-14,2l-4,4h-10l-6,2l-2,8l10,2v6l-4,4l-12,4l-18,4l-14,14l-16,2l-4,4l-16,2l-4,4v14h24l16-4h22l16-4h34
		l12,2l6-4l18-2l6,12h-8l-22,10l-2,6l-14,2l-10,6l-20,6l-4,6l-20,6l-2,8l-10,10h-28l-4,10l-18,6l-14,2l-10,4l-22,10v4l12,4l4,4l10-2
		l-4-12l4-2l26,2l2-6l10,4l8-2v-4l6,4l80-2l-2,4l-18,6l-22,8l-8,10h-4l-12-8l-10,2l4,8h10l-2,4l-12,6l-18,4l-8,4l-8-2h-22l-10,4
		l-22,6l-4,14l-12,6l-18,2v6l4,2l-2,6l-24,6l-14,8l-38,8l-12,10l-14,2l-10,6l-18,6l-16,8l-3.2,2.4l-0.8-0.4l-12,10l-16,8l-2,8l6,2
		l10-4l40-16l30-10l24-6l32-10h12l3.333,0.667L439,2419l1.778-0.444L443,2419l4-2l26-2l22-8l14-2l10-4l8,4l4.286-0.429L533,2405
		l14-2l8-4l8-4l20-8l10-2l6,6l-40,24l-30,12l-26,8l-44,16l-66,26l-42,16l-58,24l-18,8l-17.333,5.333L239,2535l-2,2l-18,8l-12,10l8,2
		l34-10l48-16l22-8l10-6l22-4l50-12l8,2l8-4l34-12l26-12l32-12l30-12l40-12h16l4-4l44-20l36-16l10-4l8-6h22l10-2l18-4l50-16
		l5.143-2.286L803,2365l12-6v-14l-2-10l16,2l-2,6v8l12,2l6-4l4-8l-6-4v-4l4-2l14-12h14l4,8l10,2l6-10l10-6l26,2l4-4l20-10l12-4l6-4
		l2-10l-4-4h-10l2-6l6-8h14l10,10l-2,6l2,8l10-4l2-8h12l8,4l16-8l10-8l12-4v6l6,4l8-2v-4h4l18-2l2,12h-8v4l18,4l-4,8l-2,10h-12l-4,8
		l6,2l8-6l8,6h16l-2,8l-32,2l-12,4l-4,4v22l2,2l12,6l22,2l-4,6v14l-6,8l-10-12l-16-6l-8,2l-2,10h-6l-0.4,1.6l-1.6,0.4v12l-4,6
		l-14,12l-8,6l-6,4l-30,14l-0.098,0.293L993,2441l-18,4l-30,8l-18,8l-84,42l-18,10l-28,18l-11.429,8L773,2547l0.667,1.333L771,2551
		l-20,10v4h-4l-14,8l-30,18l-72,42l-44,26l-32,20l-26,14l-16,4l4-8v-16l8-4l2-4l-8-4l2-12l-4-2l-5.333,7.111L501,2663l-4,8l10,2
		l-2,6l-11.2,6.4L471,2693l-24,4l-2,6l-6-2l-8,2l-12,10h-14l-32,18l-36,20l-70,40l-42,26l-16,18l-12,20l2,10l12,4l8,8h12l4,6v38l6,4
		v16l-2,4l-6,6l-12,14l-8,14l-22,30l-14,22v46L179,3081z M3329,2639l-14,10l-6-2v-10l2-8l18,4V2639z M3377.667,2595.667L3379,2597
		l-1,4h-3l-20,12v-12l10,2l-3.429-2.571L3365,2601l6-4L3377.667,2595.667z M3213,2665l34-26l44-36l26-20l32-26l20-16l12,2l4,8
		l-12,12l-16,14l-8,4v4l-4,2l-38,26l-18,16l-32,20l-34,22l-18,12l-4-4L3213,2665z M3209,2697l-2,6h-4l-2-6H3209z M3601,2109l6,2
		l-2,8l-10,6h-2l-2-6L3601,2109z M3567,2133l2-4h10l4,8l-8,4l-4,8l-4-4V2133z M3425,2297h-6l4-6l8-2L3425,2297z M3441,2287h-8v-6
		l12-14h8l2,16L3441,2287z M3481,2249h-6l2-16h4V2249z M3493,2225l-8-4l2-8l8,4L3493,2225z M3533,2171l8-2l4,6l-4,10h-10l-4-8
		L3533,2171z M3201,337h-6v-4l8-2L3201,337z M2939,525l10-4l1.333,0.667L2951,523l-2,8l-10,2l-2-2L2939,525z M2495,577v-4h6l-2,4
		H2495z M2513,569l-6-2l4-6l12-4L2513,569z M2579,521h-6l2-4l12-8l2,4L2579,521z M2543,543l-4,8l-10,6l-6-2l8-10L2543,543z
		 M2505,509l10-2l-2,6h-8V509z M1147,1259h-4l2-4h6L1147,1259z M1177,1249h-8v-4l14-2L1177,1249z M443,2025h-6v-4h6V2025z M661,2073
		l-8,4h-2v-8h10V2073z M769,2039l2-30l2-4l10,2h34l8-10l8,2l4,10l-10,18l-10,2l-2-8l-2-6l-10,8l-12-2l-4,12l-10,10L769,2039z
		 M727,2191l-8,8h-8l-2-10l4-2h12L727,2191z M1395,1253v-8h10l2,8H1395z M1543,1149l4-2v4l-3.6-1.2L1543,1149z M2203.154,704.385
		L2208,703h7l3-2h1l2-2l28-14l5.25-3.5l4.75-2.5l17.333-10.667l24.917-14.083L2324,642l17-9l1.936-2.323L2355,623h10l5.333,10.667
		L2369,643l-8,4l-2,6l-8,2l0.08,0.16L2337,659l-32,20l-26,14l-18,4l-8,12l-18,4l-6,6l-20,4v10l-14,2l-2,6l-12,4l-10,8l-14,6l-8,8
		l-16,2l-6-20h4l4.364-3.273l15.511-8.352l17.356-8.221L2183,723l0.857-0.857l8.416-3.507L2193,719l8-4v-10h4L2203.154,704.385z
		 M2495,679l2,4h-4L2495,679z M3193,471v-10l6-4l10-2l2,6l-10,10H3193z M3243,345l16-10l8-2l-2,4l-8,4v4l-10,8l-6-2L3243,345z
		 M3271,329v-4l6-2v6H3271z M3173,663l4.5-1.5l1.5,1.5v6l-4,2l-0.286,0.571L3173,663z M3555,937l-8-2l10-2L3555,937z M3419,1463
		l-8,8h-4v-6l4-6l8-2V1463z M3401,1083l10-12l18-4l4-4l14-4l8-4l10,2l-4,8l-12,8l-34,12h-14V1083z M3377,1281l8-2v8h-6L3377,1281z
		 M3227,1725l-4,4l-6-4l2-10l6-2L3227,1725z M3367,1647l-24,16l-32,16l-24,14l-38,18h-8v-6l4-4l18-12l44-24l46-24l14-2V1647z
		 M3237,1735l12-10h12l-2,8l-18,10h-6L3237,1735z M3285,1715h4v4h-4V1715z M3339,1677l10,2l-2,6l-14,4l-6-2L3339,1677z M3377,1489
		h-2l2-8l10-10l10-2l2,6l-6,6L3377,1489z M3497.286,1347.286L3487,1349l-2-12h4v-2l14,2v6L3497.286,1347.286z M3449,1437l18-10l10-2
		l-4,8l-20,12h-8L3449,1437z M3469,1057v-4l4-2v6H3469z M3235,903l-10,6l-4-2l-2-8l6-8l10,2V903z M2281,3157h12l4.286,6.857
		L2301,3175l10,8v14l-8,8l-26,16l-40.727,17.455L2237,3237l-20,6l12-8l4.4-5.5l4-2.5h3.6l12-8l20-14l14-14v-8l-15-5l-2.75-2.75
		L2271,3163L2281,3157z M1073,1613l-2,8h-10l2-8H1073z M1575,1099h6l2,6l10-2v-10h10l5.714-8.571L1613,1081v2l14-4l12-8l18-4l10-12
		l34-18l18-4l6-4l24-12l0.75-0.75L1761,1015v6l-6,4l-6,10h6l2,6l-5.333,2.667L1745,1045l-18,12l-18,6l-26,10l-22,16h-8v-18l-10,4
		l-5.8,11.6l-4.2-5.6h-4l-4,6l-2,10h6l4.444-1.111L1635,1099h-4l-20,8v-4l-10-8l-4,18l-6,2l-14,2l2-4L1575,1099z M1831,983l12-6h8
		l2,16l-6-2l-10-2l-4,4l-4-4L1831,983z M1889,955l10,8l-4,4l-2,8l-8,6l-4,12l-10-4l4-20h-4l-2-4l4-8L1889,955z M2493.4,751h3.6l6-6
		l10-2l2,6h-4l-12,8l-10,8l-14,4l-16,10v0.286l-4,1.714l-10,6l-8-6v-6l4-4l16-6l12-2l6-8l16-2L2493.4,751z M2597,693v-6l10-2l-2,8
		H2597z M3143,485l22-8l-0.595-1.784L3165,475l12-2l2,10l-6,4l-24,6h-8L3143,485z M2598.217,2943.609L2597,2943l-12,6l-10,2v-6l6-6
		l4-10h14l1.273-1.909L2601,2927l6-6l8-4l4,6l-2,6l-14,12L2598.217,2943.609z M2375,3067l-20,10l-1.125,3.375L2349,3083l-28,16h-8
		v-12l12-18h30l10-4l4-16l4-4l26-4l4-2l22-16l44-24l50-30l28-14l14-2l2,6l-8,8l-16,12l-38,20l-36,20l-52,30l-28.5,15l0.5-1
		L2375,3067z M1577,2431l-22,6h-14v-4l10-2l22-6l1-1l11-1l-2,6l0.333,0.667L1583,2431l-3.231,0.923L1577,2431z M1321,2557l-2-4
		l24-18h12l2,2l-6,6l-24,10v1.692L1321,2557z M1179,2295h4l1.143,3.429L1183,2303h-6L1179,2295z M1159,2301l4-6l8,2l-2,10h-10V2301z
		 M1164.636,2333.182L1163,2325l1.739-3.478L1183,2327v4l8,4l-10,10h-10l-2-2L1164.636,2333.182z M1145,2303l4,2l-4,6l-6-2
		L1145,2303z M1201,2331l-4-10l8-8h10l6,4v8l-12,8L1201,2331z M1369,1419l-16,10l-2.727-2.182L1349,1423l-6-2l6-8h16l4,2V1419z
		 M2231,753v-8l8-4l4,12l4,4l-2,8h-8v-10L2231,753z M2417,791v-4l8-8l10,2l-10,10H2417z M3055,965l-2,8l-12,8h-10v-8l2-2L3055,965z
		 M3055,761l-8-2l-2-6l8-8l6,2l2,8L3055,761z M3045,789l14-18l8-2v8l-2.286,4H3063l-6,10l4,12l-4,2h-12V789z M3129,671l-2,14l-6,2
		l-2,6h6l2-4l4,8l-4,2l-2,10l-8,6l-4-6h-0.667l-0.286-2.571L3113,705l-2-10l-6-2.4V679l8-8H3129z M3131,723h-4l-2-6l8,2L3131,723z
		 M3103,709l1.091,0.364l0.321,4.813L3103,717l2,8l10-2l2,6h18l6,6l2,14l-4,8h-6v-14l-14-6l-2,6l-10,12l-4,4l-4,2v2l-2,2l-10,4v2h-8
		l-4-4l2-10l10-8l6-10h-12l4-10h-8l-2-10l6-8l8-20l10-2l2,2L3103,709z M3149,1769l-10-2l2-10l14-6h4l16-10l22-12l2,8l-6,4l-34,20
		l-0.833,2.5L3149,1769z M3131,1775l-2,8h-4l-2-10l6-2L3131,1775z M3107,1784l-6,3l-26,16l-4.857-4.857l1.524-3.81L3073,1793l18-10
		l6.842-4.105L3113,1777v2L3107,1784z M3119,925l-10,8l-4-2l4-8l8-4L3119,925z M3085,945l8-4l-4,6L3085,945z M3099,939h-4l4-6V939z
		 M3131,919h-2l-2-8l4-8l6-6l6,2l2,8L3131,919z M3109,769l8-2v8l-10,2l2,12l-10,10h-6l-2-10l2-8L3109,769z M3019,1453l18-12l2-10
		l12-10l24-6l26-2l-2,6l-20,14l-32,16v1.765l-20,8.235h-10L3019,1453z M3023,789h-4l2-8l6,2L3023,789z M3051,1771l42-18l52-22l8,2
		l-18,12l-50,28l-27.14,12.953L3055,1785l-52,26l-12,2l2-8l17.582-15.628L3051,1771z M3023,1973h4l-2,4L3023,1973z
		 M2639.286,2917.571L2629,2921l4-12l6-12l6-2l8,6l2,8L2639.286,2917.571z M1587,2409l-2-4h4l-1.6-0.4l9.6-1.6l-2,8L1587,2409z
		 M1803,2047v-14h-0.25l0.25-2h8l4,4l6-2l10-10l6-2v6l-14,12v12l-12,6h-2l-10-2l-2-6L1803,2047z M2007,911h4v6h-2L2007,911z
		 M2021,889l16-8l46-22l28-16l12-2l6,10l12,2v-6l-4-4l-1.2-6l0.914-4.571L2147,829l2,12l8,8l4,8l-18,2v10h-4v0.8l-1.862,0.372
		L2121,863l-2-10l-6-2l-10,10v6l12,2v6l-10,2l-10,8l-12,2l-2-14l-14,2l-6,4v16.8l-8,3.2l-10,6l-10,8h-4l-4-6l-10-6l-4-8l6-4H2021z
		 M2209,3187v1.429l-6,2.571h-6l2-6l10-8l8,2v6L2209,3187z M1965.545,2737.364l6.788-4.364H1975l6-4l56-32l27.5-16.5l-1.5,4.5h1.143
		L2047,2695l-38,24l-32,20l-18,6L1965.545,2737.364z M1571,2321l6-2v4L1571,2321z M2565,2809h-4v-4h4V2809z M2371,2937l2-12l-4-8
		l8-2l4,8l10,4l2,10l-32,16h-2l-2-6L2371,2937z M2323,2575l-6,10h-8l-2-8l15.273-12H2325l20-16l11.333-11.333l3.282-2.667H2363l4-4
		l38-28l5.032-5.871L2418,2491h3l4-4l22-14l30-18l16-12l6,2l-2,8l-16,12l-36,26l-26,20l-66,44l-0.833,2.5L2323,2575z M2335,2965
		l-2,4l-2-4H2335z M2341,2961l-2,4l-4-2L2341,2961z M2213,2597l-44,26l-38,24l-40.909,22.727L2101,2657l-8,4l-11.2,7.2l7.2-7.2
		l36-24l34-22l24-16l30-18l42-22.5l6-1.5l20-8l-4,6l-22,16l-36,22l-1,3l-3.182,1.909L2213,2597z M1627,2315l6-2v4L1627,2315z
		 M1651,2381l-10-2l4-12l4-2l2,3V2381z M1637,2333v6l-16,4l-12-5.143v-2.19l3.077-2.052L1619,2335l9-3l-1,1H1637z M1649,2341l-2,6
		l-2-6H1649z M1599,2321v-4h6l2,4H1599z M1633,2387l-6-2l6-2V2387z M1729,1177v-4h4v4H1729z M1711,2067h2l8,2l6,12h10l10-12l-8-12
		l10-2l18-4v18l-26,16v0.889l-2,1.111l-20-2l-4-8l-8-4v-4L1711,2067z M1709,2093l8-2v4l-6,4h-6L1709,2093z M2601,2073l-14,12h-6v-16
		l8-6h14L2601,2073z M2129,2209l-2,2l-10,4l-4,8l-16,6l-1.2,3.6L2071,2245h-10v-12l2-4l10-8l38-14l8-8l10-4l2,10L2129,2209z
		 M2051,2431l-2,8h-4l-2-8H2051z M2087.256,2170.59L2107,2167l-2,4l-24,10v1.231l-2,0.769l-2-6L2087.256,2170.59z M2039,2451l2-2h10
		l2,12l-4,6h-6l-4-4V2451z M2081,967l-12,6h-6v-4l8-6l14-2L2081,967z M2609,2413v6h-4v-6H2609z M2223,2331l-10,6l-6,10l-8,4l-12-2
		v-4l8-8l16-10l12-2V2331z M2521,2417l14.4-8h3.6l10-6l6.471-7.765L2567,2387l10-4v10l-26,20l-24,18h-8l-2-4L2521,2417z M2523,2489
		l2-2l18-12l6-10l6-6l22-4l10-8l16,2l6,8l-2,8l-18,16l-24,18l-14,14l-16,14h-10l-2-4V2489z M2627,2445l-0.636,1.909L2619,2451l-6-2
		v-8l8-8l16-14l14-14l26-20l24-18l1.949-1.026L2705,2367l10-6l29.333-14.667L2744,2347l-2.25,3l-18.75,15l-26,20l-22,20l-26,24
		L2627,2445z M2327,2195h-4v-16l6-8l8-4v6L2327,2195z M2289,877l-8-4l8-2V877z M2285,857l-8,4l-2,6l-10-2l8-8l12-4V857z M2287,2271
		l20-12l8-2l-4,8l-16,12l-20,14l-22,12h-4v-6l16-14L2287,2271z M2031,2197h14l-8,8l-10-2L2031,2197z M2011,2219h-12v-6l6-6h12l2,6
		L2011,2219z M1993,2227h-6l-2-6l4-2l6,2L1993,2227z M2451,2861l12-16h10l2,10l-8,8l-10,4l-6-2V2861z M2457,2885l16-8l8,2v10l-10,6
		h-16l-2-2L2457,2885z M1631,2293v4h-6v-4H1631z M1613.364,2305.545L1609,2307l-2-6l8-2L1613.364,2305.545z M1593,2317h-8v-6l6-4
		l4,2L1593,2317z M1579,2337l1.6-1.6l6.4,1.6l-2,10l-7.5-1.5l-6.5-6.5L1579,2337z M1609,2391l8-2l-8,8V2391z M1693,2415l8-2v8h-8
		V2415z M2074.333,2680.333l-1.123,1.404l-0.344,0.197l-0.587-0.293L2074.333,2680.333z M2305,2975l8-2v6l-8,6h-4L2305,2975z
		 M2639,2791l-12,12l-12,6v8l-4,2h-4l-4-14l12-10.286V2797l12-8v-6l18-2l8-6l10-4l10-10l10-2v6l-6,4l-16,10L2639,2791z M2745,2719h8
		v6h-8V2719z M2179,789v10h-6l-6-6l-2-10l14-6l4,2L2179,789z M1973,951l-4-10h6l2,10H1973z M1743,1169v-4l6-4l8,2l-10,6H1743z
		 M1541,2359v4l-6-2L1541,2359z M1540,2349h-6l-5-2v-6l14,2L1540,2349z M1565,1463l-7,4.2l-9,1.8l1-2l9-6l5.333,1.333L1565,1463z
		 M1521,2355h-4l2-4L1521,2355z M1521,2383h12l8,4l2,8l-12,4h-4l-4-10h-6L1521,2383z M1565,2365h6v4h-6V2365z M1943,2507l4-4h10l2,2
		l2,10l-8,8l-10-4V2507z M2555,2847l-10-2l-0.857,2.571L2527,2859l-18,10l-10,8l-6-2l4-10l20-12l20-16l28-16l10-8l8-1.333l4,1.333v6
		l-6,6l-10,4l-10,8v12L2555,2847z M2769,2681l14-2l4,8l-8,8h-8l-4-4l-2-8L2769,2681z M2833,2611l4-2l10-2v4l-8,6h-6V2611z M2381,741
		l-2-4h4L2381,741z M2377,727l-8,2l-8-6v4l-2,10h-6l-2-4l2-10l16-8l10,2L2377,727z M2359,751l-4,8h-2l-2-6L2359,751z M2335,753
		l-10,8l2,14l-14.316,8.947L2313,783l-20,2l-8,6l-2,4l-7.143,1.429L2273,795l-6-12l-8-2l-2,18l-1.2,6l-3.877,6.462l-3.59,2.872
		L2239,819v-4l-2-12l-8-2l-4,10l2,16l-20,2l-4,4l-8,4l-4-8l-6-8l-2-8l28-14l32-14l16-6l1-3l3-3h2l6-6l-0.085-0.043L2313,745l14-8
		l12-4l2,8L2335,753z M2223,777h-6l2-8h12L2223,777z M2225,765l-2,2h-4l-4-6l2-8l8,2V765z M2207,771h-6v-8h8L2207,771z M2199,783
		l-2,2l-12-8l2-8h10l2,2V783z M2079,841h-6l8-8h6L2079,841z M2059,845l4-2l5-1l-7,7h-2V845z M2103,829l-6,4h-4l4-6l6-1.2V829z
		 M1991,941l-8-8l-14-6l-2,10l-6-2l-4-18l18-10l14-2l2,12l6,24H1991z M1937,929h8l2,8h-8L1937,929z M1615,1121l4-2v6h-4V1121z
		 M1419,2479l2-3l6-3l-2,4L1419,2479z M1439,2469l9.333-9.333L1455,2455l10-2v2.133L1439,2469z M1471,2447l22-12l1.882-5.647
		L1497,2429v-6h4l-1.778-0.444L1507,2421l6-6l12-2l4-10h6l2,6l20-10l8,2h10l2,2v6l-4,2l-10-2l-1.2,0.4l-2.8-0.4l-0.5,1.5l-1.5,0.5
		l-18,4l-26,12l-0.286,1.143L1511,2429l-1,7l-5,5l-36,12L1471,2447z M1973,3297l37.966-20.881L2025,3273v8l-6,6l-8,4l-40,10
		L1973,3297z M2033,3297h-8l-2-6h10V3297z M2271,3103l18-6h14l2,10l-14,6h-6l-16-4L2271,3103z M2853,2595l14-8l10-2l-2,4l-10,10
		l-10,6l-4-2L2853,2595z M3037,1965l-2-4h4L3037,1965z M3045,1807l2-2h8l2,8l-6,6l-6-2V1807z M3175,891l-6,6h-6l-2-8l4-6h8L3175,891
		z M3129,645l-8,2l2-8l14-6l14,24l-2,6v14l-4,2h-4l-2-6l-4-18l2-16L3129,645z M2793,1893h6l12-10l16-6l3-3l11-3l2,6l-10,6l-8,14
		l-22,20l-16,4l-10,12h-8l-4-8l4-16l8-12L2793,1893z M2589,701l-17.6,8.8l-2.4-0.8l-12,10l-6.737-1.684L2549,711l14-8l8-8l18-2V701z
		 M2535,727v6l-6,4h-4l4-10H2535z M2371,697l-10,10l-18,10l-32,16l-14,6l-20,10l-14,8h-6l-2-16l6-6l10-2l-6,12h6l6-2l6-6v-2l2-4
		l-2-1.333V729h-1l-3-2l6-6l10-4l-2,12h8l4-4l10-6l1-1l3-1v-2l2-2l-8-2l-12,6l2-6l20-14l16-8l11.667-13.333L2351,677l2-4l8-4l6,2
		l0.667-1.333L2371,673V697z M2329,689h-10l-2-2l4-8h10L2329,689z M2313,693l-12,8h-4v-8l4-4h12V693z M2289,709l-4,4h-4l-2-8l10-2
		V709z M1919,937l8-2l2,6l-4,2l-6-2V937z M1861,979l-6-8l2-6l8,2l2,12H1861z M1813,997v-4l8-2l2,8L1813,997z M1803,1001h6v8h-2
		L1803,1001z M1797,1017l-2,8l-10,8h-12l-2-2l2-6l8-4v-4l6-6l10-4V1017z M1611,1215l4-4h20l11.455-6.364L1653,1203l44-20h12v6l-10,4
		l-36,16l-42,18v2l-10-2V1215z M1087,2175l8-2l-2,8h-6V2175z M2757,2835l-4,14l-14,8l-1.097,3.29l-2.834,1.744L2733,2861l-12,8
		l-40,24l-18,8l6-12l12-10l30-18l20-14l24-10l0.778-1.556L2757,2835l2-6l10,1.429V2833L2757,2835z M3159,743h-4l-10-18l-2-1.333
		l2-0.667l-6-2v-4l10-12l10-2l4,6l2,26L3159,743z M3159,661v-8l6,6v20h-6V661z M2801,621l4-2v6h-4V621z M2521,661h4v-4l12-2v10
		l-10,6h-6V661z M2437.571,705.857L2438.6,711h-9.6l2-6h6L2437.571,705.857z M2037.857,796.429L2039,793l34-18l22-8v14l8,6v6l-30,14
		v2l-1.333,0.667L2073,807l-20,8l-10-12l-4-2L2037.857,796.429z M1183,1555v6h-6v-4L1183,1555z M1155,1509v-6l2,6H1155z
		 M1116.13,1602.739L1115,1605l-10,6l-12-2l2-8h2L1116.13,1602.739z M1045,1635l4,10l8,8h-14l-10-2l-6,4l0.5,0.063L1017,1659l-12-2
		l2-10l8-14h14l4,2H1045z M1015,1683l18-6l16-2v6l-16,8l-10,4l-4,14h-4l-1.364-0.909L1015,1705l-10-6l-1.2-4.8l1.2-7.2L1015,1683z
		 M811,1945l24-12h18v6l-4,4l-24,14h-8l-2-8h-4V1945z M833,2059l10-2v6l-8,6l-4-2L833,2059z M897,1745h-4l-2-8l8-6l2,10L897,1745z
		 M799,1957h10l-2,6h-8V1957z M1119,2269l-2,10h-4l-2-10H1119z M1137,2339l8,2v8l-10-2l-2-6L1137,2339z M960.814,3020.582L959,3023
		l12-2v2l-3,3l-3,1l-6,14l-8,6v2h-12l-2-8l4-4l2-10l2-8L960.814,3020.582z M939,3011l-6-2v-4h6V3011z M871,3063l14-12l-2-16l12-6
		l16-2l2,2l2,10h6l-2,14l4,8l-2,8l-6.667,3.333L915,3071l-24,10v1.6l-3.273,1.309L885,3083l-20,8l-18,8v0.889l-5,1.111h-9l-20,16
		l-16,10v2h-14l-2-2v-14l2-4h16l4-6l26-18l2-12l8-10l8-2l2,8l16,2L871,3063z M697,3161l2-2h8l2,8l-8,10h-4V3161z M735,3145h6l-2,4
		h-4V3145z M737,3133l2-4l2,4H737z M809,3285v4l-8-2L809,3285z M857,3597l-6,6l-4-2L857,3597z M631,3155l-2,6h-8v-4L631,3155z
		 M637,3173l4-10l8,2l2,10l-4,4h-4L637,3173z M643,3191h8l-4,6h-4V3191z M815,3621l-2,4l-4-2L815,3621z M959,2963h-10l-2-10l4-6
		l12,2l2,10L959,2963z M589,3209h-4v-4l8-4v4h-4V3209z M581,3197l-4,6v-2l-4,8l14,2l2,6l0.667,1.333L591,3225l-10,6l-10,12h-8v-2
		l2-10l6-8v-16l-2-2l-10,2l-14,6l-24,6l-2,10l6,2l6,10l1.2-1.2l0.8,1.2l0.286-2.286L535,3237v-12h4l8,12l-10,4h-4l-8,10l-10-2l2-8
		l-2-6l-6,2v-17l2-7l16-6l20-8l16-10l32-16h14v6L581,3197z M583,3361l2,6h-4L583,3361z M528.818,3727.909L527,3727l-10,6v-4l-8-8
		l10-2l-2.823-0.706L531,3715l8,4L528.818,3727.909z M1413,3623l16-2v4l-6,2l-12,8l-22,12l-18,6l-18,8h-8v-8l4-4l18-6l28-12
		L1413,3623z M1371,3603v-4l6-2v6H1371z M1261,3655l-2,4l-4-2L1261,3655z M1517,3627l-14,6l-26,10l-22,10l-14,6l-26.4,13.2l0.4-1.2
		l-10,4v1.143l-3,0.857h-7l-4,4l-14,6l-15,6l-11,4l-4,2l-10,4l-14,6l-12,4l-0.375,1.5L1305,3717h-14l-2-4l56-24l30-12l24-10l12-4
		l16-8l16-6l18-6l38-16l18-4V3627z M2327,3265l-26,8l-2-4l12-6l8-6l10-4l2,4L2327,3265z M2693,3029l-6,6h-4l2-4L2693,3029z
		 M2683,3037l-12,10h-6v-6l10-6L2683,3037z M2705,3019l6-6h8l2,10l-4,6l-10-2L2705,3019z M2761,2983h-4v-4l6-2L2761,2983z
		 M2739,3001h-8v-4h8V3001z M2489,3155h-6v-8h8L2489,3155z M2593,3099h-6v-6l10-2L2593,3099z M2427,3229l-16,10l-24,10h-10v-8l14-12
		l10-4v-6h-12l-2-2l-2-8l10-6l8-6l28-14l12-2l-4,10l-16,14l-8,8l10,2l6,6L2427,3229z M2459,3225h-4v-4h6L2459,3225z M2539,3161
		l-38,14h-8v-6l14-14l12-8l-8-2v-6l10-6l11.623-9.51L2533,3125l4-4l6-6l14-2v6l-6,4l-16,14l-10,8l20,4l2,6L2539,3161z M2629,3109
		h-16l-6-16l2-10l20-18l12-2l2,4l-10,10l-2,12l6,12L2629,3109z M2711,3057h-6v-6l4-4h6L2711,3057z M2805,2957v-12h4l2,12H2805z
		 M2833,2979l-8,8h-6v-6l4-4l10-4V2979z M3119,2711l12-4l20-20l26-20l10,2l-2,12l-16,12l-24,20l-28,22h-6l-2-10L3119,2711z
		 M3025,2791l26-20l22-18l20-18h6l2,10l-4,6l-14,8l-10,10l-10,6l-14,18l-14,10h-8l-4-4L3025,2791z M2905,2879l14-14l18-10l20-18
		l28-20l20-12l10-2l2,10l-4,10l-8,2l-8-4l-4,10l-6,4l-8,10l-22,8l-2,18l-2,2l-8-4l-8-2l-12,6l-10,20h-6l-4-4V2879z M2843,2921l28-22
		l10-2v6l-12,14l-40,28h-4v-10L2843,2921z M3331,2313h-8l4-10l10-2v4L3331,2313z M3213,2389l4-2l2,8h-6V2389z M3181,2405l8,6v10
		l-2,2l-10-2v-14L3181,2405z M3167,2523l-10-2l2-8l12-2l2,6L3167,2523z M3303,2419l-2,4h-6v-14l2-10h4l2,4V2419z M3351,2377l-12,8
		h-6l-4-4v-10l2-2l22,2L3351,2377z M3381,2323l12,2v8l-8,6l-14,18l-10,10h-4l2-26l10-10L3381,2323z M3481,2115l-22,18l-10,12l-24,24
		l-8,2l-4,10h-14l2-8l14-12l12-6l7-9l5-5l2-4l2-4l6-12l20-8l10-12l8-4l2,8L3481,2115z M3531,2039l10-2l2,4l2,8l-18,12l-6-2l-2-8
		L3531,2039z M3351,2225l6-8l8-4v-4l12-12l4-10h16v8l-10,10l-26,24h-10V2225z M3319,2287l12-10l8-10l14-16l10-2l4,4v12l-14,20
		l-10,10l-4-2h-10l-10,4h-4L3319,2287z M3293,2317l8-2l4,4l2,14l-2,2h-10l-4-6l-2-8L3293,2317z M3289,2245v10l-4,2h-2l-2-10
		L3289,2245z M3233,2295l8-2l2,6l-8,6l-6-2L3233,2295z M3443,1943l-4,10h-6l2-6L3443,1943z M3428.25,2052l0.75-1l8-5.333V2051l-8,6
		h-2L3428.25,2052z M3469,1919l-20,18h-4v-6l2-2l22-18l6-2.667V1913L3469,1919z M3045,1971l6,2l-6,6h-2L3045,1971z M3417,1653h-4v-6
		l8-2L3417,1653z M3585,1427l16-8l6,2l-16,12h-8L3585,1427z M3667,1321l-2,4l-4-2L3667,1321z M3519,929l-8-2l8-2V929z M3249,873v8
		l-4,6h-4v-10L3249,873z M3197,717l2-0.4v0.4h12l6-4v6l-6,6h-14l-2-2L3197,717z M3215,577l-8-2l2-14h10l4,8L3215,577z M2925,537v8
		h-4l-2-6L2925,537z M2861,575l-5.333,4.267L2847,581l6-10l-0.154-0.462L2859,569L2861,575z M2629,701v4l-4,2l-6-2L2629,701z
		 M2937,445l4,2l-12,8l-4-2L2937,445z M2507,677l-2-4l6-2L2507,677z M1941,901l20-8l4-4l12-2l-2,4l-8,4v1l-18,9h-8V901z M1871,935
		l10-4l2,6l-8,4h-4V935z M1857,943l8-2v6h-8V943z M1843,947l6,2l-4,8h-4L1843,947z M1813,965l-8,2h-8l-2-2l2-10h10L1813,965z
		 M1769,985v-4h4v4H1769l-2,4l-2-4H1769z M1741,993l8-4l2,6l-10,6h-4L1741,993z M1721,1001h4v6l-4,4h-4L1721,1001z M1691,1017l14-4
		v4l-12,8l-8-2L1691,1017z M1675,1023l2-6h4l2,6l-8,10h-6l-2-6L1675,1023z M1403,1301l-2-14l8-6l16,2l6-8l5.143-2H1441l22-8l50-22
		l24-6v22h8l4-4v-24l22-12l18-4l6,4l-2,8l2,12h-12l-4,8l-16,8l-14,6l-24.5,14h-9.5v-8l-6-10h-2h-4h-2l-6,12l2,8l2,10l-4,2v1.6
		l-1.143,0.686L1495,1289l-14,8l-32,16v1.6l-6,2.4h-20l-4-2L1403,1301z M1195,1463l16-2l2,8l-4,8h-14.667l-3.333-10L1195,1463z
		 M1184.2,1478.2l2.8,2.8v4h-10v6l5.455,2.727L1177,1501h-8l-12-4l-2-8l10,2l4-2l8-12L1184.2,1478.2z M989,1615l-4,6l-6,2h-10l-2-4
		l-2-32h4l14,12l10-2l1.714-2.571L995,1595l8-10l-2-10l-8-10l-8,2v2.286l-6,1.714l-14,2l-2-10l-2-12l-12-4v-6l6-2l18-4l42-10l70-20
		h14l2,2l4,10l10,8l2,8l-4,2l-14,18l-22,14l-16,2l-12-24h-10l-14,4l-6,10v24l4,4l12,6v6l-20,10L989,1615z M919,1723l6-12h12l22-8
		l18-4l12-6l12,2v14l-6,6l1.333,0.667L995,1717l-20,4l-6,8l-34,10h-14l-2-2V1723z M713,1801v8h-4l-2-6L713,1801z M719,1833l-22,6
		l-48,12l-16-2l2-8l66-20l42-12l14-6h18l-10,10l-20,10L719,1833z M797,1947v10l-6,12h-10v4l-10,12l-18,6h-14l-8,10h-6l-14-8
		l1.333-6.667L713,1985l12-2l1.714-1.714L729,1981v-2l2-2l14-6l4-10l4-4l12-6l7.2-7.2l4.8,1.2v20h6l4-20L797,1947z M655,2143v6l-4,2
		l-2-6L655,2143z M661,2303l2,2l-4,8h-10l-2-4l4-6H661z M535,2345l-2,4l-6,2v-4L535,2345z M781,2081l-8,8l-6-4l4-8h10V2081z
		 M949,2291h-10l-2-8l6-4l8,2L949,2291z M1131,2339l-8,14h-4l-4-6l10-4v-4H1131z M495,2692v1l2-4l10,4l0.667,1.333L509,2701l-10,6
		h-8l-2-6L495,2692z"/>
	<polygon style="fill:#191919;" points="1445,1051 1435,1057 1391,1067 1385.323,1069.064 1385,1069 1362.6,1077.4 1361,1077 
		1353,1081 1352.333,1081.667 1349,1083 1342.412,1091.235 1334.25,1094.5 1323,1097 1313,1103 1293,1111 1287,1119 1277,1121 
		1273,1117 1263,1119 1249,1137 1251,1141 1263,1141 1269,1137 1289,1131 1325,1115 1325.143,1114.571 1333,1111 1343,1101 
		1363,1097 1377,1088.25 1385.667,1085 1399,1081 1447,1065 1473,1053 1505,1037 1527,1027 1583,1003 1588.561,1000.073 1591,999 
		1591.769,998.385 1602.487,992.744 1603,993 1621,983 1649,973 1663,965 1697,955 1701,951 1733,937 1745,935 1751,929 1759,925 
		1767,917 1781,919 1785,917 1781,903 1773,901 1765,909 1749,913 1733,921 1721,915 1715,921 1709,931 1693,939 1679,941 1667,947 
		1657,945 1647,947 1643,953 1641,963 1613,969 1611,973 1591,983 1587,985 1563,995 1552.333,999.667 1539,1005 1538.805,1005.585 
		1531,1009 1513,1015 1503,1025 1491,1029 1475,1037 1475,1029 1469,1029 1463,1041 1459,1043 1457,1031 1449,1027 1443,1033 
		1445,1039 1453,1044.333 1453,1047 	"/>
	<polygon style="fill:#191919;" points="3643,2163 3643,2173 3653,2173 3657,2169 3671,2151 3685,2139 3691,2129 3685,2127 
		3677,2133 3665,2133 3667,2119 3661,2117 3639,2135 3613,2159 3581,2191 3567,2207 3545,2229 3529,2243 3471,2301 3451,2317 
		3431,2337 3411,2353 3387,2377 3389,2385 3389,2397 3397,2397 3405,2389 3415,2379 3435,2365 3441,2353 3463,2329 3479,2315 
		3499,2299 3513,2283 3517,2273 3521,2273 3521,2269 3527,2267 3539,2259 3549,2249 3553,2241 3557,2241 3573,2227 3583,2217 
		3597,2201 3613,2189 3617,2195 3627,2197 3631,2193 3633,2183 3623,2181 3633,2169 	"/>
	<polygon style="fill:#191919;" points="1857,3529 1825,3547 1797,3561 1729,3593 1707,3603 1685,3609 1659,3621 1649,3629 
		1627,3643 1613,3643 1605,3639 1595,3637 1595,3647 1593,3655 1581,3661 1567.2,3668.2 1557,3673 1555.909,3674.091 1535,3685 
		1515,3693 1487,3705 1435,3727 1397,3741 1377,3745 1367,3749 1343,3759 1341,3769 1337,3769 1313,3777 1297,3781 1267,3791 
		1225,3819 1189,3829 1169,3837 1131,3857 1137,3859 1177,3845 1205,3831 1225,3827 1227,3825 1259,3821 1269,3811 1295,3797 
		1319,3793 1317,3801 1311,3809 1321,3809 1335,3803 1391,3781 1421,3767 1459,3753 1469,3745 1461,3743 1417,3761 1393,3771 
		1385,3773 1375,3779 1351,3785 1345,3791 1327,3793 1325,3789 1329,3789 1357,3775 1393,3763 1453,3739 1485,3723 1519,3707 
		1559,3691 1591,3677 1619,3663 1639,3659 1661,3661 1685,3653 1689.182,3648.818 1691,3649 1693,3645 1675,3645 1679.981,3638.773 
		1705,3633 1707,3629 1705,3619 1721,3613 1747,3605 1761,3599 1793,3585 1809,3577 1829,3569 1827,3583 1831,3583 1842.2,3576.6 
		1843,3577 1845,3575 1843,3563 1849,3555 1859,3545 1873,3539 1877,3529 1875,3521 	"/>
	<polygon style="fill:#191919;" points="3781,2127 3783,2121 3785,2111 3773,2111 3757,2123 3741,2143 3719,2169 3709,2173 
		3705,2177 3705,2195 3703,2199 3695,2203 3691,2215 3687,2221 3671,2227 3669,2241 3659,2253 3645,2257 3649,2267 3659,2267 
		3669,2261 3709,2221 3713,2213 3717,2213 3721,2205 3725,2205 3743,2183 3781,2145 3797,2131 3799,2125 3791,2123 	"/>
	<polygon style="fill:#191919;" points="3285,2477 3289,2477 3297,2471 3309,2467 3319,2451 3333,2437 3349,2439 3355,2431 
		3381,2411 3387,2397 3383,2385 3375,2385 3371,2389 3353,2403 3327,2427 3311,2441 3305,2451 3305,2453 3301,2461 3289,2461 
		3265,2479 3239,2499 3217,2517 3197,2533 3181,2545 3181,2555 3185,2555 3197,2545 3213,2545 3217,2539 3221,2527 3239,2521 
		3249,2511 3263,2499 3281,2485 	"/>
	<polygon style="fill:#191919;" points="727,2531 721,2539 701,2551 689,2555 685,2559 667,2571 647,2585 625,2597 621,2603 
		629,2605 631,2603 643,2599 641.5,2598.5 645,2597 657,2591 665,2585 675,2581 675,2589 681,2589 687,2585 689,2577 705,2575 
		723,2561 722.692,2560.846 725,2559 745,2549 760.429,2538.714 761,2539 763,2537 779,2525 781,2517 777,2511 763,2513 
		761.286,2514.143 757,2515 745,2525 	"/>
	<polygon style="fill:#191919;" points="1797,899 1807,903 1809,901 1825,895 1861,875 1892.765,860.882 1893,861 1897,859 
		1923,851 1929,845 1923,833 1909,809 1897,789 1889,785 1893,797 1909,829 1911,839 1895,841 1887,845 1886.765,845.706 1881,849 
		1867,853 1859,859 1841,865 1821,881 1795,879 1791,883 1793,895 	"/>
	<polygon style="fill:#191919;" points="1045,1241 1063,1229 1099,1215 1123,1205 1159,1191 1187,1177 1215,1165 1239,1155 
		1241,1147 1231,1147 1215,1153 1189,1161 1177,1171 1157,1181 1099,1201 1087,1207 1073,1207 1069,1209 1049,1227 1031,1229 
		1019,1239 1015,1253 1021,1253 	"/>
	<polygon style="fill:#191919;" points="1075,1317 1079,1311 1075,1303 1061,1301 1063,1295 1071,1287 1073,1279 1061,1271 
		1041,1267 1031,1273 1031,1291 1033,1303 1029,1305 1027,1313 1035,1315 1041,1307 1049,1305 1049,1317 	"/>
	<polygon style="fill:#191919;" points="1177,3757 1199,3747 1213,3741 1217,3733 1211,3733 1197,3739 1177,3739 1175,3729 
		1167,3729 1155,3735 1147,3745 1137,3757 1123,3759 1121,3761 1123,3769 1143,3769 	"/>
	<polygon style="fill:#191919;" points="659,1529 669,1533 681,1529 685,1521 689,1521 691,1517 689,1503 681,1493 667,1491 
		659,1495 649,1505 651,1515 	"/>
	<polygon style="fill:#191919;" points="1143,985 1145,993 1137,1003 1137,1013 1145,1027 1157,1035 1173,1037 1179,1033 1193,1017 
		1205,1013 1209,1005 1177,985 1111,963 1097,963 1097,967 1109,973 	"/>
	<polygon style="fill:#191919;" points="1311,1061 1315,1061 1317,1059 1321,1045 1337,1049 1345,1047 1345,1041 1339,1037 
		1305,1031 1265,1017 1231,1007 1217,1007 1221,1015 1259,1027 1297,1037 1315,1043 1313,1051 	"/>
	<polygon style="fill:#191919;" points="931,1387 973,1403 993,1403 1011,1389 1019,1377 1031,1377 1037,1373 1049,1365 1057,1355 
		1067,1349 1075,1343 1093,1339 1095,1333 1113,1325 1123,1315 1111,1315 1108.273,1316.636 1105,1317 1101,1321 1092.25,1324.5 
		1081,1327 1079,1333 1075,1333 1045,1349 1031,1363 1019,1367 1002,1384 995,1389 975,1389 953,1381 913,1367 899,1365 903,1373 	
		"/>
	<polygon style="fill:#191919;" points="2519,625 2525,625 2535,617 2545,613 2571,595 2576.091,590.545 2577,591 2587,581 
		2585,571 2577,573 2567,577 2551,585 2541,593 2525,601 2521,609 2529,611 2523,617 	"/>
	<polygon style="fill:#191919;" points="1171,963 1179,971 1199,983 1221,983 1225,985 1263,1001 1277,1001 1277,997 1267,991 
		1233,979 1189,963 1173,961 	"/>
	<polygon style="fill:#191919;" points="453,2087 465,2083 469,2077 481,2067 483,2055 475,2053 463,2065 441,2067 433,2073 
		431,2079 443,2081 439,2085 435,2093 445,2093 	"/>
	<polygon style="fill:#191919;" points="3091,2625 3085,2635 3095,2637 3123,2621 3137,2607 3139,2597 3133,2597 3119,2605 	"/>
	<polygon style="fill:#191919;" points="3819,2153 3809,2161 3803,2171 3803,2189 3811,2191 3817,2185 3821,2177 3825,2177 
		3825,2173 3831,2171 3833,2159 3829,2155 	"/>
	<polygon style="fill:#191919;" points="1017,1319 1019,1311 999,1311 991,1307 981,1309 977,1315 975,1329 1003,1329 	"/>
	<polygon style="fill:#191919;" points="847,1563 887,1557 895,1553 893,1545 873,1545 847,1551 831,1557 833,1563 	"/>
	<polygon style="fill:#191919;" points="299,1937 329,1937 333,1933 343,1913 345,1903 341,1887 321,1873 301,1875 293,1879 
		281,1899 281,1917 285,1925 	"/>
	<polygon style="fill:#191919;" points="1173,3615 1171,3623 1175,3627 1189,3629 1193,3627 1201,3623 1205,3621 1205,3617 
		1209,3619 1217,3619 1221,3617 1225,3609 1211,3609 1209,3611 1175,3613 	"/>
	<polygon style="fill:#191919;" points="1109,1143 1097,1149 1091,1163 1093,1173 1103,1185 1117,1187 1125,1183 1135,1173 
		1133,1155 1125,1145 	"/>
	<polygon style="fill:#191919;" points="1225,921 1247,921 1259,903 1257,889 1253,871 1225,871 1209,885 1209,899 1215,911 	"/>
	<polygon style="fill:#191919;" points="1517,1011 1525,1005 1527,993 1521,985 1507,983 1503,987 1501,997 1509,1007 	"/>
	<polygon style="fill:#191919;" points="1291,965 1289,947 1297,943 1299,933 1295,929 1285,929 1277,939 1275,953 1283,961 	"/>
	<polygon style="fill:#191919;" points="1043,1407 1031,1409 1023,1419 1011,1433 1007,1441 1015,1441 1033,1429 1041,1417 	"/>
	<polygon style="fill:#191919;" points="2575.4,452.2 2593,441 2635,421 2635,413 2619,413 2605,419 2599,423 2575,439 2557,453 
		2557,463 2561,463 	"/>
	<polygon style="fill:#191919;" points="1659,933 1671,935 1687,929 1687,923 1679,905 1673,899 1659,897 1647,907 1645,917 
		1649,925 	"/>
	<polygon style="fill:#191919;" points="1353,909 1359,911 1359,921 1357,923 1355,931 1359,937 1369,945 1369,941 1361,929 
		1365,923 1365,913 1359,903 1341,907 1345,893 1353,891 1357,899 1367,899 1371,893 1359,893 1357,887 1347,885 1341,889 
		1340.846,889.615 1339,891 1337,905 1343,911 	"/>
	<polygon style="fill:#191919;" points="3727,2057 3717,2065 3716.5,2066 3713,2069 3691,2085 3689,2091 3693,2091 3713,2077 
		3713,2076.714 3718.2,2073 3719,2073 3721,2071 3745,2053 3767,2035 3761,2033 	"/>
	<polygon style="fill:#191919;" points="1295,3565 1297,3569 1301,3569 1303,3567 1303.182,3566.091 1307,3561 1305,3549 1309,3547 
		1323,3549 1323,3553 1347,3553 1351,3545 1339,3535 1329,3535 1327,3523 1325.571,3523 1325,3521 1321,3523 1319,3523 
		1320.2,3523.4 1317,3525 1313,3521 1303,3521 1297,3525 1298.714,3535.286 1293,3541 	"/>
	<polygon style="fill:#191919;" points="3373,851 3389,837 3399,827 3405,817 3397,819 3377,835 3367,845 3357,853 3357,857 
		3353,857 3353,861 3349,861 3349,865 3353,865 	"/>
	<polygon style="fill:#191919;" points="1159,1053 1145,1051 1145,1057 1151,1061 1173,1065 1193,1071 1207,1073 1205,1065 	"/>
	<polygon style="fill:#191919;" points="3387,423 3387,435 3393,435 3403,423 3419,403 3423,393 3417,393 3403,409 	"/>
	<polygon style="fill:#191919;" points="1529,961 1531,951 1523,941 1513,941 1507,947 1507,959 1517,963 	"/>
	<polygon style="fill:#191919;" points="1153,961 1167,963 1165,957 1137,943 1119,939 1123,947 	"/>
	<polygon style="fill:#191919;" points="907,2361 901,2365 901,2375 909,2375 915,2373 931,2361 925,2355 907,2353 	"/>
	<polygon style="fill:#191919;" points="397,2155 387,2153 371,2173 369,2181 377,2181 381,2179 397,2163 	"/>
	<polygon style="fill:#191919;" points="1627,929 1629,927 1631,911 1623,903 1611,903 1609,909 1619,925 	"/>
	<polygon style="fill:#191919;" points="1363,1049 1381,1055 1399,1055 1403,1053 1403,1047 1379,1043 1365,1041 	"/>
	<polygon style="fill:#191919;" points="1115,1341 1103,1341 1091,1349 1089,1357 1099,1359 1105,1357 1109,1351 1119,1349 
		1123,1345 1127,1337 1119,1337 	"/>
	<polygon style="fill:#191919;" points="383,1977 399,1973 401,1965 387,1965 379,1967 367,1975 365,1985 371,1985 	"/>
	<polygon style="fill:#191919;" points="1213,1285 1229,1277 1229,1271 1219,1275 1209,1271 1195,1281 1195,1289 1203,1291 	"/>
	<polygon style="fill:#191919;" points="1547,863 1555,865 1555,845 1549,839 1537,839 1537,849 1539,851 	"/>
	<polygon style="fill:#191919;" points="757,1573 763,1567 761,1559 753,1553 741,1553 739,1563 743,1567 	"/>
	<polygon style="fill:#191919;" points="3659,1503 3669,1499 3685,1481 3703,1477 3711,1461 3729,1457 3737,1453 3737.333,1452 
		3739,1451 3743,1437 3761,1435 3775,1425 3789,1413 3791,1403 3783,1393 3769,1393 3753,1413 3737,1425 3723,1437 3709,1445 
		3693,1459 3673,1473 3663,1483 3653,1491 3627,1505 3627,1511 3639,1511 3649,1507 	"/>
	<polygon style="fill:#191919;" points="3367,789 3369,779 3361,779 3355,783 3343,797 3339,807 3345,807 3349,801 	"/>
	<polygon style="fill:#191919;" points="331,2061 353,2061 363,2057 365,2049 337,2049 	"/>
	<polygon style="fill:#191919;" points="999,1265 1005,1257 1003,1249 995,1247 985,1255 981,1263 993,1267 	"/>
	<polygon style="fill:#191919;" points="1263,1097 1265,1091 1273,1089 1267,1083 1245,1083 1245,1091 1251,1097 	"/>
	<polygon style="fill:#191919;" points="3439,2433 3433,2435 3429,2443 3439,2445 3441,2435 3445,2435 3457,2425 3459,2415 
		3455,2415 3443,2425 	"/>
	<polygon style="fill:#191919;" points="1115,1051 1115,1043 1095,1037 1077,1035 1077,1039 1095,1047 	"/>
	<polygon style="fill:#191919;" points="1313,1017 1325,1021 1345,1021 1345,1017 1329,1011 1311,1007 	"/>
	<polygon style="fill:#191919;" points="383,3853 393,3849 393,3843 375,3843 369,3849 353,3849 351,3855 357,3857 	"/>
	<polygon style="fill:#191919;" points="2063,563 2071,565 2071,555 2067,547 2057,549 2057,545 2049,535 2049,545 2055,555 	"/>
	<polygon style="fill:#191919;" points="3461,403 3437,431 3433,441 3437,441 3455,421 3467,405 	"/>
	<polygon style="fill:#191919;" points="1791,3591 1787,3601 1795,3601 1807,3595 1817,3585 1799,3585 	"/>
	<polygon style="fill:#191919;" points="2367,585 2379,575 2397,565 2397,561 2391,559 2379,567 2357,583 2361,587 	"/>
	<polygon style="fill:#191919;" points="415,2089 417,2081 411,2081 399,2091 399,2101 399,2105 383,2103 371,2109 361,2121 
		351,2125 347,2133 333,2131 333,2135 341,2137 357,2133 359,2129 369,2125 379,2117 393,2111 401,2107 409,2103 	"/>
	<polygon style="fill:#191919;" points="3455,2175 3463,2177 3477,2169 3479,2161 3467,2161 3457,2165 	"/>
	<polygon style="fill:#191919;" points="3481,2391 3477,2399 3481,2399 3481,2395 3489,2391 3505,2381 3507,2373 3497,2371 	"/>
	<polygon style="fill:#191919;" points="3489,1927 3493,1927 3497,1925 3507,1913 3521,1897 3517,1893 3493,1917 	"/>
	<polygon style="fill:#191919;" points="1493,3729 1493,3735 1501,3735 1527,3723 1533,3717 1521,3717 	"/>
	<polygon style="fill:#191919;" points="809,1411 813,1409 813,1403 803,1391 795,1389 795,1401 801,1409 	"/>
	<polygon style="fill:#191919;" points="3179,2589 3179,2565 3175,2563 3159,2575 3157,2581 3163,2581 3173,2577 3173,2589 	"/>
	<polygon style="fill:#191919;" points="3335,831 3341,831 3349,827 3367,813 3371,805 3365,807 3337,825 	"/>
	<polygon style="fill:#191919;" points="1255,1231 1249,1239 1251,1245 1263,1249 1267,1245 1267,1235 1265,1233 	"/>
	<polygon style="fill:#191919;" points="3533,1307 3529,1317 3533,1319 3537,1317 3551,1303 3553,1295 3547,1295 	"/>
	<polygon style="fill:#191919;" points="675,1747 679,1755 689,1755 691,1753 693,1743 687,1737 679,1739 	"/>
	<polygon style="fill:#191919;" points="997,1209 1001,1205 1001,1195 995,1193 985,1195 983,1205 987,1209 	"/>
	<polygon style="fill:#191919;" points="3407,2223 3417,2225 3421,2221 3423,2211 3419,2207 3407,2209 	"/>
	<polygon style="fill:#191919;" points="2777,375 2785,369 2784.925,368.774 2805,353 2819,339 2821,337 2821,335 2823,331 
		2821,332.143 2821,331 2814.6,335.8 2809,339 2807.667,341 2797,349 2797,353 2791,355 2765,375 2747,391 2753,393 	"/>
	<polygon style="fill:#191919;" points="1551,945 1555,949 1565,951 1567,949 1565,937 1559,931 1553,933 	"/>
	<polygon style="fill:#191919;" points="2329,701 2325,709 2335,709 2337,705 2353,697 2357,689 2347,689 	"/>
	<polygon style="fill:#191919;" points="543,2655 553,2655 559,2651 579,2641 579,2635 573,2635 571,2641 563,2641 547,2647 	"/>
	<polygon style="fill:#191919;" points="3277,827 3273,837 3281,839 3291,833 3289,823 3281,821 	"/>
	<polygon style="fill:#191919;" points="3881,1053 3887,1049 3885,1039 3877,1037 3869,1043 3871,1051 	"/>
	<polygon style="fill:#191919;" points="435,1667 439,1665 441,1657 433,1649 425,1653 425,1663 427,1665 	"/>
	<polygon style="fill:#191919;" points="2977,541 2979,551 2987,553 2991,543 2993,535 2989,533 	"/>
	<polygon style="fill:#191919;" points="681,1583 685,1587 695,1589 699,1587 701,1581 693,1575 681,1577 	"/>
	<polygon style="fill:#191919;" points="1045,1499 1051,1495 1049,1487 1035,1485 1033,1489 1035,1497 	"/>
	<polygon style="fill:#191919;" points="3525,535 3529,523 3519,523 3517,525 3513,545 3519,545 	"/>
	<polygon style="fill:#191919;" points="457,2149 455,2161 459,2167 473,2169 473,2165 465,2159 465,2149 	"/>
	<polygon style="fill:#191919;" points="3495,175 3499,167 3495,167 3475,185 3473,193 3479,193 	"/>
	<polygon style="fill:#191919;" points="3613,1529 3611,1539 3617,1541 3627,1535 3631,1527 3615,1527 	"/>
	<polygon style="fill:#191919;" points="3467,579 3477,581 3481,577 3480.79,575.947 3483,573 3497,571 3501,567 3505,549 3497,543 
		3491,547 3485,569 3479,567 3473,565 3465,569 	"/>
	<polygon style="fill:#191919;" points="931,2335 923,2333 919,2337 915,2345 923,2353 927,2349 	"/>
	<polygon style="fill:#191919;" points="417,1959.5 417,1961 425,1963 437,1957 451,1953 477,1943 493,1935 513,1929 543,1917 
		543,1913 533,1913 511.21,1919.053 511,1919 497,1923 493.667,1925 493,1925 487,1929 486.936,1929.194 471,1939 451,1947 
		433.19,1945.381 433,1945 432.385,1945.308 429,1945 417,1955 417,1957 415,1959 	"/>
	<polygon style="fill:#191919;" points="3011,499 3017,501 3039,489 3039,483 3035,483 3019,491 	"/>
	<polygon style="fill:#191919;" points="1227,3581 1219,3581 1215,3585 1211,3593 1221,3595 1229,3589 	"/>
	<polygon style="fill:#191919;" points="1155,1387 1157,1379 1153,1377 1143,1381 1141,1389 1149,1393 	"/>
	<polygon style="fill:#191919;" points="3787,2195 3781,2195 3773,2205 3769,2215 3775,2215 3785,2203 	"/>
	<polygon style="fill:#191919;" points="3645,519 3651,509 3663,509 3663,489 3659,489 3655,495 3635,509 3637,515 	"/>
	<polygon style="fill:#191919;" points="3397,777 3375,799 3379,801 3389,793 3389,789 3393,789 3403,781 3407,773 	"/>
	<polygon style="fill:#191919;" points="1323,1229 1313,1223 1312.733,1223.133 1309,1221 1303,1223 1301.364,1229 1301,1229 
		1297,1245 1305,1247 1319,1239 	"/>
	<polygon style="fill:#191919;" points="675,1465 669,1467 667,1477 673,1477 681,1469 683,1461 677,1459 	"/>
	<polygon style="fill:#191919;" points="237,3455 231,3457 227,3465 241,3467 245,3465 247,3459 	"/>
	<polygon style="fill:#191919;" points="1463,1291 1463,1281 1461,1279 1453,1281 1451,1293 1459,1295 	"/>
	<polygon style="fill:#191919;" points="3557,1815 3571,1805 3573,1795 3567,1795 3557,1809 	"/>
	<polygon style="fill:#191919;" points="433,3669 437,3665 437,3659 429,3661 417,3667 417,3673 427,3673 427,3669 	"/>
	<polygon style="fill:#191919;" points="511,2057 515,2053 513,2045 503,2045 497,2049 503,2055 	"/>
	<polygon style="fill:#191919;" points="253,3447 251,3459 255,3459 265,3453 263,3445 	"/>
	<polygon style="fill:#191919;" points="1521,873 1523,871 1519,861 1509,859 1511,869 	"/>
	<polygon style="fill:#191919;" points="1335,1145 1341,1147 1347,1139 1345,1131 1337,1135 	"/>
	<polygon style="fill:#191919;" points="983,1555 993,1561 997,1549 987,1547 	"/>
	<polygon style="fill:#191919;" points="3665,2183 3667,2189 3677,2191 3679,2187 3677,2181 3669,2177 	"/>
	<polygon style="fill:#191919;" points="533,2201 523,2203 519,2213 525,2215 531,2211 	"/>
	<polygon style="fill:#191919;" points="563,3341 559,3333 545,3337 545,3343 561,3343 	"/>
	<polygon style="fill:#191919;" points="3249,605 3257,605 3259,591 3251,591 	"/>
	<polygon style="fill:#191919;" points="1183,1289 1179,1287 1169,1293 1167,1301 1173,1301 1179,1297 	"/>
	<polygon style="fill:#191919;" points="1305,915 1309,913 1309,905 1299,903 1295,909 1297,913 	"/>
	<polygon style="fill:#191919;" points="803,1417 801,1425 809,1429 811,1427 813,1417 809,1415 	"/>
	<polygon style="fill:#191919;" points="1277,1087 1283,1093 1297,1093 1297,1089 1291,1085 1279,1085 	"/>
	<polygon style="fill:#191919;" points="1313,855 1315,847 1309,843 1305,845 1303,853 1311,857 	"/>
	<polygon style="fill:#191919;" points="1259,1393 1267,1393 1269,1391 1271,1381 1261,1383 	"/>
	<polygon style="fill:#191919;" points="805,2383 803,2375 781,2379 753,2389 755,2395 765,2395 793,2391 	"/>
	<polygon style="fill:#191919;" points="1089,3615 1099,3621 1111,3621 1113,3619 1115,3611 1111,3607 1089,3609 	"/>
	<polygon style="fill:#191919;" points="1441,3701 1435,3695 1429,3699 1427,3707 1439,3707 	"/>
	<polygon style="fill:#191919;" points="677,921 679,915 669,911 657,909 657,913 665,917 	"/>
	<polygon style="fill:#191919;" points="1143,1307 1135,1305 1129,1309 1125,1317 1133,1317 	"/>
	<polygon style="fill:#191919;" points="3585,2395 3581,2403 3585,2405 3589,2403 3599,2391 3593,2389 	"/>
	<polygon style="fill:#191919;" points="583,3341 581,3333 571,3335 571,3343 581,3343 	"/>
	<polygon style="fill:#191919;" points="2659,511 2649,513 2649,521 2659,523 	"/>
	<polygon style="fill:#191919;" points="1073,2319 1075,2309 1067,2309 1063,2317 1071,2321 	"/>
	<polygon style="fill:#191919;" points="1271,3731 1261,3733 1257,3741 1267,3741 1271,3739 	"/>
	<polygon style="fill:#191919;" points="3305,535 3299,535 3293,545 3295,553 3303,543 	"/>
	<polygon style="fill:#191919;" points="1579,891 1581,887 1577,879 1569,881 1571,889 	"/>
	<polygon style="fill:#191919;" points="909,1077 901,1075 899,1085 909,1087 	"/>
	<polygon style="fill:#191919;" points="1273,1151 1277,1153 1289,1153 1285,1145 1275,1145 	"/>
	<polygon style="fill:#191919;" points="381,2045 385,2037 375,2039 367,2047 371,2049 	"/>
	<polygon style="fill:#191919;" points="471,2299 487,2301 493,2297 491,2293 481,2295 471,2293 	"/>
	<polygon style="fill:#191919;" points="549,2519 547,2527 557,2531 559,2523 	"/>
	<polygon style="fill:#191919;" points="1205,3585 1201,3583 1193,3585 1195,3593 1205,3593 	"/>
	<polygon style="fill:#191919;" points="1125,3621 1135,3621 1137,3611 1127,3613 	"/>
	<polygon style="fill:#191919;" points="1049,1203 1047,1195 1039,1197 1037,1205 1047,1205 	"/>
	<polygon style="fill:#191919;" points="1347,1235 1345,1229 1333,1229 1333,1237 1345,1237 	"/>
	<polygon style="fill:#191919;" points="1251,1265 1261,1265 1265,1261 1269,1253 1261,1255 	"/>
	<polygon style="fill:#191919;" points="1227,1379 1229,1367 1221,1371 1217,1379 1225,1381 	"/>
	<polygon style="fill:#191919;" points="817,1637 825,1639 827,1631 823,1627 815,1631 	"/>
	<polygon style="fill:#191919;" points="403,2257 405,2249 395,2251 393,2261 397,2261 	"/>
	<polygon style="fill:#191919;" points="2995,507 2987,507 2985,517 2991,517 2993,515 	"/>
	<polygon style="fill:#191919;" points="1019,2307 1009,2305 1013,2315 1021,2315 1023,2309 	"/>
	<polygon style="fill:#191919;" points="1163,3591 1173,3593 1177,3585 1165,3585 	"/>
	<polygon style="fill:#191919;" points="459,3657 457,3653 449,3651 447,3661 457,3661 	"/>
	<polygon style="fill:#191919;" points="3647,2269 3637,2269 3635,2277 3645,2277 	"/>
	<polygon style="fill:#191919;" points="3409,2457 3405,2465 3409,2465 3417,2457 3421,2449 3415,2449 	"/>
	<polygon style="fill:#191919;" points="2185,3387 2185,3393 2189,3393 2197,3389 2201,3381 2197,3381 	"/>
	<polygon style="fill:#191919;" points="3267,547 3273,549 3277,539 3269,539 	"/>
	<polygon style="fill:#191919;" points="3311,849 3313,843 3303,843 3299,851 3307,851 	"/>
	
		<rect x="1127.877" y="867.877" transform="matrix(0.2425 -0.9701 0.9701 0.2425 11.4854 1758.7102)" style="fill:#191919;" width="8.246" height="8.246"/>
	<polygon style="fill:#191919;" points="491,1835 487,1827 481,1829 481,1837 487,1839 	"/>
	<polygon style="fill:#191919;" points="3637,2021 3639,2019 3641,2009 3635,2009 3631,2015 3633,2021 	"/>
	<polygon style="fill:#191919;" points="1809,729 1809,727 1795,709 1793,713 1801,725 	"/>
	<polygon style="fill:#191919;" points="1175,885 1177,875 1169,875 1167,879 1169,885 	"/>
	<polygon style="fill:#191919;" points="2259,633 2251,633 2249,641 2259,641 	"/>
	<polygon style="fill:#191919;" points="469,2149 477,2149 479,2141 471,2141 	"/>
	<polygon style="fill:#191919;" points="469,3243 475,3245 481,3239 473,3235 	"/>
	<polygon style="fill:#191919;" points="1365,3515 1357,3517 1351,3523 1365,3523 	"/>
	<polygon style="fill:#191919;" points="1257,1053 1265,1053 1267,1047 1257,1045 	"/>
	<polygon style="fill:#191919;" points="769,1385 763,1381 759,1389 769,1391 	"/>
	<polygon style="fill:#191919;" points="877,839 871,839 869,847 875,849 	"/>
	<polygon style="fill:#191919;" points="1135,1393 1137,1385 1131,1385 1127,1393 1133,1395 	"/>
	<polygon style="fill:#191919;" points="937,2403 935,2413 941,2413 943,2405 	"/>
	<polygon style="fill:#191919;" points="599,2613 593,2621 603,2621 605,2613 	"/>
	<polygon style="fill:#191919;" points="487,3263 489,3261 491,3253 481,3255 481,3259 	"/>
	<polygon style="fill:#191919;" points="1145,3585 1143,3591 1153,3593 1153,3587 	"/>
	<polygon style="fill:#191919;" points="321,3847 315,3845 311,3853 317,3855 	"/>
	<polygon style="fill:#191919;" points="2493,641 2499,641 2505,631 2493,635 	"/>
	<polygon style="fill:#191919;" points="1827,651 1833,653 1829,641 1823,641 	"/>
	<polygon style="fill:#191919;" points="1911,727 1909,717 1903,715 1905,725 	"/>
	<polygon style="fill:#191919;" points="3315,861 3307,859 3303,865 3311,867 	"/>
	<polygon style="fill:#191919;" points="1257,1367 1265,1367 1265,1359 1257,1361 	"/>
	<polygon style="fill:#191919;" points="907,2425 911,2417 905,2415 901,2423 	"/>
	<polygon style="fill:#191919;" points="2897,2825 2901,2823 2901,2817 2893,2817 2891,2823 	"/>
	<polygon style="fill:#191919;" points="467,3255 477,3257 477,3251 469,3249 	"/>
	<polygon style="fill:#191919;" points="1445,3485 1443,3491 1451,3493 1453,3487 	"/>
	<polygon style="fill:#191919;" points="1227,3565 1225,3553 1221,3551 1221,3565 	"/>
	<polygon style="fill:#191919;" points="2135,507 2131,507 2129,517 2135,519 	"/>
	<polygon style="fill:#191919;" points="3647,797 3647,793 3643,793 3631,799 3639,801 	"/>
	<polygon style="fill:#191919;" points="933,1287 935,1281 927,1281 925,1289 929,1289 	"/>
	<polygon style="fill:#191919;" points="535,2655 531,2663 537,2663 543,2657 	"/>
	<polygon style="fill:#191919;" points="425,3459 431,3461 433,3451 427,3451 	"/>
	<polygon style="fill:#191919;" points="1259,3541 1251,3541 1249,3547 1257,3549 	"/>
	<polygon style="fill:#191919;" points="2235,527 2237,525 2233,513 2229,515 2231,525 	"/>
	<polygon style="fill:#191919;" points="2065,617 2071,623 2069,611 2063,605 	"/>
	<polygon style="fill:#191919;" points="2093,865 2087,865 2085,873 2091,873 	"/>
	<polygon style="fill:#191919;" points="2039,893 2033,891 2029,897 2037,899 	"/>
	<polygon style="fill:#191919;" points="1149,1411 1153,1409 1153,1405 1143,1405 1141,1409 	"/>
	<polygon style="fill:#191919;" points="1085,1425 1085,1419 1077,1419 1075,1425 	"/>
	<polygon style="fill:#191919;" points="459,1495 453,1491 451,1499 457,1501 	"/>
	<polygon style="fill:#191919;" points="3783,2221 3787,2221 3791,2217 3791,2211 3785,2213 	"/>
	<polygon style="fill:#191919;" points="1925,505 1919,503 1917,509 1925,511 	"/>
	<polygon style="fill:#191919;" points="2479,633 2485,629 2485,623 2477,627 	"/>
	<polygon style="fill:#191919;" points="947,849 943,843 937,845 937,849 945,851 	"/>
	<polygon style="fill:#191919;" points="579,2139 575,2147 581,2149 583,2141 	"/>
	<polygon style="fill:#191919;" points="3563,2365 3565,2363 3569,2355 3561,2357 3559,2365 	"/>
	<polygon style="fill:#191919;" points="883,2381 881,2389 887,2389 889,2383 	"/>
	<polygon style="fill:#191919;" points="1083,3669 1097,3669 1097,3665 1085,3665 	"/>
	<polygon style="fill:#191919;" points="269,3851 259,3853 257,3859 261,3859 269,3855 	"/>
	<polygon style="fill:#191919;" points="2341,595 2333,593 2331,601 2335,601 	"/>
	<polygon style="fill:#191919;" points="3417,809 3427,799 3423,797 3413,807 	"/>
	<polygon style="fill:#191919;" points="913,1485 913,1481 905,1477 905,1483 	"/>
	<polygon style="fill:#191919;" points="297,2391 301,2391 305,2389 305,2383 297,2385 	"/>
	<polygon style="fill:#191919;" points="1247,3561 1257,3563 1257,3559 1247,3557 	"/>
	<polygon style="fill:#191919;" points="3655,381 3645,385 3647,391 	"/>
	<polygon style="fill:#191919;" points="877,1305 883,1307 885,1299 877,1301 	"/>
	<polygon style="fill:#191919;" points="609,2135 607,2141 615,2141 615,2135 	"/>
	<polygon style="fill:#191919;" points="3647,2353 3649,2345 3641,2347 	"/>
	<polygon style="fill:#191919;" points="3021,2729 3023,2721 3017,2721 3017,2729 	"/>
	<polygon style="fill:#191919;" points="187,3495 195,3497 199,3493 193,3491 	"/>
	<polygon style="fill:#191919;" points="3537,515 3531,517 3531,523 3537,521 	"/>
	<polygon style="fill:#191919;" points="3313,521 3317,523 3323,517 3313,517 	"/>
	<polygon style="fill:#191919;" points="2707,571 2707,563 2703,563 2701,569 	"/>
	<polygon style="fill:#191919;" points="3117,731 3111,729 3111,735 3117,737 	"/>
	<polygon style="fill:#191919;" points="2309,771 2309,765 2301,769 	"/>
	<polygon style="fill:#191919;" points="3587,889 3595,889 3595,883 3587,885 	"/>
	<polygon style="fill:#191919;" points="763,1549 771,1551 771,1547 763,1545 	"/>
	<polygon style="fill:#191919;" points="661,1879 659,1887 663,1887 665,1879 	"/>
	<polygon style="fill:#191919;" points="3217,2613 3223,2613 3225,2607 3219,2607 	"/>
	<polygon style="fill:#191919;" points="2851,2817 2851,2813 2845,2811 2843,2817 	"/>
	<rect x="429" y="3395" style="fill:#191919;" width="4" height="10"/>
	<polygon style="fill:#191919;" points="2413,3437 2413,3441 2417,3443 2421,3441 2419,3435 	"/>
	<polygon style="fill:#191919;" points="1117,3593 1111,3591 1109,3597 1113,3599 	"/>
	<polygon style="fill:#191919;" points="1097,3647 1105,3647 1105,3643 1099,3641 	"/>
	<polygon style="fill:#191919;" points="1823,387 1821,381 1815,383 1821,389 	"/>
	<polygon style="fill:#191919;" points="2677,501 2677,497 2669,497 2669,501 2673,503 	"/>
	<rect x="3279" y="553" style="fill:#191919;" width="6" height="6"/>
	<polygon style="fill:#191919;" points="3497,669 3501,669 3503,661 3499,661 	"/>
	<polygon style="fill:#191919;" points="2141,707 2145,703 2139,701 2135,705 	"/>
	<polygon style="fill:#191919;" points="711,1565 705,1563 703,1567 711,1569 	"/>
	<polygon style="fill:#191919;" points="1029,2313 1033,2313 1039,2309 1039,2305 1029,2309 	"/>
	<polygon style="fill:#191919;" points="961,2359 959,2363 967,2365 967,2361 	"/>
	<polygon style="fill:#191919;" points="2449,3053 2453,3055 2457,3053 2457,3049 2449,3049 	"/>
	<polygon style="fill:#191919;" points="2669,3105 2673,3105 2679,3097 2669,3101 	"/>
	<polygon style="fill:#191919;" points="1481,3485 1483,3479 1477,3479 1475,3483 	"/>
	<rect x="1965" y="773" style="fill:#191919;" width="4" height="8"/>
	<polygon style="fill:#191919;" points="1513,1139 1511,1133 1507,1141 1511,1141 	"/>
	<polygon style="fill:#191919;" points="973,1263 965,1265 965,1269 971,1269 	"/>
	<polygon style="fill:#191919;" points="441,2177 441,2171 437,2171 435,2177 	"/>
	<polygon style="fill:#191919;" points="1085,2275 1079,2277 1081,2283 	"/>
	<polygon style="fill:#191919;" points="3589,2329 3587,2335 3591,2335 3595,2331 	"/>
	<polygon style="fill:#191919;" points="473,2677 473,2683 477,2683 479,2677 	"/>
	<polygon style="fill:#191919;" points="2537,3007 2539,3001 2533,3001 2533,3007 	"/>
	<polygon style="fill:#191919;" points="3237,617 3239,613 3233,611 3233,617 	"/>
	<polygon style="fill:#191919;" points="2497,617 2501,621 2505,615 	"/>
	<polygon style="fill:#191919;" points="3517,649 3513,649 3513,655 3517,657 	"/>
	<polygon style="fill:#191919;" points="3091,723 3097,725 3097,721 3091,719 	"/>
	<polygon style="fill:#191919;" points="2029,741 2025,739 2023,745 2029,745 	"/>
	<polygon style="fill:#191919;" points="1431,1175 1425,1177 1425,1181 1431,1181 	"/>
	<polygon style="fill:#191919;" points="907,1295 911,1295 913,1289 909,1289 	"/>
	<polygon style="fill:#191919;" points="929,1491 931,1489 923,1487 923,1491 	"/>
	<polygon style="fill:#191919;" points="645,2019 647,2027 649,2019 	"/>
	<polygon style="fill:#191919;" points="1037,2387 1041,2387 1043,2383 1037,2381 	"/>
	<polygon style="fill:#191919;" points="937,2445 943,2445 943,2441 939,2439 	"/>
	<polygon style="fill:#191919;" points="1137,3589 1129,3591 1137,3593 	"/>
	<polygon style="fill:#191919;" points="1705,3667 1709,3667 1711,3663 1705,3661 	"/>
	<polygon style="fill:#191919;" points="409,3747 407,3751 413,3753 413,3747 	"/>
	<polygon style="fill:#191919;" points="1297,3817 1301,3813 1291,3815 	"/>
	<rect x="653" y="1153" style="fill:#191919;" width="4" height="6"/>
	<rect x="931" y="1217" style="fill:#191919;" width="6" height="4"/>
	<polygon style="fill:#191919;" points="815,1271 809,1273 813,1277 	"/>
	<rect x="1187" y="1381" style="fill:#191919;" width="6" height="4"/>
	<rect x="687" y="2197" style="fill:#191919;" width="6" height="4"/>
	<polygon style="fill:#191919;" points="1005,2413 1001,2415 1007,2419 1009,2417 	"/>
	<polygon style="fill:#191919;" points="3475,2531 3479,2529 3479,2525 3475,2525 	"/>
	<polygon style="fill:#191919;" points="661,2599 663,2597 659,2593 657,2599 	"/>
	<rect x="509" y="3389" style="fill:#191919;" width="6" height="4"/>
	<polygon style="fill:#191919;" points="1245,3743 1251,3745 1253,3741 	"/>
	<polygon style="fill:#191919;" points="2413,417 2409,417 2409,421 2413,423 	"/>
	<polygon style="fill:#191919;" points="1925,765 1925,759 1921,759 1921,763 	"/>
	<polygon style="fill:#191919;" points="937,1263 935,1257 933,1263 	"/>
	<polygon style="fill:#191919;" points="593,1447 587,1445 587,1449 591,1449 	"/>
	<polygon style="fill:#191919;" points="579,1525 577,1531 581,1531 	"/>
	<polygon style="fill:#191919;" points="391,2051 391,2047 385,2049 	"/>
	<polygon style="fill:#191919;" points="3485,2151 3481,2151 3483,2157 	"/>
	<polygon style="fill:#191919;" points="553,2305 547,2307 553,2309 	"/>
	<polygon style="fill:#191919;" points="1055,2345 1053,2351 1057,2351 	"/>
	<polygon style="fill:#191919;" points="491,3345 491,3341 485,3343 	"/>
	<polygon style="fill:#191919;" points="1477,3457 1475,3463 1479,3463 	"/>
	<polygon style="fill:#191919;" points="1251,3601 1245,3603 1251,3605 	"/>
	<polygon style="fill:#191919;" points="1763,3613 1763,3609 1757,3611 	"/>
	<polygon style="fill:#191919;" points="375,3913 375,3909 369,3911 	"/>
	<rect x="3405" y="297" style="fill:#191919;" width="4" height="4"/>
	<polygon style="fill:#191919;" points="2699,429 2693,429 2697,431 	"/>
	<polygon style="fill:#191919;" points="3467,595 3469,593 3463,593 	"/>
	<polygon style="fill:#191919;" points="1931,649 1929,653 1933,655 	"/>
	<polygon style="fill:#191919;" points="1479,1147 1473,1147 1479,1149 	"/>
	<rect x="833" y="1827" style="fill:#191919;" width="4" height="4"/>
	<polygon style="fill:#191919;" points="285,2013 289,2011 283,2009 	"/>
	<rect x="239" y="2025" style="fill:#191919;" width="4" height="4"/>
	<polygon style="fill:#191919;" points="3717,2273 3719,2271 3713,2271 	"/>
	<rect x="855" y="2341" style="fill:#191919;" width="4" height="4"/>
	<polygon style="fill:#191919;" points="1023,2417 1023,2415 1017,2415 	"/>
	<rect x="3273" y="2583" style="fill:#191919;" width="4" height="4"/>
	<polygon style="fill:#191919;" points="3259,2591 3253,2593 3259,2595 	"/>
	<rect x="221" y="3417" style="fill:#191919;" width="4" height="4"/>
	<rect x="1129" y="3639" style="fill:#191919;" width="4" height="4"/>
	<rect x="1113" y="3641" style="fill:#191919;" width="4" height="4"/>
	<rect x="971" y="3665" style="fill:#191919;" width="4" height="4"/>
	<polygon style="fill:#191919;" points="263,3897 263,3895 257,3895 	"/>
	<polygon style="fill:#191919;" points="3401,253 3397,251 3399,255 	"/>
	<polygon style="fill:#191919;" points="2731,407 2727,405 2729,409 	"/>
	<polygon style="fill:#191919;" points="3301,623 3297,621 3299,625 	"/>
	<polygon style="fill:#191919;" points="3435,791 3431,789 3433,793 	"/>
	<polygon style="fill:#191919;" points="949,1277 949,1273 945,1275 	"/>
	<polygon style="fill:#191919;" points="3521,2119 3517,2117 3519,2121 	"/>
	<polygon style="fill:#191919;" points="863,2415 863,2411 859,2413 	"/>
	<polygon style="fill:#191919;" points="807,2485 809,2489 811,2487 	"/>
	<polygon style="fill:#191919;" points="793,2509 789,2511 793,2513 	"/>
	<polygon style="fill:#191919;" points="673,2591 669,2589 671,2593 	"/>
	<polygon style="fill:#191919;" points="2741,2911 2737,2911 2741,2915 	"/>
	<polygon style="fill:#191919;" points="2649,2969 2645,2969 2649,2973 	"/>
	<polygon style="fill:#191919;" points="489,3361 493,3361 491,3357 	"/>
	<polygon style="fill:#191919;" points="497,3521 501,3525 501,3521 	"/>
	<polygon style="fill:#191919;" points="1443,3687 1447,3689 1447,3685 	"/>
</g>
</svg>
